M48
; DRILL file KiCad 10.0.1 date 2026-09-07T13:57:51
; FORMAT={-:-/ absolute / metric / decimal}
; #@! TF.CreationDate,2026-09-07T13:57:51+08:00
; #@! TF.GenerationSoftware,Kicad,Pcbnew,10.0.1
; #@! TF.FileFunction,Plated,1,4,PTH
FMAT,2
METRIC
; #@! TA.AperFunction,Plated,PTH,ViaDrill
T1C0.300
; #@! TA.AperFunction,Plated,PTH,ComponentDrill
T2C0.600
%
G90
G05
T1
X6.7Y32.7
X6.7Y15.2
X6.7Y11.7
X6.7Y8.2
X6.966Y4.434
X7.2Y18.7
X7.5Y37.0
X8.0Y30.0
X8.0Y26.5
X8.0Y23.0
X8.86Y23.037
X9.5Y21.248
X9.528Y35.25
X10.362Y36.05
X10.362Y32.55
X10.362Y29.05
X10.362Y25.55
X10.362Y22.05
X10.362Y18.55
X10.362Y15.05
X10.362Y11.55
X10.362Y8.05
X11.575Y8.075
X12.745Y21.157
X12.808Y24.357
X13.012Y10.293
X13.447Y27.518
X13.48Y32.7
X13.532Y6.963
X13.641Y25.25
X13.662Y14.82
X13.808Y38.414
X13.94Y25.95
X14.046Y22.434
X14.046Y18.934
X14.201Y28.309
X14.28Y37.0
X14.28Y30.0
X14.28Y16.0
X14.28Y12.5
X14.28Y9.0
X16.28Y30.2
X16.566Y34.546
X17.45Y9.48
X17.48Y14.4
X18.15Y29.875
X18.262Y23.914
X18.281Y20.625
X18.75Y16.138
X19.201Y27.416
X19.31Y35.2
X19.553Y12.711
X19.802Y11.768
X20.25Y29.862
X20.25Y16.138
X20.28Y15.2
X20.28Y13.95
X20.4Y33.14
X20.662Y9.0
X20.75Y27.462
X21.181Y29.957
X21.25Y16.138
X21.28Y32.3
X21.28Y31.0
X21.777Y15.586
X21.8Y14.475
X22.5Y1.375
X22.538Y12.191
X22.75Y27.462
X22.75Y16.112
X23.712Y40.862
X23.75Y27.462
X24.28Y32.3
X24.28Y31.0
X24.5Y14.65
X24.55Y9.48
X24.862Y23.75
X25.05Y17.338
X25.2Y20.332
X25.3Y2.175
X25.322Y16.059
X25.45Y21.175
X25.462Y23.25
X25.465Y22.014
X25.55Y28.662
X26.097Y25.316
X26.45Y11.98
X26.737Y6.962
X26.78Y32.3
X27.228Y18.684
X27.23Y15.2
X27.28Y31.0
X27.28Y13.95
X27.82Y14.493
X27.862Y21.75
X28.866Y3.441
X29.107Y24.25
X29.25Y26.48
X29.663Y11.5
X29.676Y19.04
X29.731Y24.967
X29.745Y36.271
X30.247Y37.7
X30.644Y24.133
X31.393Y25.13
X31.466Y20.069
X31.8Y28.5
X32.2Y40.7
X32.318Y30.525
X32.387Y15.438
X32.387Y1.58
X33.3Y23.0
X33.46Y5.47
X33.466Y19.63
X33.5Y8.0
X33.5Y3.51
X33.537Y24.792
X33.55Y12.48
X33.976Y20.878
X34.15Y24.325
X34.766Y9.684
X34.825Y20.675
X34.95Y14.26
X34.984Y7.579
X35.251Y28.133
X35.28Y3.05
X35.893Y15.27
X36.325Y33.5
X36.562Y11.66
X36.725Y14.825
X36.8Y27.73
X36.925Y25.575
X37.03Y8.898
X37.108Y34.059
X37.173Y23.088
X37.75Y11.262
X37.975Y10.45
X37.983Y23.834
X38.023Y8.425
X38.15Y13.85
X38.15Y13.15
X38.303Y37.541
X38.35Y34.9
X38.559Y32.8
X38.8Y27.275
X38.85Y13.85
X38.85Y13.15
X38.875Y32.025
X38.964Y26.512
X39.01Y17.1
X39.051Y9.416
X39.441Y34.245
X39.845Y17.4
X40.05Y12.062
X40.15Y5.992
X40.687Y28.199
X40.837Y12.829
X40.997Y14.177
X41.0Y29.3
X41.258Y19.135
X41.37Y23.712
X41.4Y40.7
X41.76Y39.887
X41.81Y16.3
X42.248Y38.028
X42.25Y38.875
X42.5Y13.297
X42.85Y8.145
X43.057Y37.501
X43.9Y37.5
X43.92Y3.05
X44.0Y25.51
X44.0Y23.48
X44.35Y32.3
X44.35Y30.5
X44.4Y33.2
X44.4Y31.4
X44.4Y29.6
T2
X34.48Y6.87G85X34.48Y5.77
G05
X34.48Y2.44G85X34.48Y1.84
G05
X43.12Y6.87G85X43.12Y5.77
G05
X43.12Y2.44G85X43.12Y1.84
G05
M30
