#VRML V2.0 utf8
# KiCad visual envelope; coordinates in 0.1 inch units.
Shape { appearance Appearance { material Material { diffuseColor .67 .69 .71 specularColor .8 .8 .8 shininess .7 } } geometry IndexedFaceSet { solid FALSE coord Coordinate { point [ 1.14173 -1.43701 0.0314961, 1.26232 -1.43701 0.0433729, 1.37827 -1.43701 0.0785469, 1.48514 -1.43701 0.135666, 1.5788 -1.43701 0.212536, 1.65567 -1.43701 0.306203, 1.71279 -1.43701 0.413066, 1.74797 -1.43701 0.529019, 1.75984 -1.43701 0.649606, 1.74797 -1.43701 0.770194, 1.71279 -1.43701 0.886147, 1.65567 -1.43701 0.99301, 1.5788 -1.43701 1.08668, 1.48514 -1.43701 1.16355, 1.37827 -1.43701 1.22067, 1.26232 -1.43701 1.25584, 1.14173 -1.43701 1.26772, -1.14173 -1.43701 1.26772, -1.26232 -1.43701 1.25584, -1.37827 -1.43701 1.22067, -1.48514 -1.43701 1.16355, -1.5788 -1.43701 1.08668, -1.65567 -1.43701 0.99301, -1.71279 -1.43701 0.886147, -1.74797 -1.43701 0.770194, -1.75984 -1.43701 0.649606, -1.74797 -1.43701 0.529019, -1.71279 -1.43701 0.413066, -1.65567 -1.43701 0.306203, -1.5788 -1.43701 0.212536, -1.48514 -1.43701 0.135666, -1.37827 -1.43701 0.0785469, -1.26232 -1.43701 0.0433729, -1.14173 -1.43701 0.0314961, 1.14173 1.43701 0.0314961, 1.26232 1.43701 0.0433729, 1.37827 1.43701 0.0785469, 1.48514 1.43701 0.135666, 1.5788 1.43701 0.212536, 1.65567 1.43701 0.306203, 1.71279 1.43701 0.413066, 1.74797 1.43701 0.529019, 1.75984 1.43701 0.649606, 1.74797 1.43701 0.770194, 1.71279 1.43701 0.886147, 1.65567 1.43701 0.99301, 1.5788 1.43701 1.08668, 1.48514 1.43701 1.16355, 1.37827 1.43701 1.22067, 1.26232 1.43701 1.25584, 1.14173 1.43701 1.26772, -1.14173 1.43701 1.26772, -1.26232 1.43701 1.25584, -1.37827 1.43701 1.22067, -1.48514 1.43701 1.16355, -1.5788 1.43701 1.08668, -1.65567 1.43701 0.99301, -1.71279 1.43701 0.886147, -1.74797 1.43701 0.770194, -1.75984 1.43701 0.649606, -1.74797 1.43701 0.529019, -1.71279 1.43701 0.413066, -1.65567 1.43701 0.306203, -1.5788 1.43701 0.212536, -1.48514 1.43701 0.135666, -1.37827 1.43701 0.0785469, -1.26232 1.43701 0.0433729, -1.14173 1.43701 0.0314961, 1.14173 -1.43701 0.129921, 1.24312 -1.43701 0.139907, 1.34061 -1.43701 0.16948, 1.43045 -1.43701 0.217504, 1.50921 -1.43701 0.282133, 1.57383 -1.43701 0.360885, 1.62186 -1.43701 0.450731, 1.65143 -1.43701 0.548221, 1.66142 -1.43701 0.649606, 1.65143 -1.43701 0.750992, 1.62186 -1.43701 0.848481, 1.57383 -1.43701 0.938328, 1.50921 -1.43701 1.01708, 1.43045 -1.43701 1.08171, 1.34061 -1.43701 1.12973, 1.24312 -1.43701 1.15931, 1.14173 -1.43701 1.16929, -1.14173 -1.43701 1.16929, -1.24312 -1.43701 1.15931, -1.34061 -1.43701 1.12973, -1.43045 -1.43701 1.08171, -1.50921 -1.43701 1.01708, -1.57383 -1.43701 0.938328, -1.62186 -1.43701 0.848481, -1.65143 -1.43701 0.750992, -1.66142 -1.43701 0.649606, -1.65143 -1.43701 0.548221, -1.62186 -1.43701 0.450731, -1.57383 -1.43701 0.360885, -1.50921 -1.43701 0.282133, -1.43045 -1.43701 0.217504, -1.34061 -1.43701 0.16948, -1.24312 -1.43701 0.139907, -1.14173 -1.43701 0.129921, 1.14173 1.43701 0.129921, 1.24312 1.43701 0.139907, 1.34061 1.43701 0.16948, 1.43045 1.43701 0.217504, 1.50921 1.43701 0.282133, 1.57383 1.43701 0.360885, 1.62186 1.43701 0.450731, 1.65143 1.43701 0.548221, 1.66142 1.43701 0.649606, 1.65143 1.43701 0.750992, 1.62186 1.43701 0.848481, 1.57383 1.43701 0.938328, 1.50921 1.43701 1.01708, 1.43045 1.43701 1.08171, 1.34061 1.43701 1.12973, 1.24312 1.43701 1.15931, 1.14173 1.43701 1.16929, -1.14173 1.43701 1.16929, -1.24312 1.43701 1.15931, -1.34061 1.43701 1.12973, -1.43045 1.43701 1.08171, -1.50921 1.43701 1.01708, -1.57383 1.43701 0.938328, -1.62186 1.43701 0.848481, -1.65143 1.43701 0.750992, -1.66142 1.43701 0.649606, -1.65143 1.43701 0.548221, -1.62186 1.43701 0.450731, -1.57383 1.43701 0.360885, -1.50921 1.43701 0.282133, -1.43045 1.43701 0.217504, -1.34061 1.43701 0.16948, -1.24312 1.43701 0.139907, -1.14173 1.43701 0.129921 ] } coordIndex [ 34 35 1 0 -1, 69 103 102 68 -1, 1 69 68 0 -1, 102 103 35 34 -1, 35 36 2 1 -1, 70 104 103 69 -1, 2 70 69 1 -1, 103 104 36 35 -1, 36 37 3 2 -1, 71 105 104 70 -1, 3 71 70 2 -1, 104 105 37 36 -1, 37 38 4 3 -1, 72 106 105 71 -1, 4 72 71 3 -1, 105 106 38 37 -1, 38 39 5 4 -1, 73 107 106 72 -1, 5 73 72 4 -1, 106 107 39 38 -1, 39 40 6 5 -1, 74 108 107 73 -1, 6 74 73 5 -1, 107 108 40 39 -1, 40 41 7 6 -1, 75 109 108 74 -1, 7 75 74 6 -1, 108 109 41 40 -1, 41 42 8 7 -1, 76 110 109 75 -1, 8 76 75 7 -1, 109 110 42 41 -1, 42 43 9 8 -1, 77 111 110 76 -1, 9 77 76 8 -1, 110 111 43 42 -1, 43 44 10 9 -1, 78 112 111 77 -1, 10 78 77 9 -1, 111 112 44 43 -1, 44 45 11 10 -1, 79 113 112 78 -1, 11 79 78 10 -1, 112 113 45 44 -1, 45 46 12 11 -1, 80 114 113 79 -1, 12 80 79 11 -1, 113 114 46 45 -1, 46 47 13 12 -1, 81 115 114 80 -1, 13 81 80 12 -1, 114 115 47 46 -1, 47 48 14 13 -1, 82 116 115 81 -1, 14 82 81 13 -1, 115 116 48 47 -1, 48 49 15 14 -1, 83 117 116 82 -1, 15 83 82 14 -1, 116 117 49 48 -1, 49 50 16 15 -1, 84 118 117 83 -1, 16 84 83 15 -1, 117 118 50 49 -1, 50 51 17 16 -1, 85 119 118 84 -1, 17 85 84 16 -1, 118 119 51 50 -1, 51 52 18 17 -1, 86 120 119 85 -1, 18 86 85 17 -1, 119 120 52 51 -1, 52 53 19 18 -1, 87 121 120 86 -1, 19 87 86 18 -1, 120 121 53 52 -1, 53 54 20 19 -1, 88 122 121 87 -1, 20 88 87 19 -1, 121 122 54 53 -1, 54 55 21 20 -1, 89 123 122 88 -1, 21 89 88 20 -1, 122 123 55 54 -1, 55 56 22 21 -1, 90 124 123 89 -1, 22 90 89 21 -1, 123 124 56 55 -1, 56 57 23 22 -1, 91 125 124 90 -1, 23 91 90 22 -1, 124 125 57 56 -1, 57 58 24 23 -1, 92 126 125 91 -1, 24 92 91 23 -1, 125 126 58 57 -1, 58 59 25 24 -1, 93 127 126 92 -1, 25 93 92 24 -1, 126 127 59 58 -1, 59 60 26 25 -1, 94 128 127 93 -1, 26 94 93 25 -1, 127 128 60 59 -1, 60 61 27 26 -1, 95 129 128 94 -1, 27 95 94 26 -1, 128 129 61 60 -1, 61 62 28 27 -1, 96 130 129 95 -1, 28 96 95 27 -1, 129 130 62 61 -1, 62 63 29 28 -1, 97 131 130 96 -1, 29 97 96 28 -1, 130 131 63 62 -1, 63 64 30 29 -1, 98 132 131 97 -1, 30 98 97 29 -1, 131 132 64 63 -1, 64 65 31 30 -1, 99 133 132 98 -1, 31 99 98 30 -1, 132 133 65 64 -1, 65 66 32 31 -1, 100 134 133 99 -1, 32 100 99 31 -1, 133 134 66 65 -1, 66 67 33 32 -1, 101 135 134 100 -1, 33 101 100 32 -1, 134 135 67 66 -1, 67 34 0 33 -1, 68 102 135 101 -1, 0 68 101 33 -1, 135 102 34 67 -1 ] } }
Transform { translation 0 0 1.20079 children [ Shape { appearance Appearance { material Material { diffuseColor 0.62 0.64 0.66 specularColor .7 .7 .7 shininess .65 } } geometry Box { size 3.30709 2.87402 0.0787402 } } ] }
Transform { translation -1.70079 0 0.649606 children [ Shape { appearance Appearance { material Material { diffuseColor 0.62 0.64 0.66 specularColor .7 .7 .7 shininess .65 } } geometry Box { size 0.0984252 2.87402 0.964567 } } ] }
Transform { translation 1.70079 0 0.649606 children [ Shape { appearance Appearance { material Material { diffuseColor 0.62 0.64 0.66 specularColor .7 .7 .7 shininess .65 } } geometry Box { size 0.0984252 2.87402 0.964567 } } ] }
Transform { translation 0 0.0787402 0.649606 children [ Shape { appearance Appearance { material Material { diffuseColor 0.065 0.065 0.07 specularColor .1 .1 .1 shininess .15 } } geometry Box { size 2.44094 2.28346 0.23622 } } ] }
Transform { translation 0 1.37795 0.649606 children [ Shape { appearance Appearance { material Material { diffuseColor 0.08 0.08 0.09 specularColor .1 .1 .1 shininess .15 } } geometry Box { size 3.18898 0.11811 0.944882 } } ] }
Transform { translation -1.08268 -0.472441 0.777559 children [ Shape { appearance Appearance { material Material { diffuseColor 0.72 0.54 0.19 specularColor .7 .7 .7 shininess .65 } } geometry Box { size 0.0787402 1.53543 0.0177165 } } ] }
Transform { translation -0.885827 -0.472441 0.777559 children [ Shape { appearance Appearance { material Material { diffuseColor 0.72 0.54 0.19 specularColor .7 .7 .7 shininess .65 } } geometry Box { size 0.0787402 1.53543 0.0177165 } } ] }
Transform { translation -0.688976 -0.472441 0.777559 children [ Shape { appearance Appearance { material Material { diffuseColor 0.72 0.54 0.19 specularColor .7 .7 .7 shininess .65 } } geometry Box { size 0.0787402 1.53543 0.0177165 } } ] }
Transform { translation -0.492126 -0.472441 0.777559 children [ Shape { appearance Appearance { material Material { diffuseColor 0.72 0.54 0.19 specularColor .7 .7 .7 shininess .65 } } geometry Box { size 0.0787402 1.53543 0.0177165 } } ] }
Transform { translation -0.295276 -0.472441 0.777559 children [ Shape { appearance Appearance { material Material { diffuseColor 0.72 0.54 0.19 specularColor .7 .7 .7 shininess .65 } } geometry Box { size 0.0787402 1.53543 0.0177165 } } ] }
Transform { translation -0.0984252 -0.472441 0.777559 children [ Shape { appearance Appearance { material Material { diffuseColor 0.72 0.54 0.19 specularColor .7 .7 .7 shininess .65 } } geometry Box { size 0.0787402 1.53543 0.0177165 } } ] }
Transform { translation 0.0984252 -0.472441 0.777559 children [ Shape { appearance Appearance { material Material { diffuseColor 0.72 0.54 0.19 specularColor .7 .7 .7 shininess .65 } } geometry Box { size 0.0787402 1.53543 0.0177165 } } ] }
Transform { translation 0.295276 -0.472441 0.777559 children [ Shape { appearance Appearance { material Material { diffuseColor 0.72 0.54 0.19 specularColor .7 .7 .7 shininess .65 } } geometry Box { size 0.0787402 1.53543 0.0177165 } } ] }
Transform { translation 0.492126 -0.472441 0.777559 children [ Shape { appearance Appearance { material Material { diffuseColor 0.72 0.54 0.19 specularColor .7 .7 .7 shininess .65 } } geometry Box { size 0.0787402 1.53543 0.0177165 } } ] }
Transform { translation 0.688976 -0.472441 0.777559 children [ Shape { appearance Appearance { material Material { diffuseColor 0.72 0.54 0.19 specularColor .7 .7 .7 shininess .65 } } geometry Box { size 0.0787402 1.53543 0.0177165 } } ] }
Transform { translation 0.885827 -0.472441 0.777559 children [ Shape { appearance Appearance { material Material { diffuseColor 0.72 0.54 0.19 specularColor .7 .7 .7 shininess .65 } } geometry Box { size 0.0787402 1.53543 0.0177165 } } ] }
Transform { translation 1.08268 -0.472441 0.777559 children [ Shape { appearance Appearance { material Material { diffuseColor 0.72 0.54 0.19 specularColor .7 .7 .7 shininess .65 } } geometry Box { size 0.0787402 1.53543 0.0177165 } } ] }
