#VRML V2.0 utf8
# KiCad visual envelope; coordinates in 0.1 inch units.
Transform { translation 0 0 0.137795 children [ Shape { appearance Appearance { material Material { diffuseColor 0.08 0.23 0.1 specularColor .1 .1 .1 shininess .15 } } geometry Box { size 3.93701 6.29921 0.275591 } } ] }
Transform { translation 0 -0.629921 0.570866 children [ Shape { appearance Appearance { material Material { diffuseColor 0.62 0.64 0.66 specularColor .7 .7 .7 shininess .65 } } geometry Box { size 3.38583 4.48819 0.590551 } } ] }
Transform { translation 0 2.69685 0.472441 children [ Shape { appearance Appearance { material Material { diffuseColor 0.78 0.73 0.58 specularColor .1 .1 .1 shininess .15 } } geometry Box { size 3.14961 0.393701 0.393701 } } ] }
Transform { translation -1.94882 -2.55906 0.145669 children [ Shape { appearance Appearance { material Material { diffuseColor 0.72 0.54 0.19 specularColor .7 .7 .7 shininess .65 } } geometry Box { size 0.0472441 0.19685 0.275591 } } ] }
Transform { translation 1.94882 -2.55906 0.145669 children [ Shape { appearance Appearance { material Material { diffuseColor 0.72 0.54 0.19 specularColor .7 .7 .7 shininess .65 } } geometry Box { size 0.0472441 0.19685 0.275591 } } ] }
Transform { translation -1.94882 -2.24409 0.145669 children [ Shape { appearance Appearance { material Material { diffuseColor 0.72 0.54 0.19 specularColor .7 .7 .7 shininess .65 } } geometry Box { size 0.0472441 0.19685 0.275591 } } ] }
Transform { translation 1.94882 -2.24409 0.145669 children [ Shape { appearance Appearance { material Material { diffuseColor 0.72 0.54 0.19 specularColor .7 .7 .7 shininess .65 } } geometry Box { size 0.0472441 0.19685 0.275591 } } ] }
Transform { translation -1.94882 -1.92913 0.145669 children [ Shape { appearance Appearance { material Material { diffuseColor 0.72 0.54 0.19 specularColor .7 .7 .7 shininess .65 } } geometry Box { size 0.0472441 0.19685 0.275591 } } ] }
Transform { translation 1.94882 -1.92913 0.145669 children [ Shape { appearance Appearance { material Material { diffuseColor 0.72 0.54 0.19 specularColor .7 .7 .7 shininess .65 } } geometry Box { size 0.0472441 0.19685 0.275591 } } ] }
Transform { translation -1.94882 -1.61417 0.145669 children [ Shape { appearance Appearance { material Material { diffuseColor 0.72 0.54 0.19 specularColor .7 .7 .7 shininess .65 } } geometry Box { size 0.0472441 0.19685 0.275591 } } ] }
Transform { translation 1.94882 -1.61417 0.145669 children [ Shape { appearance Appearance { material Material { diffuseColor 0.72 0.54 0.19 specularColor .7 .7 .7 shininess .65 } } geometry Box { size 0.0472441 0.19685 0.275591 } } ] }
Transform { translation -1.94882 -1.29921 0.145669 children [ Shape { appearance Appearance { material Material { diffuseColor 0.72 0.54 0.19 specularColor .7 .7 .7 shininess .65 } } geometry Box { size 0.0472441 0.19685 0.275591 } } ] }
Transform { translation 1.94882 -1.29921 0.145669 children [ Shape { appearance Appearance { material Material { diffuseColor 0.72 0.54 0.19 specularColor .7 .7 .7 shininess .65 } } geometry Box { size 0.0472441 0.19685 0.275591 } } ] }
Transform { translation -1.94882 -0.984252 0.145669 children [ Shape { appearance Appearance { material Material { diffuseColor 0.72 0.54 0.19 specularColor .7 .7 .7 shininess .65 } } geometry Box { size 0.0472441 0.19685 0.275591 } } ] }
Transform { translation 1.94882 -0.984252 0.145669 children [ Shape { appearance Appearance { material Material { diffuseColor 0.72 0.54 0.19 specularColor .7 .7 .7 shininess .65 } } geometry Box { size 0.0472441 0.19685 0.275591 } } ] }
Transform { translation -1.94882 -0.669291 0.145669 children [ Shape { appearance Appearance { material Material { diffuseColor 0.72 0.54 0.19 specularColor .7 .7 .7 shininess .65 } } geometry Box { size 0.0472441 0.19685 0.275591 } } ] }
Transform { translation 1.94882 -0.669291 0.145669 children [ Shape { appearance Appearance { material Material { diffuseColor 0.72 0.54 0.19 specularColor .7 .7 .7 shininess .65 } } geometry Box { size 0.0472441 0.19685 0.275591 } } ] }
Transform { translation -1.94882 -0.354331 0.145669 children [ Shape { appearance Appearance { material Material { diffuseColor 0.72 0.54 0.19 specularColor .7 .7 .7 shininess .65 } } geometry Box { size 0.0472441 0.19685 0.275591 } } ] }
Transform { translation 1.94882 -0.354331 0.145669 children [ Shape { appearance Appearance { material Material { diffuseColor 0.72 0.54 0.19 specularColor .7 .7 .7 shininess .65 } } geometry Box { size 0.0472441 0.19685 0.275591 } } ] }
Transform { translation -1.94882 -0.0393701 0.145669 children [ Shape { appearance Appearance { material Material { diffuseColor 0.72 0.54 0.19 specularColor .7 .7 .7 shininess .65 } } geometry Box { size 0.0472441 0.19685 0.275591 } } ] }
Transform { translation 1.94882 -0.0393701 0.145669 children [ Shape { appearance Appearance { material Material { diffuseColor 0.72 0.54 0.19 specularColor .7 .7 .7 shininess .65 } } geometry Box { size 0.0472441 0.19685 0.275591 } } ] }
Transform { translation -1.94882 0.275591 0.145669 children [ Shape { appearance Appearance { material Material { diffuseColor 0.72 0.54 0.19 specularColor .7 .7 .7 shininess .65 } } geometry Box { size 0.0472441 0.19685 0.275591 } } ] }
Transform { translation 1.94882 0.275591 0.145669 children [ Shape { appearance Appearance { material Material { diffuseColor 0.72 0.54 0.19 specularColor .7 .7 .7 shininess .65 } } geometry Box { size 0.0472441 0.19685 0.275591 } } ] }
Transform { translation -1.94882 0.590551 0.145669 children [ Shape { appearance Appearance { material Material { diffuseColor 0.72 0.54 0.19 specularColor .7 .7 .7 shininess .65 } } geometry Box { size 0.0472441 0.19685 0.275591 } } ] }
Transform { translation 1.94882 0.590551 0.145669 children [ Shape { appearance Appearance { material Material { diffuseColor 0.72 0.54 0.19 specularColor .7 .7 .7 shininess .65 } } geometry Box { size 0.0472441 0.19685 0.275591 } } ] }
Transform { translation -1.94882 0.905512 0.145669 children [ Shape { appearance Appearance { material Material { diffuseColor 0.72 0.54 0.19 specularColor .7 .7 .7 shininess .65 } } geometry Box { size 0.0472441 0.19685 0.275591 } } ] }
Transform { translation 1.94882 0.905512 0.145669 children [ Shape { appearance Appearance { material Material { diffuseColor 0.72 0.54 0.19 specularColor .7 .7 .7 shininess .65 } } geometry Box { size 0.0472441 0.19685 0.275591 } } ] }
Transform { translation -1.94882 1.22047 0.145669 children [ Shape { appearance Appearance { material Material { diffuseColor 0.72 0.54 0.19 specularColor .7 .7 .7 shininess .65 } } geometry Box { size 0.0472441 0.19685 0.275591 } } ] }
Transform { translation 1.94882 1.22047 0.145669 children [ Shape { appearance Appearance { material Material { diffuseColor 0.72 0.54 0.19 specularColor .7 .7 .7 shininess .65 } } geometry Box { size 0.0472441 0.19685 0.275591 } } ] }
Transform { translation -1.94882 1.53543 0.145669 children [ Shape { appearance Appearance { material Material { diffuseColor 0.72 0.54 0.19 specularColor .7 .7 .7 shininess .65 } } geometry Box { size 0.0472441 0.19685 0.275591 } } ] }
Transform { translation 1.94882 1.53543 0.145669 children [ Shape { appearance Appearance { material Material { diffuseColor 0.72 0.54 0.19 specularColor .7 .7 .7 shininess .65 } } geometry Box { size 0.0472441 0.19685 0.275591 } } ] }
Transform { translation -1.73228 -3.12992 0.145669 children [ Shape { appearance Appearance { material Material { diffuseColor 0.72 0.54 0.19 specularColor .7 .7 .7 shininess .65 } } geometry Box { size 0.19685 0.0472441 0.275591 } } ] }
Transform { translation -1.41732 -3.12992 0.145669 children [ Shape { appearance Appearance { material Material { diffuseColor 0.72 0.54 0.19 specularColor .7 .7 .7 shininess .65 } } geometry Box { size 0.19685 0.0472441 0.275591 } } ] }
Transform { translation -1.10236 -3.12992 0.145669 children [ Shape { appearance Appearance { material Material { diffuseColor 0.72 0.54 0.19 specularColor .7 .7 .7 shininess .65 } } geometry Box { size 0.19685 0.0472441 0.275591 } } ] }
Transform { translation -0.787402 -3.12992 0.145669 children [ Shape { appearance Appearance { material Material { diffuseColor 0.72 0.54 0.19 specularColor .7 .7 .7 shininess .65 } } geometry Box { size 0.19685 0.0472441 0.275591 } } ] }
Transform { translation -0.472441 -3.12992 0.145669 children [ Shape { appearance Appearance { material Material { diffuseColor 0.72 0.54 0.19 specularColor .7 .7 .7 shininess .65 } } geometry Box { size 0.19685 0.0472441 0.275591 } } ] }
Transform { translation -0.15748 -3.12992 0.145669 children [ Shape { appearance Appearance { material Material { diffuseColor 0.72 0.54 0.19 specularColor .7 .7 .7 shininess .65 } } geometry Box { size 0.19685 0.0472441 0.275591 } } ] }
Transform { translation 0.15748 -3.12992 0.145669 children [ Shape { appearance Appearance { material Material { diffuseColor 0.72 0.54 0.19 specularColor .7 .7 .7 shininess .65 } } geometry Box { size 0.19685 0.0472441 0.275591 } } ] }
Transform { translation 0.472441 -3.12992 0.145669 children [ Shape { appearance Appearance { material Material { diffuseColor 0.72 0.54 0.19 specularColor .7 .7 .7 shininess .65 } } geometry Box { size 0.19685 0.0472441 0.275591 } } ] }
Transform { translation 0.787402 -3.12992 0.145669 children [ Shape { appearance Appearance { material Material { diffuseColor 0.72 0.54 0.19 specularColor .7 .7 .7 shininess .65 } } geometry Box { size 0.19685 0.0472441 0.275591 } } ] }
Transform { translation 1.10236 -3.12992 0.145669 children [ Shape { appearance Appearance { material Material { diffuseColor 0.72 0.54 0.19 specularColor .7 .7 .7 shininess .65 } } geometry Box { size 0.19685 0.0472441 0.275591 } } ] }
Transform { translation 1.41732 -3.12992 0.145669 children [ Shape { appearance Appearance { material Material { diffuseColor 0.72 0.54 0.19 specularColor .7 .7 .7 shininess .65 } } geometry Box { size 0.19685 0.0472441 0.275591 } } ] }
Transform { translation 1.73228 -3.12992 0.145669 children [ Shape { appearance Appearance { material Material { diffuseColor 0.72 0.54 0.19 specularColor .7 .7 .7 shininess .65 } } geometry Box { size 0.19685 0.0472441 0.275591 } } ] }
