%TF.GenerationSoftware,KiCad,Pcbnew,10.0.1*%
%TF.CreationDate,2026-09-07T13:57:51+08:00*%
%TF.ProjectId,ECG12_Portable2,45434731-325f-4506-9f72-7461626c6532,B*%
%TF.SameCoordinates,Original*%
%TF.FileFunction,Soldermask,Bot*%
%TF.FilePolarity,Negative*%
%FSLAX46Y46*%
G04 Gerber Fmt 4.6, Leading zero omitted, Abs format (unit mm)*
G04 Created by KiCad (PCBNEW 10.0.1) date 2026-09-07 13:57:51*
%MOMM*%
%LPD*%
G01*
G04 APERTURE LIST*
G04 Aperture macros list*
%AMRoundRect*
0 Rectangle with rounded corners*
0 $1 Rounding radius*
0 $2 $3 $4 $5 $6 $7 $8 $9 X,Y pos of 4 corners*
0 Add a 4 corners polygon primitive as box body*
4,1,4,$2,$3,$4,$5,$6,$7,$8,$9,$2,$3,0*
0 Add four circle primitives for the rounded corners*
1,1,$1+$1,$2,$3*
1,1,$1+$1,$4,$5*
1,1,$1+$1,$6,$7*
1,1,$1+$1,$8,$9*
0 Add four rect primitives between the rounded corners*
20,1,$1+$1,$2,$3,$4,$5,0*
20,1,$1+$1,$4,$5,$6,$7,0*
20,1,$1+$1,$6,$7,$8,$9,0*
20,1,$1+$1,$8,$9,$2,$3,0*%
G04 Aperture macros list end*
%ADD10C,0.650000*%
%ADD11O,1.000000X2.100000*%
%ADD12O,1.000000X1.600000*%
%ADD13C,1.000000*%
%ADD14C,2.000000*%
%ADD15RoundRect,0.150000X-0.587500X-0.150000X0.587500X-0.150000X0.587500X0.150000X-0.587500X0.150000X0*%
%ADD16RoundRect,0.150000X0.150000X0.200000X-0.150000X0.200000X-0.150000X-0.200000X0.150000X-0.200000X0*%
G04 APERTURE END LIST*
D10*
%TO.C,J2*%
X35910000Y5790000D03*
X41690000Y5790000D03*
D11*
X34480000Y6320000D03*
D12*
X34480000Y2140000D03*
D11*
X43120000Y6320000D03*
D12*
X43120000Y2140000D03*
%TD*%
D13*
%TO.C,TP10*%
X29000000Y8000000D03*
%TD*%
%TO.C,TP13*%
X17000000Y34000000D03*
%TD*%
D14*
%TO.C,FID4*%
X2500000Y42500000D03*
%TD*%
D13*
%TO.C,TP14*%
X19000000Y30000000D03*
%TD*%
D15*
%TO.C,D15*%
X9562500Y22050000D03*
X9562500Y23950000D03*
X11437500Y23000000D03*
%TD*%
D14*
%TO.C,FID5*%
X43700000Y39800000D03*
%TD*%
D16*
%TO.C,D21*%
X38800000Y7100000D03*
X40200000Y7100000D03*
%TD*%
D15*
%TO.C,D12*%
X9562500Y11550000D03*
X9562500Y13450000D03*
X11437500Y12500000D03*
%TD*%
%TO.C,D17*%
X9562500Y29050000D03*
X9562500Y30950000D03*
X11437500Y30000000D03*
%TD*%
%TO.C,D18*%
X9562500Y32550000D03*
X9562500Y34450000D03*
X11437500Y33500000D03*
%TD*%
D13*
%TO.C,TP12*%
X21000000Y12000000D03*
%TD*%
D15*
%TO.C,D14*%
X9562500Y18550000D03*
X9562500Y20450000D03*
X11437500Y19500000D03*
%TD*%
%TO.C,D11*%
X9562500Y8050000D03*
X9562500Y9950000D03*
X11437500Y9000000D03*
%TD*%
D14*
%TO.C,FID6*%
X2500000Y2000000D03*
%TD*%
D15*
%TO.C,D19*%
X9562500Y36050000D03*
X9562500Y37950000D03*
X11437500Y37000000D03*
%TD*%
%TO.C,D13*%
X9562500Y15050000D03*
X9562500Y16950000D03*
X11437500Y16000000D03*
%TD*%
D13*
%TO.C,TP9*%
X32000000Y7000000D03*
%TD*%
D15*
%TO.C,D16*%
X9562500Y25550000D03*
X9562500Y27450000D03*
X11437500Y26500000D03*
%TD*%
D13*
%TO.C,TP11*%
X25500000Y10500000D03*
%TD*%
M02*
