%TF.GenerationSoftware,KiCad,Pcbnew,10.0.1*%
%TF.CreationDate,2026-09-07T13:57:51+08:00*%
%TF.ProjectId,ECG12_Portable2,45434731-325f-4506-9f72-7461626c6532,B*%
%TF.SameCoordinates,Original*%
%TF.FileFunction,Copper,L3,Inr*%
%TF.FilePolarity,Positive*%
%FSLAX46Y46*%
G04 Gerber Fmt 4.6, Leading zero omitted, Abs format (unit mm)*
G04 Created by KiCad (PCBNEW 10.0.1) date 2026-09-07 13:57:51*
%MOMM*%
%LPD*%
G01*
G04 APERTURE LIST*
%TA.AperFunction,ComponentPad*%
%ADD10O,1.000000X2.100000*%
%TD*%
%TA.AperFunction,ComponentPad*%
%ADD11O,1.000000X1.600000*%
%TD*%
%TA.AperFunction,ViaPad*%
%ADD12C,0.600000*%
%TD*%
%TA.AperFunction,Conductor*%
%ADD13C,0.150000*%
%TD*%
%TA.AperFunction,Conductor*%
%ADD14C,0.350000*%
%TD*%
G04 APERTURE END LIST*
D10*
%TO.N,GND*%
%TO.C,J2*%
X34480000Y6320000D03*
D11*
X34480000Y2140000D03*
D10*
X43120000Y6320000D03*
D11*
X43120000Y2140000D03*
%TD*%
D12*
%TO.N,VSYS*%
X39051500Y9416400D03*
X26737500Y6962500D03*
%TO.N,GND*%
X6700000Y15200000D03*
X10362000Y32550000D03*
X37975000Y10450000D03*
X41810000Y16300001D03*
X41000000Y29300000D03*
X10362000Y25550000D03*
X20280000Y13950000D03*
X14046000Y18934000D03*
X27280000Y13950000D03*
X14280000Y37000000D03*
X25300000Y2175000D03*
X7200000Y18700000D03*
X20662000Y9000000D03*
X14280000Y30000000D03*
X36925000Y25575000D03*
X41400000Y40700000D03*
X10362000Y22050000D03*
X34950000Y14260000D03*
X43900000Y37500000D03*
X24280000Y32300000D03*
X38150000Y13850000D03*
X42250000Y38875000D03*
X38800000Y27275000D03*
X8000000Y23000000D03*
X10362000Y29050000D03*
X39010000Y17100000D03*
X10362000Y8050000D03*
X33460000Y5470000D03*
X16280000Y30200000D03*
X38875000Y32025000D03*
X22750000Y27462000D03*
X40050000Y12062001D03*
X21250000Y16138000D03*
X32199999Y40700000D03*
X14280000Y16000000D03*
X44350000Y30500000D03*
X8000000Y26500000D03*
X33500000Y8000000D03*
X24280000Y31000000D03*
X6700000Y8200000D03*
X25462000Y23250000D03*
X10362000Y15050001D03*
X10362000Y36050000D03*
X21800000Y14475000D03*
X14280000Y12500000D03*
X25550000Y28662000D03*
X31800000Y28500000D03*
X29663000Y11500000D03*
X27280000Y31000000D03*
X13480000Y32700000D03*
X25050000Y17338000D03*
X20750000Y27462000D03*
X18750000Y16138000D03*
X10362000Y11550001D03*
X38850000Y13150000D03*
X13940000Y25950000D03*
X6700000Y11700000D03*
X24862000Y23750000D03*
X43920000Y3050000D03*
X22500000Y1375000D03*
X34150000Y24325000D03*
X23750000Y27462000D03*
X38850000Y13850000D03*
X24550000Y9480000D03*
X33300000Y23000000D03*
X26780000Y32300000D03*
X27230000Y15200000D03*
X20250000Y16138000D03*
X26450000Y11980000D03*
X17480000Y14400000D03*
X20250000Y29862000D03*
X27862000Y21750000D03*
X8000000Y30000000D03*
X26097000Y25316000D03*
X14280000Y9000000D03*
X10362000Y18550000D03*
X33500000Y3510000D03*
X6700000Y32700000D03*
X42850000Y8145000D03*
X27228000Y18684000D03*
X17450000Y9480000D03*
X6966000Y4434000D03*
X44000000Y23480000D03*
X33550000Y12480000D03*
X25450000Y21175000D03*
X7500000Y37000000D03*
X14046000Y22434000D03*
X44350000Y32300000D03*
X29250000Y26480000D03*
X44000000Y25510000D03*
X37750000Y11262000D03*
X38150000Y13150000D03*
X21280000Y32300000D03*
X21280000Y31000000D03*
X35280000Y3050000D03*
X20280000Y15200000D03*
X24500000Y14650000D03*
X36800000Y27730000D03*
X34984000Y7579000D03*
X19310000Y35200000D03*
%TO.N,AFE_CS*%
X33536600Y24791600D03*
X25465300Y22013900D03*
X44400000Y29600000D03*
X31393400Y25130300D03*
%TO.N,VREF*%
X19801500Y11768000D03*
%TO.N,V3_F*%
X12807900Y24356900D03*
%TO.N,BAT_SENSE*%
X38964400Y26511900D03*
X37107600Y34059500D03*
%TO.N,CHG_STAT*%
X29744600Y36271300D03*
X39845000Y17400000D03*
X40837400Y12829400D03*
%TO.N,MCU_RESET*%
X38303100Y37540600D03*
X40687300Y28198600D03*
X29675700Y19039700D03*
%TO.N,RA_F*%
X18280800Y20625500D03*
X13532300Y6962600D03*
%TO.N,USB_PGOOD*%
X32387500Y15437500D03*
X41257500Y19135300D03*
X30246600Y37700000D03*
%TO.N,UART_TX*%
X32318000Y30525000D03*
X31466500Y20069100D03*
%TO.N,UART_RX*%
X34824600Y20675400D03*
X35250600Y28133100D03*
%TO.N,AFE_MISO*%
X29107000Y24250000D03*
X38559100Y32800000D03*
%TO.N,AFE_DRDY*%
X36325000Y33500000D03*
X29730700Y24966600D03*
%TO.N,AFE_RESET*%
X33976300Y20877700D03*
X39440600Y34244900D03*
%TO.N,AFE_PWDN*%
X38350000Y34900000D03*
X33466000Y19630500D03*
%TO.N,SWDCLK*%
X43057200Y37500800D03*
X37172800Y23088000D03*
%TO.N,SWDIO*%
X42247700Y38027600D03*
X37983200Y23833800D03*
%TO.N,LED_K*%
X23712500Y40862500D03*
X41759900Y39887500D03*
%TO.N,VBUS*%
X40149700Y5992400D03*
X37030400Y8897900D03*
X42500000Y13297500D03*
%TO.N,CC2*%
X38022600Y8425200D03*
X32387500Y1580000D03*
%TO.N,V5_F*%
X13641100Y25250000D03*
X9528000Y35250000D03*
%TO.N,AVDD*%
X21181300Y29957500D03*
X20399900Y33140000D03*
%TO.N,V4_F*%
X18262500Y23914100D03*
X13446700Y27517800D03*
%TO.N,RLD_OUT*%
X18150000Y29875000D03*
X11575000Y8075000D03*
%TO.N,BAT_NTC*%
X28866400Y3441400D03*
X35892700Y15269600D03*
%TO.N,VBAT*%
X34766000Y9684000D03*
X41370000Y23712300D03*
X36725000Y14825000D03*
%TO.N,ILIM*%
X36561700Y11660200D03*
X40996900Y14176800D03*
%TO.N,V2_F*%
X8859800Y23037200D03*
%TO.N,AFE_SCK*%
X30643700Y24133300D03*
X44400000Y31400000D03*
%TO.N,LA_F*%
X13011800Y10292800D03*
X12745100Y21157200D03*
%TO.N,LL_F*%
X13661500Y14819800D03*
%TO.N,V1_F*%
X9499700Y21248400D03*
%TO.N,RLD_REF*%
X16566000Y34546000D03*
X19200800Y27416000D03*
%TO.N,VCAP1*%
X22538400Y12191000D03*
X22750000Y16112300D03*
%TO.N,VCAP2*%
X25322500Y16058600D03*
X27820200Y14492700D03*
%TO.N,V6_F*%
X13808400Y38414000D03*
X14201400Y28308800D03*
%TO.N,VCAP4*%
X21776700Y15585600D03*
X19553000Y12711200D03*
%TO.N,AFE_MOSI*%
X44400000Y33200000D03*
X25200100Y20331700D03*
%TD*%
%TO.N,AFE_CS*%
D13*
X31393400Y25130300D02*
X31732100Y24791600D01*
X31732100Y24791600D02*
X33536600Y24791600D01*
%TO.N,BAT_SENSE*%
X38067100Y27177500D02*
X38732700Y26511900D01*
X37107600Y32737900D02*
X38067100Y31778400D01*
X37107600Y34059500D02*
X37107600Y32737900D01*
X38067100Y31778400D02*
X38067100Y27177500D01*
X38732700Y26511900D02*
X38964400Y26511900D01*
%TO.N,CHG_STAT*%
X33639900Y15812500D02*
X32694500Y14867100D01*
X39845000Y17400000D02*
X39845000Y15812500D01*
X32197700Y14867100D02*
X28544800Y18520000D01*
X28544800Y35071500D02*
X29744600Y36271300D01*
X28544800Y18520000D02*
X28544800Y35071500D01*
X39845000Y15812500D02*
X39845000Y13821800D01*
X32694500Y14867100D02*
X32197700Y14867100D01*
X39845000Y15812500D02*
X33639900Y15812500D01*
X39845000Y13821800D02*
X40837400Y12829400D01*
%TO.N,MCU_RESET*%
X40473300Y35641000D02*
X38573800Y37540500D01*
X40473300Y28412600D02*
X40473300Y35641000D01*
X38573800Y37540500D02*
X38303100Y37540500D01*
X38303100Y37540500D02*
X38303100Y37540600D01*
X40687300Y28198600D02*
X40473300Y28412600D01*
%TO.N,RA_F*%
X13532300Y7435300D02*
X13532300Y6962600D01*
X19280900Y19625400D02*
X19280900Y13183900D01*
X19280900Y13183900D02*
X13532300Y7435300D01*
X18280800Y20625500D02*
X19280900Y19625400D01*
%TO.N,USB_PGOOD*%
X31480800Y16771000D02*
X31304100Y16947700D01*
X31480800Y16521000D02*
X31480800Y16771000D01*
X30581400Y17670300D02*
X30581400Y19540200D01*
X31304100Y16947700D02*
X31304000Y16947700D01*
X30117000Y23915200D02*
X30117000Y24351400D01*
X31304000Y16947700D02*
X30581400Y17670300D01*
X30279700Y24514100D02*
X30279700Y37666900D01*
X30279700Y19841900D02*
X30279700Y23752500D01*
X32387500Y15437500D02*
X31392400Y16432600D01*
X30279700Y37666900D02*
X30246600Y37700000D01*
X31392400Y16432600D02*
X31480800Y16521000D01*
X30581400Y19540200D02*
X30279700Y19841900D01*
X30117000Y24351400D02*
X30279700Y24514100D01*
X30279700Y23752500D02*
X30117000Y23915200D01*
%TO.N,UART_TX*%
X32560900Y27783500D02*
X34696100Y25648300D01*
X31466500Y20393100D02*
X31466500Y20069100D01*
X34696100Y25648300D02*
X34696100Y23622700D01*
X32318000Y30525000D02*
X32560900Y30282100D01*
X34696100Y23622700D02*
X31466500Y20393100D01*
X32560900Y30282100D02*
X32560900Y27783500D01*
%TO.N,UART_RX*%
X33399100Y20693700D02*
X33741800Y20351000D01*
X35601200Y27782500D02*
X35601200Y23247600D01*
X33741800Y20351000D02*
X34500200Y20351000D01*
X34500200Y20351000D02*
X34824600Y20675400D01*
X35601200Y23247600D02*
X33399100Y21045500D01*
X35250600Y28133100D02*
X35601200Y27782500D01*
X33399100Y21045500D02*
X33399100Y20693700D01*
%TO.N,AFE_RESET*%
X39492800Y34192700D02*
X39440600Y34244900D01*
X38267000Y25069100D02*
X39492800Y26294900D01*
X33976300Y21104100D02*
X37941300Y25069100D01*
X39492800Y26294900D02*
X39492800Y34192700D01*
X33976300Y20877700D02*
X33976300Y21104100D01*
X37941300Y25069100D02*
X38267000Y25069100D01*
%TO.N,AFE_PWDN*%
X35299500Y25898300D02*
X34115000Y27082800D01*
X33466000Y19630500D02*
X33094700Y20001800D01*
X34115000Y32096400D02*
X36918600Y34900000D01*
X35299500Y23372600D02*
X35299500Y25898300D01*
X33094700Y21167800D02*
X35299500Y23372600D01*
X36918600Y34900000D02*
X38350000Y34900000D01*
X33094700Y20001800D02*
X33094700Y21167800D01*
X34115000Y27082800D02*
X34115000Y32096400D01*
%TO.N,SWDCLK*%
X43057200Y28130300D02*
X38014900Y23088000D01*
X43057200Y37500800D02*
X43057200Y28130300D01*
X38014900Y23088000D02*
X37172800Y23088000D01*
%TO.N,SWDIO*%
X42632000Y35781900D02*
X42632000Y28358000D01*
X42632000Y28358000D02*
X38107900Y23833900D01*
X38107900Y23833900D02*
X37983200Y23833900D01*
X42247700Y38027600D02*
X42247700Y36166200D01*
X42247700Y36166200D02*
X42632000Y35781900D01*
X37983200Y23833900D02*
X37983200Y23833800D01*
%TO.N,VBUS*%
D14*
X42174900Y12972400D02*
X42500000Y13297500D01*
X40149700Y5992400D02*
X42174900Y8017600D01*
X42174900Y8017600D02*
X42174900Y12972400D01*
%TO.N,CC2*%
D13*
X34862500Y8371200D02*
X37968600Y8371200D01*
X37968600Y8371200D02*
X38022600Y8425200D01*
X32387500Y5896200D02*
X34862500Y8371200D01*
X32387500Y1580000D02*
X32387500Y5896200D01*
%TO.N,V5_F*%
X10888700Y28002400D02*
X13641100Y25250000D01*
X9528000Y35250000D02*
X10888700Y33889300D01*
X10888700Y33889300D02*
X10888700Y28002400D01*
%TO.N,AVDD*%
D14*
X20399900Y33140000D02*
X20399900Y32225300D01*
X21906700Y31293700D02*
X21906700Y30682900D01*
X21906700Y30682900D02*
X21181300Y29957500D01*
X20998500Y31626700D02*
X21573700Y31626700D01*
X20399900Y32225300D02*
X20998500Y31626700D01*
X21573700Y31626700D02*
X21906700Y31293700D01*
%TO.N,RLD_OUT*%
D13*
X18150000Y28000000D02*
X18150000Y29875000D01*
X11575000Y21425000D02*
X18150000Y28000000D01*
X11575000Y8075000D02*
X11575000Y21425000D01*
%TO.N,BAT_NTC*%
X28866400Y5733500D02*
X35892700Y12759800D01*
X35892700Y12759800D02*
X35892700Y15269600D01*
X28866400Y3441400D02*
X28866400Y5733500D01*
%TO.N,VBAT*%
X38225000Y11550001D02*
X38800000Y10975000D01*
D14*
X42442100Y22640200D02*
X42442100Y14125800D01*
D13*
X38800000Y10975000D02*
X38800000Y10050000D01*
X36725000Y14825000D02*
X36725000Y13050001D01*
D14*
X42442100Y14125800D02*
X41606900Y13290600D01*
X41370000Y23712300D02*
X42442100Y22640200D01*
X38432900Y9684000D02*
X34766000Y9684000D01*
X38792000Y10043100D02*
X38432900Y9684000D01*
X38944300Y10043100D02*
X38792000Y10043100D01*
X41606900Y13290600D02*
X41606900Y12705700D01*
X41606900Y12705700D02*
X38944300Y10043100D01*
D13*
X36725000Y13050001D02*
X38225000Y11550001D01*
%TO.N,AFE_SCK*%
X30643700Y20133800D02*
X31683200Y19094300D01*
X43484800Y28063800D02*
X43484800Y30484800D01*
X43484800Y30484800D02*
X44400000Y31400000D01*
X30643700Y24133300D02*
X30643700Y20133800D01*
X31683200Y19094300D02*
X34515300Y19094300D01*
X34515300Y19094300D02*
X43484800Y28063800D01*
%TO.N,LA_F*%
X13011800Y10292800D02*
X13011800Y20890500D01*
X13011800Y20890500D02*
X12745100Y21157200D01*
%TO.N,RLD_REF*%
X19200800Y31911200D02*
X19200800Y27416000D01*
X16566000Y34546000D02*
X19200800Y31911200D01*
%TO.N,VCAP1*%
X22750000Y12402600D02*
X22750000Y16112300D01*
X22538400Y12191000D02*
X22750000Y12402600D01*
%TO.N,VCAP2*%
X26888400Y14492700D02*
X25322500Y16058600D01*
X27820200Y14492700D02*
X26888400Y14492700D01*
%TO.N,V6_F*%
X13699700Y34106700D02*
X14015800Y33790600D01*
X13808400Y38414000D02*
X13699700Y38305300D01*
X14015800Y30594800D02*
X13702400Y30281400D01*
X13702400Y28807800D02*
X14201400Y28308800D01*
X14015800Y33790600D02*
X14015800Y30594800D01*
X13702400Y30281400D02*
X13702400Y28807800D01*
X13699700Y38305300D02*
X13699700Y34106700D01*
%TO.N,VCAP4*%
X19803700Y12711200D02*
X21269500Y14177000D01*
X19553000Y12711200D02*
X19803700Y12711200D01*
X21269500Y15078400D02*
X21776700Y15585600D01*
X21269500Y14177000D02*
X21269500Y15078400D01*
%TD*%
M02*
