%TF.GenerationSoftware,KiCad,Pcbnew,10.0.1*%
%TF.CreationDate,2026-09-07T13:57:51+08:00*%
%TF.ProjectId,ECG12_Portable2,45434731-325f-4506-9f72-7461626c6532,B*%
%TF.SameCoordinates,Original*%
%TF.FileFunction,Copper,L4,Bot*%
%TF.FilePolarity,Positive*%
%FSLAX46Y46*%
G04 Gerber Fmt 4.6, Leading zero omitted, Abs format (unit mm)*
G04 Created by KiCad (PCBNEW 10.0.1) date 2026-09-07 13:57:51*
%MOMM*%
%LPD*%
G01*
G04 APERTURE LIST*
G04 Aperture macros list*
%AMRoundRect*
0 Rectangle with rounded corners*
0 $1 Rounding radius*
0 $2 $3 $4 $5 $6 $7 $8 $9 X,Y pos of 4 corners*
0 Add a 4 corners polygon primitive as box body*
4,1,4,$2,$3,$4,$5,$6,$7,$8,$9,$2,$3,0*
0 Add four circle primitives for the rounded corners*
1,1,$1+$1,$2,$3*
1,1,$1+$1,$4,$5*
1,1,$1+$1,$6,$7*
1,1,$1+$1,$8,$9*
0 Add four rect primitives between the rounded corners*
20,1,$1+$1,$2,$3,$4,$5,0*
20,1,$1+$1,$4,$5,$6,$7,0*
20,1,$1+$1,$6,$7,$8,$9,0*
20,1,$1+$1,$8,$9,$2,$3,0*%
G04 Aperture macros list end*
%TA.AperFunction,ComponentPad*%
%ADD10O,1.000000X2.100000*%
%TD*%
%TA.AperFunction,ComponentPad*%
%ADD11O,1.000000X1.600000*%
%TD*%
%TA.AperFunction,SMDPad,CuDef*%
%ADD12C,1.000000*%
%TD*%
%TA.AperFunction,SMDPad,CuDef*%
%ADD13RoundRect,0.150000X-0.587500X-0.150000X0.587500X-0.150000X0.587500X0.150000X-0.587500X0.150000X0*%
%TD*%
%TA.AperFunction,SMDPad,CuDef*%
%ADD14RoundRect,0.150000X0.150000X0.200000X-0.150000X0.200000X-0.150000X-0.200000X0.150000X-0.200000X0*%
%TD*%
%TA.AperFunction,ViaPad*%
%ADD15C,0.600000*%
%TD*%
%TA.AperFunction,Conductor*%
%ADD16C,0.350000*%
%TD*%
%TA.AperFunction,Conductor*%
%ADD17C,0.150000*%
%TD*%
G04 APERTURE END LIST*
D10*
%TO.P,J2,SH*%
%TO.N,GND*%
X34480000Y6320000D03*
D11*
X34480000Y2140000D03*
D10*
X43120000Y6320000D03*
D11*
X43120000Y2140000D03*
%TD*%
D12*
%TO.P,TP10,1*%
%TO.N,VSYS*%
X29000000Y8000000D03*
%TD*%
%TO.P,TP13,1*%
%TO.N,RLD_REF*%
X17000000Y34000000D03*
%TD*%
%TO.P,FID4,*%
%TO.N,*%
X2500000Y42500000D03*
%TD*%
%TO.P,TP14,1*%
%TO.N,RLD_OUT*%
X19000000Y30000000D03*
%TD*%
D13*
%TO.P,D15,1*%
%TO.N,GND*%
X9562500Y22050000D03*
%TO.P,D15,2*%
%TO.N,AVDD*%
X9562500Y23950000D03*
%TO.P,D15,3*%
%TO.N,V2_F*%
X11437500Y23000000D03*
%TD*%
D12*
%TO.P,FID5,*%
%TO.N,*%
X43700000Y39800000D03*
%TD*%
D14*
%TO.P,D21,1*%
%TO.N,VBUS*%
X38800000Y7100000D03*
%TO.P,D21,2*%
%TO.N,GND*%
X40200000Y7100000D03*
%TD*%
D13*
%TO.P,D12,1*%
%TO.N,GND*%
X9562500Y11550000D03*
%TO.P,D12,2*%
%TO.N,AVDD*%
X9562500Y13450000D03*
%TO.P,D12,3*%
%TO.N,LA_F*%
X11437500Y12500000D03*
%TD*%
%TO.P,D17,1*%
%TO.N,GND*%
X9562500Y29050000D03*
%TO.P,D17,2*%
%TO.N,AVDD*%
X9562500Y30950000D03*
%TO.P,D17,3*%
%TO.N,V4_F*%
X11437500Y30000000D03*
%TD*%
%TO.P,D18,1*%
%TO.N,GND*%
X9562500Y32550000D03*
%TO.P,D18,2*%
%TO.N,AVDD*%
X9562500Y34450000D03*
%TO.P,D18,3*%
%TO.N,V5_F*%
X11437500Y33500000D03*
%TD*%
D12*
%TO.P,TP12,1*%
%TO.N,VREF*%
X21000000Y12000000D03*
%TD*%
D13*
%TO.P,D14,1*%
%TO.N,GND*%
X9562500Y18550000D03*
%TO.P,D14,2*%
%TO.N,AVDD*%
X9562500Y20450000D03*
%TO.P,D14,3*%
%TO.N,V1_F*%
X11437500Y19500000D03*
%TD*%
%TO.P,D11,1*%
%TO.N,GND*%
X9562500Y8050000D03*
%TO.P,D11,2*%
%TO.N,AVDD*%
X9562500Y9950000D03*
%TO.P,D11,3*%
%TO.N,RA_F*%
X11437500Y9000000D03*
%TD*%
D12*
%TO.P,FID6,*%
%TO.N,*%
X2500000Y2000000D03*
%TD*%
D13*
%TO.P,D19,1*%
%TO.N,GND*%
X9562500Y36050000D03*
%TO.P,D19,2*%
%TO.N,AVDD*%
X9562500Y37950000D03*
%TO.P,D19,3*%
%TO.N,V6_F*%
X11437500Y37000000D03*
%TD*%
%TO.P,D13,1*%
%TO.N,GND*%
X9562500Y15050000D03*
%TO.P,D13,2*%
%TO.N,AVDD*%
X9562500Y16950000D03*
%TO.P,D13,3*%
%TO.N,LL_F*%
X11437500Y16000000D03*
%TD*%
D12*
%TO.P,TP9,1*%
%TO.N,VBAT*%
X32000000Y7000000D03*
%TD*%
D13*
%TO.P,D16,1*%
%TO.N,GND*%
X9562500Y25550000D03*
%TO.P,D16,2*%
%TO.N,AVDD*%
X9562500Y27450000D03*
%TO.P,D16,3*%
%TO.N,V3_F*%
X11437500Y26500000D03*
%TD*%
D12*
%TO.P,TP11,1*%
%TO.N,AVDD*%
X25500000Y10500000D03*
%TD*%
D15*
%TO.N,VSYS*%
X39051500Y9416400D03*
X26737500Y6962500D03*
%TO.N,GND*%
X6700000Y15200000D03*
X10362000Y32550000D03*
X37975000Y10450000D03*
X41810000Y16300001D03*
X41000000Y29300000D03*
X10362000Y25550000D03*
X20280000Y13950000D03*
X14046000Y18934000D03*
X27280000Y13950000D03*
X14280000Y37000000D03*
X25300000Y2175000D03*
X7200000Y18700000D03*
X20662000Y9000000D03*
X14280000Y30000000D03*
X36925000Y25575000D03*
X41400000Y40700000D03*
X10362000Y22050000D03*
X34950000Y14260000D03*
X43900000Y37500000D03*
X24280000Y32300000D03*
X38150000Y13850000D03*
X42250000Y38875000D03*
X38800000Y27275000D03*
X8000000Y23000000D03*
X10362000Y29050000D03*
X39010000Y17100000D03*
X10362000Y8050000D03*
X33460000Y5470000D03*
X16280000Y30200000D03*
X38875000Y32025000D03*
X22750000Y27462000D03*
X40050000Y12062001D03*
X21250000Y16138000D03*
X32199999Y40700000D03*
X14280000Y16000000D03*
X44350000Y30500000D03*
X8000000Y26500000D03*
X33500000Y8000000D03*
X24280000Y31000000D03*
X6700000Y8200000D03*
X25462000Y23250000D03*
X10362000Y15050001D03*
X10362000Y36050000D03*
X21800000Y14475000D03*
X14280000Y12500000D03*
X25550000Y28662000D03*
X31800000Y28500000D03*
X29663000Y11500000D03*
X27280000Y31000000D03*
X13480000Y32700000D03*
X25050000Y17338000D03*
X20750000Y27462000D03*
X18750000Y16138000D03*
X10362000Y11550001D03*
X38850000Y13150000D03*
X13940000Y25950000D03*
X6700000Y11700000D03*
X24862000Y23750000D03*
X43920000Y3050000D03*
X22500000Y1375000D03*
X34150000Y24325000D03*
X23750000Y27462000D03*
X38850000Y13850000D03*
X24550000Y9480000D03*
X33300000Y23000000D03*
X26780000Y32300000D03*
X27230000Y15200000D03*
X20250000Y16138000D03*
X26450000Y11980000D03*
X17480000Y14400000D03*
X20250000Y29862000D03*
X27862000Y21750000D03*
X8000000Y30000000D03*
X26097000Y25316000D03*
X14280000Y9000000D03*
X10362000Y18550000D03*
X33500000Y3510000D03*
X6700000Y32700000D03*
X42850000Y8145000D03*
X27228000Y18684000D03*
X17450000Y9480000D03*
X6966000Y4434000D03*
X44000000Y23480000D03*
X33550000Y12480000D03*
X25450000Y21175000D03*
X7500000Y37000000D03*
X14046000Y22434000D03*
X44350000Y32300000D03*
X29250000Y26480000D03*
X44000000Y25510000D03*
X37750000Y11262000D03*
X38150000Y13150000D03*
X21280000Y32300000D03*
X21280000Y31000000D03*
X35280000Y3050000D03*
X20280000Y15200000D03*
X24500000Y14650000D03*
X36800000Y27730000D03*
X34984000Y7579000D03*
X19310000Y35200000D03*
%TO.N,AFE_CS*%
X33536600Y24791600D03*
X25465300Y22013900D03*
X44400000Y29600000D03*
X31393400Y25130300D03*
%TO.N,VREF*%
X19801500Y11768000D03*
%TO.N,V3_F*%
X12807900Y24356900D03*
%TO.N,BAT_SENSE*%
X38964400Y26511900D03*
X37107600Y34059500D03*
%TO.N,CHG_STAT*%
X29744600Y36271300D03*
X39845000Y17400000D03*
X40837400Y12829400D03*
%TO.N,MCU_RESET*%
X38303100Y37540600D03*
X40687300Y28198600D03*
X29675700Y19039700D03*
%TO.N,RA_F*%
X18280800Y20625500D03*
X13532300Y6962600D03*
%TO.N,USB_PGOOD*%
X32387500Y15437500D03*
X41257500Y19135300D03*
X30246600Y37700000D03*
%TO.N,UART_TX*%
X32318000Y30525000D03*
X31466500Y20069100D03*
%TO.N,UART_RX*%
X34824600Y20675400D03*
X35250600Y28133100D03*
%TO.N,AFE_MISO*%
X29107000Y24250000D03*
X38559100Y32800000D03*
%TO.N,AFE_DRDY*%
X36325000Y33500000D03*
X29730700Y24966600D03*
%TO.N,AFE_RESET*%
X33976300Y20877700D03*
X39440600Y34244900D03*
%TO.N,AFE_PWDN*%
X38350000Y34900000D03*
X33466000Y19630500D03*
%TO.N,SWDCLK*%
X43057200Y37500800D03*
X37172800Y23088000D03*
%TO.N,SWDIO*%
X42247700Y38027600D03*
X37983200Y23833800D03*
%TO.N,LED_K*%
X23712500Y40862500D03*
X41759900Y39887500D03*
%TO.N,VBUS*%
X40149700Y5992400D03*
X37030400Y8897900D03*
X42500000Y13297500D03*
%TO.N,CC2*%
X38022600Y8425200D03*
X32387500Y1580000D03*
%TO.N,V5_F*%
X13641100Y25250000D03*
X9528000Y35250000D03*
%TO.N,AVDD*%
X21181300Y29957500D03*
X20399900Y33140000D03*
%TO.N,V4_F*%
X18262500Y23914100D03*
X13446700Y27517800D03*
%TO.N,RLD_OUT*%
X18150000Y29875000D03*
X11575000Y8075000D03*
%TO.N,BAT_NTC*%
X28866400Y3441400D03*
X35892700Y15269600D03*
%TO.N,VBAT*%
X34766000Y9684000D03*
X41370000Y23712300D03*
X36725000Y14825000D03*
%TO.N,ILIM*%
X36561700Y11660200D03*
X40996900Y14176800D03*
%TO.N,V2_F*%
X8859800Y23037200D03*
%TO.N,AFE_SCK*%
X30643700Y24133300D03*
X44400000Y31400000D03*
%TO.N,LA_F*%
X13011800Y10292800D03*
X12745100Y21157200D03*
%TO.N,LL_F*%
X13661500Y14819800D03*
%TO.N,V1_F*%
X9499700Y21248400D03*
%TO.N,RLD_REF*%
X16566000Y34546000D03*
X19200800Y27416000D03*
%TO.N,VCAP1*%
X22538400Y12191000D03*
X22750000Y16112300D03*
%TO.N,VCAP2*%
X25322500Y16058600D03*
X27820200Y14492700D03*
%TO.N,V6_F*%
X13808400Y38414000D03*
X14201400Y28308800D03*
%TO.N,VCAP4*%
X21776700Y15585600D03*
X19553000Y12711200D03*
%TO.N,AFE_MOSI*%
X44400000Y33200000D03*
X25200100Y20331700D03*
%TD*%
%TO.N,VSYS*%
D16*
X38122400Y9416400D02*
X39051500Y9416400D01*
X29000000Y8000000D02*
X27775000Y8000000D01*
X37181000Y10357800D02*
X38122400Y9416400D01*
X29000000Y8000000D02*
X31357800Y10357800D01*
X27775000Y8000000D02*
X26737500Y6962500D01*
X31357800Y10357800D02*
X37181000Y10357800D01*
%TO.N,GND*%
D17*
X9562500Y11550001D02*
X10362000Y11550001D01*
X9562500Y36050000D02*
X10362000Y36050000D01*
X9562500Y18550000D02*
X10362000Y18550000D01*
X9562500Y29050000D02*
X10362000Y29050000D01*
X9562500Y22050000D02*
X10362000Y22050000D01*
X9562500Y15050001D02*
X10362000Y15050001D01*
X9562500Y25550000D02*
X10362000Y25550000D01*
X9562500Y8050000D02*
X10362000Y8050000D01*
X9562500Y32550000D02*
X10362000Y32550000D01*
%TO.N,AFE_CS*%
X25465300Y22013900D02*
X25800700Y22349300D01*
X31094300Y22349300D02*
X33536600Y24791600D01*
X25800700Y22349300D02*
X31094300Y22349300D01*
X33536600Y24791600D02*
X33647100Y24902100D01*
X34828200Y24902100D02*
X39787200Y29861100D01*
X33647100Y24902100D02*
X34828200Y24902100D01*
X39787200Y29861100D02*
X44138900Y29861100D01*
X44138900Y29861100D02*
X44400000Y29600000D01*
%TO.N,VREF*%
X20033500Y12000000D02*
X19801500Y11768000D01*
X21000000Y12000000D02*
X20033500Y12000000D01*
%TO.N,V3_F*%
X11437500Y26500000D02*
X11438000Y26500000D01*
X11437500Y25727300D02*
X12807900Y24356900D01*
X11437500Y26500000D02*
X11437500Y25727300D01*
%TO.N,MCU_RESET*%
X35257200Y22031800D02*
X32667800Y22031800D01*
X32667800Y22031800D02*
X29675700Y19039700D01*
X40687300Y27461900D02*
X35257200Y22031800D01*
X40687300Y28198600D02*
X40687300Y27461900D01*
%TO.N,RA_F*%
X11437500Y9000000D02*
X11438000Y9000000D01*
X13474900Y6962600D02*
X11437500Y9000000D01*
X13532300Y6962600D02*
X13474900Y6962600D01*
%TO.N,USB_PGOOD*%
X36085300Y19135300D02*
X32387500Y15437500D01*
X41257500Y19135300D02*
X36085300Y19135300D01*
%TO.N,AFE_MISO*%
X34692300Y29176600D02*
X34692300Y30384400D01*
X34692300Y30384400D02*
X37107900Y32800000D01*
X29765700Y24250000D02*
X34692300Y29176600D01*
X37107900Y32800000D02*
X38559100Y32800000D01*
X29107000Y24250000D02*
X29765700Y24250000D01*
%TO.N,AFE_DRDY*%
X34177600Y29413500D02*
X34177600Y31352600D01*
X34177600Y31352600D02*
X36325000Y33500000D01*
X29730700Y24966600D02*
X34177600Y29413500D01*
%TO.N,LED_K*%
X39245300Y37014300D02*
X33462800Y37014300D01*
X33462800Y37014300D02*
X29614600Y40862500D01*
X41759900Y39887500D02*
X41759900Y39528900D01*
X29614600Y40862500D02*
X23712500Y40862500D01*
X41759900Y39528900D02*
X39245300Y37014300D01*
%TO.N,VBUS*%
D16*
X40149700Y5992400D02*
X39907600Y5992400D01*
X37030400Y8427200D02*
X38357600Y7100000D01*
X39907600Y5992400D02*
X38800000Y7100000D01*
X38357600Y7100000D02*
X38800000Y7100000D01*
X37030400Y8897900D02*
X37030400Y8427200D01*
%TO.N,V5_F*%
D17*
X11437500Y33919100D02*
X11437500Y33500000D01*
X9528000Y35250000D02*
X10106600Y35250000D01*
X10106600Y35250000D02*
X11437500Y33919100D01*
X11437500Y33500000D02*
X11438000Y33500000D01*
%TO.N,AVDD*%
D16*
X8468600Y32043900D02*
X9562500Y30950000D01*
X19893800Y13450000D02*
X9562500Y13450000D01*
X9395300Y34450000D02*
X9562500Y34450000D01*
X8447600Y12335100D02*
X9562500Y13450000D01*
X9395300Y34450000D02*
X8468600Y33523300D01*
X8781500Y24731100D02*
X9562500Y23950000D01*
X8468600Y33523300D02*
X8468600Y32043900D01*
X8447600Y19335100D02*
X9465500Y20353000D01*
X8445400Y35399900D02*
X9395300Y34450000D01*
X8465600Y25046900D02*
X8781500Y24731100D01*
X8497700Y14514800D02*
X9562500Y13450000D01*
X9562500Y27450000D02*
X9562500Y27069300D01*
X18209900Y30950000D02*
X20399900Y33140000D01*
X9562500Y30950000D02*
X18209900Y30950000D01*
X7340500Y23290100D02*
X8781500Y24731100D01*
X8497700Y15885200D02*
X8497700Y14514800D01*
X25500000Y10500000D02*
X22782700Y13217300D01*
X22782700Y13217300D02*
X20126500Y13217300D01*
X8447600Y18064900D02*
X8447600Y19335100D01*
X8465600Y25972400D02*
X8465600Y25046900D01*
X9562500Y27069300D02*
X8465600Y25972400D01*
X9562500Y16950000D02*
X8497700Y15885200D01*
X9562500Y37950000D02*
X8445400Y36832900D01*
X8494000Y28518500D02*
X8494000Y29544600D01*
X8445400Y36832900D02*
X8445400Y35399900D01*
X9562500Y27450000D02*
X8494000Y28518500D01*
X9465500Y20353000D02*
X9562500Y20450000D01*
X20126500Y13217300D02*
X19893800Y13450000D01*
X9562500Y16950000D02*
X8447600Y18064900D01*
X8494000Y29544600D02*
X9562500Y30613100D01*
X9465500Y20353000D02*
X7340500Y22478000D01*
X9562500Y30613100D02*
X9562500Y30950000D01*
X8447600Y11064900D02*
X8447600Y12335100D01*
X7340500Y22478000D02*
X7340500Y23290100D01*
X9562500Y9950000D02*
X8447600Y11064900D01*
%TO.N,V4_F*%
D17*
X13683200Y27754300D02*
X11437500Y30000000D01*
X13446700Y27517800D02*
X13683200Y27754300D01*
X14422300Y27754300D02*
X18262500Y23914100D01*
X13683200Y27754300D02*
X14422300Y27754300D01*
X11437500Y30000000D02*
X11438000Y30000000D01*
%TO.N,RLD_OUT*%
X18150000Y29875000D02*
X18275000Y30000000D01*
X18150000Y29875000D02*
X18275000Y30000000D01*
X18275000Y30000000D02*
X19000000Y30000000D01*
X18275000Y30000000D02*
X19000000Y30000000D01*
%TO.N,VBAT*%
D16*
X34229700Y9684000D02*
X34766000Y9684000D01*
X32000000Y7000000D02*
X32000000Y7454300D01*
X32000000Y7454300D02*
X34229700Y9684000D01*
%TO.N,ILIM*%
D17*
X40996900Y14176800D02*
X38737700Y11917600D01*
X38737700Y11917600D02*
X36819100Y11917600D01*
X36819100Y11917600D02*
X36561700Y11660200D01*
%TO.N,V2_F*%
X8859800Y23037200D02*
X11400300Y23037200D01*
X11400300Y23037200D02*
X11437500Y23000000D01*
%TO.N,LA_F*%
X11437500Y11867100D02*
X11437500Y12500000D01*
X11437500Y12500000D02*
X11438000Y12500000D01*
X13011800Y10292800D02*
X11437500Y11867100D01*
%TO.N,LL_F*%
X12617700Y14819800D02*
X11437500Y16000000D01*
X11437500Y16000000D02*
X11438000Y16000000D01*
X13661500Y14819800D02*
X12617700Y14819800D01*
%TO.N,V1_F*%
X11437500Y19500000D02*
X11438000Y19500000D01*
X10106600Y21250000D02*
X9499700Y21250000D01*
X11437500Y19919100D02*
X10106600Y21250000D01*
X9499700Y21250000D02*
X9499700Y21248400D01*
X11437500Y19500000D02*
X11437500Y19919100D01*
%TO.N,RLD_REF*%
X17000000Y34112000D02*
X17000000Y34000000D01*
X16566000Y34546000D02*
X17000000Y34112000D01*
%TO.N,V6_F*%
X12851500Y38414000D02*
X11437500Y37000000D01*
X11437500Y37000000D02*
X11438000Y37000000D01*
X13808400Y38414000D02*
X12851500Y38414000D01*
%TO.N,AFE_MOSI*%
X44400000Y33200000D02*
X41124500Y33200000D01*
X24882000Y20649800D02*
X25200100Y20331700D01*
X41124500Y33200000D02*
X30647800Y22723300D01*
X30647800Y22723300D02*
X25389000Y22723300D01*
X24882000Y22216300D02*
X24882000Y20649800D01*
X25389000Y22723300D02*
X24882000Y22216300D01*
%TD*%
%TA.AperFunction,Conductor*%
%TO.N,GND*%
G36*
X24978326Y44727826D02*
G01*
X25000000Y44675500D01*
X25000000Y41212000D01*
X24978326Y41159674D01*
X24926000Y41138000D01*
X24173905Y41138000D01*
X24121579Y41159674D01*
X24115202Y41166945D01*
X24113003Y41169810D01*
X24113001Y41169812D01*
X24113000Y41169814D01*
X24019814Y41263000D01*
X23905690Y41328890D01*
X23905681Y41328894D01*
X23778394Y41363000D01*
X23778392Y41363000D01*
X23646608Y41363000D01*
X23646606Y41363000D01*
X23519318Y41328894D01*
X23519309Y41328890D01*
X23405185Y41263000D01*
X23312000Y41169815D01*
X23246110Y41055691D01*
X23246106Y41055682D01*
X23212000Y40928395D01*
X23212000Y40796606D01*
X23246106Y40669319D01*
X23246110Y40669310D01*
X23293632Y40587000D01*
X23312000Y40555186D01*
X23405186Y40462000D01*
X23519314Y40396108D01*
X23646605Y40362001D01*
X23646606Y40362000D01*
X23646608Y40362000D01*
X23778394Y40362000D01*
X23778394Y40362001D01*
X23905686Y40396108D01*
X24019814Y40462000D01*
X24113000Y40555186D01*
X24113003Y40555191D01*
X24115202Y40558055D01*
X24164255Y40586368D01*
X24173905Y40587000D01*
X29469833Y40587000D01*
X29522158Y40565327D01*
X33306742Y36780742D01*
X33408000Y36738800D01*
X33408001Y36738800D01*
X39300098Y36738800D01*
X39300100Y36738800D01*
X39401358Y36780743D01*
X39478857Y36858242D01*
X39478856Y36858242D01*
X39513817Y36893203D01*
X39513816Y36893203D01*
X40714109Y38093495D01*
X41747200Y38093495D01*
X41747200Y37961706D01*
X41781306Y37834419D01*
X41781310Y37834410D01*
X41820868Y37765894D01*
X41847200Y37720286D01*
X41940386Y37627100D01*
X42054514Y37561208D01*
X42181805Y37527101D01*
X42181806Y37527100D01*
X42181808Y37527100D01*
X42313594Y37527100D01*
X42313594Y37527101D01*
X42440886Y37561208D01*
X42445698Y37563987D01*
X42501848Y37571382D01*
X42546784Y37536906D01*
X42556700Y37499902D01*
X42556700Y37434906D01*
X42590806Y37307619D01*
X42590810Y37307610D01*
X42599637Y37292321D01*
X42656700Y37193486D01*
X42749886Y37100300D01*
X42864014Y37034408D01*
X42991305Y37000301D01*
X42991306Y37000300D01*
X42991308Y37000300D01*
X43123094Y37000300D01*
X43123094Y37000301D01*
X43250386Y37034408D01*
X43364514Y37100300D01*
X43457700Y37193486D01*
X43523592Y37307614D01*
X43557699Y37434906D01*
X43557700Y37434906D01*
X43557700Y37566694D01*
X43557699Y37566695D01*
X43548564Y37600786D01*
X43523592Y37693986D01*
X43457700Y37808114D01*
X43364514Y37901300D01*
X43295579Y37941100D01*
X43250390Y37967190D01*
X43250381Y37967194D01*
X43123094Y38001300D01*
X43123092Y38001300D01*
X42991308Y38001300D01*
X42991306Y38001300D01*
X42864018Y37967194D01*
X42864011Y37967191D01*
X42859199Y37964412D01*
X42803046Y37957021D01*
X42758113Y37991500D01*
X42748200Y38028499D01*
X42748200Y38093494D01*
X42748199Y38093495D01*
X42719527Y38200500D01*
X42714092Y38220786D01*
X42648200Y38334914D01*
X42555014Y38428100D01*
X42465308Y38479892D01*
X42440890Y38493990D01*
X42440881Y38493994D01*
X42313594Y38528100D01*
X42313592Y38528100D01*
X42181808Y38528100D01*
X42181806Y38528100D01*
X42054518Y38493994D01*
X42054509Y38493990D01*
X41940385Y38428100D01*
X41847200Y38334915D01*
X41781310Y38220791D01*
X41781306Y38220782D01*
X41747200Y38093495D01*
X40714109Y38093495D01*
X41993457Y39372841D01*
X42005741Y39402500D01*
X42022810Y39443708D01*
X42054178Y39479475D01*
X42067214Y39487000D01*
X42160400Y39580186D01*
X42226292Y39694314D01*
X42260399Y39821606D01*
X42260400Y39821606D01*
X42260400Y39953394D01*
X42260399Y39953395D01*
X42226293Y40080682D01*
X42226292Y40080686D01*
X42160400Y40194814D01*
X42067214Y40288000D01*
X41953090Y40353890D01*
X41953081Y40353894D01*
X41825794Y40388000D01*
X41825792Y40388000D01*
X41694008Y40388000D01*
X41694006Y40388000D01*
X41566718Y40353894D01*
X41566709Y40353890D01*
X41452585Y40288000D01*
X41359400Y40194815D01*
X41293510Y40080691D01*
X41293506Y40080682D01*
X41259400Y39953395D01*
X41259400Y39821606D01*
X41293506Y39694319D01*
X41293510Y39694310D01*
X41353764Y39589947D01*
X41361156Y39533794D01*
X41342004Y39500621D01*
X40026326Y38184942D01*
X39974000Y38163268D01*
X39921674Y38184942D01*
X39900000Y38237268D01*
X39900000Y41026000D01*
X39921674Y41078326D01*
X39974000Y41100000D01*
X44675500Y41100000D01*
X44727826Y41078326D01*
X44749500Y41026000D01*
X44749500Y40455518D01*
X44727826Y40403192D01*
X44675500Y40381518D01*
X44623174Y40403192D01*
X44615633Y40412022D01*
X44539417Y40516924D01*
X44539416Y40516925D01*
X44539414Y40516928D01*
X44416928Y40639414D01*
X44416925Y40639417D01*
X44416923Y40639418D01*
X44276787Y40741233D01*
X44122446Y40819873D01*
X44122442Y40819875D01*
X43957711Y40873400D01*
X43957698Y40873403D01*
X43786612Y40900500D01*
X43786611Y40900500D01*
X43613389Y40900500D01*
X43613388Y40900500D01*
X43442301Y40873403D01*
X43442288Y40873400D01*
X43277557Y40819875D01*
X43277553Y40819873D01*
X43123212Y40741233D01*
X42983076Y40639418D01*
X42860582Y40516924D01*
X42758767Y40376788D01*
X42680127Y40222447D01*
X42680125Y40222443D01*
X42626600Y40057712D01*
X42626597Y40057699D01*
X42599500Y39886612D01*
X42599500Y39713389D01*
X42626597Y39542302D01*
X42626600Y39542289D01*
X42680125Y39377558D01*
X42680127Y39377554D01*
X42758767Y39223213D01*
X42807557Y39156059D01*
X42860586Y39083072D01*
X42983072Y38960586D01*
X42983075Y38960584D01*
X42983076Y38960583D01*
X43123212Y38858768D01*
X43277553Y38780128D01*
X43277557Y38780126D01*
X43442288Y38726601D01*
X43442294Y38726600D01*
X43442299Y38726598D01*
X43556359Y38708533D01*
X43613388Y38699500D01*
X43613389Y38699500D01*
X43786612Y38699500D01*
X43829383Y38706275D01*
X43957701Y38726598D01*
X43957708Y38726601D01*
X43957711Y38726601D01*
X44122442Y38780126D01*
X44122442Y38780127D01*
X44122445Y38780127D01*
X44276788Y38858768D01*
X44416928Y38960586D01*
X44539414Y39083072D01*
X44615634Y39187980D01*
X44663924Y39217572D01*
X44718996Y39204350D01*
X44748589Y39156059D01*
X44749500Y39144483D01*
X44749500Y33704316D01*
X44727826Y33651990D01*
X44675500Y33630316D01*
X44638500Y33640230D01*
X44593190Y33666390D01*
X44593181Y33666394D01*
X44465894Y33700500D01*
X44465892Y33700500D01*
X44334108Y33700500D01*
X44334106Y33700500D01*
X44206818Y33666394D01*
X44206809Y33666390D01*
X44092685Y33600500D01*
X43999496Y33507310D01*
X43997298Y33504445D01*
X43948245Y33476132D01*
X43938595Y33475500D01*
X41069700Y33475500D01*
X41001654Y33447314D01*
X41001653Y33447314D01*
X40968443Y33433559D01*
X40968439Y33433556D01*
X35837531Y28302648D01*
X35785205Y28280974D01*
X35732879Y28302648D01*
X35719761Y28322286D01*
X35719417Y28322086D01*
X35689045Y28374692D01*
X35651100Y28440414D01*
X35557914Y28533600D01*
X35444465Y28599100D01*
X35443790Y28599490D01*
X35443781Y28599494D01*
X35316494Y28633600D01*
X35316492Y28633600D01*
X35184708Y28633600D01*
X35184706Y28633600D01*
X35057418Y28599494D01*
X35057409Y28599490D01*
X34943285Y28533600D01*
X34850100Y28440415D01*
X34784210Y28326291D01*
X34784206Y28326282D01*
X34750100Y28198995D01*
X34750100Y28067206D01*
X34784206Y27939919D01*
X34784210Y27939910D01*
X34829726Y27861075D01*
X34850100Y27825786D01*
X34943286Y27732600D01*
X34997338Y27701393D01*
X35061614Y27664283D01*
X35060882Y27663016D01*
X35097086Y27626831D01*
X35097100Y27570194D01*
X35081052Y27546169D01*
X30555359Y23020474D01*
X30503033Y22998800D01*
X25334200Y22998800D01*
X25262598Y22969142D01*
X25232945Y22956860D01*
X25232942Y22956858D01*
X24725942Y22449857D01*
X24648442Y22372357D01*
X24606500Y22271100D01*
X24606500Y20595000D01*
X24632499Y20532233D01*
X24632500Y20532231D01*
X24635543Y20524886D01*
X24648443Y20493742D01*
X24683709Y20458476D01*
X24687489Y20453032D01*
X24692207Y20431342D01*
X24700704Y20410829D01*
X24700071Y20401172D01*
X24699600Y20397594D01*
X24699600Y20265806D01*
X24733706Y20138519D01*
X24733710Y20138510D01*
X24759687Y20093517D01*
X24799600Y20024386D01*
X24892786Y19931200D01*
X25006914Y19865308D01*
X25134205Y19831201D01*
X25134206Y19831200D01*
X25134208Y19831200D01*
X25265994Y19831200D01*
X25265994Y19831201D01*
X25393286Y19865308D01*
X25507414Y19931200D01*
X25600600Y20024386D01*
X25666492Y20138514D01*
X25700599Y20265806D01*
X25700600Y20265806D01*
X25700600Y20397594D01*
X25700599Y20397595D01*
X25682140Y20466485D01*
X25666492Y20524886D01*
X25600600Y20639014D01*
X25507414Y20732200D01*
X25464977Y20756701D01*
X25393290Y20798090D01*
X25393281Y20798094D01*
X25265994Y20832200D01*
X25265992Y20832200D01*
X25231500Y20832200D01*
X25179174Y20853874D01*
X25157500Y20906200D01*
X25157500Y21485509D01*
X25179174Y21537835D01*
X25231500Y21559509D01*
X25268501Y21549594D01*
X25272114Y21547508D01*
X25399405Y21513401D01*
X25399406Y21513400D01*
X25399408Y21513400D01*
X25531194Y21513400D01*
X25531194Y21513401D01*
X25658486Y21547508D01*
X25772614Y21613400D01*
X25865800Y21706586D01*
X25931692Y21820714D01*
X25965799Y21948006D01*
X25965800Y21948006D01*
X25965800Y21999800D01*
X25987474Y22052126D01*
X26039800Y22073800D01*
X31149098Y22073800D01*
X31149100Y22073800D01*
X31250358Y22115743D01*
X31327857Y22193242D01*
X31327856Y22193242D01*
X31362817Y22228203D01*
X31362816Y22228203D01*
X33405146Y24270532D01*
X33457471Y24292205D01*
X33467137Y24291571D01*
X33470704Y24291102D01*
X33470708Y24291100D01*
X33470712Y24291100D01*
X33602494Y24291100D01*
X33602494Y24291101D01*
X33729786Y24325208D01*
X33843914Y24391100D01*
X33937100Y24484286D01*
X33997903Y24589601D01*
X34042836Y24624079D01*
X34061989Y24626600D01*
X34882998Y24626600D01*
X34883000Y24626600D01*
X34984258Y24668543D01*
X35061757Y24746042D01*
X35061756Y24746042D01*
X35096717Y24781003D01*
X35096716Y24781003D01*
X39879642Y29563926D01*
X39931968Y29585600D01*
X43828920Y29585600D01*
X43881246Y29563926D01*
X43900398Y29530753D01*
X43933606Y29406819D01*
X43933610Y29406810D01*
X43980022Y29326422D01*
X43999500Y29292686D01*
X44092686Y29199500D01*
X44206814Y29133608D01*
X44334105Y29099501D01*
X44334106Y29099500D01*
X44334108Y29099500D01*
X44465894Y29099500D01*
X44465894Y29099501D01*
X44593186Y29133608D01*
X44638500Y29159771D01*
X44694651Y29167164D01*
X44739585Y29132686D01*
X44749500Y29095685D01*
X44749500Y324500D01*
X44727826Y272174D01*
X44675500Y250500D01*
X324500Y250500D01*
X272174Y272174D01*
X250500Y324500D01*
X250500Y2086612D01*
X1399500Y2086612D01*
X1399500Y1913389D01*
X1426597Y1742302D01*
X1426600Y1742289D01*
X1480125Y1577558D01*
X1480127Y1577554D01*
X1558767Y1423213D01*
X1585215Y1386810D01*
X1660586Y1283072D01*
X1783072Y1160586D01*
X1783075Y1160584D01*
X1783076Y1160583D01*
X1923212Y1058768D01*
X2077553Y980128D01*
X2077557Y980126D01*
X2242288Y926601D01*
X2242294Y926600D01*
X2242299Y926598D01*
X2356359Y908533D01*
X2413388Y899500D01*
X2413389Y899500D01*
X2586612Y899500D01*
X2629383Y906275D01*
X2757701Y926598D01*
X2757708Y926601D01*
X2757711Y926601D01*
X2922442Y980126D01*
X2922442Y980127D01*
X2922445Y980127D01*
X3076788Y1058768D01*
X3216928Y1160586D01*
X3339414Y1283072D01*
X3441232Y1423212D01*
X3519873Y1577555D01*
X3542078Y1645895D01*
X31887000Y1645895D01*
X31887000Y1514106D01*
X31921106Y1386819D01*
X31921110Y1386810D01*
X31987000Y1272686D01*
X32080186Y1179500D01*
X32194314Y1113608D01*
X32321605Y1079501D01*
X32321606Y1079500D01*
X32321608Y1079500D01*
X32453394Y1079500D01*
X32453394Y1079501D01*
X32580686Y1113608D01*
X32694814Y1179500D01*
X32788000Y1272686D01*
X32853892Y1386814D01*
X32887999Y1514106D01*
X32888000Y1514106D01*
X32888000Y1645894D01*
X32887999Y1645895D01*
X32853893Y1773182D01*
X32853892Y1773186D01*
X32788000Y1887314D01*
X32694814Y1980500D01*
X32580690Y2046390D01*
X32580681Y2046394D01*
X32453394Y2080500D01*
X32453392Y2080500D01*
X32321608Y2080500D01*
X32321606Y2080500D01*
X32194318Y2046394D01*
X32194309Y2046390D01*
X32080185Y1980500D01*
X31987000Y1887315D01*
X31921110Y1773191D01*
X31921106Y1773182D01*
X31887000Y1645895D01*
X3542078Y1645895D01*
X3551084Y1673610D01*
X3551084Y1673611D01*
X3573399Y1742289D01*
X3573399Y1742292D01*
X3573402Y1742299D01*
X3600500Y1913389D01*
X3600500Y2086611D01*
X3573402Y2257701D01*
X3573400Y2257706D01*
X3573399Y2257712D01*
X3519874Y2422443D01*
X3519872Y2422447D01*
X3441232Y2576788D01*
X3339417Y2716924D01*
X3339416Y2716925D01*
X3339414Y2716928D01*
X3216928Y2839414D01*
X3216925Y2839417D01*
X3216923Y2839418D01*
X3076787Y2941233D01*
X2922446Y3019873D01*
X2922442Y3019875D01*
X2757711Y3073400D01*
X2757698Y3073403D01*
X2586612Y3100500D01*
X2586611Y3100500D01*
X2413389Y3100500D01*
X2413388Y3100500D01*
X2242301Y3073403D01*
X2242288Y3073400D01*
X2077557Y3019875D01*
X2077553Y3019873D01*
X1923212Y2941233D01*
X1783076Y2839418D01*
X1660582Y2716924D01*
X1558767Y2576788D01*
X1480127Y2422447D01*
X1480125Y2422443D01*
X1426600Y2257712D01*
X1426597Y2257699D01*
X1399500Y2086612D01*
X250500Y2086612D01*
X250500Y3507295D01*
X28365900Y3507295D01*
X28365900Y3375506D01*
X28400006Y3248219D01*
X28400007Y3248216D01*
X28400008Y3248214D01*
X28465900Y3134086D01*
X28559086Y3040900D01*
X28673214Y2975008D01*
X28800505Y2940901D01*
X28800506Y2940900D01*
X28800508Y2940900D01*
X28932294Y2940900D01*
X28932294Y2940901D01*
X29059586Y2975008D01*
X29173714Y3040900D01*
X29266900Y3134086D01*
X29332792Y3248214D01*
X29366899Y3375506D01*
X29366900Y3375506D01*
X29366900Y3507294D01*
X29366899Y3507295D01*
X29332793Y3634582D01*
X29332792Y3634586D01*
X29266900Y3748714D01*
X29173714Y3841900D01*
X29059590Y3907790D01*
X29059581Y3907794D01*
X28932294Y3941900D01*
X28932292Y3941900D01*
X28800508Y3941900D01*
X28800506Y3941900D01*
X28673218Y3907794D01*
X28673209Y3907790D01*
X28559085Y3841900D01*
X28465900Y3748715D01*
X28400010Y3634591D01*
X28400006Y3634582D01*
X28365900Y3507295D01*
X250500Y3507295D01*
X250500Y5865769D01*
X35334500Y5865769D01*
X35334500Y5714232D01*
X35373717Y5567870D01*
X35373721Y5567861D01*
X35449483Y5436638D01*
X35449485Y5436635D01*
X35556635Y5329485D01*
X35687865Y5253719D01*
X35834231Y5214501D01*
X35834232Y5214500D01*
X35834234Y5214500D01*
X35985768Y5214500D01*
X35985768Y5214501D01*
X36132135Y5253719D01*
X36263365Y5329485D01*
X36370515Y5436635D01*
X36446281Y5567865D01*
X36485499Y5714232D01*
X36485500Y5714232D01*
X36485500Y5865768D01*
X36485499Y5865769D01*
X36446282Y6012131D01*
X36446281Y6012135D01*
X36370515Y6143365D01*
X36263365Y6250515D01*
X36178521Y6299500D01*
X36132139Y6326279D01*
X36132130Y6326283D01*
X35985768Y6365500D01*
X35985766Y6365500D01*
X35834234Y6365500D01*
X35834232Y6365500D01*
X35687869Y6326283D01*
X35687860Y6326279D01*
X35556637Y6250517D01*
X35449483Y6143363D01*
X35373721Y6012140D01*
X35373717Y6012131D01*
X35334500Y5865769D01*
X250500Y5865769D01*
X250500Y7866776D01*
X8625001Y7866776D01*
X8634912Y7798750D01*
X8686213Y7693812D01*
X8768810Y7611215D01*
X8873750Y7559913D01*
X8941781Y7550001D01*
X9462500Y7550001D01*
X9662500Y7550001D01*
X10183211Y7550001D01*
X10183224Y7550002D01*
X10251250Y7559913D01*
X10356188Y7611214D01*
X10438785Y7693811D01*
X10490087Y7798751D01*
X10499999Y7866777D01*
X10500000Y7866788D01*
X10500000Y7950000D01*
X9662500Y7950000D01*
X9662500Y7550001D01*
X9462500Y7550001D01*
X9462500Y7950000D01*
X8625001Y7950000D01*
X8625001Y7866776D01*
X250500Y7866776D01*
X250500Y8233224D01*
X8625000Y8233224D01*
X8625000Y8150000D01*
X9462500Y8150000D01*
X9662500Y8150000D01*
X10499999Y8150000D01*
X10499999Y8233211D01*
X10499998Y8233225D01*
X10490087Y8301251D01*
X10438786Y8406189D01*
X10356189Y8488786D01*
X10251249Y8540088D01*
X10183223Y8550000D01*
X9662500Y8550000D01*
X9662500Y8150000D01*
X9462500Y8150000D01*
X9462500Y8550000D01*
X8941782Y8550000D01*
X8873749Y8540088D01*
X8768811Y8488787D01*
X8686214Y8406190D01*
X8634912Y8301250D01*
X8625000Y8233224D01*
X250500Y8233224D01*
X250500Y9183265D01*
X10499500Y9183265D01*
X10499500Y8816736D01*
X10509427Y8748607D01*
X10509427Y8748606D01*
X10560801Y8643518D01*
X10560802Y8643517D01*
X10643517Y8560802D01*
X10748607Y8509427D01*
X10816740Y8499500D01*
X11114363Y8499500D01*
X11166689Y8477826D01*
X11188363Y8425500D01*
X11175422Y8387382D01*
X11176925Y8386514D01*
X11108610Y8268191D01*
X11108606Y8268182D01*
X11074500Y8140895D01*
X11074500Y8009106D01*
X11108606Y7881819D01*
X11108610Y7881810D01*
X11174499Y7767687D01*
X11174500Y7767686D01*
X11267686Y7674500D01*
X11381814Y7608608D01*
X11509105Y7574501D01*
X11509106Y7574500D01*
X11509108Y7574500D01*
X11640894Y7574500D01*
X11640894Y7574501D01*
X11768186Y7608608D01*
X11882314Y7674500D01*
X11975500Y7767686D01*
X12038809Y7877341D01*
X12083740Y7911818D01*
X12139892Y7904426D01*
X12155219Y7892666D01*
X13010126Y7037759D01*
X13031800Y6985433D01*
X13031800Y6896706D01*
X13065906Y6769419D01*
X13065910Y6769410D01*
X13109726Y6693519D01*
X13131800Y6655286D01*
X13224986Y6562100D01*
X13339114Y6496208D01*
X13466405Y6462101D01*
X13466406Y6462100D01*
X13466408Y6462100D01*
X13598194Y6462100D01*
X13598194Y6462101D01*
X13725486Y6496208D01*
X13839614Y6562100D01*
X13932800Y6655286D01*
X13998692Y6769414D01*
X14032799Y6896706D01*
X14032800Y6896706D01*
X14032800Y7028395D01*
X26237000Y7028395D01*
X26237000Y6896606D01*
X26271106Y6769319D01*
X26271110Y6769310D01*
X26329491Y6668192D01*
X26337000Y6655186D01*
X26430186Y6562000D01*
X26544314Y6496108D01*
X26671605Y6462001D01*
X26671606Y6462000D01*
X26671608Y6462000D01*
X26803394Y6462000D01*
X26803394Y6462001D01*
X26930686Y6496108D01*
X27044814Y6562000D01*
X27138000Y6655186D01*
X27203892Y6769314D01*
X27237999Y6896606D01*
X27238000Y6896606D01*
X27238000Y6901311D01*
X27259674Y6953637D01*
X27908863Y7602826D01*
X27961189Y7624500D01*
X28368863Y7624500D01*
X28421189Y7602826D01*
X28430391Y7591613D01*
X28455881Y7553464D01*
X28455883Y7553462D01*
X28455886Y7553458D01*
X28553458Y7455886D01*
X28668189Y7379225D01*
X28668190Y7379225D01*
X28668191Y7379224D01*
X28779277Y7333211D01*
X28795672Y7326420D01*
X28931007Y7299500D01*
X28931009Y7299500D01*
X29068991Y7299500D01*
X29068993Y7299500D01*
X29204328Y7326420D01*
X29331811Y7379225D01*
X29446542Y7455886D01*
X29544114Y7553458D01*
X29620775Y7668189D01*
X29673580Y7795672D01*
X29700500Y7931007D01*
X29700500Y8068993D01*
X29691546Y8114002D01*
X29702594Y8169547D01*
X29711793Y8180758D01*
X31491664Y9960626D01*
X31543990Y9982300D01*
X33818311Y9982300D01*
X33870637Y9960626D01*
X33892311Y9908300D01*
X33870637Y9855974D01*
X31699521Y7684858D01*
X31667592Y7629556D01*
X31644620Y7605029D01*
X31553463Y7544119D01*
X31455883Y7446539D01*
X31379223Y7331809D01*
X31326421Y7204333D01*
X31326418Y7204323D01*
X31311742Y7130537D01*
X31299500Y7068993D01*
X31299500Y6931007D01*
X31306343Y6896606D01*
X31326418Y6795678D01*
X31326421Y6795668D01*
X31379223Y6668192D01*
X31451897Y6559427D01*
X31455886Y6553458D01*
X31553458Y6455886D01*
X31668189Y6379225D01*
X31795672Y6326420D01*
X31931007Y6299500D01*
X31931009Y6299500D01*
X32068991Y6299500D01*
X32068993Y6299500D01*
X32204328Y6326420D01*
X32331811Y6379225D01*
X32446542Y6455886D01*
X32544114Y6553458D01*
X32620775Y6668189D01*
X32673580Y6795672D01*
X32700500Y6931007D01*
X32700500Y7068993D01*
X32673580Y7204328D01*
X32646455Y7269814D01*
X32620776Y7331809D01*
X32619839Y7333211D01*
X32589094Y7379225D01*
X32569508Y7408538D01*
X32558459Y7464087D01*
X32578709Y7501974D01*
X34357136Y9280400D01*
X34409461Y9302073D01*
X34452988Y9284044D01*
X34454837Y9286453D01*
X34458683Y9283502D01*
X34458685Y9283501D01*
X34458686Y9283500D01*
X34572814Y9217608D01*
X34700105Y9183501D01*
X34700106Y9183500D01*
X34700108Y9183500D01*
X34831894Y9183500D01*
X34831894Y9183501D01*
X34959186Y9217608D01*
X35073314Y9283500D01*
X35166500Y9376686D01*
X35232392Y9490814D01*
X35266499Y9618106D01*
X35266500Y9618106D01*
X35266500Y9749894D01*
X35266499Y9749895D01*
X35261985Y9766740D01*
X35232392Y9877186D01*
X35232389Y9877191D01*
X35231233Y9879983D01*
X35231233Y9881512D01*
X35231137Y9881870D01*
X35231233Y9881896D01*
X35231235Y9936620D01*
X35271284Y9976668D01*
X35299601Y9982300D01*
X36994811Y9982300D01*
X37047136Y9960627D01*
X37891837Y9115925D01*
X37977463Y9066489D01*
X37977464Y9066489D01*
X37981664Y9064064D01*
X37980532Y9062105D01*
X38015270Y9027380D01*
X38015280Y8970743D01*
X37975239Y8930687D01*
X37961388Y8926974D01*
X37961393Y8926956D01*
X37829418Y8891594D01*
X37829409Y8891590D01*
X37715283Y8825699D01*
X37656134Y8766550D01*
X37603808Y8744876D01*
X37551483Y8766551D01*
X37529809Y8818877D01*
X37530443Y8828541D01*
X37530900Y8832011D01*
X37530900Y8963794D01*
X37530899Y8963795D01*
X37529037Y8970743D01*
X37496792Y9091086D01*
X37430900Y9205214D01*
X37337714Y9298400D01*
X37237112Y9356483D01*
X37223590Y9364290D01*
X37223581Y9364294D01*
X37096294Y9398400D01*
X37096292Y9398400D01*
X36964508Y9398400D01*
X36964506Y9398400D01*
X36837218Y9364294D01*
X36837209Y9364290D01*
X36723085Y9298400D01*
X36629900Y9205215D01*
X36564010Y9091091D01*
X36564006Y9091082D01*
X36529900Y8963795D01*
X36529900Y8832006D01*
X36564006Y8704719D01*
X36564010Y8704710D01*
X36629900Y8590586D01*
X36633226Y8587260D01*
X36654900Y8534934D01*
X36654900Y8377764D01*
X36662362Y8349912D01*
X36680489Y8282265D01*
X36680490Y8282261D01*
X36709503Y8232010D01*
X36729925Y8196638D01*
X36729926Y8196637D01*
X38057125Y6869438D01*
X38127038Y6799525D01*
X38212662Y6750090D01*
X38260413Y6737295D01*
X38308164Y6724500D01*
X38308165Y6724500D01*
X38311080Y6724500D01*
X38318436Y6722641D01*
X38337945Y6708109D01*
X38356189Y6697577D01*
X38356466Y6697853D01*
X38357498Y6696821D01*
X38359013Y6695946D01*
X38360528Y6693900D01*
X38360800Y6693519D01*
X38360802Y6693517D01*
X38443517Y6610802D01*
X38548607Y6559427D01*
X38616740Y6549500D01*
X38788811Y6549500D01*
X38841137Y6527826D01*
X39607125Y5761838D01*
X39677038Y5691925D01*
X39762662Y5642490D01*
X39783306Y5636959D01*
X39816479Y5617807D01*
X39842386Y5591900D01*
X39956514Y5526008D01*
X40083805Y5491901D01*
X40083806Y5491900D01*
X40083808Y5491900D01*
X40215594Y5491900D01*
X40215594Y5491901D01*
X40342886Y5526008D01*
X40457014Y5591900D01*
X40550200Y5685086D01*
X40616092Y5799214D01*
X40633925Y5865769D01*
X41114500Y5865769D01*
X41114500Y5714232D01*
X41153717Y5567870D01*
X41153721Y5567861D01*
X41229483Y5436638D01*
X41229485Y5436635D01*
X41336635Y5329485D01*
X41467865Y5253719D01*
X41614231Y5214501D01*
X41614232Y5214500D01*
X41614234Y5214500D01*
X41765768Y5214500D01*
X41765768Y5214501D01*
X41912135Y5253719D01*
X42043365Y5329485D01*
X42150515Y5436635D01*
X42226281Y5567865D01*
X42265499Y5714232D01*
X42265500Y5714232D01*
X42265500Y5865768D01*
X42265499Y5865769D01*
X42226282Y6012131D01*
X42226281Y6012135D01*
X42150515Y6143365D01*
X42043365Y6250515D01*
X41958521Y6299500D01*
X41912139Y6326279D01*
X41912130Y6326283D01*
X41765768Y6365500D01*
X41765766Y6365500D01*
X41614234Y6365500D01*
X41614232Y6365500D01*
X41467869Y6326283D01*
X41467860Y6326279D01*
X41336637Y6250517D01*
X41229483Y6143363D01*
X41153721Y6012140D01*
X41153717Y6012131D01*
X41114500Y5865769D01*
X40633925Y5865769D01*
X40650199Y5926506D01*
X40650200Y5926506D01*
X40650200Y6058294D01*
X40650199Y6058295D01*
X40627405Y6143363D01*
X40616092Y6185586D01*
X40550200Y6299714D01*
X40457014Y6392900D01*
X40409468Y6420351D01*
X40374991Y6465284D01*
X40382384Y6521437D01*
X40427318Y6555915D01*
X40435805Y6557663D01*
X40451249Y6559913D01*
X40556188Y6611214D01*
X40638785Y6693811D01*
X40690087Y6798751D01*
X40699999Y6866777D01*
X40700000Y6866788D01*
X40700000Y7000000D01*
X39700001Y7000000D01*
X39700001Y6909688D01*
X39678327Y6857362D01*
X39626001Y6835688D01*
X39573675Y6857362D01*
X39322174Y7108863D01*
X39300500Y7161189D01*
X39300500Y7333224D01*
X39700000Y7333224D01*
X39700000Y7200000D01*
X40100000Y7200000D01*
X40300000Y7200000D01*
X40699999Y7200000D01*
X40699999Y7333211D01*
X40699998Y7333225D01*
X40690087Y7401251D01*
X40638786Y7506189D01*
X40556189Y7588786D01*
X40451249Y7640088D01*
X40383223Y7650000D01*
X40300000Y7650000D01*
X40300000Y7200000D01*
X40100000Y7200000D01*
X40100000Y7650000D01*
X40016788Y7650000D01*
X40016776Y7649999D01*
X39948749Y7640088D01*
X39843811Y7588787D01*
X39761214Y7506190D01*
X39709912Y7401250D01*
X39700000Y7333224D01*
X39300500Y7333224D01*
X39300500Y7333254D01*
X39300500Y7333260D01*
X39290573Y7401393D01*
X39239198Y7506483D01*
X39156483Y7589198D01*
X39156482Y7589199D01*
X39051394Y7640573D01*
X38983264Y7650500D01*
X38983260Y7650500D01*
X38616740Y7650500D01*
X38616735Y7650500D01*
X38548606Y7640573D01*
X38548605Y7640573D01*
X38461378Y7597930D01*
X38404850Y7594421D01*
X38376552Y7612085D01*
X38159757Y7828880D01*
X38138083Y7881206D01*
X38159757Y7933532D01*
X38192928Y7952684D01*
X38215786Y7958808D01*
X38329914Y8024700D01*
X38423100Y8117886D01*
X38488992Y8232014D01*
X38523099Y8359306D01*
X38523100Y8359306D01*
X38523100Y8491094D01*
X38523099Y8491095D01*
X38503139Y8565586D01*
X38488992Y8618386D01*
X38423100Y8732514D01*
X38329914Y8825700D01*
X38318983Y8832011D01*
X38215790Y8891590D01*
X38215781Y8891594D01*
X38201493Y8895422D01*
X38156560Y8929900D01*
X38149168Y8986053D01*
X38183646Y9030986D01*
X38220646Y9040900D01*
X38688534Y9040900D01*
X38740860Y9019226D01*
X38744186Y9015900D01*
X38858314Y8950008D01*
X38985605Y8915901D01*
X38985606Y8915900D01*
X38985608Y8915900D01*
X39117394Y8915900D01*
X39117394Y8915901D01*
X39244686Y8950008D01*
X39358814Y9015900D01*
X39452000Y9109086D01*
X39517892Y9223214D01*
X39551999Y9350506D01*
X39552000Y9350506D01*
X39552000Y9482294D01*
X39551999Y9482295D01*
X39549717Y9490810D01*
X39517892Y9609586D01*
X39452000Y9723714D01*
X39358814Y9816900D01*
X39244690Y9882790D01*
X39244681Y9882794D01*
X39117394Y9916900D01*
X39117392Y9916900D01*
X38985608Y9916900D01*
X38985606Y9916900D01*
X38858318Y9882794D01*
X38858309Y9882790D01*
X38744185Y9816900D01*
X38740860Y9813574D01*
X38688534Y9791900D01*
X38308590Y9791900D01*
X38256264Y9813574D01*
X37411563Y10658274D01*
X37411562Y10658275D01*
X37325942Y10707708D01*
X37325933Y10707712D01*
X37278185Y10720506D01*
X37278184Y10720506D01*
X37230438Y10733300D01*
X37230436Y10733300D01*
X37230435Y10733300D01*
X31407236Y10733300D01*
X31308364Y10733300D01*
X31212863Y10707711D01*
X31212861Y10707711D01*
X31212861Y10707710D01*
X31127236Y10658275D01*
X29180761Y8711800D01*
X29128435Y8690126D01*
X29113999Y8691548D01*
X29068993Y8700500D01*
X28931007Y8700500D01*
X28892642Y8692869D01*
X28795677Y8673582D01*
X28795667Y8673579D01*
X28668191Y8620777D01*
X28553461Y8544117D01*
X28455881Y8446537D01*
X28430391Y8408387D01*
X28383299Y8376922D01*
X28368863Y8375500D01*
X27824436Y8375500D01*
X27725564Y8375500D01*
X27630063Y8349911D01*
X27630062Y8349911D01*
X27630060Y8349910D01*
X27630058Y8349909D01*
X27544441Y8300478D01*
X26728637Y7484674D01*
X26676311Y7463000D01*
X26671606Y7463000D01*
X26544318Y7428894D01*
X26544309Y7428890D01*
X26430185Y7363000D01*
X26337000Y7269815D01*
X26271110Y7155691D01*
X26271106Y7155682D01*
X26237000Y7028395D01*
X14032800Y7028395D01*
X14032800Y7028494D01*
X14032799Y7028495D01*
X13998693Y7155782D01*
X13998692Y7155786D01*
X13932800Y7269914D01*
X13839614Y7363100D01*
X13725490Y7428990D01*
X13725481Y7428994D01*
X13598194Y7463100D01*
X13598192Y7463100D01*
X13466408Y7463100D01*
X13426920Y7452520D01*
X13370768Y7459914D01*
X13355443Y7471673D01*
X12301224Y8525892D01*
X12279550Y8578218D01*
X12301223Y8630543D01*
X12314198Y8643517D01*
X12365573Y8748607D01*
X12375500Y8816740D01*
X12375500Y9183260D01*
X12365573Y9251393D01*
X12314198Y9356483D01*
X12231483Y9439198D01*
X12231482Y9439199D01*
X12126394Y9490573D01*
X12058264Y9500500D01*
X12058260Y9500500D01*
X10816740Y9500500D01*
X10816735Y9500500D01*
X10748606Y9490573D01*
X10748605Y9490573D01*
X10643517Y9439199D01*
X10560801Y9356483D01*
X10509427Y9251395D01*
X10509427Y9251394D01*
X10499500Y9183265D01*
X250500Y9183265D01*
X250500Y23339535D01*
X6965000Y23339535D01*
X6965000Y23335742D01*
X6965000Y22428562D01*
X6971555Y22404100D01*
X6990588Y22333066D01*
X6990590Y22333061D01*
X7022586Y22277643D01*
X7040025Y22247438D01*
X7040026Y22247437D01*
X8602826Y20684636D01*
X8624500Y20632311D01*
X8624500Y20266736D01*
X8634427Y20198607D01*
X8634427Y20198605D01*
X8659043Y20148253D01*
X8662552Y20091725D01*
X8644888Y20063427D01*
X8217038Y19635575D01*
X8147125Y19565663D01*
X8097690Y19480040D01*
X8097688Y19480035D01*
X8072100Y19384538D01*
X8072100Y18015463D01*
X8097688Y17919966D01*
X8097690Y17919961D01*
X8128619Y17866392D01*
X8147126Y17834337D01*
X8644888Y17336575D01*
X8666562Y17284249D01*
X8659044Y17251750D01*
X8634427Y17201393D01*
X8624500Y17133265D01*
X8624500Y16766736D01*
X8634427Y16698607D01*
X8634427Y16698605D01*
X8659043Y16648253D01*
X8662552Y16591725D01*
X8644888Y16563427D01*
X8267138Y16185675D01*
X8197225Y16115763D01*
X8147790Y16030138D01*
X8123104Y15938008D01*
X8123102Y15938003D01*
X8122201Y15934643D01*
X8122200Y15934632D01*
X8122200Y14465362D01*
X8127229Y14446595D01*
X8127229Y14446593D01*
X8147788Y14369866D01*
X8147790Y14369861D01*
X8197225Y14284238D01*
X8644888Y13836575D01*
X8666562Y13784249D01*
X8659044Y13751750D01*
X8634427Y13701393D01*
X8624500Y13633265D01*
X8624500Y13266736D01*
X8634427Y13198607D01*
X8634427Y13198605D01*
X8659043Y13148253D01*
X8662552Y13091725D01*
X8644888Y13063427D01*
X8217038Y12635575D01*
X8147125Y12565663D01*
X8097690Y12480040D01*
X8097688Y12480035D01*
X8072100Y12384538D01*
X8072100Y11015463D01*
X8097688Y10919966D01*
X8097690Y10919961D01*
X8147125Y10834338D01*
X8644888Y10336575D01*
X8666562Y10284249D01*
X8659044Y10251750D01*
X8634427Y10201393D01*
X8624500Y10133265D01*
X8624500Y9766736D01*
X8634427Y9698607D01*
X8634427Y9698606D01*
X8685801Y9593518D01*
X8685802Y9593517D01*
X8768517Y9510802D01*
X8873607Y9459427D01*
X8941740Y9449500D01*
X8941746Y9449500D01*
X10183254Y9449500D01*
X10183260Y9449500D01*
X10251393Y9459427D01*
X10356483Y9510802D01*
X10439198Y9593517D01*
X10490573Y9698607D01*
X10500500Y9766740D01*
X10500500Y10133260D01*
X10490573Y10201393D01*
X10439198Y10306483D01*
X10356483Y10389198D01*
X10356482Y10389199D01*
X10251394Y10440573D01*
X10183264Y10450500D01*
X10183260Y10450500D01*
X9623690Y10450500D01*
X9571364Y10472174D01*
X9119863Y10923675D01*
X9098189Y10976001D01*
X9119863Y11028327D01*
X9172189Y11050001D01*
X9462500Y11050001D01*
X9662500Y11050001D01*
X10183211Y11050001D01*
X10183224Y11050002D01*
X10251250Y11059913D01*
X10356188Y11111214D01*
X10438785Y11193811D01*
X10490087Y11298751D01*
X10499999Y11366777D01*
X10500000Y11366788D01*
X10500000Y11450000D01*
X9662500Y11450000D01*
X9662500Y11050001D01*
X9462500Y11050001D01*
X9462500Y11650000D01*
X9662500Y11650000D01*
X10499999Y11650000D01*
X10499999Y11733211D01*
X10499998Y11733225D01*
X10490087Y11801251D01*
X10438786Y11906189D01*
X10356189Y11988786D01*
X10251249Y12040088D01*
X10183223Y12050000D01*
X9662500Y12050000D01*
X9662500Y11650000D01*
X9462500Y11650000D01*
X9462500Y12050000D01*
X8941781Y12050000D01*
X8907767Y12045044D01*
X8902305Y12046428D01*
X8897100Y12044271D01*
X8875511Y12053214D01*
X8852864Y12058949D01*
X8849980Y12063789D01*
X8844774Y12065945D01*
X8835831Y12087535D01*
X8823873Y12107604D01*
X8823100Y12118271D01*
X8823100Y12148911D01*
X8844774Y12201237D01*
X9571364Y12927826D01*
X9623690Y12949500D01*
X10183254Y12949500D01*
X10183260Y12949500D01*
X10251393Y12959427D01*
X10356483Y13010802D01*
X10398507Y13052826D01*
X10450833Y13074500D01*
X10602026Y13074500D01*
X10654352Y13052826D01*
X10676026Y13000500D01*
X10654352Y12948174D01*
X10645024Y12940274D01*
X10643517Y12939199D01*
X10560801Y12856483D01*
X10509427Y12751395D01*
X10509427Y12751394D01*
X10499500Y12683265D01*
X10499500Y12316736D01*
X10509427Y12248607D01*
X10509427Y12248606D01*
X10560801Y12143518D01*
X10560802Y12143517D01*
X10643517Y12060802D01*
X10748607Y12009427D01*
X10816740Y11999500D01*
X11088000Y11999500D01*
X11140326Y11977826D01*
X11162000Y11925500D01*
X11162000Y11812299D01*
X11202187Y11715279D01*
X11203940Y11711047D01*
X11203942Y11711045D01*
X11203943Y11711042D01*
X12181684Y10733300D01*
X12490730Y10424254D01*
X12512404Y10371928D01*
X12511771Y10362269D01*
X12511300Y10358692D01*
X12511300Y10226906D01*
X12545406Y10099619D01*
X12545407Y10099616D01*
X12545408Y10099614D01*
X12611300Y9985486D01*
X12704486Y9892300D01*
X12818614Y9826408D01*
X12945905Y9792301D01*
X12945906Y9792300D01*
X12945908Y9792300D01*
X13077694Y9792300D01*
X13077694Y9792301D01*
X13204986Y9826408D01*
X13319114Y9892300D01*
X13412300Y9985486D01*
X13478192Y10099614D01*
X13512299Y10226906D01*
X13512300Y10226906D01*
X13512300Y10358694D01*
X13512299Y10358695D01*
X13511341Y10362269D01*
X13478192Y10485986D01*
X13412300Y10600114D01*
X13319114Y10693300D01*
X13294155Y10707710D01*
X13204990Y10759190D01*
X13204981Y10759194D01*
X13077694Y10793300D01*
X13077692Y10793300D01*
X12945908Y10793300D01*
X12945907Y10793300D01*
X12942331Y10792829D01*
X12887623Y10807488D01*
X12880346Y10813870D01*
X11821042Y11873174D01*
X11799368Y11925500D01*
X11821042Y11977826D01*
X11873368Y11999500D01*
X12058254Y11999500D01*
X12058260Y11999500D01*
X12126393Y12009427D01*
X12231483Y12060802D01*
X12314198Y12143517D01*
X12365573Y12248607D01*
X12375500Y12316740D01*
X12375500Y12683260D01*
X12365573Y12751393D01*
X12314198Y12856483D01*
X12231483Y12939198D01*
X12231482Y12939199D01*
X12229976Y12940274D01*
X12229259Y12941422D01*
X12227147Y12943534D01*
X12227635Y12944023D01*
X12199984Y12988319D01*
X12212748Y13043498D01*
X12260793Y13073490D01*
X12272974Y13074500D01*
X19056652Y13074500D01*
X19108978Y13052826D01*
X19130652Y13000500D01*
X19120738Y12963502D01*
X19109210Y12943534D01*
X19086610Y12904390D01*
X19086606Y12904382D01*
X19052500Y12777095D01*
X19052500Y12645306D01*
X19086606Y12518019D01*
X19086610Y12518010D01*
X19138058Y12428900D01*
X19152500Y12403886D01*
X19245686Y12310700D01*
X19359814Y12244808D01*
X19402168Y12233460D01*
X19447100Y12198983D01*
X19454494Y12142831D01*
X19435342Y12109657D01*
X19401000Y12075315D01*
X19335110Y11961191D01*
X19335106Y11961182D01*
X19301000Y11833895D01*
X19301000Y11702106D01*
X19335106Y11574819D01*
X19335110Y11574810D01*
X19347438Y11553458D01*
X19401000Y11460686D01*
X19494186Y11367500D01*
X19608314Y11301608D01*
X19735605Y11267501D01*
X19735606Y11267500D01*
X19735608Y11267500D01*
X19867394Y11267500D01*
X19867394Y11267501D01*
X19994686Y11301608D01*
X20108814Y11367500D01*
X20202000Y11460686D01*
X20267892Y11574814D01*
X20275346Y11602637D01*
X20309822Y11647568D01*
X20365975Y11654962D01*
X20408352Y11624596D01*
X20455881Y11553464D01*
X20455883Y11553462D01*
X20455886Y11553458D01*
X20553458Y11455886D01*
X20668189Y11379225D01*
X20668190Y11379225D01*
X20668191Y11379224D01*
X20698241Y11366777D01*
X20795672Y11326420D01*
X20931007Y11299500D01*
X20931009Y11299500D01*
X21068991Y11299500D01*
X21068993Y11299500D01*
X21204328Y11326420D01*
X21331811Y11379225D01*
X21446542Y11455886D01*
X21544114Y11553458D01*
X21620775Y11668189D01*
X21673580Y11795672D01*
X21700500Y11931007D01*
X21700500Y12068993D01*
X21673580Y12204328D01*
X21656812Y12244809D01*
X21620776Y12331809D01*
X21608955Y12349500D01*
X21544114Y12446542D01*
X21446542Y12544114D01*
X21414293Y12565662D01*
X21331808Y12620777D01*
X21204332Y12673579D01*
X21204322Y12673582D01*
X21114239Y12691500D01*
X21095525Y12695223D01*
X21048434Y12726688D01*
X21037385Y12782237D01*
X21068851Y12829329D01*
X21109963Y12841800D01*
X22596511Y12841800D01*
X22648837Y12820126D01*
X22651137Y12817826D01*
X22672811Y12765500D01*
X22651137Y12713174D01*
X22598811Y12691500D01*
X22472506Y12691500D01*
X22345218Y12657394D01*
X22345209Y12657390D01*
X22231085Y12591500D01*
X22137900Y12498315D01*
X22072010Y12384191D01*
X22072006Y12384182D01*
X22037900Y12256895D01*
X22037900Y12125106D01*
X22072006Y11997819D01*
X22072010Y11997810D01*
X22110578Y11931009D01*
X22137900Y11883686D01*
X22231086Y11790500D01*
X22345214Y11724608D01*
X22472505Y11690501D01*
X22472506Y11690500D01*
X22472508Y11690500D01*
X22604294Y11690500D01*
X22604294Y11690501D01*
X22731586Y11724608D01*
X22845714Y11790500D01*
X22938900Y11883686D01*
X23004792Y11997814D01*
X23038899Y12125106D01*
X23038900Y12125106D01*
X23038900Y12251411D01*
X23060574Y12303737D01*
X23112900Y12325411D01*
X23165226Y12303737D01*
X24788200Y10680763D01*
X24809874Y10628437D01*
X24808452Y10614001D01*
X24805690Y10600114D01*
X24799500Y10568993D01*
X24799500Y10431007D01*
X24806826Y10394177D01*
X24826418Y10295678D01*
X24826421Y10295668D01*
X24879223Y10168192D01*
X24902560Y10133265D01*
X24955886Y10053458D01*
X25053458Y9955886D01*
X25168189Y9879225D01*
X25168190Y9879225D01*
X25168191Y9879224D01*
X25173121Y9877182D01*
X25295672Y9826420D01*
X25431007Y9799500D01*
X25431009Y9799500D01*
X25568991Y9799500D01*
X25568993Y9799500D01*
X25704328Y9826420D01*
X25831811Y9879225D01*
X25946542Y9955886D01*
X26044114Y10053458D01*
X26120775Y10168189D01*
X26173580Y10295672D01*
X26200500Y10431007D01*
X26200500Y10568993D01*
X26173580Y10704328D01*
X26166879Y10720506D01*
X26120776Y10831809D01*
X26119086Y10834338D01*
X26044114Y10946542D01*
X25946542Y11044114D01*
X25922897Y11059913D01*
X25831808Y11120777D01*
X25704332Y11173579D01*
X25704322Y11173582D01*
X25613694Y11191609D01*
X25568993Y11200500D01*
X25431007Y11200500D01*
X25385999Y11191548D01*
X25330450Y11202598D01*
X25319237Y11211800D01*
X24804942Y11726095D01*
X36061200Y11726095D01*
X36061200Y11594306D01*
X36095306Y11467019D01*
X36095310Y11467010D01*
X36101734Y11455884D01*
X36161200Y11352886D01*
X36254386Y11259700D01*
X36368514Y11193808D01*
X36495805Y11159701D01*
X36495806Y11159700D01*
X36495808Y11159700D01*
X36627594Y11159700D01*
X36627594Y11159701D01*
X36754886Y11193808D01*
X36869014Y11259700D01*
X36962200Y11352886D01*
X37028092Y11467014D01*
X37060309Y11587255D01*
X37094788Y11632186D01*
X37131788Y11642100D01*
X38792498Y11642100D01*
X38792500Y11642100D01*
X38893758Y11684043D01*
X38971257Y11761542D01*
X38971256Y11761542D01*
X39006217Y11796503D01*
X39006216Y11796503D01*
X40226496Y13016782D01*
X40278821Y13038455D01*
X40331147Y13016781D01*
X40352821Y12964455D01*
X40350300Y12945303D01*
X40336900Y12895292D01*
X40336900Y12763506D01*
X40371006Y12636219D01*
X40371010Y12636210D01*
X40396824Y12591500D01*
X40436900Y12522086D01*
X40530086Y12428900D01*
X40644214Y12363008D01*
X40771505Y12328901D01*
X40771506Y12328900D01*
X40771508Y12328900D01*
X40903294Y12328900D01*
X40903294Y12328901D01*
X41030586Y12363008D01*
X41144714Y12428900D01*
X41237900Y12522086D01*
X41303792Y12636214D01*
X41337899Y12763506D01*
X41337900Y12763506D01*
X41337900Y12895294D01*
X41337899Y12895295D01*
X41329182Y12927826D01*
X41303792Y13022586D01*
X41237900Y13136714D01*
X41144714Y13229900D01*
X41141756Y13231608D01*
X41030590Y13295790D01*
X41030581Y13295794D01*
X41026959Y13296764D01*
X40903294Y13329900D01*
X40903292Y13329900D01*
X40771508Y13329900D01*
X40721497Y13316500D01*
X40665344Y13323893D01*
X40635034Y13363395D01*
X41999500Y13363395D01*
X41999500Y13231606D01*
X42033606Y13104319D01*
X42033607Y13104316D01*
X42033608Y13104314D01*
X42099500Y12990186D01*
X42192686Y12897000D01*
X42306814Y12831108D01*
X42434105Y12797001D01*
X42434106Y12797000D01*
X42434108Y12797000D01*
X42565894Y12797000D01*
X42565894Y12797001D01*
X42693186Y12831108D01*
X42807314Y12897000D01*
X42900500Y12990186D01*
X42966392Y13104314D01*
X43000499Y13231606D01*
X43000500Y13231606D01*
X43000500Y13363394D01*
X43000499Y13363395D01*
X42966393Y13490682D01*
X42966392Y13490686D01*
X42900500Y13604814D01*
X42807314Y13698000D01*
X42714217Y13751750D01*
X42693190Y13763890D01*
X42693181Y13763894D01*
X42565894Y13798000D01*
X42565892Y13798000D01*
X42434108Y13798000D01*
X42434106Y13798000D01*
X42306818Y13763894D01*
X42306809Y13763890D01*
X42192685Y13698000D01*
X42099500Y13604815D01*
X42033610Y13490691D01*
X42033606Y13490682D01*
X41999500Y13363395D01*
X40635034Y13363395D01*
X40630866Y13368827D01*
X40638259Y13424980D01*
X40650016Y13440302D01*
X40865446Y13655732D01*
X40917771Y13677405D01*
X40927437Y13676771D01*
X40931004Y13676302D01*
X40931008Y13676300D01*
X40931012Y13676300D01*
X41062794Y13676300D01*
X41062794Y13676301D01*
X41190086Y13710408D01*
X41304214Y13776300D01*
X41397400Y13869486D01*
X41463292Y13983614D01*
X41497399Y14110906D01*
X41497400Y14110906D01*
X41497400Y14242694D01*
X41497399Y14242695D01*
X41475479Y14324501D01*
X41463292Y14369986D01*
X41397400Y14484114D01*
X41304214Y14577300D01*
X41264131Y14600442D01*
X41190090Y14643190D01*
X41190081Y14643194D01*
X41062794Y14677300D01*
X41062792Y14677300D01*
X40931008Y14677300D01*
X40931006Y14677300D01*
X40803718Y14643194D01*
X40803709Y14643190D01*
X40689585Y14577300D01*
X40596400Y14484115D01*
X40530510Y14369991D01*
X40530506Y14369982D01*
X40496400Y14242695D01*
X40496400Y14110905D01*
X40496871Y14107324D01*
X40482206Y14052618D01*
X40475829Y14045347D01*
X38645259Y12214774D01*
X38592933Y12193100D01*
X36873900Y12193100D01*
X36764300Y12193100D01*
X36692202Y12163238D01*
X36686311Y12160797D01*
X36638845Y12157686D01*
X36627596Y12160700D01*
X36627592Y12160700D01*
X36495808Y12160700D01*
X36495806Y12160700D01*
X36368518Y12126594D01*
X36368509Y12126590D01*
X36254385Y12060700D01*
X36161200Y11967515D01*
X36095310Y11853391D01*
X36095306Y11853382D01*
X36061200Y11726095D01*
X24804942Y11726095D01*
X23013262Y13517775D01*
X22927642Y13567208D01*
X22927633Y13567212D01*
X22879885Y13580006D01*
X22879884Y13580006D01*
X22832138Y13592800D01*
X22832136Y13592800D01*
X22832135Y13592800D01*
X20312689Y13592800D01*
X20260363Y13614474D01*
X20124362Y13750475D01*
X20038742Y13799908D01*
X20038733Y13799912D01*
X19990985Y13812706D01*
X19990984Y13812706D01*
X19943238Y13825500D01*
X19943236Y13825500D01*
X19943235Y13825500D01*
X10450833Y13825500D01*
X10398507Y13847174D01*
X10356482Y13889199D01*
X10251394Y13940573D01*
X10183264Y13950500D01*
X10183260Y13950500D01*
X9623689Y13950500D01*
X9571363Y13972174D01*
X9119862Y14423675D01*
X9098188Y14476001D01*
X9119862Y14528327D01*
X9172188Y14550001D01*
X9462500Y14550001D01*
X9662500Y14550001D01*
X10183211Y14550001D01*
X10183224Y14550002D01*
X10251250Y14559913D01*
X10356188Y14611214D01*
X10438785Y14693811D01*
X10490087Y14798751D01*
X10499999Y14866777D01*
X10500000Y14866788D01*
X10500000Y14950000D01*
X9662500Y14950000D01*
X9662500Y14550001D01*
X9462500Y14550001D01*
X9462500Y15150000D01*
X9662500Y15150000D01*
X10499999Y15150000D01*
X10499999Y15233211D01*
X10499998Y15233225D01*
X10490087Y15301251D01*
X10438786Y15406189D01*
X10356189Y15488786D01*
X10251249Y15540088D01*
X10183223Y15550000D01*
X9662500Y15550000D01*
X9662500Y15150000D01*
X9462500Y15150000D01*
X9462500Y15550000D01*
X8947200Y15550000D01*
X8894874Y15571674D01*
X8873200Y15624000D01*
X8873200Y15699011D01*
X8894874Y15751337D01*
X9326802Y16183265D01*
X10499500Y16183265D01*
X10499500Y15816736D01*
X10509427Y15748607D01*
X10509427Y15748606D01*
X10560801Y15643518D01*
X10560802Y15643517D01*
X10643517Y15560802D01*
X10748607Y15509427D01*
X10816740Y15499500D01*
X11517733Y15499500D01*
X11570059Y15477826D01*
X12384143Y14663742D01*
X12461642Y14586243D01*
X12562900Y14544300D01*
X13200095Y14544300D01*
X13252421Y14522626D01*
X13258798Y14515355D01*
X13260996Y14512491D01*
X13260998Y14512489D01*
X13261000Y14512486D01*
X13354186Y14419300D01*
X13468314Y14353408D01*
X13595605Y14319301D01*
X13595606Y14319300D01*
X13595608Y14319300D01*
X13727394Y14319300D01*
X13727394Y14319301D01*
X13854686Y14353408D01*
X13968814Y14419300D01*
X14062000Y14512486D01*
X14088620Y14558595D01*
X27319700Y14558595D01*
X27319700Y14426806D01*
X27353806Y14299519D01*
X27353810Y14299510D01*
X27386613Y14242694D01*
X27419700Y14185386D01*
X27512886Y14092200D01*
X27627014Y14026308D01*
X27754305Y13992201D01*
X27754306Y13992200D01*
X27754308Y13992200D01*
X27886094Y13992200D01*
X27886094Y13992201D01*
X28013386Y14026308D01*
X28127514Y14092200D01*
X28220700Y14185386D01*
X28286592Y14299514D01*
X28320699Y14426806D01*
X28320700Y14426806D01*
X28320700Y14558594D01*
X28320699Y14558595D01*
X28286593Y14685882D01*
X28286592Y14685886D01*
X28220700Y14800014D01*
X28127514Y14893200D01*
X28125136Y14894573D01*
X28013390Y14959090D01*
X28013381Y14959094D01*
X27886094Y14993200D01*
X27886092Y14993200D01*
X27754308Y14993200D01*
X27754306Y14993200D01*
X27627018Y14959094D01*
X27627009Y14959090D01*
X27512885Y14893200D01*
X27419700Y14800015D01*
X27353810Y14685891D01*
X27353806Y14685882D01*
X27319700Y14558595D01*
X14088620Y14558595D01*
X14097024Y14573151D01*
X14112782Y14600442D01*
X14119001Y14611214D01*
X14127892Y14626614D01*
X14161999Y14753906D01*
X14162000Y14753906D01*
X14162000Y14885694D01*
X14161999Y14885695D01*
X14160606Y14890892D01*
X14127892Y15012986D01*
X14062000Y15127114D01*
X13968814Y15220300D01*
X13886095Y15268058D01*
X13854690Y15286190D01*
X13854681Y15286194D01*
X13727394Y15320300D01*
X13727392Y15320300D01*
X13595608Y15320300D01*
X13595606Y15320300D01*
X13468318Y15286194D01*
X13468309Y15286190D01*
X13354185Y15220300D01*
X13260996Y15127110D01*
X13258798Y15124245D01*
X13209745Y15095932D01*
X13200095Y15095300D01*
X12762467Y15095300D01*
X12710141Y15116974D01*
X12301224Y15525891D01*
X12279550Y15578217D01*
X12290964Y15617701D01*
X12295376Y15624696D01*
X12314198Y15643517D01*
X12318098Y15651495D01*
X21276200Y15651495D01*
X21276200Y15519706D01*
X21310306Y15392419D01*
X21310310Y15392410D01*
X21329314Y15359495D01*
X21376200Y15278286D01*
X21469386Y15185100D01*
X21583514Y15119208D01*
X21710805Y15085101D01*
X21710806Y15085100D01*
X21710808Y15085100D01*
X21842594Y15085100D01*
X21842594Y15085101D01*
X21969886Y15119208D01*
X22084014Y15185100D01*
X22177200Y15278286D01*
X22243092Y15392414D01*
X22272829Y15503395D01*
X31887000Y15503395D01*
X31887000Y15371606D01*
X31921106Y15244319D01*
X31921110Y15244310D01*
X31955295Y15185101D01*
X31987000Y15130186D01*
X32080186Y15037000D01*
X32194314Y14971108D01*
X32321605Y14937001D01*
X32321606Y14937000D01*
X32321608Y14937000D01*
X32453394Y14937000D01*
X32453394Y14937001D01*
X32580686Y14971108D01*
X32694814Y15037000D01*
X32788000Y15130186D01*
X32853892Y15244314D01*
X32877035Y15330685D01*
X32878324Y15335495D01*
X35392200Y15335495D01*
X35392200Y15203706D01*
X35426306Y15076419D01*
X35426310Y15076410D01*
X35474352Y14993200D01*
X35492200Y14962286D01*
X35585386Y14869100D01*
X35699514Y14803208D01*
X35826805Y14769101D01*
X35826806Y14769100D01*
X35826808Y14769100D01*
X35958594Y14769100D01*
X35958594Y14769101D01*
X36085886Y14803208D01*
X36113500Y14819152D01*
X36169652Y14826544D01*
X36214586Y14792065D01*
X36222187Y14763694D01*
X36223867Y14763915D01*
X36224500Y14759106D01*
X36258606Y14631819D01*
X36258610Y14631810D01*
X36284918Y14586243D01*
X36324500Y14517686D01*
X36417686Y14424500D01*
X36531814Y14358608D01*
X36659105Y14324501D01*
X36659106Y14324500D01*
X36659108Y14324500D01*
X36790894Y14324500D01*
X36790894Y14324501D01*
X36918186Y14358608D01*
X37032314Y14424500D01*
X37125500Y14517686D01*
X37191392Y14631814D01*
X37225499Y14759106D01*
X37225500Y14759106D01*
X37225500Y14890894D01*
X37225499Y14890895D01*
X37224881Y14893200D01*
X37191392Y15018186D01*
X37125500Y15132314D01*
X37032314Y15225500D01*
X36945800Y15275449D01*
X36918190Y15291390D01*
X36918181Y15291394D01*
X36790894Y15325500D01*
X36790892Y15325500D01*
X36659108Y15325500D01*
X36659106Y15325500D01*
X36531818Y15291394D01*
X36531811Y15291391D01*
X36504199Y15275449D01*
X36448046Y15268058D01*
X36403113Y15302537D01*
X36395512Y15330907D01*
X36393833Y15330685D01*
X36393200Y15335488D01*
X36393200Y15335492D01*
X36359092Y15462786D01*
X36293200Y15576914D01*
X36200014Y15670100D01*
X36085890Y15735990D01*
X36085881Y15735994D01*
X35958594Y15770100D01*
X35958592Y15770100D01*
X35826808Y15770100D01*
X35826806Y15770100D01*
X35699518Y15735994D01*
X35699509Y15735990D01*
X35585385Y15670100D01*
X35492200Y15576915D01*
X35426310Y15462791D01*
X35426306Y15462782D01*
X35392200Y15335495D01*
X32878324Y15335495D01*
X32884753Y15359488D01*
X32884754Y15359495D01*
X32887999Y15371606D01*
X32888000Y15371608D01*
X32888000Y15503392D01*
X32888000Y15503397D01*
X32887529Y15506975D01*
X32902189Y15561681D01*
X32908562Y15568949D01*
X34805509Y17465895D01*
X39344500Y17465895D01*
X39344500Y17334106D01*
X39378606Y17206819D01*
X39378610Y17206810D01*
X39421078Y17133254D01*
X39444500Y17092686D01*
X39537686Y16999500D01*
X39651814Y16933608D01*
X39779105Y16899501D01*
X39779106Y16899500D01*
X39779108Y16899500D01*
X39910894Y16899500D01*
X39910894Y16899501D01*
X40038186Y16933608D01*
X40152314Y16999500D01*
X40245500Y17092686D01*
X40311392Y17206814D01*
X40345499Y17334106D01*
X40345500Y17334106D01*
X40345500Y17465894D01*
X40345499Y17465895D01*
X40311393Y17593182D01*
X40311392Y17593186D01*
X40245500Y17707314D01*
X40152314Y17800500D01*
X40093707Y17834337D01*
X40038190Y17866390D01*
X40038181Y17866394D01*
X39910894Y17900500D01*
X39910892Y17900500D01*
X39779108Y17900500D01*
X39779106Y17900500D01*
X39651818Y17866394D01*
X39651809Y17866390D01*
X39537685Y17800500D01*
X39444500Y17707315D01*
X39378610Y17593191D01*
X39378606Y17593182D01*
X39344500Y17465895D01*
X34805509Y17465895D01*
X36177741Y18838126D01*
X36230067Y18859800D01*
X40796095Y18859800D01*
X40848421Y18838126D01*
X40854798Y18830855D01*
X40856996Y18827991D01*
X40856998Y18827989D01*
X40857000Y18827986D01*
X40950186Y18734800D01*
X41064314Y18668908D01*
X41191605Y18634801D01*
X41191606Y18634800D01*
X41191608Y18634800D01*
X41323394Y18634800D01*
X41323394Y18634801D01*
X41450686Y18668908D01*
X41564814Y18734800D01*
X41658000Y18827986D01*
X41723892Y18942114D01*
X41757999Y19069406D01*
X41758000Y19069406D01*
X41758000Y19201194D01*
X41757999Y19201195D01*
X41745295Y19248606D01*
X41723892Y19328486D01*
X41658000Y19442614D01*
X41564814Y19535800D01*
X41508001Y19568601D01*
X41450690Y19601690D01*
X41450681Y19601694D01*
X41323394Y19635800D01*
X41323392Y19635800D01*
X41191608Y19635800D01*
X41191606Y19635800D01*
X41064318Y19601694D01*
X41064309Y19601690D01*
X40950185Y19535800D01*
X40856996Y19442610D01*
X40854798Y19439745D01*
X40805745Y19411432D01*
X40796095Y19410800D01*
X36030500Y19410800D01*
X35967099Y19384538D01*
X35967092Y19384535D01*
X35929242Y19368858D01*
X35929240Y19368856D01*
X32518954Y15958571D01*
X32466628Y15936897D01*
X32456978Y15937529D01*
X32453397Y15938000D01*
X32453392Y15938000D01*
X32321608Y15938000D01*
X32321606Y15938000D01*
X32194318Y15903894D01*
X32194309Y15903890D01*
X32080185Y15838000D01*
X31987000Y15744815D01*
X31921110Y15630691D01*
X31921106Y15630682D01*
X31887000Y15503395D01*
X22272829Y15503395D01*
X22277199Y15519706D01*
X22277200Y15519706D01*
X22277200Y15651494D01*
X22271530Y15672650D01*
X22266032Y15693172D01*
X22273424Y15749323D01*
X22318356Y15783802D01*
X22374509Y15776410D01*
X22389836Y15764650D01*
X22442686Y15711800D01*
X22556814Y15645908D01*
X22684105Y15611801D01*
X22684106Y15611800D01*
X22684108Y15611800D01*
X22815894Y15611800D01*
X22815894Y15611801D01*
X22943186Y15645908D01*
X23057314Y15711800D01*
X23150500Y15804986D01*
X23216392Y15919114D01*
X23250499Y16046406D01*
X23250500Y16046406D01*
X23250500Y16124495D01*
X24822000Y16124495D01*
X24822000Y15992706D01*
X24856106Y15865419D01*
X24856110Y15865410D01*
X24884206Y15816747D01*
X24922000Y15751286D01*
X25015186Y15658100D01*
X25129314Y15592208D01*
X25256605Y15558101D01*
X25256606Y15558100D01*
X25256608Y15558100D01*
X25388394Y15558100D01*
X25388394Y15558101D01*
X25434579Y15570476D01*
X25469081Y15579720D01*
X25492617Y15586027D01*
X25515686Y15592208D01*
X25629814Y15658100D01*
X25723000Y15751286D01*
X25788892Y15865414D01*
X25822999Y15992706D01*
X25823000Y15992706D01*
X25823000Y16124494D01*
X25822999Y16124495D01*
X25788893Y16251782D01*
X25788892Y16251786D01*
X25723000Y16365914D01*
X25629814Y16459100D01*
X25629246Y16459428D01*
X25515690Y16524990D01*
X25515681Y16524994D01*
X25388394Y16559100D01*
X25388392Y16559100D01*
X25256608Y16559100D01*
X25256606Y16559100D01*
X25129318Y16524994D01*
X25129309Y16524990D01*
X25015185Y16459100D01*
X24922000Y16365915D01*
X24856110Y16251791D01*
X24856106Y16251782D01*
X24822000Y16124495D01*
X23250500Y16124495D01*
X23250500Y16178194D01*
X23250499Y16178195D01*
X23249143Y16183254D01*
X23216392Y16305486D01*
X23150500Y16419614D01*
X23057314Y16512800D01*
X23036197Y16524992D01*
X22943190Y16578690D01*
X22943181Y16578694D01*
X22815894Y16612800D01*
X22815892Y16612800D01*
X22684108Y16612800D01*
X22684106Y16612800D01*
X22556818Y16578694D01*
X22556809Y16578690D01*
X22442685Y16512800D01*
X22349500Y16419615D01*
X22283610Y16305491D01*
X22283606Y16305482D01*
X22249500Y16178195D01*
X22249500Y16046406D01*
X22260667Y16004730D01*
X22253275Y15948577D01*
X22208342Y15914099D01*
X22152189Y15921491D01*
X22136863Y15933251D01*
X22084014Y15986100D01*
X21969890Y16051990D01*
X21969881Y16051994D01*
X21842594Y16086100D01*
X21842592Y16086100D01*
X21710808Y16086100D01*
X21710806Y16086100D01*
X21583518Y16051994D01*
X21583509Y16051990D01*
X21469385Y15986100D01*
X21376200Y15892915D01*
X21310310Y15778791D01*
X21310306Y15778782D01*
X21276200Y15651495D01*
X12318098Y15651495D01*
X12365573Y15748607D01*
X12375500Y15816740D01*
X12375500Y16183260D01*
X12365573Y16251393D01*
X12314198Y16356483D01*
X12231483Y16439198D01*
X12231482Y16439199D01*
X12126394Y16490573D01*
X12058264Y16500500D01*
X12058260Y16500500D01*
X10816740Y16500500D01*
X10816735Y16500500D01*
X10748606Y16490573D01*
X10748605Y16490573D01*
X10643517Y16439199D01*
X10560801Y16356483D01*
X10509427Y16251395D01*
X10509427Y16251394D01*
X10499500Y16183265D01*
X9326802Y16183265D01*
X9571363Y16427826D01*
X9623689Y16449500D01*
X10183254Y16449500D01*
X10183260Y16449500D01*
X10251393Y16459427D01*
X10356483Y16510802D01*
X10439198Y16593517D01*
X10490573Y16698607D01*
X10500500Y16766740D01*
X10500500Y17133260D01*
X10490573Y17201393D01*
X10439198Y17306483D01*
X10356483Y17389198D01*
X10356482Y17389199D01*
X10251394Y17440573D01*
X10183264Y17450500D01*
X10183260Y17450500D01*
X9623690Y17450500D01*
X9571364Y17472174D01*
X9119863Y17923675D01*
X9098189Y17976001D01*
X9119863Y18028327D01*
X9172189Y18050001D01*
X9462500Y18050001D01*
X9662500Y18050001D01*
X10183211Y18050001D01*
X10183224Y18050002D01*
X10251250Y18059913D01*
X10356188Y18111214D01*
X10438785Y18193811D01*
X10490087Y18298751D01*
X10499999Y18366777D01*
X10500000Y18366788D01*
X10500000Y18450000D01*
X9662500Y18450000D01*
X9662500Y18050001D01*
X9462500Y18050001D01*
X9462500Y18650000D01*
X9662500Y18650000D01*
X10499999Y18650000D01*
X10499999Y18733211D01*
X10499998Y18733225D01*
X10490087Y18801251D01*
X10438786Y18906189D01*
X10356189Y18988786D01*
X10251249Y19040088D01*
X10183223Y19050000D01*
X9662500Y19050000D01*
X9662500Y18650000D01*
X9462500Y18650000D01*
X9462500Y19050000D01*
X8941781Y19050000D01*
X8907767Y19045044D01*
X8902305Y19046428D01*
X8897100Y19044271D01*
X8875511Y19053214D01*
X8852864Y19058949D01*
X8849980Y19063789D01*
X8844774Y19065945D01*
X8835831Y19087535D01*
X8823873Y19107604D01*
X8823100Y19118271D01*
X8823100Y19148911D01*
X8844774Y19201237D01*
X9571363Y19927826D01*
X9623689Y19949500D01*
X10183254Y19949500D01*
X10183260Y19949500D01*
X10251393Y19959427D01*
X10356483Y20010802D01*
X10439198Y20093517D01*
X10490573Y20198607D01*
X10500500Y20266740D01*
X10500500Y20287833D01*
X10522174Y20340159D01*
X10574500Y20361833D01*
X10626826Y20340159D01*
X10843153Y20123832D01*
X10864827Y20071506D01*
X10843153Y20019180D01*
X10801497Y19998280D01*
X10781300Y19995337D01*
X10748606Y19990573D01*
X10748605Y19990573D01*
X10643517Y19939199D01*
X10560801Y19856483D01*
X10509427Y19751395D01*
X10509427Y19751394D01*
X10499500Y19683265D01*
X10499500Y19316736D01*
X10509427Y19248607D01*
X10509427Y19248606D01*
X10560801Y19143518D01*
X10560802Y19143517D01*
X10643517Y19060802D01*
X10748607Y19009427D01*
X10816740Y18999500D01*
X10816746Y18999500D01*
X12058254Y18999500D01*
X12058260Y18999500D01*
X12126393Y19009427D01*
X12231483Y19060802D01*
X12276276Y19105595D01*
X29175200Y19105595D01*
X29175200Y18973806D01*
X29209306Y18846519D01*
X29209310Y18846510D01*
X29273806Y18734801D01*
X29275200Y18732386D01*
X29368386Y18639200D01*
X29482514Y18573308D01*
X29609805Y18539201D01*
X29609806Y18539200D01*
X29609808Y18539200D01*
X29741594Y18539200D01*
X29741594Y18539201D01*
X29868886Y18573308D01*
X29983014Y18639200D01*
X30076200Y18732386D01*
X30142092Y18846514D01*
X30176199Y18973806D01*
X30176200Y18973806D01*
X30176200Y19105595D01*
X30175729Y19109173D01*
X30190389Y19163880D01*
X30196770Y19171156D01*
X30531708Y19506094D01*
X30895835Y19870221D01*
X30948158Y19891893D01*
X31000484Y19870219D01*
X31012244Y19854893D01*
X31030259Y19823691D01*
X31066000Y19761786D01*
X31159186Y19668600D01*
X31273314Y19602708D01*
X31400605Y19568601D01*
X31400606Y19568600D01*
X31400608Y19568600D01*
X31532394Y19568600D01*
X31532394Y19568601D01*
X31659686Y19602708D01*
X31773814Y19668600D01*
X31801609Y19696395D01*
X32965500Y19696395D01*
X32965500Y19564606D01*
X32999606Y19437319D01*
X32999607Y19437316D01*
X32999608Y19437314D01*
X33065500Y19323186D01*
X33158686Y19230000D01*
X33272814Y19164108D01*
X33400105Y19130001D01*
X33400106Y19130000D01*
X33400108Y19130000D01*
X33531894Y19130000D01*
X33531894Y19130001D01*
X33659186Y19164108D01*
X33773314Y19230000D01*
X33866500Y19323186D01*
X33932392Y19437314D01*
X33966499Y19564606D01*
X33966500Y19564606D01*
X33966500Y19696394D01*
X33966499Y19696395D01*
X33932393Y19823682D01*
X33932392Y19823686D01*
X33866500Y19937814D01*
X33773314Y20031000D01*
X33696832Y20075157D01*
X33659190Y20096890D01*
X33659181Y20096894D01*
X33531894Y20131000D01*
X33531892Y20131000D01*
X33400108Y20131000D01*
X33400106Y20131000D01*
X33272818Y20096894D01*
X33272809Y20096890D01*
X33158685Y20031000D01*
X33065500Y19937815D01*
X32999610Y19823691D01*
X32999606Y19823682D01*
X32965500Y19696395D01*
X31801609Y19696395D01*
X31867000Y19761786D01*
X31932892Y19875914D01*
X31966999Y20003206D01*
X31967000Y20003206D01*
X31967000Y20134994D01*
X31966999Y20134995D01*
X31956306Y20174901D01*
X31932892Y20262286D01*
X31867000Y20376414D01*
X31773814Y20469600D01*
X31680708Y20523355D01*
X31646229Y20568289D01*
X31653622Y20624441D01*
X31665382Y20639767D01*
X31969210Y20943595D01*
X33475800Y20943595D01*
X33475800Y20811806D01*
X33509906Y20684519D01*
X33509910Y20684510D01*
X33540047Y20632311D01*
X33575800Y20570386D01*
X33668986Y20477200D01*
X33783114Y20411308D01*
X33910405Y20377201D01*
X33910406Y20377200D01*
X33910408Y20377200D01*
X34042194Y20377200D01*
X34042194Y20377201D01*
X34169486Y20411308D01*
X34277645Y20473755D01*
X34333796Y20481147D01*
X34378730Y20446668D01*
X34418837Y20377201D01*
X34424100Y20368086D01*
X34517286Y20274900D01*
X34631414Y20209008D01*
X34758705Y20174901D01*
X34758706Y20174900D01*
X34758708Y20174900D01*
X34890494Y20174900D01*
X34890494Y20174901D01*
X35017786Y20209008D01*
X35131914Y20274900D01*
X35225100Y20368086D01*
X35290992Y20482214D01*
X35325099Y20609506D01*
X35325100Y20609506D01*
X35325100Y20741294D01*
X35325099Y20741295D01*
X35309880Y20798092D01*
X35290992Y20868586D01*
X35225100Y20982714D01*
X35131914Y21075900D01*
X35104212Y21091894D01*
X35017790Y21141790D01*
X35017781Y21141794D01*
X34890494Y21175900D01*
X34890492Y21175900D01*
X34758708Y21175900D01*
X34758706Y21175900D01*
X34631418Y21141794D01*
X34631409Y21141790D01*
X34523255Y21079347D01*
X34467102Y21071955D01*
X34422169Y21106433D01*
X34376799Y21185015D01*
X34283614Y21278200D01*
X34169490Y21344090D01*
X34169481Y21344094D01*
X34042194Y21378200D01*
X34042192Y21378200D01*
X33910408Y21378200D01*
X33910406Y21378200D01*
X33783118Y21344094D01*
X33783109Y21344090D01*
X33668985Y21278200D01*
X33575800Y21185015D01*
X33509910Y21070891D01*
X33509906Y21070882D01*
X33475800Y20943595D01*
X31969210Y20943595D01*
X32026383Y21000768D01*
X32201232Y21175616D01*
X32760242Y21734626D01*
X32812568Y21756300D01*
X35311998Y21756300D01*
X35312000Y21756300D01*
X35413258Y21798243D01*
X35490757Y21875742D01*
X35490756Y21875742D01*
X35525717Y21910703D01*
X35525716Y21910703D01*
X36574237Y22959223D01*
X36626560Y22980895D01*
X36678886Y22959221D01*
X36698038Y22926049D01*
X36706407Y22894818D01*
X36706410Y22894810D01*
X36735737Y22844014D01*
X36772300Y22780686D01*
X36865486Y22687500D01*
X36979614Y22621608D01*
X37106905Y22587501D01*
X37106906Y22587500D01*
X37106908Y22587500D01*
X37238694Y22587500D01*
X37238694Y22587501D01*
X37365986Y22621608D01*
X37480114Y22687500D01*
X37573300Y22780686D01*
X37639192Y22894814D01*
X37673299Y23022106D01*
X37673300Y23022106D01*
X37673300Y23153894D01*
X37673299Y23153895D01*
X37672671Y23156237D01*
X37639192Y23281186D01*
X37627197Y23301962D01*
X37619803Y23358114D01*
X37654281Y23403048D01*
X37710433Y23410442D01*
X37728282Y23403049D01*
X37753448Y23388520D01*
X37790014Y23367408D01*
X37917305Y23333301D01*
X37917306Y23333300D01*
X37917308Y23333300D01*
X38049094Y23333300D01*
X38049094Y23333301D01*
X38176386Y23367408D01*
X38290514Y23433300D01*
X38383700Y23526486D01*
X38449592Y23640614D01*
X38483699Y23767906D01*
X38483700Y23767906D01*
X38483700Y23778195D01*
X40869500Y23778195D01*
X40869500Y23646406D01*
X40903606Y23519119D01*
X40903610Y23519110D01*
X40952149Y23435039D01*
X40969500Y23404986D01*
X41062686Y23311800D01*
X41176814Y23245908D01*
X41304105Y23211801D01*
X41304106Y23211800D01*
X41304108Y23211800D01*
X41435894Y23211800D01*
X41435894Y23211801D01*
X41563186Y23245908D01*
X41677314Y23311800D01*
X41770500Y23404986D01*
X41836392Y23519114D01*
X41870499Y23646406D01*
X41870500Y23646406D01*
X41870500Y23778194D01*
X41870499Y23778195D01*
X41840405Y23890507D01*
X41836392Y23905486D01*
X41770500Y24019614D01*
X41677314Y24112800D01*
X41589120Y24163719D01*
X41563190Y24178690D01*
X41563181Y24178694D01*
X41435894Y24212800D01*
X41435892Y24212800D01*
X41304108Y24212800D01*
X41304106Y24212800D01*
X41176818Y24178694D01*
X41176809Y24178690D01*
X41062685Y24112800D01*
X40969500Y24019615D01*
X40903610Y23905491D01*
X40903606Y23905482D01*
X40869500Y23778195D01*
X38483700Y23778195D01*
X38483700Y23899694D01*
X38483699Y23899695D01*
X38482148Y23905482D01*
X38449592Y24026986D01*
X38383700Y24141114D01*
X38290514Y24234300D01*
X38259774Y24252048D01*
X38176390Y24300190D01*
X38176381Y24300194D01*
X38094204Y24322213D01*
X38049271Y24356691D01*
X38041879Y24412844D01*
X38061029Y24446015D01*
X40920857Y27305841D01*
X40939193Y27350108D01*
X40962800Y27407100D01*
X40962800Y27737196D01*
X40984474Y27789522D01*
X40991756Y27795907D01*
X40994612Y27798099D01*
X40994611Y27798099D01*
X40994614Y27798100D01*
X41087800Y27891286D01*
X41153692Y28005414D01*
X41187799Y28132706D01*
X41187800Y28132706D01*
X41187800Y28264494D01*
X41187799Y28264495D01*
X41171243Y28326282D01*
X41153692Y28391786D01*
X41087800Y28505914D01*
X40994614Y28599100D01*
X40965143Y28616115D01*
X40880490Y28664990D01*
X40880481Y28664994D01*
X40753194Y28699100D01*
X40753192Y28699100D01*
X40621408Y28699100D01*
X40621406Y28699100D01*
X40494118Y28664994D01*
X40494109Y28664990D01*
X40379985Y28599100D01*
X40286800Y28505915D01*
X40220910Y28391791D01*
X40220906Y28391782D01*
X40186800Y28264495D01*
X40186800Y28132706D01*
X40220906Y28005419D01*
X40220910Y28005410D01*
X40286800Y27891286D01*
X40379987Y27798099D01*
X40382844Y27795907D01*
X40385400Y27791480D01*
X40390126Y27789522D01*
X40399248Y27767499D01*
X40411166Y27746860D01*
X40411800Y27737196D01*
X40411800Y27606668D01*
X40390126Y27554342D01*
X39539275Y26703492D01*
X39486949Y26681818D01*
X39434623Y26703492D01*
X39422866Y26718814D01*
X39364900Y26819214D01*
X39271714Y26912400D01*
X39250995Y26924362D01*
X39157590Y26978290D01*
X39157581Y26978294D01*
X39030294Y27012400D01*
X39030292Y27012400D01*
X38898508Y27012400D01*
X38898506Y27012400D01*
X38771218Y26978294D01*
X38771209Y26978290D01*
X38657085Y26912400D01*
X38563900Y26819215D01*
X38498010Y26705091D01*
X38498006Y26705082D01*
X38463900Y26577795D01*
X38463900Y26446006D01*
X38498006Y26318719D01*
X38498010Y26318710D01*
X38499150Y26316736D01*
X38563900Y26204586D01*
X38657086Y26111400D01*
X38757483Y26053436D01*
X38791960Y26008504D01*
X38784568Y25952351D01*
X38772808Y25937025D01*
X35164759Y22328974D01*
X35112433Y22307300D01*
X32613000Y22307300D01*
X32541398Y22277643D01*
X32541399Y22277642D01*
X32511742Y22265358D01*
X29807154Y19560771D01*
X29754828Y19539097D01*
X29745178Y19539729D01*
X29741597Y19540200D01*
X29741592Y19540200D01*
X29609808Y19540200D01*
X29609806Y19540200D01*
X29482518Y19506094D01*
X29482509Y19506090D01*
X29368385Y19440200D01*
X29275200Y19347015D01*
X29209310Y19232891D01*
X29209306Y19232882D01*
X29175200Y19105595D01*
X12276276Y19105595D01*
X12314198Y19143517D01*
X12365573Y19248607D01*
X12375500Y19316740D01*
X12375500Y19683260D01*
X12365573Y19751393D01*
X12314198Y19856483D01*
X12231483Y19939198D01*
X12231482Y19939199D01*
X12126394Y19990573D01*
X12058264Y20000500D01*
X12058260Y20000500D01*
X11751427Y20000500D01*
X11699101Y20022174D01*
X11683060Y20046181D01*
X11675916Y20063427D01*
X11671057Y20075158D01*
X11593558Y20152657D01*
X10523120Y21223095D01*
X12244600Y21223095D01*
X12244600Y21091306D01*
X12278706Y20964019D01*
X12278710Y20964010D01*
X12333806Y20868582D01*
X12344600Y20849886D01*
X12437786Y20756700D01*
X12551914Y20690808D01*
X12679205Y20656701D01*
X12679206Y20656700D01*
X12679208Y20656700D01*
X12810994Y20656700D01*
X12810994Y20656701D01*
X12938286Y20690808D01*
X12939303Y20691395D01*
X17780300Y20691395D01*
X17780300Y20559606D01*
X17814406Y20432319D01*
X17814410Y20432310D01*
X17846228Y20377200D01*
X17880300Y20318186D01*
X17973486Y20225000D01*
X18087614Y20159108D01*
X18214905Y20125001D01*
X18214906Y20125000D01*
X18214908Y20125000D01*
X18346694Y20125000D01*
X18346694Y20125001D01*
X18473986Y20159108D01*
X18588114Y20225000D01*
X18681300Y20318186D01*
X18747192Y20432314D01*
X18781299Y20559606D01*
X18781300Y20559606D01*
X18781300Y20691394D01*
X18781299Y20691395D01*
X18770365Y20732200D01*
X18747192Y20818686D01*
X18681300Y20932814D01*
X18588114Y21026000D01*
X18473990Y21091890D01*
X18473981Y21091894D01*
X18346694Y21126000D01*
X18346692Y21126000D01*
X18214908Y21126000D01*
X18214906Y21126000D01*
X18087618Y21091894D01*
X18087609Y21091890D01*
X17973485Y21026000D01*
X17880300Y20932815D01*
X17814410Y20818691D01*
X17814406Y20818682D01*
X17780300Y20691395D01*
X12939303Y20691395D01*
X13052414Y20756700D01*
X13145600Y20849886D01*
X13211492Y20964014D01*
X13245599Y21091306D01*
X13245600Y21091306D01*
X13245600Y21223094D01*
X13245599Y21223095D01*
X13211493Y21350382D01*
X13211492Y21350386D01*
X13145600Y21464514D01*
X13052414Y21557700D01*
X13006676Y21584107D01*
X12938290Y21623590D01*
X12938281Y21623594D01*
X12810994Y21657700D01*
X12810992Y21657700D01*
X12679208Y21657700D01*
X12679206Y21657700D01*
X12551918Y21623594D01*
X12551909Y21623590D01*
X12437785Y21557700D01*
X12344600Y21464515D01*
X12278710Y21350391D01*
X12278706Y21350382D01*
X12244600Y21223095D01*
X10523120Y21223095D01*
X10280913Y21465302D01*
X10259240Y21517626D01*
X10280914Y21569952D01*
X10300740Y21584107D01*
X10356188Y21611214D01*
X10438785Y21693811D01*
X10490087Y21798751D01*
X10499999Y21866777D01*
X10500000Y21866788D01*
X10500000Y21950000D01*
X8625001Y21950000D01*
X8625001Y21903189D01*
X8603327Y21850863D01*
X8551001Y21829189D01*
X8498675Y21850863D01*
X7737674Y22611864D01*
X7716000Y22664190D01*
X7716000Y23103911D01*
X7737674Y23156237D01*
X8498174Y23916737D01*
X8550500Y23938411D01*
X8602826Y23916737D01*
X8624500Y23864411D01*
X8624500Y23766736D01*
X8634427Y23698607D01*
X8634427Y23698605D01*
X8685527Y23594078D01*
X8689036Y23537550D01*
X8656047Y23497493D01*
X8552486Y23437701D01*
X8459300Y23344515D01*
X8393410Y23230391D01*
X8393406Y23230382D01*
X8359300Y23103095D01*
X8359300Y22971306D01*
X8393406Y22844019D01*
X8393410Y22844010D01*
X8440932Y22761700D01*
X8459300Y22729886D01*
X8552486Y22636700D01*
X8666614Y22570808D01*
X8666618Y22570807D01*
X8688098Y22565051D01*
X8733031Y22530572D01*
X8740423Y22474420D01*
X8721272Y22441248D01*
X8686214Y22406190D01*
X8634912Y22301250D01*
X8625000Y22233224D01*
X8625000Y22150000D01*
X9462500Y22150000D01*
X9662500Y22150000D01*
X10499999Y22150000D01*
X10499999Y22233211D01*
X10499998Y22233225D01*
X10490087Y22301251D01*
X10438786Y22406189D01*
X10356189Y22488786D01*
X10251249Y22540088D01*
X10183223Y22550000D01*
X9662500Y22550000D01*
X9662500Y22150000D01*
X9462500Y22150000D01*
X9462500Y22550000D01*
X9259066Y22550000D01*
X9206740Y22571674D01*
X9185066Y22624000D01*
X9206740Y22676325D01*
X9233519Y22703106D01*
X9260300Y22729886D01*
X9260303Y22729892D01*
X9262502Y22732755D01*
X9311555Y22761068D01*
X9321205Y22761700D01*
X10456833Y22761700D01*
X10509159Y22740026D01*
X10523314Y22720200D01*
X10560801Y22643518D01*
X10560802Y22643517D01*
X10643517Y22560802D01*
X10748607Y22509427D01*
X10816740Y22499500D01*
X10816746Y22499500D01*
X12058254Y22499500D01*
X12058260Y22499500D01*
X12126393Y22509427D01*
X12231483Y22560802D01*
X12314198Y22643517D01*
X12365573Y22748607D01*
X12375500Y22816740D01*
X12375500Y23183260D01*
X12365573Y23251393D01*
X12314198Y23356483D01*
X12231483Y23439198D01*
X12231482Y23439199D01*
X12126394Y23490573D01*
X12058264Y23500500D01*
X12058260Y23500500D01*
X10816740Y23500500D01*
X10816735Y23500500D01*
X10748606Y23490573D01*
X10748605Y23490573D01*
X10643517Y23439199D01*
X10560803Y23356485D01*
X10560802Y23356484D01*
X10560802Y23356483D01*
X10559685Y23354201D01*
X10558294Y23352972D01*
X10557240Y23351494D01*
X10556898Y23351739D01*
X10517235Y23316710D01*
X10493205Y23312700D01*
X10265491Y23312700D01*
X10213165Y23334374D01*
X10191491Y23386700D01*
X10213165Y23439026D01*
X10246512Y23455758D01*
X10245903Y23457731D01*
X10251388Y23459427D01*
X10251393Y23459427D01*
X10356483Y23510802D01*
X10439198Y23593517D01*
X10490573Y23698607D01*
X10500500Y23766740D01*
X10500500Y24133260D01*
X10490573Y24201393D01*
X10439198Y24306483D01*
X10356483Y24389198D01*
X10356482Y24389199D01*
X10251394Y24440573D01*
X10183264Y24450500D01*
X10183260Y24450500D01*
X9623723Y24450500D01*
X9571397Y24472174D01*
X9571394Y24472177D01*
X9256111Y24787500D01*
X9119949Y24923679D01*
X9098279Y24976006D01*
X9119956Y25028330D01*
X9172279Y25050001D01*
X9462500Y25050001D01*
X9662500Y25050001D01*
X10183211Y25050001D01*
X10183224Y25050002D01*
X10251250Y25059913D01*
X10356188Y25111214D01*
X10438785Y25193811D01*
X10490087Y25298751D01*
X10499999Y25366777D01*
X10500000Y25366788D01*
X10500000Y25450000D01*
X9662500Y25450000D01*
X9662500Y25050001D01*
X9462500Y25050001D01*
X9462500Y25650000D01*
X9662500Y25650000D01*
X10499999Y25650000D01*
X10499999Y25733211D01*
X10499998Y25733225D01*
X10490087Y25801251D01*
X10438786Y25906189D01*
X10356189Y25988786D01*
X10251249Y26040088D01*
X10183223Y26050000D01*
X9662500Y26050000D01*
X9662500Y25650000D01*
X9462500Y25650000D01*
X9462500Y26050000D01*
X9252888Y26050000D01*
X9200562Y26071674D01*
X9178888Y26124000D01*
X9200561Y26176324D01*
X9707503Y26683265D01*
X10499500Y26683265D01*
X10499500Y26316736D01*
X10509427Y26248607D01*
X10509427Y26248606D01*
X10560801Y26143518D01*
X10560802Y26143517D01*
X10643517Y26060802D01*
X10748607Y26009427D01*
X10816740Y25999500D01*
X11088000Y25999500D01*
X11140326Y25977826D01*
X11162000Y25925500D01*
X11162000Y25672500D01*
X11185997Y25614566D01*
X11193315Y25596900D01*
X11203942Y25571244D01*
X11203944Y25571241D01*
X12286830Y24488354D01*
X12308504Y24436028D01*
X12307871Y24426369D01*
X12307400Y24422792D01*
X12307400Y24291006D01*
X12341506Y24163719D01*
X12341510Y24163710D01*
X12394457Y24072004D01*
X12407400Y24049586D01*
X12500586Y23956400D01*
X12614714Y23890508D01*
X12742005Y23856401D01*
X12742006Y23856400D01*
X12742008Y23856400D01*
X12873794Y23856400D01*
X12873794Y23856401D01*
X13001086Y23890508D01*
X13115214Y23956400D01*
X13208400Y24049586D01*
X13274292Y24163714D01*
X13308399Y24291006D01*
X13308400Y24291006D01*
X13308400Y24422794D01*
X13308399Y24422795D01*
X13307441Y24426369D01*
X13274292Y24550086D01*
X13208400Y24664214D01*
X13115214Y24757400D01*
X13074333Y24781003D01*
X13001090Y24823290D01*
X13001081Y24823294D01*
X12873794Y24857400D01*
X12873792Y24857400D01*
X12742008Y24857400D01*
X12742007Y24857400D01*
X12738431Y24856929D01*
X12683723Y24871588D01*
X12676446Y24877970D01*
X12238521Y25315895D01*
X13140600Y25315895D01*
X13140600Y25184106D01*
X13174706Y25056819D01*
X13174710Y25056810D01*
X13189280Y25031575D01*
X13240600Y24942686D01*
X13333786Y24849500D01*
X13447914Y24783608D01*
X13575205Y24749501D01*
X13575206Y24749500D01*
X13575208Y24749500D01*
X13706994Y24749500D01*
X13706994Y24749501D01*
X13834286Y24783608D01*
X13948414Y24849500D01*
X14041600Y24942686D01*
X14107492Y25056814D01*
X14141599Y25184106D01*
X14141600Y25184106D01*
X14141600Y25315894D01*
X14141599Y25315895D01*
X14127965Y25366777D01*
X14107492Y25443186D01*
X14041600Y25557314D01*
X13948414Y25650500D01*
X13869878Y25695843D01*
X13834290Y25716390D01*
X13834281Y25716394D01*
X13706994Y25750500D01*
X13706992Y25750500D01*
X13575208Y25750500D01*
X13575206Y25750500D01*
X13447918Y25716394D01*
X13447909Y25716390D01*
X13333785Y25650500D01*
X13240600Y25557315D01*
X13174710Y25443191D01*
X13174706Y25443182D01*
X13140600Y25315895D01*
X12238521Y25315895D01*
X11734674Y25819742D01*
X11713000Y25872068D01*
X11713000Y25925500D01*
X11734674Y25977826D01*
X11787000Y25999500D01*
X12058254Y25999500D01*
X12058260Y25999500D01*
X12126393Y26009427D01*
X12231483Y26060802D01*
X12314198Y26143517D01*
X12365573Y26248607D01*
X12375500Y26316740D01*
X12375500Y26683260D01*
X12365573Y26751393D01*
X12314198Y26856483D01*
X12231483Y26939198D01*
X12231482Y26939199D01*
X12126394Y26990573D01*
X12058264Y27000500D01*
X12058260Y27000500D01*
X10816740Y27000500D01*
X10816735Y27000500D01*
X10748606Y26990573D01*
X10748605Y26990573D01*
X10643517Y26939199D01*
X10560801Y26856483D01*
X10509427Y26751395D01*
X10509427Y26751394D01*
X10499500Y26683265D01*
X9707503Y26683265D01*
X9862975Y26838737D01*
X9889746Y26885107D01*
X9905564Y26912504D01*
X9933948Y26934282D01*
X9950497Y26946979D01*
X9950499Y26946980D01*
X9950502Y26946980D01*
X9969648Y26949500D01*
X10183254Y26949500D01*
X10183260Y26949500D01*
X10251393Y26959427D01*
X10356483Y27010802D01*
X10439198Y27093517D01*
X10490573Y27198607D01*
X10500500Y27266740D01*
X10500500Y27633260D01*
X10490573Y27701393D01*
X10439198Y27806483D01*
X10356483Y27889198D01*
X10356482Y27889199D01*
X10251394Y27940573D01*
X10183264Y27950500D01*
X10183260Y27950500D01*
X9623689Y27950500D01*
X9571363Y27972174D01*
X9119862Y28423675D01*
X9098188Y28476001D01*
X9119862Y28528327D01*
X9172188Y28550001D01*
X9462500Y28550001D01*
X9662500Y28550001D01*
X10183211Y28550001D01*
X10183224Y28550002D01*
X10251250Y28559913D01*
X10356188Y28611214D01*
X10438785Y28693811D01*
X10490087Y28798751D01*
X10499999Y28866777D01*
X10500000Y28866788D01*
X10500000Y28950000D01*
X9662500Y28950000D01*
X9662500Y28550001D01*
X9462500Y28550001D01*
X9462500Y29150000D01*
X9662500Y29150000D01*
X10499999Y29150000D01*
X10499999Y29233211D01*
X10499998Y29233225D01*
X10490087Y29301251D01*
X10438786Y29406189D01*
X10356189Y29488786D01*
X10251249Y29540088D01*
X10183223Y29550000D01*
X9662500Y29550000D01*
X9662500Y29150000D01*
X9462500Y29150000D01*
X9462500Y29550000D01*
X9209088Y29550000D01*
X9156762Y29571674D01*
X9135088Y29624000D01*
X9156761Y29676325D01*
X9862974Y30382537D01*
X9862975Y30382538D01*
X9880273Y30412499D01*
X9925206Y30446978D01*
X9944359Y30449500D01*
X10183254Y30449500D01*
X10183260Y30449500D01*
X10251393Y30459427D01*
X10356483Y30510802D01*
X10398507Y30552826D01*
X10450833Y30574500D01*
X10602026Y30574500D01*
X10654352Y30552826D01*
X10676026Y30500500D01*
X10654352Y30448174D01*
X10645024Y30440274D01*
X10643517Y30439199D01*
X10560801Y30356483D01*
X10509427Y30251395D01*
X10509427Y30251394D01*
X10499500Y30183265D01*
X10499500Y29816736D01*
X10509427Y29748607D01*
X10509427Y29748606D01*
X10560801Y29643518D01*
X10560802Y29643517D01*
X10643517Y29560802D01*
X10748607Y29509427D01*
X10816740Y29499500D01*
X11517733Y29499500D01*
X11570059Y29477826D01*
X13082159Y27965726D01*
X13103833Y27913400D01*
X13082160Y27861075D01*
X13046200Y27825115D01*
X12980310Y27710991D01*
X12980306Y27710982D01*
X12946200Y27583695D01*
X12946200Y27451906D01*
X12980306Y27324619D01*
X12980310Y27324610D01*
X13039082Y27222814D01*
X13046200Y27210486D01*
X13139386Y27117300D01*
X13253514Y27051408D01*
X13380805Y27017301D01*
X13380806Y27017300D01*
X13380808Y27017300D01*
X13512594Y27017300D01*
X13512594Y27017301D01*
X13639886Y27051408D01*
X13754014Y27117300D01*
X13847200Y27210486D01*
X13913092Y27324614D01*
X13939710Y27423953D01*
X13974188Y27468886D01*
X14011188Y27478800D01*
X14277533Y27478800D01*
X14329859Y27457126D01*
X17741430Y24045555D01*
X17763104Y23993229D01*
X17762471Y23983572D01*
X17762000Y23979994D01*
X17762000Y23848206D01*
X17796106Y23720919D01*
X17796110Y23720910D01*
X17808988Y23698605D01*
X17862000Y23606786D01*
X17955186Y23513600D01*
X18069314Y23447708D01*
X18196605Y23413601D01*
X18196606Y23413600D01*
X18196608Y23413600D01*
X18328394Y23413600D01*
X18328394Y23413601D01*
X18455686Y23447708D01*
X18569814Y23513600D01*
X18663000Y23606786D01*
X18728892Y23720914D01*
X18762999Y23848206D01*
X18763000Y23848206D01*
X18763000Y23979994D01*
X18762999Y23979995D01*
X18745432Y24045555D01*
X18728892Y24107286D01*
X18663000Y24221414D01*
X18569814Y24314600D01*
X18567571Y24315895D01*
X28606500Y24315895D01*
X28606500Y24184106D01*
X28640606Y24056819D01*
X28640610Y24056810D01*
X28684960Y23979994D01*
X28706500Y23942686D01*
X28799686Y23849500D01*
X28913814Y23783608D01*
X29041105Y23749501D01*
X29041106Y23749500D01*
X29041108Y23749500D01*
X29172894Y23749500D01*
X29172894Y23749501D01*
X29300186Y23783608D01*
X29414314Y23849500D01*
X29507500Y23942686D01*
X29507503Y23942691D01*
X29509702Y23945555D01*
X29558755Y23973868D01*
X29568405Y23974500D01*
X29820498Y23974500D01*
X29820500Y23974500D01*
X29921758Y24016443D01*
X29999257Y24093942D01*
X29999256Y24093942D01*
X30017260Y24111946D01*
X30069586Y24133620D01*
X30121912Y24111946D01*
X30141611Y24072004D01*
X30141944Y24072093D01*
X30142392Y24070420D01*
X30142952Y24069285D01*
X30143199Y24067409D01*
X30177306Y23940119D01*
X30177310Y23940110D01*
X30200646Y23899692D01*
X30243200Y23825986D01*
X30336386Y23732800D01*
X30450514Y23666908D01*
X30577805Y23632801D01*
X30577806Y23632800D01*
X30577808Y23632800D01*
X30709594Y23632800D01*
X30709594Y23632801D01*
X30836886Y23666908D01*
X30951014Y23732800D01*
X31044200Y23825986D01*
X31110092Y23940114D01*
X31144199Y24067406D01*
X31144200Y24067406D01*
X31144200Y24199194D01*
X31144199Y24199195D01*
X31119573Y24291100D01*
X31110092Y24326486D01*
X31044200Y24440614D01*
X30951014Y24533800D01*
X30839100Y24598414D01*
X30836890Y24599690D01*
X30836881Y24599694D01*
X30709591Y24633801D01*
X30707715Y24634048D01*
X30706889Y24634525D01*
X30704907Y24635056D01*
X30705049Y24635588D01*
X30658668Y24662369D01*
X30644013Y24717078D01*
X30665052Y24759739D01*
X30827858Y24922545D01*
X30880183Y24944218D01*
X30932509Y24922544D01*
X30944267Y24907221D01*
X30992900Y24822986D01*
X31086086Y24729800D01*
X31200214Y24663908D01*
X31327505Y24629801D01*
X31327506Y24629800D01*
X31327508Y24629800D01*
X31459294Y24629800D01*
X31459294Y24629801D01*
X31586586Y24663908D01*
X31700714Y24729800D01*
X31793900Y24822986D01*
X31859792Y24937114D01*
X31893899Y25064406D01*
X31893900Y25064406D01*
X31893900Y25196194D01*
X31893899Y25196195D01*
X31859793Y25323482D01*
X31859792Y25323486D01*
X31793900Y25437614D01*
X31700714Y25530800D01*
X31616483Y25579431D01*
X31582004Y25624365D01*
X31589397Y25680517D01*
X31601157Y25695843D01*
X32351322Y26446008D01*
X34925858Y29020542D01*
X34967800Y29121800D01*
X34967800Y29231400D01*
X34967800Y30239633D01*
X34989474Y30291959D01*
X37200342Y32502826D01*
X37252668Y32524500D01*
X38097695Y32524500D01*
X38150021Y32502826D01*
X38156398Y32495555D01*
X38158596Y32492691D01*
X38158598Y32492689D01*
X38158600Y32492686D01*
X38251786Y32399500D01*
X38365914Y32333608D01*
X38493205Y32299501D01*
X38493206Y32299500D01*
X38493208Y32299500D01*
X38624994Y32299500D01*
X38624994Y32299501D01*
X38752286Y32333608D01*
X38866414Y32399500D01*
X38959600Y32492686D01*
X39025492Y32606814D01*
X39059599Y32734106D01*
X39059600Y32734106D01*
X39059600Y32865894D01*
X39059599Y32865895D01*
X39052420Y32892686D01*
X39025492Y32993186D01*
X38959600Y33107314D01*
X38866414Y33200500D01*
X38857070Y33205895D01*
X38752290Y33266390D01*
X38752281Y33266394D01*
X38624994Y33300500D01*
X38624992Y33300500D01*
X38493208Y33300500D01*
X38493206Y33300500D01*
X38365918Y33266394D01*
X38365909Y33266390D01*
X38251785Y33200500D01*
X38158596Y33107310D01*
X38156398Y33104445D01*
X38107345Y33076132D01*
X38097695Y33075500D01*
X37053100Y33075500D01*
X36981672Y33045913D01*
X36981671Y33045913D01*
X36951843Y33033559D01*
X34579426Y30661142D01*
X34527100Y30639468D01*
X34474774Y30661142D01*
X34453100Y30713468D01*
X34453100Y31207833D01*
X34474774Y31260159D01*
X35325829Y32111214D01*
X36193546Y32978932D01*
X36245871Y33000605D01*
X36255537Y32999971D01*
X36259104Y32999502D01*
X36259108Y32999500D01*
X36259112Y32999500D01*
X36390894Y32999500D01*
X36390894Y32999501D01*
X36518186Y33033608D01*
X36632314Y33099500D01*
X36725500Y33192686D01*
X36791392Y33306814D01*
X36825499Y33434106D01*
X36825500Y33434106D01*
X36825500Y33520495D01*
X36847174Y33572821D01*
X36899500Y33594495D01*
X36918646Y33591974D01*
X37041705Y33559001D01*
X37041706Y33559000D01*
X37041708Y33559000D01*
X37173494Y33559000D01*
X37173494Y33559001D01*
X37300786Y33593108D01*
X37414914Y33659000D01*
X37508100Y33752186D01*
X37573992Y33866314D01*
X37608099Y33993606D01*
X37608100Y33993606D01*
X37608100Y34125394D01*
X37608099Y34125395D01*
X37588482Y34198606D01*
X37573992Y34252686D01*
X37540443Y34310795D01*
X38940100Y34310795D01*
X38940100Y34179006D01*
X38974206Y34051719D01*
X38974210Y34051710D01*
X39007757Y33993606D01*
X39040100Y33937586D01*
X39133286Y33844400D01*
X39247414Y33778508D01*
X39374705Y33744401D01*
X39374706Y33744400D01*
X39374708Y33744400D01*
X39506494Y33744400D01*
X39506494Y33744401D01*
X39633786Y33778508D01*
X39747914Y33844400D01*
X39841100Y33937586D01*
X39906992Y34051714D01*
X39941099Y34179006D01*
X39941100Y34179006D01*
X39941100Y34310794D01*
X39941099Y34310795D01*
X39935468Y34331809D01*
X39906992Y34438086D01*
X39841100Y34552214D01*
X39747914Y34645400D01*
X39699105Y34673580D01*
X39633790Y34711290D01*
X39633781Y34711294D01*
X39506494Y34745400D01*
X39506492Y34745400D01*
X39374708Y34745400D01*
X39374706Y34745400D01*
X39247418Y34711294D01*
X39247409Y34711290D01*
X39133285Y34645400D01*
X39040100Y34552215D01*
X38974210Y34438091D01*
X38974206Y34438082D01*
X38940100Y34310795D01*
X37540443Y34310795D01*
X37508100Y34366814D01*
X37414914Y34460000D01*
X37403682Y34466485D01*
X37300790Y34525890D01*
X37300781Y34525894D01*
X37173494Y34560000D01*
X37173492Y34560000D01*
X37041708Y34560000D01*
X37041706Y34560000D01*
X36914418Y34525894D01*
X36914409Y34525890D01*
X36800285Y34460000D01*
X36707100Y34366815D01*
X36641210Y34252691D01*
X36641206Y34252682D01*
X36607100Y34125395D01*
X36607100Y34039006D01*
X36585426Y33986680D01*
X36533100Y33965006D01*
X36513947Y33967528D01*
X36390894Y34000500D01*
X36390892Y34000500D01*
X36259108Y34000500D01*
X36259106Y34000500D01*
X36131818Y33966394D01*
X36131809Y33966390D01*
X36017685Y33900500D01*
X35924500Y33807315D01*
X35858610Y33693191D01*
X35858606Y33693182D01*
X35824500Y33565895D01*
X35824500Y33434105D01*
X35824971Y33430524D01*
X35810306Y33375818D01*
X35803929Y33368547D01*
X34021542Y31586157D01*
X33944042Y31508657D01*
X33902100Y31407400D01*
X33902100Y29558268D01*
X33880426Y29505942D01*
X29862154Y25487671D01*
X29809828Y25465997D01*
X29800178Y25466629D01*
X29796597Y25467100D01*
X29796592Y25467100D01*
X29664808Y25467100D01*
X29664806Y25467100D01*
X29537518Y25432994D01*
X29537509Y25432990D01*
X29423385Y25367100D01*
X29330200Y25273915D01*
X29264310Y25159791D01*
X29264306Y25159782D01*
X29230200Y25032495D01*
X29230200Y25032492D01*
X29230200Y24900708D01*
X29243921Y24849501D01*
X29245488Y24843652D01*
X29238095Y24787500D01*
X29193161Y24753021D01*
X29174009Y24750500D01*
X29041106Y24750500D01*
X28913818Y24716394D01*
X28913809Y24716390D01*
X28799685Y24650500D01*
X28706500Y24557315D01*
X28640610Y24443191D01*
X28640606Y24443182D01*
X28606500Y24315895D01*
X18567571Y24315895D01*
X18551442Y24325207D01*
X18455690Y24380490D01*
X18455681Y24380494D01*
X18328394Y24414600D01*
X18328392Y24414600D01*
X18196608Y24414600D01*
X18196606Y24414600D01*
X18193028Y24414129D01*
X18138321Y24428789D01*
X18131045Y24435170D01*
X15084320Y27481895D01*
X18700300Y27481895D01*
X18700300Y27350107D01*
X18734406Y27222819D01*
X18734410Y27222810D01*
X18795326Y27117301D01*
X18800300Y27108686D01*
X18893486Y27015500D01*
X19007614Y26949608D01*
X19134905Y26915501D01*
X19134906Y26915500D01*
X19134908Y26915500D01*
X19266694Y26915500D01*
X19266694Y26915501D01*
X19393986Y26949608D01*
X19508114Y27015500D01*
X19601300Y27108686D01*
X19667192Y27222814D01*
X19701300Y27350108D01*
X19701300Y27481892D01*
X19701300Y27481894D01*
X19701299Y27481895D01*
X19667193Y27609182D01*
X19667192Y27609186D01*
X19601300Y27723314D01*
X19508114Y27816500D01*
X19430908Y27861075D01*
X19393990Y27882390D01*
X19393981Y27882394D01*
X19266694Y27916500D01*
X19266692Y27916500D01*
X19134908Y27916500D01*
X19134906Y27916500D01*
X19007618Y27882394D01*
X19007609Y27882390D01*
X18893485Y27816500D01*
X18800300Y27723315D01*
X18734410Y27609191D01*
X18734406Y27609182D01*
X18700300Y27481895D01*
X15084320Y27481895D01*
X14628445Y27937770D01*
X14606771Y27990096D01*
X14616683Y28027092D01*
X14667792Y28115614D01*
X14701899Y28242906D01*
X14701900Y28242906D01*
X14701900Y28374694D01*
X14701899Y28374695D01*
X14674754Y28476001D01*
X14667792Y28501986D01*
X14601900Y28616114D01*
X14508714Y28709300D01*
X14394590Y28775190D01*
X14394581Y28775194D01*
X14267294Y28809300D01*
X14267292Y28809300D01*
X14135508Y28809300D01*
X14135506Y28809300D01*
X14008218Y28775194D01*
X14008209Y28775190D01*
X13894085Y28709300D01*
X13800900Y28616115D01*
X13735010Y28501991D01*
X13735006Y28501982D01*
X13700900Y28374695D01*
X13700900Y28304868D01*
X13679226Y28252542D01*
X13626900Y28230868D01*
X13574574Y28252542D01*
X12301224Y29525892D01*
X12279550Y29578218D01*
X12301223Y29630543D01*
X12314198Y29643517D01*
X12365573Y29748607D01*
X12375500Y29816740D01*
X12375500Y29940895D01*
X17649500Y29940895D01*
X17649500Y29809106D01*
X17683606Y29681819D01*
X17683610Y29681810D01*
X17731132Y29599500D01*
X17749500Y29567686D01*
X17842686Y29474500D01*
X17956814Y29408608D01*
X18084105Y29374501D01*
X18084106Y29374500D01*
X18084108Y29374500D01*
X18215894Y29374500D01*
X18215894Y29374501D01*
X18343186Y29408608D01*
X18457294Y29474489D01*
X18513443Y29481881D01*
X18546614Y29462730D01*
X18553458Y29455886D01*
X18668189Y29379225D01*
X18668190Y29379225D01*
X18668191Y29379224D01*
X18679596Y29374500D01*
X18795672Y29326420D01*
X18931007Y29299500D01*
X18931009Y29299500D01*
X19068991Y29299500D01*
X19068993Y29299500D01*
X19204328Y29326420D01*
X19331811Y29379225D01*
X19446542Y29455886D01*
X19544114Y29553458D01*
X19620775Y29668189D01*
X19624146Y29676326D01*
X19660593Y29764319D01*
X19673580Y29795672D01*
X19700500Y29931007D01*
X19700500Y30023395D01*
X20680800Y30023395D01*
X20680800Y29891606D01*
X20714906Y29764319D01*
X20714910Y29764310D01*
X20762542Y29681810D01*
X20780800Y29650186D01*
X20873986Y29557000D01*
X20988114Y29491108D01*
X21115405Y29457001D01*
X21115406Y29457000D01*
X21115408Y29457000D01*
X21247194Y29457000D01*
X21247194Y29457001D01*
X21374486Y29491108D01*
X21488614Y29557000D01*
X21581800Y29650186D01*
X21647692Y29764314D01*
X21681799Y29891606D01*
X21681800Y29891606D01*
X21681800Y30023394D01*
X21681799Y30023395D01*
X21669797Y30068186D01*
X21647692Y30150686D01*
X21581800Y30264814D01*
X21488614Y30358000D01*
X21458303Y30375500D01*
X21374490Y30423890D01*
X21374481Y30423894D01*
X21247194Y30458000D01*
X21247192Y30458000D01*
X21115408Y30458000D01*
X21115406Y30458000D01*
X20988118Y30423894D01*
X20988109Y30423890D01*
X20873985Y30358000D01*
X20780800Y30264815D01*
X20714910Y30150691D01*
X20714906Y30150682D01*
X20680800Y30023395D01*
X19700500Y30023395D01*
X19700500Y30068993D01*
X19673580Y30204328D01*
X19637282Y30291959D01*
X19620776Y30331809D01*
X19620769Y30331819D01*
X19544114Y30446542D01*
X19446542Y30544114D01*
X19401066Y30574500D01*
X19376529Y30590895D01*
X31817500Y30590895D01*
X31817500Y30459106D01*
X31851606Y30331819D01*
X31851610Y30331810D01*
X31898038Y30251395D01*
X31917500Y30217686D01*
X32010686Y30124500D01*
X32124814Y30058608D01*
X32252105Y30024501D01*
X32252106Y30024500D01*
X32252108Y30024500D01*
X32383894Y30024500D01*
X32383894Y30024501D01*
X32511186Y30058608D01*
X32625314Y30124500D01*
X32718500Y30217686D01*
X32784392Y30331814D01*
X32818499Y30459106D01*
X32818500Y30459106D01*
X32818500Y30590894D01*
X32818499Y30590895D01*
X32817796Y30593517D01*
X32784392Y30718186D01*
X32718500Y30832314D01*
X32625314Y30925500D01*
X32553150Y30967164D01*
X32511190Y30991390D01*
X32511181Y30991394D01*
X32383894Y31025500D01*
X32383892Y31025500D01*
X32252108Y31025500D01*
X32252106Y31025500D01*
X32124818Y30991394D01*
X32124809Y30991390D01*
X32010685Y30925500D01*
X31917500Y30832315D01*
X31851610Y30718191D01*
X31851606Y30718182D01*
X31817500Y30590895D01*
X19376529Y30590895D01*
X19331808Y30620777D01*
X19204332Y30673579D01*
X19204322Y30673582D01*
X19113694Y30691609D01*
X19068993Y30700500D01*
X18931007Y30700500D01*
X18892642Y30692869D01*
X18795677Y30673582D01*
X18795667Y30673579D01*
X18668191Y30620777D01*
X18553461Y30544117D01*
X18455881Y30446537D01*
X18408641Y30375837D01*
X18385449Y30360342D01*
X18362401Y30344546D01*
X18361832Y30344562D01*
X18361549Y30344372D01*
X18360404Y30344600D01*
X18327960Y30345472D01*
X18215894Y30375500D01*
X18215892Y30375500D01*
X18084108Y30375500D01*
X18084106Y30375500D01*
X17956818Y30341394D01*
X17956809Y30341390D01*
X17842685Y30275500D01*
X17749500Y30182315D01*
X17683610Y30068191D01*
X17683606Y30068182D01*
X17649500Y29940895D01*
X12375500Y29940895D01*
X12375500Y30183260D01*
X12365573Y30251393D01*
X12314198Y30356483D01*
X12231483Y30439198D01*
X12231482Y30439199D01*
X12229976Y30440274D01*
X12229259Y30441422D01*
X12227147Y30443534D01*
X12227635Y30444023D01*
X12199984Y30488319D01*
X12212748Y30543498D01*
X12260793Y30573490D01*
X12272974Y30574500D01*
X18259336Y30574500D01*
X18307086Y30587295D01*
X18354838Y30600090D01*
X18440462Y30649525D01*
X18510375Y30719438D01*
X18510374Y30719438D01*
X20408764Y32617826D01*
X20461090Y32639500D01*
X20465794Y32639500D01*
X20465794Y32639501D01*
X20593086Y32673608D01*
X20707214Y32739500D01*
X20800400Y32832686D01*
X20866292Y32946814D01*
X20900399Y33074106D01*
X20900400Y33074106D01*
X20900400Y33205894D01*
X20900399Y33205895D01*
X20866293Y33333182D01*
X20866292Y33333186D01*
X20800400Y33447314D01*
X20707214Y33540500D01*
X20675171Y33559000D01*
X20593090Y33606390D01*
X20593081Y33606394D01*
X20465794Y33640500D01*
X20465792Y33640500D01*
X20334008Y33640500D01*
X20334006Y33640500D01*
X20206718Y33606394D01*
X20206709Y33606390D01*
X20092585Y33540500D01*
X19999400Y33447315D01*
X19933510Y33333191D01*
X19933506Y33333182D01*
X19899400Y33205895D01*
X19899400Y33201190D01*
X19877726Y33148864D01*
X18076037Y31347174D01*
X18023711Y31325500D01*
X10450833Y31325500D01*
X10398507Y31347174D01*
X10356482Y31389199D01*
X10251394Y31440573D01*
X10183264Y31450500D01*
X10183260Y31450500D01*
X9623689Y31450500D01*
X9571363Y31472174D01*
X9119862Y31923675D01*
X9098188Y31976001D01*
X9119862Y32028327D01*
X9172188Y32050001D01*
X9462500Y32050001D01*
X9662500Y32050001D01*
X10183211Y32050001D01*
X10183224Y32050002D01*
X10251250Y32059913D01*
X10356188Y32111214D01*
X10438785Y32193811D01*
X10490087Y32298751D01*
X10499999Y32366777D01*
X10500000Y32366788D01*
X10500000Y32450000D01*
X9662500Y32450000D01*
X9662500Y32050001D01*
X9462500Y32050001D01*
X9462500Y32650000D01*
X9662500Y32650000D01*
X10499999Y32650000D01*
X10499999Y32733211D01*
X10499998Y32733225D01*
X10490087Y32801251D01*
X10438786Y32906189D01*
X10356189Y32988786D01*
X10251249Y33040088D01*
X10183223Y33050000D01*
X9662500Y33050000D01*
X9662500Y32650000D01*
X9462500Y32650000D01*
X9462500Y33050000D01*
X8941783Y33050000D01*
X8928763Y33048103D01*
X8873860Y33062011D01*
X8844872Y33110668D01*
X8844100Y33121331D01*
X8844100Y33337111D01*
X8865774Y33389437D01*
X9404164Y33927826D01*
X9456490Y33949500D01*
X10183254Y33949500D01*
X10183260Y33949500D01*
X10251393Y33959427D01*
X10356483Y34010802D01*
X10439198Y34093517D01*
X10490573Y34198607D01*
X10500500Y34266740D01*
X10500500Y34287833D01*
X10522174Y34340159D01*
X10574500Y34361833D01*
X10626826Y34340159D01*
X10843153Y34123832D01*
X10864827Y34071506D01*
X10843153Y34019180D01*
X10801497Y33998280D01*
X10781300Y33995337D01*
X10748606Y33990573D01*
X10748605Y33990573D01*
X10643517Y33939199D01*
X10560801Y33856483D01*
X10509427Y33751395D01*
X10509427Y33751394D01*
X10499500Y33683265D01*
X10499500Y33316736D01*
X10509427Y33248607D01*
X10509427Y33248606D01*
X10560801Y33143518D01*
X10560802Y33143517D01*
X10643517Y33060802D01*
X10748607Y33009427D01*
X10816740Y32999500D01*
X10816746Y32999500D01*
X12058254Y32999500D01*
X12058260Y32999500D01*
X12126393Y33009427D01*
X12231483Y33060802D01*
X12314198Y33143517D01*
X12365573Y33248607D01*
X12375500Y33316740D01*
X12375500Y33683260D01*
X12365573Y33751393D01*
X12314198Y33856483D01*
X12231483Y33939198D01*
X12231482Y33939199D01*
X12126394Y33990573D01*
X12058264Y34000500D01*
X12058260Y34000500D01*
X11751427Y34000500D01*
X11699101Y34022174D01*
X11683060Y34046181D01*
X11673611Y34068992D01*
X11671057Y34075158D01*
X11593558Y34152657D01*
X11134320Y34611895D01*
X16065500Y34611895D01*
X16065500Y34480106D01*
X16099606Y34352819D01*
X16099610Y34352810D01*
X16165500Y34238686D01*
X16258686Y34145500D01*
X16263114Y34142943D01*
X16297592Y34098009D01*
X16299757Y34071612D01*
X16299500Y34069001D01*
X16299500Y33931009D01*
X16326418Y33795678D01*
X16326421Y33795668D01*
X16379223Y33668192D01*
X16429392Y33593108D01*
X16455886Y33553458D01*
X16553458Y33455886D01*
X16668189Y33379225D01*
X16668190Y33379225D01*
X16668191Y33379224D01*
X16779325Y33333191D01*
X16795672Y33326420D01*
X16931007Y33299500D01*
X16931009Y33299500D01*
X17068991Y33299500D01*
X17068993Y33299500D01*
X17204328Y33326420D01*
X17331811Y33379225D01*
X17446542Y33455886D01*
X17544114Y33553458D01*
X17620775Y33668189D01*
X17673580Y33795672D01*
X17700500Y33931007D01*
X17700500Y34068993D01*
X17673580Y34204328D01*
X17653550Y34252686D01*
X17620776Y34331809D01*
X17597386Y34366814D01*
X17544114Y34446542D01*
X17446542Y34544114D01*
X17331811Y34620775D01*
X17331810Y34620776D01*
X17331808Y34620777D01*
X17204332Y34673579D01*
X17204322Y34673582D01*
X17085362Y34697244D01*
X17038270Y34728710D01*
X17034892Y34735030D01*
X17034817Y34734986D01*
X17019448Y34761605D01*
X16966500Y34853314D01*
X16873314Y34946500D01*
X16839721Y34965895D01*
X37849500Y34965895D01*
X37849500Y34834106D01*
X37883606Y34706819D01*
X37883610Y34706810D01*
X37926078Y34633254D01*
X37949500Y34592686D01*
X38042686Y34499500D01*
X38156814Y34433608D01*
X38284105Y34399501D01*
X38284106Y34399500D01*
X38284108Y34399500D01*
X38415894Y34399500D01*
X38415894Y34399501D01*
X38543186Y34433608D01*
X38657314Y34499500D01*
X38750500Y34592686D01*
X38816392Y34706814D01*
X38850499Y34834106D01*
X38850500Y34834106D01*
X38850500Y34965894D01*
X38850499Y34965895D01*
X38848193Y34974500D01*
X38816392Y35093186D01*
X38750500Y35207314D01*
X38657314Y35300500D01*
X38570776Y35350463D01*
X38543190Y35366390D01*
X38543181Y35366394D01*
X38415894Y35400500D01*
X38415892Y35400500D01*
X38284108Y35400500D01*
X38284106Y35400500D01*
X38156818Y35366394D01*
X38156809Y35366390D01*
X38042685Y35300500D01*
X37949500Y35207315D01*
X37883610Y35093191D01*
X37883606Y35093182D01*
X37849500Y34965895D01*
X16839721Y34965895D01*
X16824817Y34974500D01*
X16759190Y35012390D01*
X16759181Y35012394D01*
X16631894Y35046500D01*
X16631892Y35046500D01*
X16500108Y35046500D01*
X16500106Y35046500D01*
X16372818Y35012394D01*
X16372809Y35012390D01*
X16258685Y34946500D01*
X16165500Y34853315D01*
X16099610Y34739191D01*
X16099606Y34739182D01*
X16065500Y34611895D01*
X11134320Y34611895D01*
X10280914Y35465301D01*
X10259240Y35517627D01*
X10280914Y35569953D01*
X10300741Y35584109D01*
X10356189Y35611215D01*
X10438785Y35693811D01*
X10490087Y35798751D01*
X10499999Y35866777D01*
X10500000Y35866788D01*
X10500000Y35950000D01*
X9636500Y35950000D01*
X9584174Y35971674D01*
X9562500Y36024000D01*
X9562500Y36050000D01*
X9536500Y36050000D01*
X9484174Y36071674D01*
X9462500Y36124000D01*
X9462500Y36150000D01*
X9662500Y36150000D01*
X10499999Y36150000D01*
X10499999Y36233211D01*
X10499998Y36233225D01*
X10490087Y36301251D01*
X10486034Y36309542D01*
X10472515Y36337195D01*
X29244100Y36337195D01*
X29244100Y36205406D01*
X29278206Y36078119D01*
X29278210Y36078110D01*
X29309451Y36024000D01*
X29344100Y35963986D01*
X29437286Y35870800D01*
X29551414Y35804908D01*
X29678705Y35770801D01*
X29678706Y35770800D01*
X29678708Y35770800D01*
X29810494Y35770800D01*
X29810494Y35770801D01*
X29937786Y35804908D01*
X30051914Y35870800D01*
X30145100Y35963986D01*
X30210992Y36078114D01*
X30245099Y36205406D01*
X30245100Y36205406D01*
X30245100Y36337194D01*
X30245099Y36337195D01*
X30210993Y36464482D01*
X30210992Y36464486D01*
X30145100Y36578614D01*
X30051914Y36671800D01*
X30004738Y36699037D01*
X29937790Y36737690D01*
X29937781Y36737694D01*
X29810494Y36771800D01*
X29810492Y36771800D01*
X29678708Y36771800D01*
X29678706Y36771800D01*
X29551418Y36737694D01*
X29551409Y36737690D01*
X29437285Y36671800D01*
X29344100Y36578615D01*
X29278210Y36464491D01*
X29278206Y36464482D01*
X29244100Y36337195D01*
X10472515Y36337195D01*
X10438785Y36406190D01*
X10356189Y36488786D01*
X10251249Y36540088D01*
X10183223Y36550000D01*
X9662500Y36550000D01*
X9662500Y36150000D01*
X9462500Y36150000D01*
X9462500Y36550000D01*
X8941782Y36550000D01*
X8905568Y36544723D01*
X8900105Y36546107D01*
X8894900Y36543950D01*
X8873314Y36552891D01*
X8850664Y36558627D01*
X8847779Y36563468D01*
X8842574Y36565624D01*
X8833632Y36587211D01*
X8821673Y36607282D01*
X8820900Y36617950D01*
X8820900Y36646711D01*
X8842574Y36699037D01*
X9326802Y37183265D01*
X10499500Y37183265D01*
X10499500Y36816736D01*
X10509427Y36748607D01*
X10509427Y36748606D01*
X10560801Y36643518D01*
X10560802Y36643517D01*
X10643517Y36560802D01*
X10748607Y36509427D01*
X10816740Y36499500D01*
X10816746Y36499500D01*
X12058254Y36499500D01*
X12058260Y36499500D01*
X12126393Y36509427D01*
X12231483Y36560802D01*
X12314198Y36643517D01*
X12365573Y36748607D01*
X12375500Y36816740D01*
X12375500Y37183260D01*
X12365573Y37251393D01*
X12314198Y37356483D01*
X12301224Y37369457D01*
X12279550Y37421783D01*
X12301224Y37474109D01*
X12593010Y37765895D01*
X29746100Y37765895D01*
X29746100Y37634106D01*
X29780206Y37506819D01*
X29780210Y37506810D01*
X29789585Y37490573D01*
X29846100Y37392686D01*
X29939286Y37299500D01*
X30053414Y37233608D01*
X30180705Y37199501D01*
X30180706Y37199500D01*
X30180708Y37199500D01*
X30312494Y37199500D01*
X30312494Y37199501D01*
X30439786Y37233608D01*
X30553914Y37299500D01*
X30647100Y37392686D01*
X30712992Y37506814D01*
X30747099Y37634106D01*
X30747100Y37634106D01*
X30747100Y37765894D01*
X30747099Y37765895D01*
X30712993Y37893182D01*
X30712992Y37893186D01*
X30647100Y38007314D01*
X30553914Y38100500D01*
X30497164Y38133265D01*
X30439790Y38166390D01*
X30439781Y38166394D01*
X30312494Y38200500D01*
X30312492Y38200500D01*
X30180708Y38200500D01*
X30180706Y38200500D01*
X30053418Y38166394D01*
X30053409Y38166390D01*
X29939285Y38100500D01*
X29846100Y38007315D01*
X29780210Y37893191D01*
X29780206Y37893182D01*
X29746100Y37765895D01*
X12593010Y37765895D01*
X12943941Y38116826D01*
X12996267Y38138500D01*
X13346995Y38138500D01*
X13399321Y38116826D01*
X13405698Y38109555D01*
X13407896Y38106691D01*
X13407898Y38106689D01*
X13407900Y38106686D01*
X13501086Y38013500D01*
X13615214Y37947608D01*
X13742505Y37913501D01*
X13742506Y37913500D01*
X13742508Y37913500D01*
X13874294Y37913500D01*
X13874294Y37913501D01*
X14001586Y37947608D01*
X14115714Y38013500D01*
X14208900Y38106686D01*
X14274792Y38220814D01*
X14308899Y38348106D01*
X14308900Y38348106D01*
X14308900Y38479894D01*
X14308899Y38479895D01*
X14274793Y38607182D01*
X14274792Y38607186D01*
X14208900Y38721314D01*
X14115714Y38814500D01*
X14039040Y38858768D01*
X14001590Y38880390D01*
X14001581Y38880394D01*
X13874294Y38914500D01*
X13874292Y38914500D01*
X13742508Y38914500D01*
X13742506Y38914500D01*
X13615218Y38880394D01*
X13615209Y38880390D01*
X13501085Y38814500D01*
X13407896Y38721310D01*
X13405698Y38718445D01*
X13356645Y38690132D01*
X13346995Y38689500D01*
X12796700Y38689500D01*
X12725272Y38659913D01*
X12695442Y38647558D01*
X12695441Y38647556D01*
X11570059Y37522174D01*
X11517733Y37500500D01*
X10816735Y37500500D01*
X10748606Y37490573D01*
X10748605Y37490573D01*
X10643517Y37439199D01*
X10560801Y37356483D01*
X10509427Y37251395D01*
X10509427Y37251394D01*
X10499500Y37183265D01*
X9326802Y37183265D01*
X9571363Y37427826D01*
X9623689Y37449500D01*
X10183254Y37449500D01*
X10183260Y37449500D01*
X10251393Y37459427D01*
X10356483Y37510802D01*
X10439198Y37593517D01*
X10490573Y37698607D01*
X10500500Y37766740D01*
X10500500Y38133260D01*
X10490573Y38201393D01*
X10439198Y38306483D01*
X10356483Y38389198D01*
X10356482Y38389199D01*
X10251394Y38440573D01*
X10183264Y38450500D01*
X10183260Y38450500D01*
X8941740Y38450500D01*
X8941735Y38450500D01*
X8873606Y38440573D01*
X8873605Y38440573D01*
X8768517Y38389199D01*
X8685801Y38306483D01*
X8634427Y38201395D01*
X8634427Y38201394D01*
X8624500Y38133265D01*
X8624500Y37766736D01*
X8634427Y37698607D01*
X8634427Y37698605D01*
X8659043Y37648253D01*
X8662552Y37591725D01*
X8644888Y37563427D01*
X8214838Y37133375D01*
X8144925Y37063463D01*
X8095490Y36977840D01*
X8095488Y36977835D01*
X8069900Y36882338D01*
X8069900Y35350463D01*
X8095488Y35254966D01*
X8095489Y35254964D01*
X8095490Y35254962D01*
X8123000Y35207314D01*
X8144926Y35169337D01*
X8605431Y34708832D01*
X8627105Y34656506D01*
X8626332Y34645840D01*
X8624501Y34633273D01*
X8624500Y34633264D01*
X8624500Y34633260D01*
X8624500Y34266740D01*
X8624501Y34266736D01*
X8624501Y34266733D01*
X8626332Y34254164D01*
X8612428Y34199260D01*
X8605431Y34191170D01*
X8238038Y33823775D01*
X8168125Y33753863D01*
X8118690Y33668240D01*
X8118688Y33668235D01*
X8093100Y33572738D01*
X8093100Y31994463D01*
X8118688Y31898966D01*
X8118690Y31898961D01*
X8168125Y31813338D01*
X8644888Y31336575D01*
X8666562Y31284249D01*
X8659044Y31251750D01*
X8634427Y31201393D01*
X8624500Y31133265D01*
X8624500Y30766736D01*
X8634427Y30698607D01*
X8634427Y30698606D01*
X8685801Y30593518D01*
X8768517Y30510802D01*
X8783302Y30503574D01*
X8820792Y30461121D01*
X8817283Y30404593D01*
X8803128Y30384767D01*
X8263438Y29845075D01*
X8193525Y29775163D01*
X8144089Y29689538D01*
X8142019Y29681810D01*
X8138370Y29668189D01*
X8119966Y29599505D01*
X8119965Y29599500D01*
X8118500Y29594035D01*
X8118500Y28469063D01*
X8144088Y28373566D01*
X8144092Y28373558D01*
X8155852Y28353191D01*
X8155853Y28353187D01*
X8155854Y28353187D01*
X8193526Y28287937D01*
X8644888Y27836575D01*
X8666562Y27784249D01*
X8659044Y27751750D01*
X8634427Y27701393D01*
X8624500Y27633265D01*
X8624500Y27266736D01*
X8634427Y27198607D01*
X8634427Y27198606D01*
X8685801Y27093518D01*
X8685802Y27093517D01*
X8768517Y27010802D01*
X8812720Y26989193D01*
X8850210Y26946741D01*
X8846701Y26890212D01*
X8832546Y26870386D01*
X8235038Y26272875D01*
X8165125Y26202963D01*
X8115690Y26117340D01*
X8115688Y26117335D01*
X8090100Y26021838D01*
X8090100Y26021835D01*
X8090100Y25096307D01*
X8090092Y25096277D01*
X8090100Y25046841D01*
X8090100Y24997437D01*
X8090107Y24997408D01*
X8090108Y24997405D01*
X8095845Y24976006D01*
X8102560Y24950960D01*
X8102558Y24950960D01*
X8102562Y24950953D01*
X8115691Y24901957D01*
X8115706Y24901919D01*
X8138865Y24861821D01*
X8138870Y24861812D01*
X8165124Y24816339D01*
X8165159Y24816293D01*
X8198077Y24783385D01*
X8219759Y24731062D01*
X8198093Y24678733D01*
X8198085Y24678725D01*
X7109938Y23590575D01*
X7040025Y23520663D01*
X6990590Y23435039D01*
X6990589Y23435035D01*
X6984845Y23413601D01*
X6984846Y23413600D01*
X6972469Y23367408D01*
X6965000Y23339535D01*
X250500Y23339535D01*
X250500Y42586612D01*
X1399500Y42586612D01*
X1399500Y42413389D01*
X1426597Y42242302D01*
X1426600Y42242289D01*
X1480125Y42077558D01*
X1480127Y42077554D01*
X1558767Y41923213D01*
X1558768Y41923212D01*
X1660586Y41783072D01*
X1783072Y41660586D01*
X1783075Y41660584D01*
X1783076Y41660583D01*
X1923212Y41558768D01*
X2077553Y41480128D01*
X2077557Y41480126D01*
X2242288Y41426601D01*
X2242294Y41426600D01*
X2242299Y41426598D01*
X2356359Y41408533D01*
X2413388Y41399500D01*
X2413389Y41399500D01*
X2586612Y41399500D01*
X2629383Y41406275D01*
X2757701Y41426598D01*
X2757708Y41426601D01*
X2757711Y41426601D01*
X2922442Y41480126D01*
X2922442Y41480127D01*
X2922445Y41480127D01*
X3076788Y41558768D01*
X3216928Y41660586D01*
X3339414Y41783072D01*
X3441232Y41923212D01*
X3519873Y42077555D01*
X3573402Y42242299D01*
X3600500Y42413389D01*
X3600500Y42586611D01*
X3573402Y42757701D01*
X3573400Y42757706D01*
X3573399Y42757712D01*
X3519874Y42922443D01*
X3519872Y42922447D01*
X3441232Y43076788D01*
X3339417Y43216924D01*
X3339416Y43216925D01*
X3339414Y43216928D01*
X3216928Y43339414D01*
X3216925Y43339417D01*
X3216923Y43339418D01*
X3076787Y43441233D01*
X2922446Y43519873D01*
X2922442Y43519875D01*
X2757711Y43573400D01*
X2757698Y43573403D01*
X2586612Y43600500D01*
X2586611Y43600500D01*
X2413389Y43600500D01*
X2413388Y43600500D01*
X2242301Y43573403D01*
X2242288Y43573400D01*
X2077557Y43519875D01*
X2077553Y43519873D01*
X1923212Y43441233D01*
X1783076Y43339418D01*
X1660582Y43216924D01*
X1558767Y43076788D01*
X1480127Y42922447D01*
X1480125Y42922443D01*
X1426600Y42757712D01*
X1426597Y42757699D01*
X1399500Y42586612D01*
X250500Y42586612D01*
X250500Y44675500D01*
X272174Y44727826D01*
X324500Y44749500D01*
X24926000Y44749500D01*
X24978326Y44727826D01*
G37*
%TD.AperFunction*%
%TA.AperFunction,Conductor*%
G36*
X43943312Y32922546D02*
G01*
X43948245Y32923868D01*
X43968892Y32911951D01*
X43990921Y32902826D01*
X43997298Y32895555D01*
X43999496Y32892691D01*
X43999498Y32892689D01*
X43999500Y32892686D01*
X44092686Y32799500D01*
X44206814Y32733608D01*
X44334105Y32699501D01*
X44334106Y32699500D01*
X44334108Y32699500D01*
X44465894Y32699500D01*
X44465894Y32699501D01*
X44593186Y32733608D01*
X44638500Y32759771D01*
X44694651Y32767164D01*
X44739585Y32732686D01*
X44749500Y32695685D01*
X44749500Y31904316D01*
X44727826Y31851990D01*
X44675500Y31830316D01*
X44638500Y31840230D01*
X44593190Y31866390D01*
X44593181Y31866394D01*
X44465894Y31900500D01*
X44465892Y31900500D01*
X44334108Y31900500D01*
X44334106Y31900500D01*
X44206818Y31866394D01*
X44206809Y31866390D01*
X44092685Y31800500D01*
X43999500Y31707315D01*
X43933610Y31593191D01*
X43933606Y31593182D01*
X43899500Y31465895D01*
X43899500Y31334106D01*
X43933606Y31206819D01*
X43933610Y31206810D01*
X43999500Y31092686D01*
X44092686Y30999500D01*
X44206814Y30933608D01*
X44334105Y30899501D01*
X44334106Y30899500D01*
X44334108Y30899500D01*
X44465894Y30899500D01*
X44465894Y30899501D01*
X44593186Y30933608D01*
X44638500Y30959771D01*
X44694651Y30967164D01*
X44739585Y30932686D01*
X44749500Y30895685D01*
X44749500Y30104316D01*
X44727826Y30051990D01*
X44675500Y30030316D01*
X44638500Y30040230D01*
X44593190Y30066390D01*
X44593181Y30066394D01*
X44465894Y30100500D01*
X44465892Y30100500D01*
X44334108Y30100500D01*
X44334107Y30100500D01*
X44326028Y30098336D01*
X44278564Y30101448D01*
X44260572Y30108900D01*
X44260570Y30108901D01*
X44222911Y30124500D01*
X44193700Y30136600D01*
X39732400Y30136600D01*
X39665530Y30108901D01*
X39665529Y30108901D01*
X39631143Y30094659D01*
X39631140Y30094657D01*
X34735759Y25199274D01*
X34683433Y25177600D01*
X33887930Y25177600D01*
X33848810Y25190881D01*
X33848114Y25189675D01*
X33729787Y25257992D01*
X33729578Y25258048D01*
X33729231Y25258141D01*
X33729001Y25258317D01*
X33725307Y25259847D01*
X33725717Y25260838D01*
X33684298Y25292618D01*
X33676905Y25348771D01*
X33696056Y25381943D01*
X41216942Y32902826D01*
X41269268Y32924500D01*
X43938595Y32924500D01*
X43943312Y32922546D01*
G37*
%TD.AperFunction*%
%TA.AperFunction,Conductor*%
G36*
X35519169Y41086495D02*
G01*
X36547484Y40362000D01*
X39793730Y38074872D01*
X39824022Y38027016D01*
X39811603Y37971757D01*
X39803435Y37962052D01*
X39152859Y37311474D01*
X39100533Y37289800D01*
X38850493Y37289800D01*
X38798167Y37311474D01*
X38776493Y37363800D01*
X38779013Y37382949D01*
X38803600Y37474708D01*
X38803600Y37606492D01*
X38803600Y37606494D01*
X38803599Y37606495D01*
X38791536Y37651514D01*
X38769492Y37733786D01*
X38703600Y37847914D01*
X38610414Y37941100D01*
X38582838Y37957021D01*
X38496290Y38006990D01*
X38496281Y38006994D01*
X38368994Y38041100D01*
X38368992Y38041100D01*
X38237208Y38041100D01*
X38237206Y38041100D01*
X38109918Y38006994D01*
X38109909Y38006990D01*
X37995785Y37941100D01*
X37902600Y37847915D01*
X37836710Y37733791D01*
X37836706Y37733782D01*
X37802600Y37606495D01*
X37802600Y37606492D01*
X37802600Y37474708D01*
X37827185Y37382952D01*
X37819793Y37326800D01*
X37774860Y37292321D01*
X37755707Y37289800D01*
X33607568Y37289800D01*
X33555242Y37311474D01*
X32645897Y38220819D01*
X29893039Y40973676D01*
X29871366Y41026000D01*
X29893040Y41078326D01*
X29945366Y41100000D01*
X35476549Y41100000D01*
X35519169Y41086495D01*
G37*
%TD.AperFunction*%
%TD*%
M02*
