%TF.GenerationSoftware,KiCad,Pcbnew,10.0.1*%
%TF.CreationDate,2026-09-07T13:57:51+08:00*%
%TF.ProjectId,ECG12_Portable2,45434731-325f-4506-9f72-7461626c6532,B*%
%TF.SameCoordinates,Original*%
%TF.FileFunction,Legend,Top*%
%TF.FilePolarity,Positive*%
%FSLAX46Y46*%
G04 Gerber Fmt 4.6, Leading zero omitted, Abs format (unit mm)*
G04 Created by KiCad (PCBNEW 10.0.1) date 2026-09-07 13:57:51*
%MOMM*%
%LPD*%
G01*
G04 APERTURE LIST*
%ADD10C,0.120000*%
G04 APERTURE END LIST*
D10*
X1750000Y40299074D02*
X1516666Y40299074D01*
X1516666Y39932407D02*
X1516666Y40632407D01*
X1516666Y40632407D02*
X1850000Y40632407D01*
X2116666Y39932407D02*
X2116666Y40632407D01*
X2449999Y39932407D02*
X2449999Y40632407D01*
X2449999Y40632407D02*
X2616666Y40632407D01*
X2616666Y40632407D02*
X2716666Y40599074D01*
X2716666Y40599074D02*
X2783333Y40532407D01*
X2783333Y40532407D02*
X2816666Y40465740D01*
X2816666Y40465740D02*
X2849999Y40332407D01*
X2849999Y40332407D02*
X2849999Y40232407D01*
X2849999Y40232407D02*
X2816666Y40099074D01*
X2816666Y40099074D02*
X2783333Y40032407D01*
X2783333Y40032407D02*
X2716666Y39965740D01*
X2716666Y39965740D02*
X2616666Y39932407D01*
X2616666Y39932407D02*
X2449999Y39932407D01*
X3516666Y39932407D02*
X3116666Y39932407D01*
X3316666Y39932407D02*
X3316666Y40632407D01*
X3316666Y40632407D02*
X3249999Y40532407D01*
X3249999Y40532407D02*
X3183333Y40465740D01*
X3183333Y40465740D02*
X3116666Y40432407D01*
X1750000Y4299074D02*
X1516666Y4299074D01*
X1516666Y3932407D02*
X1516666Y4632407D01*
X1516666Y4632407D02*
X1850000Y4632407D01*
X2116666Y3932407D02*
X2116666Y4632407D01*
X2449999Y3932407D02*
X2449999Y4632407D01*
X2449999Y4632407D02*
X2616666Y4632407D01*
X2616666Y4632407D02*
X2716666Y4599074D01*
X2716666Y4599074D02*
X2783333Y4532407D01*
X2783333Y4532407D02*
X2816666Y4465740D01*
X2816666Y4465740D02*
X2849999Y4332407D01*
X2849999Y4332407D02*
X2849999Y4232407D01*
X2849999Y4232407D02*
X2816666Y4099074D01*
X2816666Y4099074D02*
X2783333Y4032407D01*
X2783333Y4032407D02*
X2716666Y3965740D01*
X2716666Y3965740D02*
X2616666Y3932407D01*
X2616666Y3932407D02*
X2449999Y3932407D01*
X3083333Y4632407D02*
X3516666Y4632407D01*
X3516666Y4632407D02*
X3283333Y4365740D01*
X3283333Y4365740D02*
X3383333Y4365740D01*
X3383333Y4365740D02*
X3449999Y4332407D01*
X3449999Y4332407D02*
X3483333Y4299074D01*
X3483333Y4299074D02*
X3516666Y4232407D01*
X3516666Y4232407D02*
X3516666Y4065740D01*
X3516666Y4065740D02*
X3483333Y3999074D01*
X3483333Y3999074D02*
X3449999Y3965740D01*
X3449999Y3965740D02*
X3383333Y3932407D01*
X3383333Y3932407D02*
X3183333Y3932407D01*
X3183333Y3932407D02*
X3116666Y3965740D01*
X3116666Y3965740D02*
X3083333Y3999074D01*
X4849999Y6182407D02*
X4849999Y6882407D01*
X4849999Y6882407D02*
X5016666Y6882407D01*
X5016666Y6882407D02*
X5116666Y6849074D01*
X5116666Y6849074D02*
X5183333Y6782407D01*
X5183333Y6782407D02*
X5216666Y6715740D01*
X5216666Y6715740D02*
X5249999Y6582407D01*
X5249999Y6582407D02*
X5249999Y6482407D01*
X5249999Y6482407D02*
X5216666Y6349074D01*
X5216666Y6349074D02*
X5183333Y6282407D01*
X5183333Y6282407D02*
X5116666Y6215740D01*
X5116666Y6215740D02*
X5016666Y6182407D01*
X5016666Y6182407D02*
X4849999Y6182407D01*
X5916666Y6182407D02*
X5516666Y6182407D01*
X5716666Y6182407D02*
X5716666Y6882407D01*
X5716666Y6882407D02*
X5649999Y6782407D01*
X5649999Y6782407D02*
X5583333Y6715740D01*
X5583333Y6715740D02*
X5516666Y6682407D01*
X6350000Y6882407D02*
X6416666Y6882407D01*
X6416666Y6882407D02*
X6483333Y6849074D01*
X6483333Y6849074D02*
X6516666Y6815740D01*
X6516666Y6815740D02*
X6550000Y6749074D01*
X6550000Y6749074D02*
X6583333Y6615740D01*
X6583333Y6615740D02*
X6583333Y6449074D01*
X6583333Y6449074D02*
X6550000Y6315740D01*
X6550000Y6315740D02*
X6516666Y6249074D01*
X6516666Y6249074D02*
X6483333Y6215740D01*
X6483333Y6215740D02*
X6416666Y6182407D01*
X6416666Y6182407D02*
X6350000Y6182407D01*
X6350000Y6182407D02*
X6283333Y6215740D01*
X6283333Y6215740D02*
X6250000Y6249074D01*
X6250000Y6249074D02*
X6216666Y6315740D01*
X6216666Y6315740D02*
X6183333Y6449074D01*
X6183333Y6449074D02*
X6183333Y6615740D01*
X6183333Y6615740D02*
X6216666Y6749074D01*
X6216666Y6749074D02*
X6250000Y6815740D01*
X6250000Y6815740D02*
X6283333Y6849074D01*
X6283333Y6849074D02*
X6350000Y6882407D01*
X5483333Y38182407D02*
X5483333Y38882407D01*
X5483333Y38882407D02*
X5650000Y38882407D01*
X5650000Y38882407D02*
X5750000Y38849074D01*
X5750000Y38849074D02*
X5816667Y38782407D01*
X5816667Y38782407D02*
X5850000Y38715740D01*
X5850000Y38715740D02*
X5883333Y38582407D01*
X5883333Y38582407D02*
X5883333Y38482407D01*
X5883333Y38482407D02*
X5850000Y38349074D01*
X5850000Y38349074D02*
X5816667Y38282407D01*
X5816667Y38282407D02*
X5750000Y38215740D01*
X5750000Y38215740D02*
X5650000Y38182407D01*
X5650000Y38182407D02*
X5483333Y38182407D01*
X6216667Y38182407D02*
X6350000Y38182407D01*
X6350000Y38182407D02*
X6416667Y38215740D01*
X6416667Y38215740D02*
X6450000Y38249074D01*
X6450000Y38249074D02*
X6516667Y38349074D01*
X6516667Y38349074D02*
X6550000Y38482407D01*
X6550000Y38482407D02*
X6550000Y38749074D01*
X6550000Y38749074D02*
X6516667Y38815740D01*
X6516667Y38815740D02*
X6483333Y38849074D01*
X6483333Y38849074D02*
X6416667Y38882407D01*
X6416667Y38882407D02*
X6283333Y38882407D01*
X6283333Y38882407D02*
X6216667Y38849074D01*
X6216667Y38849074D02*
X6183333Y38815740D01*
X6183333Y38815740D02*
X6150000Y38749074D01*
X6150000Y38749074D02*
X6150000Y38582407D01*
X6150000Y38582407D02*
X6183333Y38515740D01*
X6183333Y38515740D02*
X6216667Y38482407D01*
X6216667Y38482407D02*
X6283333Y38449074D01*
X6283333Y38449074D02*
X6416667Y38449074D01*
X6416667Y38449074D02*
X6483333Y38482407D01*
X6483333Y38482407D02*
X6516667Y38515740D01*
X6516667Y38515740D02*
X6550000Y38582407D01*
X5483333Y34682407D02*
X5483333Y35382407D01*
X5483333Y35382407D02*
X5650000Y35382407D01*
X5650000Y35382407D02*
X5750000Y35349074D01*
X5750000Y35349074D02*
X5816667Y35282407D01*
X5816667Y35282407D02*
X5850000Y35215740D01*
X5850000Y35215740D02*
X5883333Y35082407D01*
X5883333Y35082407D02*
X5883333Y34982407D01*
X5883333Y34982407D02*
X5850000Y34849074D01*
X5850000Y34849074D02*
X5816667Y34782407D01*
X5816667Y34782407D02*
X5750000Y34715740D01*
X5750000Y34715740D02*
X5650000Y34682407D01*
X5650000Y34682407D02*
X5483333Y34682407D01*
X6283333Y35082407D02*
X6216667Y35115740D01*
X6216667Y35115740D02*
X6183333Y35149074D01*
X6183333Y35149074D02*
X6150000Y35215740D01*
X6150000Y35215740D02*
X6150000Y35249074D01*
X6150000Y35249074D02*
X6183333Y35315740D01*
X6183333Y35315740D02*
X6216667Y35349074D01*
X6216667Y35349074D02*
X6283333Y35382407D01*
X6283333Y35382407D02*
X6416667Y35382407D01*
X6416667Y35382407D02*
X6483333Y35349074D01*
X6483333Y35349074D02*
X6516667Y35315740D01*
X6516667Y35315740D02*
X6550000Y35249074D01*
X6550000Y35249074D02*
X6550000Y35215740D01*
X6550000Y35215740D02*
X6516667Y35149074D01*
X6516667Y35149074D02*
X6483333Y35115740D01*
X6483333Y35115740D02*
X6416667Y35082407D01*
X6416667Y35082407D02*
X6283333Y35082407D01*
X6283333Y35082407D02*
X6216667Y35049074D01*
X6216667Y35049074D02*
X6183333Y35015740D01*
X6183333Y35015740D02*
X6150000Y34949074D01*
X6150000Y34949074D02*
X6150000Y34815740D01*
X6150000Y34815740D02*
X6183333Y34749074D01*
X6183333Y34749074D02*
X6216667Y34715740D01*
X6216667Y34715740D02*
X6283333Y34682407D01*
X6283333Y34682407D02*
X6416667Y34682407D01*
X6416667Y34682407D02*
X6483333Y34715740D01*
X6483333Y34715740D02*
X6516667Y34749074D01*
X6516667Y34749074D02*
X6550000Y34815740D01*
X6550000Y34815740D02*
X6550000Y34949074D01*
X6550000Y34949074D02*
X6516667Y35015740D01*
X6516667Y35015740D02*
X6483333Y35049074D01*
X6483333Y35049074D02*
X6416667Y35082407D01*
X5483333Y17182407D02*
X5483333Y17882407D01*
X5483333Y17882407D02*
X5650000Y17882407D01*
X5650000Y17882407D02*
X5750000Y17849074D01*
X5750000Y17849074D02*
X5816667Y17782407D01*
X5816667Y17782407D02*
X5850000Y17715740D01*
X5850000Y17715740D02*
X5883333Y17582407D01*
X5883333Y17582407D02*
X5883333Y17482407D01*
X5883333Y17482407D02*
X5850000Y17349074D01*
X5850000Y17349074D02*
X5816667Y17282407D01*
X5816667Y17282407D02*
X5750000Y17215740D01*
X5750000Y17215740D02*
X5650000Y17182407D01*
X5650000Y17182407D02*
X5483333Y17182407D01*
X6116667Y17882407D02*
X6550000Y17882407D01*
X6550000Y17882407D02*
X6316667Y17615740D01*
X6316667Y17615740D02*
X6416667Y17615740D01*
X6416667Y17615740D02*
X6483333Y17582407D01*
X6483333Y17582407D02*
X6516667Y17549074D01*
X6516667Y17549074D02*
X6550000Y17482407D01*
X6550000Y17482407D02*
X6550000Y17315740D01*
X6550000Y17315740D02*
X6516667Y17249074D01*
X6516667Y17249074D02*
X6483333Y17215740D01*
X6483333Y17215740D02*
X6416667Y17182407D01*
X6416667Y17182407D02*
X6216667Y17182407D01*
X6216667Y17182407D02*
X6150000Y17215740D01*
X6150000Y17215740D02*
X6116667Y17249074D01*
X5483333Y13682407D02*
X5483333Y14382407D01*
X5483333Y14382407D02*
X5650000Y14382407D01*
X5650000Y14382407D02*
X5750000Y14349074D01*
X5750000Y14349074D02*
X5816667Y14282407D01*
X5816667Y14282407D02*
X5850000Y14215740D01*
X5850000Y14215740D02*
X5883333Y14082407D01*
X5883333Y14082407D02*
X5883333Y13982407D01*
X5883333Y13982407D02*
X5850000Y13849074D01*
X5850000Y13849074D02*
X5816667Y13782407D01*
X5816667Y13782407D02*
X5750000Y13715740D01*
X5750000Y13715740D02*
X5650000Y13682407D01*
X5650000Y13682407D02*
X5483333Y13682407D01*
X6150000Y14315740D02*
X6183333Y14349074D01*
X6183333Y14349074D02*
X6250000Y14382407D01*
X6250000Y14382407D02*
X6416667Y14382407D01*
X6416667Y14382407D02*
X6483333Y14349074D01*
X6483333Y14349074D02*
X6516667Y14315740D01*
X6516667Y14315740D02*
X6550000Y14249074D01*
X6550000Y14249074D02*
X6550000Y14182407D01*
X6550000Y14182407D02*
X6516667Y14082407D01*
X6516667Y14082407D02*
X6116667Y13682407D01*
X6116667Y13682407D02*
X6550000Y13682407D01*
X5483333Y10182407D02*
X5483333Y10882407D01*
X5483333Y10882407D02*
X5650000Y10882407D01*
X5650000Y10882407D02*
X5750000Y10849074D01*
X5750000Y10849074D02*
X5816667Y10782407D01*
X5816667Y10782407D02*
X5850000Y10715740D01*
X5850000Y10715740D02*
X5883333Y10582407D01*
X5883333Y10582407D02*
X5883333Y10482407D01*
X5883333Y10482407D02*
X5850000Y10349074D01*
X5850000Y10349074D02*
X5816667Y10282407D01*
X5816667Y10282407D02*
X5750000Y10215740D01*
X5750000Y10215740D02*
X5650000Y10182407D01*
X5650000Y10182407D02*
X5483333Y10182407D01*
X6550000Y10182407D02*
X6150000Y10182407D01*
X6350000Y10182407D02*
X6350000Y10882407D01*
X6350000Y10882407D02*
X6283333Y10782407D01*
X6283333Y10782407D02*
X6216667Y10715740D01*
X6216667Y10715740D02*
X6150000Y10682407D01*
X5983333Y31182407D02*
X5983333Y31882407D01*
X5983333Y31882407D02*
X6150000Y31882407D01*
X6150000Y31882407D02*
X6250000Y31849074D01*
X6250000Y31849074D02*
X6316667Y31782407D01*
X6316667Y31782407D02*
X6350000Y31715740D01*
X6350000Y31715740D02*
X6383333Y31582407D01*
X6383333Y31582407D02*
X6383333Y31482407D01*
X6383333Y31482407D02*
X6350000Y31349074D01*
X6350000Y31349074D02*
X6316667Y31282407D01*
X6316667Y31282407D02*
X6250000Y31215740D01*
X6250000Y31215740D02*
X6150000Y31182407D01*
X6150000Y31182407D02*
X5983333Y31182407D01*
X6616667Y31882407D02*
X7083333Y31882407D01*
X7083333Y31882407D02*
X6783333Y31182407D01*
X5983333Y27682407D02*
X5983333Y28382407D01*
X5983333Y28382407D02*
X6150000Y28382407D01*
X6150000Y28382407D02*
X6250000Y28349074D01*
X6250000Y28349074D02*
X6316667Y28282407D01*
X6316667Y28282407D02*
X6350000Y28215740D01*
X6350000Y28215740D02*
X6383333Y28082407D01*
X6383333Y28082407D02*
X6383333Y27982407D01*
X6383333Y27982407D02*
X6350000Y27849074D01*
X6350000Y27849074D02*
X6316667Y27782407D01*
X6316667Y27782407D02*
X6250000Y27715740D01*
X6250000Y27715740D02*
X6150000Y27682407D01*
X6150000Y27682407D02*
X5983333Y27682407D01*
X6983333Y28382407D02*
X6850000Y28382407D01*
X6850000Y28382407D02*
X6783333Y28349074D01*
X6783333Y28349074D02*
X6750000Y28315740D01*
X6750000Y28315740D02*
X6683333Y28215740D01*
X6683333Y28215740D02*
X6650000Y28082407D01*
X6650000Y28082407D02*
X6650000Y27815740D01*
X6650000Y27815740D02*
X6683333Y27749074D01*
X6683333Y27749074D02*
X6716667Y27715740D01*
X6716667Y27715740D02*
X6783333Y27682407D01*
X6783333Y27682407D02*
X6916667Y27682407D01*
X6916667Y27682407D02*
X6983333Y27715740D01*
X6983333Y27715740D02*
X7016667Y27749074D01*
X7016667Y27749074D02*
X7050000Y27815740D01*
X7050000Y27815740D02*
X7050000Y27982407D01*
X7050000Y27982407D02*
X7016667Y28049074D01*
X7016667Y28049074D02*
X6983333Y28082407D01*
X6983333Y28082407D02*
X6916667Y28115740D01*
X6916667Y28115740D02*
X6783333Y28115740D01*
X6783333Y28115740D02*
X6716667Y28082407D01*
X6716667Y28082407D02*
X6683333Y28049074D01*
X6683333Y28049074D02*
X6650000Y27982407D01*
X5983333Y24182407D02*
X5983333Y24882407D01*
X5983333Y24882407D02*
X6150000Y24882407D01*
X6150000Y24882407D02*
X6250000Y24849074D01*
X6250000Y24849074D02*
X6316667Y24782407D01*
X6316667Y24782407D02*
X6350000Y24715740D01*
X6350000Y24715740D02*
X6383333Y24582407D01*
X6383333Y24582407D02*
X6383333Y24482407D01*
X6383333Y24482407D02*
X6350000Y24349074D01*
X6350000Y24349074D02*
X6316667Y24282407D01*
X6316667Y24282407D02*
X6250000Y24215740D01*
X6250000Y24215740D02*
X6150000Y24182407D01*
X6150000Y24182407D02*
X5983333Y24182407D01*
X7016667Y24882407D02*
X6683333Y24882407D01*
X6683333Y24882407D02*
X6650000Y24549074D01*
X6650000Y24549074D02*
X6683333Y24582407D01*
X6683333Y24582407D02*
X6750000Y24615740D01*
X6750000Y24615740D02*
X6916667Y24615740D01*
X6916667Y24615740D02*
X6983333Y24582407D01*
X6983333Y24582407D02*
X7016667Y24549074D01*
X7016667Y24549074D02*
X7050000Y24482407D01*
X7050000Y24482407D02*
X7050000Y24315740D01*
X7050000Y24315740D02*
X7016667Y24249074D01*
X7016667Y24249074D02*
X6983333Y24215740D01*
X6983333Y24215740D02*
X6916667Y24182407D01*
X6916667Y24182407D02*
X6750000Y24182407D01*
X6750000Y24182407D02*
X6683333Y24215740D01*
X6683333Y24215740D02*
X6650000Y24249074D01*
X5983333Y20682407D02*
X5983333Y21382407D01*
X5983333Y21382407D02*
X6150000Y21382407D01*
X6150000Y21382407D02*
X6250000Y21349074D01*
X6250000Y21349074D02*
X6316667Y21282407D01*
X6316667Y21282407D02*
X6350000Y21215740D01*
X6350000Y21215740D02*
X6383333Y21082407D01*
X6383333Y21082407D02*
X6383333Y20982407D01*
X6383333Y20982407D02*
X6350000Y20849074D01*
X6350000Y20849074D02*
X6316667Y20782407D01*
X6316667Y20782407D02*
X6250000Y20715740D01*
X6250000Y20715740D02*
X6150000Y20682407D01*
X6150000Y20682407D02*
X5983333Y20682407D01*
X6983333Y21149074D02*
X6983333Y20682407D01*
X6816667Y21415740D02*
X6650000Y20915740D01*
X6650000Y20915740D02*
X7083333Y20915740D01*
X7899999Y39432407D02*
X7666666Y39765740D01*
X7499999Y39432407D02*
X7499999Y40132407D01*
X7499999Y40132407D02*
X7766666Y40132407D01*
X7766666Y40132407D02*
X7833333Y40099074D01*
X7833333Y40099074D02*
X7866666Y40065740D01*
X7866666Y40065740D02*
X7899999Y39999074D01*
X7899999Y39999074D02*
X7899999Y39899074D01*
X7899999Y39899074D02*
X7866666Y39832407D01*
X7866666Y39832407D02*
X7833333Y39799074D01*
X7833333Y39799074D02*
X7766666Y39765740D01*
X7766666Y39765740D02*
X7499999Y39765740D01*
X8566666Y39432407D02*
X8166666Y39432407D01*
X8366666Y39432407D02*
X8366666Y40132407D01*
X8366666Y40132407D02*
X8299999Y40032407D01*
X8299999Y40032407D02*
X8233333Y39965740D01*
X8233333Y39965740D02*
X8166666Y39932407D01*
X8800000Y40132407D02*
X9266666Y40132407D01*
X9266666Y40132407D02*
X8966666Y39432407D01*
X7899999Y34682407D02*
X7666666Y35015740D01*
X7499999Y34682407D02*
X7499999Y35382407D01*
X7499999Y35382407D02*
X7766666Y35382407D01*
X7766666Y35382407D02*
X7833333Y35349074D01*
X7833333Y35349074D02*
X7866666Y35315740D01*
X7866666Y35315740D02*
X7899999Y35249074D01*
X7899999Y35249074D02*
X7899999Y35149074D01*
X7899999Y35149074D02*
X7866666Y35082407D01*
X7866666Y35082407D02*
X7833333Y35049074D01*
X7833333Y35049074D02*
X7766666Y35015740D01*
X7766666Y35015740D02*
X7499999Y35015740D01*
X8566666Y34682407D02*
X8166666Y34682407D01*
X8366666Y34682407D02*
X8366666Y35382407D01*
X8366666Y35382407D02*
X8299999Y35282407D01*
X8299999Y35282407D02*
X8233333Y35215740D01*
X8233333Y35215740D02*
X8166666Y35182407D01*
X9200000Y35382407D02*
X8866666Y35382407D01*
X8866666Y35382407D02*
X8833333Y35049074D01*
X8833333Y35049074D02*
X8866666Y35082407D01*
X8866666Y35082407D02*
X8933333Y35115740D01*
X8933333Y35115740D02*
X9100000Y35115740D01*
X9100000Y35115740D02*
X9166666Y35082407D01*
X9166666Y35082407D02*
X9200000Y35049074D01*
X9200000Y35049074D02*
X9233333Y34982407D01*
X9233333Y34982407D02*
X9233333Y34815740D01*
X9233333Y34815740D02*
X9200000Y34749074D01*
X9200000Y34749074D02*
X9166666Y34715740D01*
X9166666Y34715740D02*
X9100000Y34682407D01*
X9100000Y34682407D02*
X8933333Y34682407D01*
X8933333Y34682407D02*
X8866666Y34715740D01*
X8866666Y34715740D02*
X8833333Y34749074D01*
X8233333Y17182407D02*
X8000000Y17515740D01*
X7833333Y17182407D02*
X7833333Y17882407D01*
X7833333Y17882407D02*
X8100000Y17882407D01*
X8100000Y17882407D02*
X8166667Y17849074D01*
X8166667Y17849074D02*
X8200000Y17815740D01*
X8200000Y17815740D02*
X8233333Y17749074D01*
X8233333Y17749074D02*
X8233333Y17649074D01*
X8233333Y17649074D02*
X8200000Y17582407D01*
X8200000Y17582407D02*
X8166667Y17549074D01*
X8166667Y17549074D02*
X8100000Y17515740D01*
X8100000Y17515740D02*
X7833333Y17515740D01*
X8866667Y17882407D02*
X8533333Y17882407D01*
X8533333Y17882407D02*
X8500000Y17549074D01*
X8500000Y17549074D02*
X8533333Y17582407D01*
X8533333Y17582407D02*
X8600000Y17615740D01*
X8600000Y17615740D02*
X8766667Y17615740D01*
X8766667Y17615740D02*
X8833333Y17582407D01*
X8833333Y17582407D02*
X8866667Y17549074D01*
X8866667Y17549074D02*
X8900000Y17482407D01*
X8900000Y17482407D02*
X8900000Y17315740D01*
X8900000Y17315740D02*
X8866667Y17249074D01*
X8866667Y17249074D02*
X8833333Y17215740D01*
X8833333Y17215740D02*
X8766667Y17182407D01*
X8766667Y17182407D02*
X8600000Y17182407D01*
X8600000Y17182407D02*
X8533333Y17215740D01*
X8533333Y17215740D02*
X8500000Y17249074D01*
X8233333Y13682407D02*
X8000000Y14015740D01*
X7833333Y13682407D02*
X7833333Y14382407D01*
X7833333Y14382407D02*
X8100000Y14382407D01*
X8100000Y14382407D02*
X8166667Y14349074D01*
X8166667Y14349074D02*
X8200000Y14315740D01*
X8200000Y14315740D02*
X8233333Y14249074D01*
X8233333Y14249074D02*
X8233333Y14149074D01*
X8233333Y14149074D02*
X8200000Y14082407D01*
X8200000Y14082407D02*
X8166667Y14049074D01*
X8166667Y14049074D02*
X8100000Y14015740D01*
X8100000Y14015740D02*
X7833333Y14015740D01*
X8466667Y14382407D02*
X8900000Y14382407D01*
X8900000Y14382407D02*
X8666667Y14115740D01*
X8666667Y14115740D02*
X8766667Y14115740D01*
X8766667Y14115740D02*
X8833333Y14082407D01*
X8833333Y14082407D02*
X8866667Y14049074D01*
X8866667Y14049074D02*
X8900000Y13982407D01*
X8900000Y13982407D02*
X8900000Y13815740D01*
X8900000Y13815740D02*
X8866667Y13749074D01*
X8866667Y13749074D02*
X8833333Y13715740D01*
X8833333Y13715740D02*
X8766667Y13682407D01*
X8766667Y13682407D02*
X8566667Y13682407D01*
X8566667Y13682407D02*
X8500000Y13715740D01*
X8500000Y13715740D02*
X8466667Y13749074D01*
X8233333Y10182407D02*
X8000000Y10515740D01*
X7833333Y10182407D02*
X7833333Y10882407D01*
X7833333Y10882407D02*
X8100000Y10882407D01*
X8100000Y10882407D02*
X8166667Y10849074D01*
X8166667Y10849074D02*
X8200000Y10815740D01*
X8200000Y10815740D02*
X8233333Y10749074D01*
X8233333Y10749074D02*
X8233333Y10649074D01*
X8233333Y10649074D02*
X8200000Y10582407D01*
X8200000Y10582407D02*
X8166667Y10549074D01*
X8166667Y10549074D02*
X8100000Y10515740D01*
X8100000Y10515740D02*
X7833333Y10515740D01*
X8900000Y10182407D02*
X8500000Y10182407D01*
X8700000Y10182407D02*
X8700000Y10882407D01*
X8700000Y10882407D02*
X8633333Y10782407D01*
X8633333Y10782407D02*
X8566667Y10715740D01*
X8566667Y10715740D02*
X8500000Y10682407D01*
X8349999Y6432407D02*
X8116666Y6765740D01*
X7949999Y6432407D02*
X7949999Y7132407D01*
X7949999Y7132407D02*
X8216666Y7132407D01*
X8216666Y7132407D02*
X8283333Y7099074D01*
X8283333Y7099074D02*
X8316666Y7065740D01*
X8316666Y7065740D02*
X8349999Y6999074D01*
X8349999Y6999074D02*
X8349999Y6899074D01*
X8349999Y6899074D02*
X8316666Y6832407D01*
X8316666Y6832407D02*
X8283333Y6799074D01*
X8283333Y6799074D02*
X8216666Y6765740D01*
X8216666Y6765740D02*
X7949999Y6765740D01*
X8616666Y7065740D02*
X8649999Y7099074D01*
X8649999Y7099074D02*
X8716666Y7132407D01*
X8716666Y7132407D02*
X8883333Y7132407D01*
X8883333Y7132407D02*
X8949999Y7099074D01*
X8949999Y7099074D02*
X8983333Y7065740D01*
X8983333Y7065740D02*
X9016666Y6999074D01*
X9016666Y6999074D02*
X9016666Y6932407D01*
X9016666Y6932407D02*
X8983333Y6832407D01*
X8983333Y6832407D02*
X8583333Y6432407D01*
X8583333Y6432407D02*
X9016666Y6432407D01*
X9450000Y7132407D02*
X9516666Y7132407D01*
X9516666Y7132407D02*
X9583333Y7099074D01*
X9583333Y7099074D02*
X9616666Y7065740D01*
X9616666Y7065740D02*
X9650000Y6999074D01*
X9650000Y6999074D02*
X9683333Y6865740D01*
X9683333Y6865740D02*
X9683333Y6699074D01*
X9683333Y6699074D02*
X9650000Y6565740D01*
X9650000Y6565740D02*
X9616666Y6499074D01*
X9616666Y6499074D02*
X9583333Y6465740D01*
X9583333Y6465740D02*
X9516666Y6432407D01*
X9516666Y6432407D02*
X9450000Y6432407D01*
X9450000Y6432407D02*
X9383333Y6465740D01*
X9383333Y6465740D02*
X9350000Y6499074D01*
X9350000Y6499074D02*
X9316666Y6565740D01*
X9316666Y6565740D02*
X9283333Y6699074D01*
X9283333Y6699074D02*
X9283333Y6865740D01*
X9283333Y6865740D02*
X9316666Y6999074D01*
X9316666Y6999074D02*
X9350000Y7065740D01*
X9350000Y7065740D02*
X9383333Y7099074D01*
X9383333Y7099074D02*
X9450000Y7132407D01*
X9749999Y21182407D02*
X9516666Y21515740D01*
X9349999Y21182407D02*
X9349999Y21882407D01*
X9349999Y21882407D02*
X9616666Y21882407D01*
X9616666Y21882407D02*
X9683333Y21849074D01*
X9683333Y21849074D02*
X9716666Y21815740D01*
X9716666Y21815740D02*
X9749999Y21749074D01*
X9749999Y21749074D02*
X9749999Y21649074D01*
X9749999Y21649074D02*
X9716666Y21582407D01*
X9716666Y21582407D02*
X9683333Y21549074D01*
X9683333Y21549074D02*
X9616666Y21515740D01*
X9616666Y21515740D02*
X9349999Y21515740D01*
X10416666Y21182407D02*
X10016666Y21182407D01*
X10216666Y21182407D02*
X10216666Y21882407D01*
X10216666Y21882407D02*
X10149999Y21782407D01*
X10149999Y21782407D02*
X10083333Y21715740D01*
X10083333Y21715740D02*
X10016666Y21682407D01*
X10850000Y21882407D02*
X10916666Y21882407D01*
X10916666Y21882407D02*
X10983333Y21849074D01*
X10983333Y21849074D02*
X11016666Y21815740D01*
X11016666Y21815740D02*
X11050000Y21749074D01*
X11050000Y21749074D02*
X11083333Y21615740D01*
X11083333Y21615740D02*
X11083333Y21449074D01*
X11083333Y21449074D02*
X11050000Y21315740D01*
X11050000Y21315740D02*
X11016666Y21249074D01*
X11016666Y21249074D02*
X10983333Y21215740D01*
X10983333Y21215740D02*
X10916666Y21182407D01*
X10916666Y21182407D02*
X10850000Y21182407D01*
X10850000Y21182407D02*
X10783333Y21215740D01*
X10783333Y21215740D02*
X10750000Y21249074D01*
X10750000Y21249074D02*
X10716666Y21315740D01*
X10716666Y21315740D02*
X10683333Y21449074D01*
X10683333Y21449074D02*
X10683333Y21615740D01*
X10683333Y21615740D02*
X10716666Y21749074D01*
X10716666Y21749074D02*
X10750000Y21815740D01*
X10750000Y21815740D02*
X10783333Y21849074D01*
X10783333Y21849074D02*
X10850000Y21882407D01*
X10333333Y17182407D02*
X10100000Y17515740D01*
X9933333Y17182407D02*
X9933333Y17882407D01*
X9933333Y17882407D02*
X10200000Y17882407D01*
X10200000Y17882407D02*
X10266667Y17849074D01*
X10266667Y17849074D02*
X10300000Y17815740D01*
X10300000Y17815740D02*
X10333333Y17749074D01*
X10333333Y17749074D02*
X10333333Y17649074D01*
X10333333Y17649074D02*
X10300000Y17582407D01*
X10300000Y17582407D02*
X10266667Y17549074D01*
X10266667Y17549074D02*
X10200000Y17515740D01*
X10200000Y17515740D02*
X9933333Y17515740D01*
X10933333Y17882407D02*
X10800000Y17882407D01*
X10800000Y17882407D02*
X10733333Y17849074D01*
X10733333Y17849074D02*
X10700000Y17815740D01*
X10700000Y17815740D02*
X10633333Y17715740D01*
X10633333Y17715740D02*
X10600000Y17582407D01*
X10600000Y17582407D02*
X10600000Y17315740D01*
X10600000Y17315740D02*
X10633333Y17249074D01*
X10633333Y17249074D02*
X10666667Y17215740D01*
X10666667Y17215740D02*
X10733333Y17182407D01*
X10733333Y17182407D02*
X10866667Y17182407D01*
X10866667Y17182407D02*
X10933333Y17215740D01*
X10933333Y17215740D02*
X10966667Y17249074D01*
X10966667Y17249074D02*
X11000000Y17315740D01*
X11000000Y17315740D02*
X11000000Y17482407D01*
X11000000Y17482407D02*
X10966667Y17549074D01*
X10966667Y17549074D02*
X10933333Y17582407D01*
X10933333Y17582407D02*
X10866667Y17615740D01*
X10866667Y17615740D02*
X10733333Y17615740D01*
X10733333Y17615740D02*
X10666667Y17582407D01*
X10666667Y17582407D02*
X10633333Y17549074D01*
X10633333Y17549074D02*
X10600000Y17482407D01*
X10333333Y13682407D02*
X10100000Y14015740D01*
X9933333Y13682407D02*
X9933333Y14382407D01*
X9933333Y14382407D02*
X10200000Y14382407D01*
X10200000Y14382407D02*
X10266667Y14349074D01*
X10266667Y14349074D02*
X10300000Y14315740D01*
X10300000Y14315740D02*
X10333333Y14249074D01*
X10333333Y14249074D02*
X10333333Y14149074D01*
X10333333Y14149074D02*
X10300000Y14082407D01*
X10300000Y14082407D02*
X10266667Y14049074D01*
X10266667Y14049074D02*
X10200000Y14015740D01*
X10200000Y14015740D02*
X9933333Y14015740D01*
X10933333Y14149074D02*
X10933333Y13682407D01*
X10766667Y14415740D02*
X10600000Y13915740D01*
X10600000Y13915740D02*
X11033333Y13915740D01*
X10333333Y10182407D02*
X10100000Y10515740D01*
X9933333Y10182407D02*
X9933333Y10882407D01*
X9933333Y10882407D02*
X10200000Y10882407D01*
X10200000Y10882407D02*
X10266667Y10849074D01*
X10266667Y10849074D02*
X10300000Y10815740D01*
X10300000Y10815740D02*
X10333333Y10749074D01*
X10333333Y10749074D02*
X10333333Y10649074D01*
X10333333Y10649074D02*
X10300000Y10582407D01*
X10300000Y10582407D02*
X10266667Y10549074D01*
X10266667Y10549074D02*
X10200000Y10515740D01*
X10200000Y10515740D02*
X9933333Y10515740D01*
X10600000Y10815740D02*
X10633333Y10849074D01*
X10633333Y10849074D02*
X10700000Y10882407D01*
X10700000Y10882407D02*
X10866667Y10882407D01*
X10866667Y10882407D02*
X10933333Y10849074D01*
X10933333Y10849074D02*
X10966667Y10815740D01*
X10966667Y10815740D02*
X11000000Y10749074D01*
X11000000Y10749074D02*
X11000000Y10682407D01*
X11000000Y10682407D02*
X10966667Y10582407D01*
X10966667Y10582407D02*
X10566667Y10182407D01*
X10566667Y10182407D02*
X11000000Y10182407D01*
X10733333Y24182407D02*
X10500000Y24515740D01*
X10333333Y24182407D02*
X10333333Y24882407D01*
X10333333Y24882407D02*
X10600000Y24882407D01*
X10600000Y24882407D02*
X10666667Y24849074D01*
X10666667Y24849074D02*
X10700000Y24815740D01*
X10700000Y24815740D02*
X10733333Y24749074D01*
X10733333Y24749074D02*
X10733333Y24649074D01*
X10733333Y24649074D02*
X10700000Y24582407D01*
X10700000Y24582407D02*
X10666667Y24549074D01*
X10666667Y24549074D02*
X10600000Y24515740D01*
X10600000Y24515740D02*
X10333333Y24515740D01*
X11066667Y24182407D02*
X11200000Y24182407D01*
X11200000Y24182407D02*
X11266667Y24215740D01*
X11266667Y24215740D02*
X11300000Y24249074D01*
X11300000Y24249074D02*
X11366667Y24349074D01*
X11366667Y24349074D02*
X11400000Y24482407D01*
X11400000Y24482407D02*
X11400000Y24749074D01*
X11400000Y24749074D02*
X11366667Y24815740D01*
X11366667Y24815740D02*
X11333333Y24849074D01*
X11333333Y24849074D02*
X11266667Y24882407D01*
X11266667Y24882407D02*
X11133333Y24882407D01*
X11133333Y24882407D02*
X11066667Y24849074D01*
X11066667Y24849074D02*
X11033333Y24815740D01*
X11033333Y24815740D02*
X11000000Y24749074D01*
X11000000Y24749074D02*
X11000000Y24582407D01*
X11000000Y24582407D02*
X11033333Y24515740D01*
X11033333Y24515740D02*
X11066667Y24482407D01*
X11066667Y24482407D02*
X11133333Y24449074D01*
X11133333Y24449074D02*
X11266667Y24449074D01*
X11266667Y24449074D02*
X11333333Y24482407D01*
X11333333Y24482407D02*
X11366667Y24515740D01*
X11366667Y24515740D02*
X11400000Y24582407D01*
X10499999Y38182407D02*
X10266666Y38515740D01*
X10099999Y38182407D02*
X10099999Y38882407D01*
X10099999Y38882407D02*
X10366666Y38882407D01*
X10366666Y38882407D02*
X10433333Y38849074D01*
X10433333Y38849074D02*
X10466666Y38815740D01*
X10466666Y38815740D02*
X10499999Y38749074D01*
X10499999Y38749074D02*
X10499999Y38649074D01*
X10499999Y38649074D02*
X10466666Y38582407D01*
X10466666Y38582407D02*
X10433333Y38549074D01*
X10433333Y38549074D02*
X10366666Y38515740D01*
X10366666Y38515740D02*
X10099999Y38515740D01*
X11166666Y38182407D02*
X10766666Y38182407D01*
X10966666Y38182407D02*
X10966666Y38882407D01*
X10966666Y38882407D02*
X10899999Y38782407D01*
X10899999Y38782407D02*
X10833333Y38715740D01*
X10833333Y38715740D02*
X10766666Y38682407D01*
X11566666Y38582407D02*
X11500000Y38615740D01*
X11500000Y38615740D02*
X11466666Y38649074D01*
X11466666Y38649074D02*
X11433333Y38715740D01*
X11433333Y38715740D02*
X11433333Y38749074D01*
X11433333Y38749074D02*
X11466666Y38815740D01*
X11466666Y38815740D02*
X11500000Y38849074D01*
X11500000Y38849074D02*
X11566666Y38882407D01*
X11566666Y38882407D02*
X11700000Y38882407D01*
X11700000Y38882407D02*
X11766666Y38849074D01*
X11766666Y38849074D02*
X11800000Y38815740D01*
X11800000Y38815740D02*
X11833333Y38749074D01*
X11833333Y38749074D02*
X11833333Y38715740D01*
X11833333Y38715740D02*
X11800000Y38649074D01*
X11800000Y38649074D02*
X11766666Y38615740D01*
X11766666Y38615740D02*
X11700000Y38582407D01*
X11700000Y38582407D02*
X11566666Y38582407D01*
X11566666Y38582407D02*
X11500000Y38549074D01*
X11500000Y38549074D02*
X11466666Y38515740D01*
X11466666Y38515740D02*
X11433333Y38449074D01*
X11433333Y38449074D02*
X11433333Y38315740D01*
X11433333Y38315740D02*
X11466666Y38249074D01*
X11466666Y38249074D02*
X11500000Y38215740D01*
X11500000Y38215740D02*
X11566666Y38182407D01*
X11566666Y38182407D02*
X11700000Y38182407D01*
X11700000Y38182407D02*
X11766666Y38215740D01*
X11766666Y38215740D02*
X11800000Y38249074D01*
X11800000Y38249074D02*
X11833333Y38315740D01*
X11833333Y38315740D02*
X11833333Y38449074D01*
X11833333Y38449074D02*
X11800000Y38515740D01*
X11800000Y38515740D02*
X11766666Y38549074D01*
X11766666Y38549074D02*
X11700000Y38582407D01*
X11449999Y6432407D02*
X11216666Y6765740D01*
X11049999Y6432407D02*
X11049999Y7132407D01*
X11049999Y7132407D02*
X11316666Y7132407D01*
X11316666Y7132407D02*
X11383333Y7099074D01*
X11383333Y7099074D02*
X11416666Y7065740D01*
X11416666Y7065740D02*
X11449999Y6999074D01*
X11449999Y6999074D02*
X11449999Y6899074D01*
X11449999Y6899074D02*
X11416666Y6832407D01*
X11416666Y6832407D02*
X11383333Y6799074D01*
X11383333Y6799074D02*
X11316666Y6765740D01*
X11316666Y6765740D02*
X11049999Y6765740D01*
X12116666Y6432407D02*
X11716666Y6432407D01*
X11916666Y6432407D02*
X11916666Y7132407D01*
X11916666Y7132407D02*
X11849999Y7032407D01*
X11849999Y7032407D02*
X11783333Y6965740D01*
X11783333Y6965740D02*
X11716666Y6932407D01*
X12450000Y6432407D02*
X12583333Y6432407D01*
X12583333Y6432407D02*
X12650000Y6465740D01*
X12650000Y6465740D02*
X12683333Y6499074D01*
X12683333Y6499074D02*
X12750000Y6599074D01*
X12750000Y6599074D02*
X12783333Y6732407D01*
X12783333Y6732407D02*
X12783333Y6999074D01*
X12783333Y6999074D02*
X12750000Y7065740D01*
X12750000Y7065740D02*
X12716666Y7099074D01*
X12716666Y7099074D02*
X12650000Y7132407D01*
X12650000Y7132407D02*
X12516666Y7132407D01*
X12516666Y7132407D02*
X12450000Y7099074D01*
X12450000Y7099074D02*
X12416666Y7065740D01*
X12416666Y7065740D02*
X12383333Y6999074D01*
X12383333Y6999074D02*
X12383333Y6832407D01*
X12383333Y6832407D02*
X12416666Y6765740D01*
X12416666Y6765740D02*
X12450000Y6732407D01*
X12450000Y6732407D02*
X12516666Y6699074D01*
X12516666Y6699074D02*
X12650000Y6699074D01*
X12650000Y6699074D02*
X12716666Y6732407D01*
X12716666Y6732407D02*
X12750000Y6765740D01*
X12750000Y6765740D02*
X12783333Y6832407D01*
X12633333Y34499074D02*
X12600000Y34465740D01*
X12600000Y34465740D02*
X12500000Y34432407D01*
X12500000Y34432407D02*
X12433333Y34432407D01*
X12433333Y34432407D02*
X12333333Y34465740D01*
X12333333Y34465740D02*
X12266667Y34532407D01*
X12266667Y34532407D02*
X12233333Y34599074D01*
X12233333Y34599074D02*
X12200000Y34732407D01*
X12200000Y34732407D02*
X12200000Y34832407D01*
X12200000Y34832407D02*
X12233333Y34965740D01*
X12233333Y34965740D02*
X12266667Y35032407D01*
X12266667Y35032407D02*
X12333333Y35099074D01*
X12333333Y35099074D02*
X12433333Y35132407D01*
X12433333Y35132407D02*
X12500000Y35132407D01*
X12500000Y35132407D02*
X12600000Y35099074D01*
X12600000Y35099074D02*
X12633333Y35065740D01*
X13033333Y34832407D02*
X12966667Y34865740D01*
X12966667Y34865740D02*
X12933333Y34899074D01*
X12933333Y34899074D02*
X12900000Y34965740D01*
X12900000Y34965740D02*
X12900000Y34999074D01*
X12900000Y34999074D02*
X12933333Y35065740D01*
X12933333Y35065740D02*
X12966667Y35099074D01*
X12966667Y35099074D02*
X13033333Y35132407D01*
X13033333Y35132407D02*
X13166667Y35132407D01*
X13166667Y35132407D02*
X13233333Y35099074D01*
X13233333Y35099074D02*
X13266667Y35065740D01*
X13266667Y35065740D02*
X13300000Y34999074D01*
X13300000Y34999074D02*
X13300000Y34965740D01*
X13300000Y34965740D02*
X13266667Y34899074D01*
X13266667Y34899074D02*
X13233333Y34865740D01*
X13233333Y34865740D02*
X13166667Y34832407D01*
X13166667Y34832407D02*
X13033333Y34832407D01*
X13033333Y34832407D02*
X12966667Y34799074D01*
X12966667Y34799074D02*
X12933333Y34765740D01*
X12933333Y34765740D02*
X12900000Y34699074D01*
X12900000Y34699074D02*
X12900000Y34565740D01*
X12900000Y34565740D02*
X12933333Y34499074D01*
X12933333Y34499074D02*
X12966667Y34465740D01*
X12966667Y34465740D02*
X13033333Y34432407D01*
X13033333Y34432407D02*
X13166667Y34432407D01*
X13166667Y34432407D02*
X13233333Y34465740D01*
X13233333Y34465740D02*
X13266667Y34499074D01*
X13266667Y34499074D02*
X13300000Y34565740D01*
X13300000Y34565740D02*
X13300000Y34699074D01*
X13300000Y34699074D02*
X13266667Y34765740D01*
X13266667Y34765740D02*
X13233333Y34799074D01*
X13233333Y34799074D02*
X13166667Y34832407D01*
X12883333Y37999074D02*
X12850000Y37965740D01*
X12850000Y37965740D02*
X12750000Y37932407D01*
X12750000Y37932407D02*
X12683333Y37932407D01*
X12683333Y37932407D02*
X12583333Y37965740D01*
X12583333Y37965740D02*
X12516667Y38032407D01*
X12516667Y38032407D02*
X12483333Y38099074D01*
X12483333Y38099074D02*
X12450000Y38232407D01*
X12450000Y38232407D02*
X12450000Y38332407D01*
X12450000Y38332407D02*
X12483333Y38465740D01*
X12483333Y38465740D02*
X12516667Y38532407D01*
X12516667Y38532407D02*
X12583333Y38599074D01*
X12583333Y38599074D02*
X12683333Y38632407D01*
X12683333Y38632407D02*
X12750000Y38632407D01*
X12750000Y38632407D02*
X12850000Y38599074D01*
X12850000Y38599074D02*
X12883333Y38565740D01*
X13216667Y37932407D02*
X13350000Y37932407D01*
X13350000Y37932407D02*
X13416667Y37965740D01*
X13416667Y37965740D02*
X13450000Y37999074D01*
X13450000Y37999074D02*
X13516667Y38099074D01*
X13516667Y38099074D02*
X13550000Y38232407D01*
X13550000Y38232407D02*
X13550000Y38499074D01*
X13550000Y38499074D02*
X13516667Y38565740D01*
X13516667Y38565740D02*
X13483333Y38599074D01*
X13483333Y38599074D02*
X13416667Y38632407D01*
X13416667Y38632407D02*
X13283333Y38632407D01*
X13283333Y38632407D02*
X13216667Y38599074D01*
X13216667Y38599074D02*
X13183333Y38565740D01*
X13183333Y38565740D02*
X13150000Y38499074D01*
X13150000Y38499074D02*
X13150000Y38332407D01*
X13150000Y38332407D02*
X13183333Y38265740D01*
X13183333Y38265740D02*
X13216667Y38232407D01*
X13216667Y38232407D02*
X13283333Y38199074D01*
X13283333Y38199074D02*
X13416667Y38199074D01*
X13416667Y38199074D02*
X13483333Y38232407D01*
X13483333Y38232407D02*
X13516667Y38265740D01*
X13516667Y38265740D02*
X13550000Y38332407D01*
X12883333Y30999074D02*
X12850000Y30965740D01*
X12850000Y30965740D02*
X12750000Y30932407D01*
X12750000Y30932407D02*
X12683333Y30932407D01*
X12683333Y30932407D02*
X12583333Y30965740D01*
X12583333Y30965740D02*
X12516667Y31032407D01*
X12516667Y31032407D02*
X12483333Y31099074D01*
X12483333Y31099074D02*
X12450000Y31232407D01*
X12450000Y31232407D02*
X12450000Y31332407D01*
X12450000Y31332407D02*
X12483333Y31465740D01*
X12483333Y31465740D02*
X12516667Y31532407D01*
X12516667Y31532407D02*
X12583333Y31599074D01*
X12583333Y31599074D02*
X12683333Y31632407D01*
X12683333Y31632407D02*
X12750000Y31632407D01*
X12750000Y31632407D02*
X12850000Y31599074D01*
X12850000Y31599074D02*
X12883333Y31565740D01*
X13116667Y31632407D02*
X13583333Y31632407D01*
X13583333Y31632407D02*
X13283333Y30932407D01*
X12883333Y27499074D02*
X12850000Y27465740D01*
X12850000Y27465740D02*
X12750000Y27432407D01*
X12750000Y27432407D02*
X12683333Y27432407D01*
X12683333Y27432407D02*
X12583333Y27465740D01*
X12583333Y27465740D02*
X12516667Y27532407D01*
X12516667Y27532407D02*
X12483333Y27599074D01*
X12483333Y27599074D02*
X12450000Y27732407D01*
X12450000Y27732407D02*
X12450000Y27832407D01*
X12450000Y27832407D02*
X12483333Y27965740D01*
X12483333Y27965740D02*
X12516667Y28032407D01*
X12516667Y28032407D02*
X12583333Y28099074D01*
X12583333Y28099074D02*
X12683333Y28132407D01*
X12683333Y28132407D02*
X12750000Y28132407D01*
X12750000Y28132407D02*
X12850000Y28099074D01*
X12850000Y28099074D02*
X12883333Y28065740D01*
X13483333Y28132407D02*
X13350000Y28132407D01*
X13350000Y28132407D02*
X13283333Y28099074D01*
X13283333Y28099074D02*
X13250000Y28065740D01*
X13250000Y28065740D02*
X13183333Y27965740D01*
X13183333Y27965740D02*
X13150000Y27832407D01*
X13150000Y27832407D02*
X13150000Y27565740D01*
X13150000Y27565740D02*
X13183333Y27499074D01*
X13183333Y27499074D02*
X13216667Y27465740D01*
X13216667Y27465740D02*
X13283333Y27432407D01*
X13283333Y27432407D02*
X13416667Y27432407D01*
X13416667Y27432407D02*
X13483333Y27465740D01*
X13483333Y27465740D02*
X13516667Y27499074D01*
X13516667Y27499074D02*
X13550000Y27565740D01*
X13550000Y27565740D02*
X13550000Y27732407D01*
X13550000Y27732407D02*
X13516667Y27799074D01*
X13516667Y27799074D02*
X13483333Y27832407D01*
X13483333Y27832407D02*
X13416667Y27865740D01*
X13416667Y27865740D02*
X13283333Y27865740D01*
X13283333Y27865740D02*
X13216667Y27832407D01*
X13216667Y27832407D02*
X13183333Y27799074D01*
X13183333Y27799074D02*
X13150000Y27732407D01*
X12883333Y23999074D02*
X12850000Y23965740D01*
X12850000Y23965740D02*
X12750000Y23932407D01*
X12750000Y23932407D02*
X12683333Y23932407D01*
X12683333Y23932407D02*
X12583333Y23965740D01*
X12583333Y23965740D02*
X12516667Y24032407D01*
X12516667Y24032407D02*
X12483333Y24099074D01*
X12483333Y24099074D02*
X12450000Y24232407D01*
X12450000Y24232407D02*
X12450000Y24332407D01*
X12450000Y24332407D02*
X12483333Y24465740D01*
X12483333Y24465740D02*
X12516667Y24532407D01*
X12516667Y24532407D02*
X12583333Y24599074D01*
X12583333Y24599074D02*
X12683333Y24632407D01*
X12683333Y24632407D02*
X12750000Y24632407D01*
X12750000Y24632407D02*
X12850000Y24599074D01*
X12850000Y24599074D02*
X12883333Y24565740D01*
X13516667Y24632407D02*
X13183333Y24632407D01*
X13183333Y24632407D02*
X13150000Y24299074D01*
X13150000Y24299074D02*
X13183333Y24332407D01*
X13183333Y24332407D02*
X13250000Y24365740D01*
X13250000Y24365740D02*
X13416667Y24365740D01*
X13416667Y24365740D02*
X13483333Y24332407D01*
X13483333Y24332407D02*
X13516667Y24299074D01*
X13516667Y24299074D02*
X13550000Y24232407D01*
X13550000Y24232407D02*
X13550000Y24065740D01*
X13550000Y24065740D02*
X13516667Y23999074D01*
X13516667Y23999074D02*
X13483333Y23965740D01*
X13483333Y23965740D02*
X13416667Y23932407D01*
X13416667Y23932407D02*
X13250000Y23932407D01*
X13250000Y23932407D02*
X13183333Y23965740D01*
X13183333Y23965740D02*
X13150000Y23999074D01*
X12883333Y20499074D02*
X12850000Y20465740D01*
X12850000Y20465740D02*
X12750000Y20432407D01*
X12750000Y20432407D02*
X12683333Y20432407D01*
X12683333Y20432407D02*
X12583333Y20465740D01*
X12583333Y20465740D02*
X12516667Y20532407D01*
X12516667Y20532407D02*
X12483333Y20599074D01*
X12483333Y20599074D02*
X12450000Y20732407D01*
X12450000Y20732407D02*
X12450000Y20832407D01*
X12450000Y20832407D02*
X12483333Y20965740D01*
X12483333Y20965740D02*
X12516667Y21032407D01*
X12516667Y21032407D02*
X12583333Y21099074D01*
X12583333Y21099074D02*
X12683333Y21132407D01*
X12683333Y21132407D02*
X12750000Y21132407D01*
X12750000Y21132407D02*
X12850000Y21099074D01*
X12850000Y21099074D02*
X12883333Y21065740D01*
X13483333Y20899074D02*
X13483333Y20432407D01*
X13316667Y21165740D02*
X13150000Y20665740D01*
X13150000Y20665740D02*
X13583333Y20665740D01*
X12883333Y16999074D02*
X12850000Y16965740D01*
X12850000Y16965740D02*
X12750000Y16932407D01*
X12750000Y16932407D02*
X12683333Y16932407D01*
X12683333Y16932407D02*
X12583333Y16965740D01*
X12583333Y16965740D02*
X12516667Y17032407D01*
X12516667Y17032407D02*
X12483333Y17099074D01*
X12483333Y17099074D02*
X12450000Y17232407D01*
X12450000Y17232407D02*
X12450000Y17332407D01*
X12450000Y17332407D02*
X12483333Y17465740D01*
X12483333Y17465740D02*
X12516667Y17532407D01*
X12516667Y17532407D02*
X12583333Y17599074D01*
X12583333Y17599074D02*
X12683333Y17632407D01*
X12683333Y17632407D02*
X12750000Y17632407D01*
X12750000Y17632407D02*
X12850000Y17599074D01*
X12850000Y17599074D02*
X12883333Y17565740D01*
X13116667Y17632407D02*
X13550000Y17632407D01*
X13550000Y17632407D02*
X13316667Y17365740D01*
X13316667Y17365740D02*
X13416667Y17365740D01*
X13416667Y17365740D02*
X13483333Y17332407D01*
X13483333Y17332407D02*
X13516667Y17299074D01*
X13516667Y17299074D02*
X13550000Y17232407D01*
X13550000Y17232407D02*
X13550000Y17065740D01*
X13550000Y17065740D02*
X13516667Y16999074D01*
X13516667Y16999074D02*
X13483333Y16965740D01*
X13483333Y16965740D02*
X13416667Y16932407D01*
X13416667Y16932407D02*
X13216667Y16932407D01*
X13216667Y16932407D02*
X13150000Y16965740D01*
X13150000Y16965740D02*
X13116667Y16999074D01*
X12883333Y13499074D02*
X12850000Y13465740D01*
X12850000Y13465740D02*
X12750000Y13432407D01*
X12750000Y13432407D02*
X12683333Y13432407D01*
X12683333Y13432407D02*
X12583333Y13465740D01*
X12583333Y13465740D02*
X12516667Y13532407D01*
X12516667Y13532407D02*
X12483333Y13599074D01*
X12483333Y13599074D02*
X12450000Y13732407D01*
X12450000Y13732407D02*
X12450000Y13832407D01*
X12450000Y13832407D02*
X12483333Y13965740D01*
X12483333Y13965740D02*
X12516667Y14032407D01*
X12516667Y14032407D02*
X12583333Y14099074D01*
X12583333Y14099074D02*
X12683333Y14132407D01*
X12683333Y14132407D02*
X12750000Y14132407D01*
X12750000Y14132407D02*
X12850000Y14099074D01*
X12850000Y14099074D02*
X12883333Y14065740D01*
X13150000Y14065740D02*
X13183333Y14099074D01*
X13183333Y14099074D02*
X13250000Y14132407D01*
X13250000Y14132407D02*
X13416667Y14132407D01*
X13416667Y14132407D02*
X13483333Y14099074D01*
X13483333Y14099074D02*
X13516667Y14065740D01*
X13516667Y14065740D02*
X13550000Y13999074D01*
X13550000Y13999074D02*
X13550000Y13932407D01*
X13550000Y13932407D02*
X13516667Y13832407D01*
X13516667Y13832407D02*
X13116667Y13432407D01*
X13116667Y13432407D02*
X13550000Y13432407D01*
X12883333Y9999074D02*
X12850000Y9965740D01*
X12850000Y9965740D02*
X12750000Y9932407D01*
X12750000Y9932407D02*
X12683333Y9932407D01*
X12683333Y9932407D02*
X12583333Y9965740D01*
X12583333Y9965740D02*
X12516667Y10032407D01*
X12516667Y10032407D02*
X12483333Y10099074D01*
X12483333Y10099074D02*
X12450000Y10232407D01*
X12450000Y10232407D02*
X12450000Y10332407D01*
X12450000Y10332407D02*
X12483333Y10465740D01*
X12483333Y10465740D02*
X12516667Y10532407D01*
X12516667Y10532407D02*
X12583333Y10599074D01*
X12583333Y10599074D02*
X12683333Y10632407D01*
X12683333Y10632407D02*
X12750000Y10632407D01*
X12750000Y10632407D02*
X12850000Y10599074D01*
X12850000Y10599074D02*
X12883333Y10565740D01*
X13550000Y9932407D02*
X13150000Y9932407D01*
X13350000Y9932407D02*
X13350000Y10632407D01*
X13350000Y10632407D02*
X13283333Y10532407D01*
X13283333Y10532407D02*
X13216667Y10465740D01*
X13216667Y10465740D02*
X13150000Y10432407D01*
X14349999Y35499074D02*
X14316666Y35465740D01*
X14316666Y35465740D02*
X14216666Y35432407D01*
X14216666Y35432407D02*
X14149999Y35432407D01*
X14149999Y35432407D02*
X14049999Y35465740D01*
X14049999Y35465740D02*
X13983333Y35532407D01*
X13983333Y35532407D02*
X13949999Y35599074D01*
X13949999Y35599074D02*
X13916666Y35732407D01*
X13916666Y35732407D02*
X13916666Y35832407D01*
X13916666Y35832407D02*
X13949999Y35965740D01*
X13949999Y35965740D02*
X13983333Y36032407D01*
X13983333Y36032407D02*
X14049999Y36099074D01*
X14049999Y36099074D02*
X14149999Y36132407D01*
X14149999Y36132407D02*
X14216666Y36132407D01*
X14216666Y36132407D02*
X14316666Y36099074D01*
X14316666Y36099074D02*
X14349999Y36065740D01*
X14616666Y36065740D02*
X14649999Y36099074D01*
X14649999Y36099074D02*
X14716666Y36132407D01*
X14716666Y36132407D02*
X14883333Y36132407D01*
X14883333Y36132407D02*
X14949999Y36099074D01*
X14949999Y36099074D02*
X14983333Y36065740D01*
X14983333Y36065740D02*
X15016666Y35999074D01*
X15016666Y35999074D02*
X15016666Y35932407D01*
X15016666Y35932407D02*
X14983333Y35832407D01*
X14983333Y35832407D02*
X14583333Y35432407D01*
X14583333Y35432407D02*
X15016666Y35432407D01*
X15616666Y36132407D02*
X15483333Y36132407D01*
X15483333Y36132407D02*
X15416666Y36099074D01*
X15416666Y36099074D02*
X15383333Y36065740D01*
X15383333Y36065740D02*
X15316666Y35965740D01*
X15316666Y35965740D02*
X15283333Y35832407D01*
X15283333Y35832407D02*
X15283333Y35565740D01*
X15283333Y35565740D02*
X15316666Y35499074D01*
X15316666Y35499074D02*
X15350000Y35465740D01*
X15350000Y35465740D02*
X15416666Y35432407D01*
X15416666Y35432407D02*
X15550000Y35432407D01*
X15550000Y35432407D02*
X15616666Y35465740D01*
X15616666Y35465740D02*
X15650000Y35499074D01*
X15650000Y35499074D02*
X15683333Y35565740D01*
X15683333Y35565740D02*
X15683333Y35732407D01*
X15683333Y35732407D02*
X15650000Y35799074D01*
X15650000Y35799074D02*
X15616666Y35832407D01*
X15616666Y35832407D02*
X15550000Y35865740D01*
X15550000Y35865740D02*
X15416666Y35865740D01*
X15416666Y35865740D02*
X15350000Y35832407D01*
X15350000Y35832407D02*
X15316666Y35799074D01*
X15316666Y35799074D02*
X15283333Y35732407D01*
X14599999Y31999074D02*
X14566666Y31965740D01*
X14566666Y31965740D02*
X14466666Y31932407D01*
X14466666Y31932407D02*
X14399999Y31932407D01*
X14399999Y31932407D02*
X14299999Y31965740D01*
X14299999Y31965740D02*
X14233333Y32032407D01*
X14233333Y32032407D02*
X14199999Y32099074D01*
X14199999Y32099074D02*
X14166666Y32232407D01*
X14166666Y32232407D02*
X14166666Y32332407D01*
X14166666Y32332407D02*
X14199999Y32465740D01*
X14199999Y32465740D02*
X14233333Y32532407D01*
X14233333Y32532407D02*
X14299999Y32599074D01*
X14299999Y32599074D02*
X14399999Y32632407D01*
X14399999Y32632407D02*
X14466666Y32632407D01*
X14466666Y32632407D02*
X14566666Y32599074D01*
X14566666Y32599074D02*
X14599999Y32565740D01*
X14866666Y32565740D02*
X14899999Y32599074D01*
X14899999Y32599074D02*
X14966666Y32632407D01*
X14966666Y32632407D02*
X15133333Y32632407D01*
X15133333Y32632407D02*
X15199999Y32599074D01*
X15199999Y32599074D02*
X15233333Y32565740D01*
X15233333Y32565740D02*
X15266666Y32499074D01*
X15266666Y32499074D02*
X15266666Y32432407D01*
X15266666Y32432407D02*
X15233333Y32332407D01*
X15233333Y32332407D02*
X14833333Y31932407D01*
X14833333Y31932407D02*
X15266666Y31932407D01*
X15900000Y32632407D02*
X15566666Y32632407D01*
X15566666Y32632407D02*
X15533333Y32299074D01*
X15533333Y32299074D02*
X15566666Y32332407D01*
X15566666Y32332407D02*
X15633333Y32365740D01*
X15633333Y32365740D02*
X15800000Y32365740D01*
X15800000Y32365740D02*
X15866666Y32332407D01*
X15866666Y32332407D02*
X15900000Y32299074D01*
X15900000Y32299074D02*
X15933333Y32232407D01*
X15933333Y32232407D02*
X15933333Y32065740D01*
X15933333Y32065740D02*
X15900000Y31999074D01*
X15900000Y31999074D02*
X15866666Y31965740D01*
X15866666Y31965740D02*
X15800000Y31932407D01*
X15800000Y31932407D02*
X15633333Y31932407D01*
X15633333Y31932407D02*
X15566666Y31965740D01*
X15566666Y31965740D02*
X15533333Y31999074D01*
X15249999Y8749074D02*
X15216666Y8715740D01*
X15216666Y8715740D02*
X15116666Y8682407D01*
X15116666Y8682407D02*
X15049999Y8682407D01*
X15049999Y8682407D02*
X14949999Y8715740D01*
X14949999Y8715740D02*
X14883333Y8782407D01*
X14883333Y8782407D02*
X14849999Y8849074D01*
X14849999Y8849074D02*
X14816666Y8982407D01*
X14816666Y8982407D02*
X14816666Y9082407D01*
X14816666Y9082407D02*
X14849999Y9215740D01*
X14849999Y9215740D02*
X14883333Y9282407D01*
X14883333Y9282407D02*
X14949999Y9349074D01*
X14949999Y9349074D02*
X15049999Y9382407D01*
X15049999Y9382407D02*
X15116666Y9382407D01*
X15116666Y9382407D02*
X15216666Y9349074D01*
X15216666Y9349074D02*
X15249999Y9315740D01*
X15483333Y9382407D02*
X15916666Y9382407D01*
X15916666Y9382407D02*
X15683333Y9115740D01*
X15683333Y9115740D02*
X15783333Y9115740D01*
X15783333Y9115740D02*
X15849999Y9082407D01*
X15849999Y9082407D02*
X15883333Y9049074D01*
X15883333Y9049074D02*
X15916666Y8982407D01*
X15916666Y8982407D02*
X15916666Y8815740D01*
X15916666Y8815740D02*
X15883333Y8749074D01*
X15883333Y8749074D02*
X15849999Y8715740D01*
X15849999Y8715740D02*
X15783333Y8682407D01*
X15783333Y8682407D02*
X15583333Y8682407D01*
X15583333Y8682407D02*
X15516666Y8715740D01*
X15516666Y8715740D02*
X15483333Y8749074D01*
X16516666Y9149074D02*
X16516666Y8682407D01*
X16350000Y9415740D02*
X16183333Y8915740D01*
X16183333Y8915740D02*
X16616666Y8915740D01*
X15549999Y39682407D02*
X15316666Y40015740D01*
X15149999Y39682407D02*
X15149999Y40382407D01*
X15149999Y40382407D02*
X15416666Y40382407D01*
X15416666Y40382407D02*
X15483333Y40349074D01*
X15483333Y40349074D02*
X15516666Y40315740D01*
X15516666Y40315740D02*
X15549999Y40249074D01*
X15549999Y40249074D02*
X15549999Y40149074D01*
X15549999Y40149074D02*
X15516666Y40082407D01*
X15516666Y40082407D02*
X15483333Y40049074D01*
X15483333Y40049074D02*
X15416666Y40015740D01*
X15416666Y40015740D02*
X15149999Y40015740D01*
X15816666Y40315740D02*
X15849999Y40349074D01*
X15849999Y40349074D02*
X15916666Y40382407D01*
X15916666Y40382407D02*
X16083333Y40382407D01*
X16083333Y40382407D02*
X16149999Y40349074D01*
X16149999Y40349074D02*
X16183333Y40315740D01*
X16183333Y40315740D02*
X16216666Y40249074D01*
X16216666Y40249074D02*
X16216666Y40182407D01*
X16216666Y40182407D02*
X16183333Y40082407D01*
X16183333Y40082407D02*
X15783333Y39682407D01*
X15783333Y39682407D02*
X16216666Y39682407D01*
X16483333Y40315740D02*
X16516666Y40349074D01*
X16516666Y40349074D02*
X16583333Y40382407D01*
X16583333Y40382407D02*
X16750000Y40382407D01*
X16750000Y40382407D02*
X16816666Y40349074D01*
X16816666Y40349074D02*
X16850000Y40315740D01*
X16850000Y40315740D02*
X16883333Y40249074D01*
X16883333Y40249074D02*
X16883333Y40182407D01*
X16883333Y40182407D02*
X16850000Y40082407D01*
X16850000Y40082407D02*
X16450000Y39682407D01*
X16450000Y39682407D02*
X16883333Y39682407D01*
X16299999Y13699074D02*
X16266666Y13665740D01*
X16266666Y13665740D02*
X16166666Y13632407D01*
X16166666Y13632407D02*
X16099999Y13632407D01*
X16099999Y13632407D02*
X15999999Y13665740D01*
X15999999Y13665740D02*
X15933333Y13732407D01*
X15933333Y13732407D02*
X15899999Y13799074D01*
X15899999Y13799074D02*
X15866666Y13932407D01*
X15866666Y13932407D02*
X15866666Y14032407D01*
X15866666Y14032407D02*
X15899999Y14165740D01*
X15899999Y14165740D02*
X15933333Y14232407D01*
X15933333Y14232407D02*
X15999999Y14299074D01*
X15999999Y14299074D02*
X16099999Y14332407D01*
X16099999Y14332407D02*
X16166666Y14332407D01*
X16166666Y14332407D02*
X16266666Y14299074D01*
X16266666Y14299074D02*
X16299999Y14265740D01*
X16966666Y13632407D02*
X16566666Y13632407D01*
X16766666Y13632407D02*
X16766666Y14332407D01*
X16766666Y14332407D02*
X16699999Y14232407D01*
X16699999Y14232407D02*
X16633333Y14165740D01*
X16633333Y14165740D02*
X16566666Y14132407D01*
X17400000Y14332407D02*
X17466666Y14332407D01*
X17466666Y14332407D02*
X17533333Y14299074D01*
X17533333Y14299074D02*
X17566666Y14265740D01*
X17566666Y14265740D02*
X17600000Y14199074D01*
X17600000Y14199074D02*
X17633333Y14065740D01*
X17633333Y14065740D02*
X17633333Y13899074D01*
X17633333Y13899074D02*
X17600000Y13765740D01*
X17600000Y13765740D02*
X17566666Y13699074D01*
X17566666Y13699074D02*
X17533333Y13665740D01*
X17533333Y13665740D02*
X17466666Y13632407D01*
X17466666Y13632407D02*
X17400000Y13632407D01*
X17400000Y13632407D02*
X17333333Y13665740D01*
X17333333Y13665740D02*
X17300000Y13699074D01*
X17300000Y13699074D02*
X17266666Y13765740D01*
X17266666Y13765740D02*
X17233333Y13899074D01*
X17233333Y13899074D02*
X17233333Y14065740D01*
X17233333Y14065740D02*
X17266666Y14199074D01*
X17266666Y14199074D02*
X17300000Y14265740D01*
X17300000Y14265740D02*
X17333333Y14299074D01*
X17333333Y14299074D02*
X17400000Y14332407D01*
X16549999Y12199074D02*
X16516666Y12165740D01*
X16516666Y12165740D02*
X16416666Y12132407D01*
X16416666Y12132407D02*
X16349999Y12132407D01*
X16349999Y12132407D02*
X16249999Y12165740D01*
X16249999Y12165740D02*
X16183333Y12232407D01*
X16183333Y12232407D02*
X16149999Y12299074D01*
X16149999Y12299074D02*
X16116666Y12432407D01*
X16116666Y12432407D02*
X16116666Y12532407D01*
X16116666Y12532407D02*
X16149999Y12665740D01*
X16149999Y12665740D02*
X16183333Y12732407D01*
X16183333Y12732407D02*
X16249999Y12799074D01*
X16249999Y12799074D02*
X16349999Y12832407D01*
X16349999Y12832407D02*
X16416666Y12832407D01*
X16416666Y12832407D02*
X16516666Y12799074D01*
X16516666Y12799074D02*
X16549999Y12765740D01*
X17216666Y12132407D02*
X16816666Y12132407D01*
X17016666Y12132407D02*
X17016666Y12832407D01*
X17016666Y12832407D02*
X16949999Y12732407D01*
X16949999Y12732407D02*
X16883333Y12665740D01*
X16883333Y12665740D02*
X16816666Y12632407D01*
X17883333Y12132407D02*
X17483333Y12132407D01*
X17683333Y12132407D02*
X17683333Y12832407D01*
X17683333Y12832407D02*
X17616666Y12732407D01*
X17616666Y12732407D02*
X17550000Y12665740D01*
X17550000Y12665740D02*
X17483333Y12632407D01*
X17549999Y36382407D02*
X17316666Y36715740D01*
X17149999Y36382407D02*
X17149999Y37082407D01*
X17149999Y37082407D02*
X17416666Y37082407D01*
X17416666Y37082407D02*
X17483333Y37049074D01*
X17483333Y37049074D02*
X17516666Y37015740D01*
X17516666Y37015740D02*
X17549999Y36949074D01*
X17549999Y36949074D02*
X17549999Y36849074D01*
X17549999Y36849074D02*
X17516666Y36782407D01*
X17516666Y36782407D02*
X17483333Y36749074D01*
X17483333Y36749074D02*
X17416666Y36715740D01*
X17416666Y36715740D02*
X17149999Y36715740D01*
X17816666Y37015740D02*
X17849999Y37049074D01*
X17849999Y37049074D02*
X17916666Y37082407D01*
X17916666Y37082407D02*
X18083333Y37082407D01*
X18083333Y37082407D02*
X18149999Y37049074D01*
X18149999Y37049074D02*
X18183333Y37015740D01*
X18183333Y37015740D02*
X18216666Y36949074D01*
X18216666Y36949074D02*
X18216666Y36882407D01*
X18216666Y36882407D02*
X18183333Y36782407D01*
X18183333Y36782407D02*
X17783333Y36382407D01*
X17783333Y36382407D02*
X18216666Y36382407D01*
X18450000Y37082407D02*
X18883333Y37082407D01*
X18883333Y37082407D02*
X18650000Y36815740D01*
X18650000Y36815740D02*
X18750000Y36815740D01*
X18750000Y36815740D02*
X18816666Y36782407D01*
X18816666Y36782407D02*
X18850000Y36749074D01*
X18850000Y36749074D02*
X18883333Y36682407D01*
X18883333Y36682407D02*
X18883333Y36515740D01*
X18883333Y36515740D02*
X18850000Y36449074D01*
X18850000Y36449074D02*
X18816666Y36415740D01*
X18816666Y36415740D02*
X18750000Y36382407D01*
X18750000Y36382407D02*
X18550000Y36382407D01*
X18550000Y36382407D02*
X18483333Y36415740D01*
X18483333Y36415740D02*
X18450000Y36449074D01*
X18716666Y12132407D02*
X18716666Y11565740D01*
X18716666Y11565740D02*
X18750000Y11499074D01*
X18750000Y11499074D02*
X18783333Y11465740D01*
X18783333Y11465740D02*
X18850000Y11432407D01*
X18850000Y11432407D02*
X18983333Y11432407D01*
X18983333Y11432407D02*
X19050000Y11465740D01*
X19050000Y11465740D02*
X19083333Y11499074D01*
X19083333Y11499074D02*
X19116666Y11565740D01*
X19116666Y11565740D02*
X19116666Y12132407D01*
X19749999Y11899074D02*
X19749999Y11432407D01*
X19583333Y12165740D02*
X19416666Y11665740D01*
X19416666Y11665740D02*
X19849999Y11665740D01*
X19049999Y43682407D02*
X18816666Y44015740D01*
X18649999Y43682407D02*
X18649999Y44382407D01*
X18649999Y44382407D02*
X18916666Y44382407D01*
X18916666Y44382407D02*
X18983333Y44349074D01*
X18983333Y44349074D02*
X19016666Y44315740D01*
X19016666Y44315740D02*
X19049999Y44249074D01*
X19049999Y44249074D02*
X19049999Y44149074D01*
X19049999Y44149074D02*
X19016666Y44082407D01*
X19016666Y44082407D02*
X18983333Y44049074D01*
X18983333Y44049074D02*
X18916666Y44015740D01*
X18916666Y44015740D02*
X18649999Y44015740D01*
X19283333Y44382407D02*
X19716666Y44382407D01*
X19716666Y44382407D02*
X19483333Y44115740D01*
X19483333Y44115740D02*
X19583333Y44115740D01*
X19583333Y44115740D02*
X19649999Y44082407D01*
X19649999Y44082407D02*
X19683333Y44049074D01*
X19683333Y44049074D02*
X19716666Y43982407D01*
X19716666Y43982407D02*
X19716666Y43815740D01*
X19716666Y43815740D02*
X19683333Y43749074D01*
X19683333Y43749074D02*
X19649999Y43715740D01*
X19649999Y43715740D02*
X19583333Y43682407D01*
X19583333Y43682407D02*
X19383333Y43682407D01*
X19383333Y43682407D02*
X19316666Y43715740D01*
X19316666Y43715740D02*
X19283333Y43749074D01*
X20316666Y44149074D02*
X20316666Y43682407D01*
X20150000Y44415740D02*
X19983333Y43915740D01*
X19983333Y43915740D02*
X20416666Y43915740D01*
X20149999Y35999074D02*
X20116666Y35965740D01*
X20116666Y35965740D02*
X20016666Y35932407D01*
X20016666Y35932407D02*
X19949999Y35932407D01*
X19949999Y35932407D02*
X19849999Y35965740D01*
X19849999Y35965740D02*
X19783333Y36032407D01*
X19783333Y36032407D02*
X19749999Y36099074D01*
X19749999Y36099074D02*
X19716666Y36232407D01*
X19716666Y36232407D02*
X19716666Y36332407D01*
X19716666Y36332407D02*
X19749999Y36465740D01*
X19749999Y36465740D02*
X19783333Y36532407D01*
X19783333Y36532407D02*
X19849999Y36599074D01*
X19849999Y36599074D02*
X19949999Y36632407D01*
X19949999Y36632407D02*
X20016666Y36632407D01*
X20016666Y36632407D02*
X20116666Y36599074D01*
X20116666Y36599074D02*
X20149999Y36565740D01*
X20816666Y35932407D02*
X20416666Y35932407D01*
X20616666Y35932407D02*
X20616666Y36632407D01*
X20616666Y36632407D02*
X20549999Y36532407D01*
X20549999Y36532407D02*
X20483333Y36465740D01*
X20483333Y36465740D02*
X20416666Y36432407D01*
X21050000Y36632407D02*
X21483333Y36632407D01*
X21483333Y36632407D02*
X21250000Y36365740D01*
X21250000Y36365740D02*
X21350000Y36365740D01*
X21350000Y36365740D02*
X21416666Y36332407D01*
X21416666Y36332407D02*
X21450000Y36299074D01*
X21450000Y36299074D02*
X21483333Y36232407D01*
X21483333Y36232407D02*
X21483333Y36065740D01*
X21483333Y36065740D02*
X21450000Y35999074D01*
X21450000Y35999074D02*
X21416666Y35965740D01*
X21416666Y35965740D02*
X21350000Y35932407D01*
X21350000Y35932407D02*
X21150000Y35932407D01*
X21150000Y35932407D02*
X21083333Y35965740D01*
X21083333Y35965740D02*
X21050000Y35999074D01*
X20299999Y33499074D02*
X20266666Y33465740D01*
X20266666Y33465740D02*
X20166666Y33432407D01*
X20166666Y33432407D02*
X20099999Y33432407D01*
X20099999Y33432407D02*
X19999999Y33465740D01*
X19999999Y33465740D02*
X19933333Y33532407D01*
X19933333Y33532407D02*
X19899999Y33599074D01*
X19899999Y33599074D02*
X19866666Y33732407D01*
X19866666Y33732407D02*
X19866666Y33832407D01*
X19866666Y33832407D02*
X19899999Y33965740D01*
X19899999Y33965740D02*
X19933333Y34032407D01*
X19933333Y34032407D02*
X19999999Y34099074D01*
X19999999Y34099074D02*
X20099999Y34132407D01*
X20099999Y34132407D02*
X20166666Y34132407D01*
X20166666Y34132407D02*
X20266666Y34099074D01*
X20266666Y34099074D02*
X20299999Y34065740D01*
X20966666Y33432407D02*
X20566666Y33432407D01*
X20766666Y33432407D02*
X20766666Y34132407D01*
X20766666Y34132407D02*
X20699999Y34032407D01*
X20699999Y34032407D02*
X20633333Y33965740D01*
X20633333Y33965740D02*
X20566666Y33932407D01*
X21233333Y34065740D02*
X21266666Y34099074D01*
X21266666Y34099074D02*
X21333333Y34132407D01*
X21333333Y34132407D02*
X21500000Y34132407D01*
X21500000Y34132407D02*
X21566666Y34099074D01*
X21566666Y34099074D02*
X21600000Y34065740D01*
X21600000Y34065740D02*
X21633333Y33999074D01*
X21633333Y33999074D02*
X21633333Y33932407D01*
X21633333Y33932407D02*
X21600000Y33832407D01*
X21600000Y33832407D02*
X21200000Y33432407D01*
X21200000Y33432407D02*
X21633333Y33432407D01*
X21649999Y40432407D02*
X21649999Y41132407D01*
X21649999Y41132407D02*
X21816666Y41132407D01*
X21816666Y41132407D02*
X21916666Y41099074D01*
X21916666Y41099074D02*
X21983333Y41032407D01*
X21983333Y41032407D02*
X22016666Y40965740D01*
X22016666Y40965740D02*
X22049999Y40832407D01*
X22049999Y40832407D02*
X22049999Y40732407D01*
X22049999Y40732407D02*
X22016666Y40599074D01*
X22016666Y40599074D02*
X21983333Y40532407D01*
X21983333Y40532407D02*
X21916666Y40465740D01*
X21916666Y40465740D02*
X21816666Y40432407D01*
X21816666Y40432407D02*
X21649999Y40432407D01*
X22316666Y41065740D02*
X22349999Y41099074D01*
X22349999Y41099074D02*
X22416666Y41132407D01*
X22416666Y41132407D02*
X22583333Y41132407D01*
X22583333Y41132407D02*
X22649999Y41099074D01*
X22649999Y41099074D02*
X22683333Y41065740D01*
X22683333Y41065740D02*
X22716666Y40999074D01*
X22716666Y40999074D02*
X22716666Y40932407D01*
X22716666Y40932407D02*
X22683333Y40832407D01*
X22683333Y40832407D02*
X22283333Y40432407D01*
X22283333Y40432407D02*
X22716666Y40432407D01*
X23150000Y41132407D02*
X23216666Y41132407D01*
X23216666Y41132407D02*
X23283333Y41099074D01*
X23283333Y41099074D02*
X23316666Y41065740D01*
X23316666Y41065740D02*
X23350000Y40999074D01*
X23350000Y40999074D02*
X23383333Y40865740D01*
X23383333Y40865740D02*
X23383333Y40699074D01*
X23383333Y40699074D02*
X23350000Y40565740D01*
X23350000Y40565740D02*
X23316666Y40499074D01*
X23316666Y40499074D02*
X23283333Y40465740D01*
X23283333Y40465740D02*
X23216666Y40432407D01*
X23216666Y40432407D02*
X23150000Y40432407D01*
X23150000Y40432407D02*
X23083333Y40465740D01*
X23083333Y40465740D02*
X23050000Y40499074D01*
X23050000Y40499074D02*
X23016666Y40565740D01*
X23016666Y40565740D02*
X22983333Y40699074D01*
X22983333Y40699074D02*
X22983333Y40865740D01*
X22983333Y40865740D02*
X23016666Y40999074D01*
X23016666Y40999074D02*
X23050000Y41065740D01*
X23050000Y41065740D02*
X23083333Y41099074D01*
X23083333Y41099074D02*
X23150000Y41132407D01*
X22799999Y34799074D02*
X22766666Y34765740D01*
X22766666Y34765740D02*
X22666666Y34732407D01*
X22666666Y34732407D02*
X22599999Y34732407D01*
X22599999Y34732407D02*
X22499999Y34765740D01*
X22499999Y34765740D02*
X22433333Y34832407D01*
X22433333Y34832407D02*
X22399999Y34899074D01*
X22399999Y34899074D02*
X22366666Y35032407D01*
X22366666Y35032407D02*
X22366666Y35132407D01*
X22366666Y35132407D02*
X22399999Y35265740D01*
X22399999Y35265740D02*
X22433333Y35332407D01*
X22433333Y35332407D02*
X22499999Y35399074D01*
X22499999Y35399074D02*
X22599999Y35432407D01*
X22599999Y35432407D02*
X22666666Y35432407D01*
X22666666Y35432407D02*
X22766666Y35399074D01*
X22766666Y35399074D02*
X22799999Y35365740D01*
X23066666Y35365740D02*
X23099999Y35399074D01*
X23099999Y35399074D02*
X23166666Y35432407D01*
X23166666Y35432407D02*
X23333333Y35432407D01*
X23333333Y35432407D02*
X23399999Y35399074D01*
X23399999Y35399074D02*
X23433333Y35365740D01*
X23433333Y35365740D02*
X23466666Y35299074D01*
X23466666Y35299074D02*
X23466666Y35232407D01*
X23466666Y35232407D02*
X23433333Y35132407D01*
X23433333Y35132407D02*
X23033333Y34732407D01*
X23033333Y34732407D02*
X23466666Y34732407D01*
X23900000Y35432407D02*
X23966666Y35432407D01*
X23966666Y35432407D02*
X24033333Y35399074D01*
X24033333Y35399074D02*
X24066666Y35365740D01*
X24066666Y35365740D02*
X24100000Y35299074D01*
X24100000Y35299074D02*
X24133333Y35165740D01*
X24133333Y35165740D02*
X24133333Y34999074D01*
X24133333Y34999074D02*
X24100000Y34865740D01*
X24100000Y34865740D02*
X24066666Y34799074D01*
X24066666Y34799074D02*
X24033333Y34765740D01*
X24033333Y34765740D02*
X23966666Y34732407D01*
X23966666Y34732407D02*
X23900000Y34732407D01*
X23900000Y34732407D02*
X23833333Y34765740D01*
X23833333Y34765740D02*
X23800000Y34799074D01*
X23800000Y34799074D02*
X23766666Y34865740D01*
X23766666Y34865740D02*
X23733333Y34999074D01*
X23733333Y34999074D02*
X23733333Y35165740D01*
X23733333Y35165740D02*
X23766666Y35299074D01*
X23766666Y35299074D02*
X23800000Y35365740D01*
X23800000Y35365740D02*
X23833333Y35399074D01*
X23833333Y35399074D02*
X23900000Y35432407D01*
X22799999Y33299074D02*
X22766666Y33265740D01*
X22766666Y33265740D02*
X22666666Y33232407D01*
X22666666Y33232407D02*
X22599999Y33232407D01*
X22599999Y33232407D02*
X22499999Y33265740D01*
X22499999Y33265740D02*
X22433333Y33332407D01*
X22433333Y33332407D02*
X22399999Y33399074D01*
X22399999Y33399074D02*
X22366666Y33532407D01*
X22366666Y33532407D02*
X22366666Y33632407D01*
X22366666Y33632407D02*
X22399999Y33765740D01*
X22399999Y33765740D02*
X22433333Y33832407D01*
X22433333Y33832407D02*
X22499999Y33899074D01*
X22499999Y33899074D02*
X22599999Y33932407D01*
X22599999Y33932407D02*
X22666666Y33932407D01*
X22666666Y33932407D02*
X22766666Y33899074D01*
X22766666Y33899074D02*
X22799999Y33865740D01*
X23466666Y33232407D02*
X23066666Y33232407D01*
X23266666Y33232407D02*
X23266666Y33932407D01*
X23266666Y33932407D02*
X23199999Y33832407D01*
X23199999Y33832407D02*
X23133333Y33765740D01*
X23133333Y33765740D02*
X23066666Y33732407D01*
X24066666Y33699074D02*
X24066666Y33232407D01*
X23900000Y33965740D02*
X23733333Y33465740D01*
X23733333Y33465740D02*
X24166666Y33465740D01*
X25299999Y35932407D02*
X25066666Y36265740D01*
X24899999Y35932407D02*
X24899999Y36632407D01*
X24899999Y36632407D02*
X25166666Y36632407D01*
X25166666Y36632407D02*
X25233333Y36599074D01*
X25233333Y36599074D02*
X25266666Y36565740D01*
X25266666Y36565740D02*
X25299999Y36499074D01*
X25299999Y36499074D02*
X25299999Y36399074D01*
X25299999Y36399074D02*
X25266666Y36332407D01*
X25266666Y36332407D02*
X25233333Y36299074D01*
X25233333Y36299074D02*
X25166666Y36265740D01*
X25166666Y36265740D02*
X24899999Y36265740D01*
X25566666Y36565740D02*
X25599999Y36599074D01*
X25599999Y36599074D02*
X25666666Y36632407D01*
X25666666Y36632407D02*
X25833333Y36632407D01*
X25833333Y36632407D02*
X25899999Y36599074D01*
X25899999Y36599074D02*
X25933333Y36565740D01*
X25933333Y36565740D02*
X25966666Y36499074D01*
X25966666Y36499074D02*
X25966666Y36432407D01*
X25966666Y36432407D02*
X25933333Y36332407D01*
X25933333Y36332407D02*
X25533333Y35932407D01*
X25533333Y35932407D02*
X25966666Y35932407D01*
X26633333Y35932407D02*
X26233333Y35932407D01*
X26433333Y35932407D02*
X26433333Y36632407D01*
X26433333Y36632407D02*
X26366666Y36532407D01*
X26366666Y36532407D02*
X26300000Y36465740D01*
X26300000Y36465740D02*
X26233333Y36432407D01*
X25299999Y34549074D02*
X25266666Y34515740D01*
X25266666Y34515740D02*
X25166666Y34482407D01*
X25166666Y34482407D02*
X25099999Y34482407D01*
X25099999Y34482407D02*
X24999999Y34515740D01*
X24999999Y34515740D02*
X24933333Y34582407D01*
X24933333Y34582407D02*
X24899999Y34649074D01*
X24899999Y34649074D02*
X24866666Y34782407D01*
X24866666Y34782407D02*
X24866666Y34882407D01*
X24866666Y34882407D02*
X24899999Y35015740D01*
X24899999Y35015740D02*
X24933333Y35082407D01*
X24933333Y35082407D02*
X24999999Y35149074D01*
X24999999Y35149074D02*
X25099999Y35182407D01*
X25099999Y35182407D02*
X25166666Y35182407D01*
X25166666Y35182407D02*
X25266666Y35149074D01*
X25266666Y35149074D02*
X25299999Y35115740D01*
X25566666Y35115740D02*
X25599999Y35149074D01*
X25599999Y35149074D02*
X25666666Y35182407D01*
X25666666Y35182407D02*
X25833333Y35182407D01*
X25833333Y35182407D02*
X25899999Y35149074D01*
X25899999Y35149074D02*
X25933333Y35115740D01*
X25933333Y35115740D02*
X25966666Y35049074D01*
X25966666Y35049074D02*
X25966666Y34982407D01*
X25966666Y34982407D02*
X25933333Y34882407D01*
X25933333Y34882407D02*
X25533333Y34482407D01*
X25533333Y34482407D02*
X25966666Y34482407D01*
X26566666Y34949074D02*
X26566666Y34482407D01*
X26400000Y35215740D02*
X26233333Y34715740D01*
X26233333Y34715740D02*
X26666666Y34715740D01*
X25849999Y8749074D02*
X25816666Y8715740D01*
X25816666Y8715740D02*
X25716666Y8682407D01*
X25716666Y8682407D02*
X25649999Y8682407D01*
X25649999Y8682407D02*
X25549999Y8715740D01*
X25549999Y8715740D02*
X25483333Y8782407D01*
X25483333Y8782407D02*
X25449999Y8849074D01*
X25449999Y8849074D02*
X25416666Y8982407D01*
X25416666Y8982407D02*
X25416666Y9082407D01*
X25416666Y9082407D02*
X25449999Y9215740D01*
X25449999Y9215740D02*
X25483333Y9282407D01*
X25483333Y9282407D02*
X25549999Y9349074D01*
X25549999Y9349074D02*
X25649999Y9382407D01*
X25649999Y9382407D02*
X25716666Y9382407D01*
X25716666Y9382407D02*
X25816666Y9349074D01*
X25816666Y9349074D02*
X25849999Y9315740D01*
X26083333Y9382407D02*
X26516666Y9382407D01*
X26516666Y9382407D02*
X26283333Y9115740D01*
X26283333Y9115740D02*
X26383333Y9115740D01*
X26383333Y9115740D02*
X26449999Y9082407D01*
X26449999Y9082407D02*
X26483333Y9049074D01*
X26483333Y9049074D02*
X26516666Y8982407D01*
X26516666Y8982407D02*
X26516666Y8815740D01*
X26516666Y8815740D02*
X26483333Y8749074D01*
X26483333Y8749074D02*
X26449999Y8715740D01*
X26449999Y8715740D02*
X26383333Y8682407D01*
X26383333Y8682407D02*
X26183333Y8682407D01*
X26183333Y8682407D02*
X26116666Y8715740D01*
X26116666Y8715740D02*
X26083333Y8749074D01*
X27150000Y9382407D02*
X26816666Y9382407D01*
X26816666Y9382407D02*
X26783333Y9049074D01*
X26783333Y9049074D02*
X26816666Y9082407D01*
X26816666Y9082407D02*
X26883333Y9115740D01*
X26883333Y9115740D02*
X27050000Y9115740D01*
X27050000Y9115740D02*
X27116666Y9082407D01*
X27116666Y9082407D02*
X27150000Y9049074D01*
X27150000Y9049074D02*
X27183333Y8982407D01*
X27183333Y8982407D02*
X27183333Y8815740D01*
X27183333Y8815740D02*
X27150000Y8749074D01*
X27150000Y8749074D02*
X27116666Y8715740D01*
X27116666Y8715740D02*
X27050000Y8682407D01*
X27050000Y8682407D02*
X26883333Y8682407D01*
X26883333Y8682407D02*
X26816666Y8715740D01*
X26816666Y8715740D02*
X26783333Y8749074D01*
X27299999Y31999074D02*
X27266666Y31965740D01*
X27266666Y31965740D02*
X27166666Y31932407D01*
X27166666Y31932407D02*
X27099999Y31932407D01*
X27099999Y31932407D02*
X26999999Y31965740D01*
X26999999Y31965740D02*
X26933333Y32032407D01*
X26933333Y32032407D02*
X26899999Y32099074D01*
X26899999Y32099074D02*
X26866666Y32232407D01*
X26866666Y32232407D02*
X26866666Y32332407D01*
X26866666Y32332407D02*
X26899999Y32465740D01*
X26899999Y32465740D02*
X26933333Y32532407D01*
X26933333Y32532407D02*
X26999999Y32599074D01*
X26999999Y32599074D02*
X27099999Y32632407D01*
X27099999Y32632407D02*
X27166666Y32632407D01*
X27166666Y32632407D02*
X27266666Y32599074D01*
X27266666Y32599074D02*
X27299999Y32565740D01*
X27966666Y31932407D02*
X27566666Y31932407D01*
X27766666Y31932407D02*
X27766666Y32632407D01*
X27766666Y32632407D02*
X27699999Y32532407D01*
X27699999Y32532407D02*
X27633333Y32465740D01*
X27633333Y32465740D02*
X27566666Y32432407D01*
X28566666Y32632407D02*
X28433333Y32632407D01*
X28433333Y32632407D02*
X28366666Y32599074D01*
X28366666Y32599074D02*
X28333333Y32565740D01*
X28333333Y32565740D02*
X28266666Y32465740D01*
X28266666Y32465740D02*
X28233333Y32332407D01*
X28233333Y32332407D02*
X28233333Y32065740D01*
X28233333Y32065740D02*
X28266666Y31999074D01*
X28266666Y31999074D02*
X28300000Y31965740D01*
X28300000Y31965740D02*
X28366666Y31932407D01*
X28366666Y31932407D02*
X28500000Y31932407D01*
X28500000Y31932407D02*
X28566666Y31965740D01*
X28566666Y31965740D02*
X28600000Y31999074D01*
X28600000Y31999074D02*
X28633333Y32065740D01*
X28633333Y32065740D02*
X28633333Y32232407D01*
X28633333Y32232407D02*
X28600000Y32299074D01*
X28600000Y32299074D02*
X28566666Y32332407D01*
X28566666Y32332407D02*
X28500000Y32365740D01*
X28500000Y32365740D02*
X28366666Y32365740D01*
X28366666Y32365740D02*
X28300000Y32332407D01*
X28300000Y32332407D02*
X28266666Y32299074D01*
X28266666Y32299074D02*
X28233333Y32232407D01*
X27799999Y15199074D02*
X27766666Y15165740D01*
X27766666Y15165740D02*
X27666666Y15132407D01*
X27666666Y15132407D02*
X27599999Y15132407D01*
X27599999Y15132407D02*
X27499999Y15165740D01*
X27499999Y15165740D02*
X27433333Y15232407D01*
X27433333Y15232407D02*
X27399999Y15299074D01*
X27399999Y15299074D02*
X27366666Y15432407D01*
X27366666Y15432407D02*
X27366666Y15532407D01*
X27366666Y15532407D02*
X27399999Y15665740D01*
X27399999Y15665740D02*
X27433333Y15732407D01*
X27433333Y15732407D02*
X27499999Y15799074D01*
X27499999Y15799074D02*
X27599999Y15832407D01*
X27599999Y15832407D02*
X27666666Y15832407D01*
X27666666Y15832407D02*
X27766666Y15799074D01*
X27766666Y15799074D02*
X27799999Y15765740D01*
X28466666Y15132407D02*
X28066666Y15132407D01*
X28266666Y15132407D02*
X28266666Y15832407D01*
X28266666Y15832407D02*
X28199999Y15732407D01*
X28199999Y15732407D02*
X28133333Y15665740D01*
X28133333Y15665740D02*
X28066666Y15632407D01*
X28800000Y15132407D02*
X28933333Y15132407D01*
X28933333Y15132407D02*
X29000000Y15165740D01*
X29000000Y15165740D02*
X29033333Y15199074D01*
X29033333Y15199074D02*
X29100000Y15299074D01*
X29100000Y15299074D02*
X29133333Y15432407D01*
X29133333Y15432407D02*
X29133333Y15699074D01*
X29133333Y15699074D02*
X29100000Y15765740D01*
X29100000Y15765740D02*
X29066666Y15799074D01*
X29066666Y15799074D02*
X29000000Y15832407D01*
X29000000Y15832407D02*
X28866666Y15832407D01*
X28866666Y15832407D02*
X28800000Y15799074D01*
X28800000Y15799074D02*
X28766666Y15765740D01*
X28766666Y15765740D02*
X28733333Y15699074D01*
X28733333Y15699074D02*
X28733333Y15532407D01*
X28733333Y15532407D02*
X28766666Y15465740D01*
X28766666Y15465740D02*
X28800000Y15432407D01*
X28800000Y15432407D02*
X28866666Y15399074D01*
X28866666Y15399074D02*
X29000000Y15399074D01*
X29000000Y15399074D02*
X29066666Y15432407D01*
X29066666Y15432407D02*
X29100000Y15465740D01*
X29100000Y15465740D02*
X29133333Y15532407D01*
X28349999Y4682407D02*
X28116666Y5015740D01*
X27949999Y4682407D02*
X27949999Y5382407D01*
X27949999Y5382407D02*
X28216666Y5382407D01*
X28216666Y5382407D02*
X28283333Y5349074D01*
X28283333Y5349074D02*
X28316666Y5315740D01*
X28316666Y5315740D02*
X28349999Y5249074D01*
X28349999Y5249074D02*
X28349999Y5149074D01*
X28349999Y5149074D02*
X28316666Y5082407D01*
X28316666Y5082407D02*
X28283333Y5049074D01*
X28283333Y5049074D02*
X28216666Y5015740D01*
X28216666Y5015740D02*
X27949999Y5015740D01*
X28583333Y5382407D02*
X29016666Y5382407D01*
X29016666Y5382407D02*
X28783333Y5115740D01*
X28783333Y5115740D02*
X28883333Y5115740D01*
X28883333Y5115740D02*
X28949999Y5082407D01*
X28949999Y5082407D02*
X28983333Y5049074D01*
X28983333Y5049074D02*
X29016666Y4982407D01*
X29016666Y4982407D02*
X29016666Y4815740D01*
X29016666Y4815740D02*
X28983333Y4749074D01*
X28983333Y4749074D02*
X28949999Y4715740D01*
X28949999Y4715740D02*
X28883333Y4682407D01*
X28883333Y4682407D02*
X28683333Y4682407D01*
X28683333Y4682407D02*
X28616666Y4715740D01*
X28616666Y4715740D02*
X28583333Y4749074D01*
X29650000Y5382407D02*
X29316666Y5382407D01*
X29316666Y5382407D02*
X29283333Y5049074D01*
X29283333Y5049074D02*
X29316666Y5082407D01*
X29316666Y5082407D02*
X29383333Y5115740D01*
X29383333Y5115740D02*
X29550000Y5115740D01*
X29550000Y5115740D02*
X29616666Y5082407D01*
X29616666Y5082407D02*
X29650000Y5049074D01*
X29650000Y5049074D02*
X29683333Y4982407D01*
X29683333Y4982407D02*
X29683333Y4815740D01*
X29683333Y4815740D02*
X29650000Y4749074D01*
X29650000Y4749074D02*
X29616666Y4715740D01*
X29616666Y4715740D02*
X29550000Y4682407D01*
X29550000Y4682407D02*
X29383333Y4682407D01*
X29383333Y4682407D02*
X29316666Y4715740D01*
X29316666Y4715740D02*
X29283333Y4749074D01*
X28499998Y27499074D02*
X28466665Y27465740D01*
X28466665Y27465740D02*
X28366665Y27432407D01*
X28366665Y27432407D02*
X28299998Y27432407D01*
X28299998Y27432407D02*
X28199998Y27465740D01*
X28199998Y27465740D02*
X28133332Y27532407D01*
X28133332Y27532407D02*
X28099998Y27599074D01*
X28099998Y27599074D02*
X28066665Y27732407D01*
X28066665Y27732407D02*
X28066665Y27832407D01*
X28066665Y27832407D02*
X28099998Y27965740D01*
X28099998Y27965740D02*
X28133332Y28032407D01*
X28133332Y28032407D02*
X28199998Y28099074D01*
X28199998Y28099074D02*
X28299998Y28132407D01*
X28299998Y28132407D02*
X28366665Y28132407D01*
X28366665Y28132407D02*
X28466665Y28099074D01*
X28466665Y28099074D02*
X28499998Y28065740D01*
X29166665Y27432407D02*
X28766665Y27432407D01*
X28966665Y27432407D02*
X28966665Y28132407D01*
X28966665Y28132407D02*
X28899998Y28032407D01*
X28899998Y28032407D02*
X28833332Y27965740D01*
X28833332Y27965740D02*
X28766665Y27932407D01*
X29799999Y28132407D02*
X29466665Y28132407D01*
X29466665Y28132407D02*
X29433332Y27799074D01*
X29433332Y27799074D02*
X29466665Y27832407D01*
X29466665Y27832407D02*
X29533332Y27865740D01*
X29533332Y27865740D02*
X29699999Y27865740D01*
X29699999Y27865740D02*
X29766665Y27832407D01*
X29766665Y27832407D02*
X29799999Y27799074D01*
X29799999Y27799074D02*
X29833332Y27732407D01*
X29833332Y27732407D02*
X29833332Y27565740D01*
X29833332Y27565740D02*
X29799999Y27499074D01*
X29799999Y27499074D02*
X29766665Y27465740D01*
X29766665Y27465740D02*
X29699999Y27432407D01*
X29699999Y27432407D02*
X29533332Y27432407D01*
X29533332Y27432407D02*
X29466665Y27465740D01*
X29466665Y27465740D02*
X29433332Y27499074D01*
X28399999Y6682407D02*
X28399999Y7382407D01*
X28399999Y7382407D02*
X28566666Y7382407D01*
X28566666Y7382407D02*
X28666666Y7349074D01*
X28666666Y7349074D02*
X28733333Y7282407D01*
X28733333Y7282407D02*
X28766666Y7215740D01*
X28766666Y7215740D02*
X28799999Y7082407D01*
X28799999Y7082407D02*
X28799999Y6982407D01*
X28799999Y6982407D02*
X28766666Y6849074D01*
X28766666Y6849074D02*
X28733333Y6782407D01*
X28733333Y6782407D02*
X28666666Y6715740D01*
X28666666Y6715740D02*
X28566666Y6682407D01*
X28566666Y6682407D02*
X28399999Y6682407D01*
X29066666Y7315740D02*
X29099999Y7349074D01*
X29099999Y7349074D02*
X29166666Y7382407D01*
X29166666Y7382407D02*
X29333333Y7382407D01*
X29333333Y7382407D02*
X29399999Y7349074D01*
X29399999Y7349074D02*
X29433333Y7315740D01*
X29433333Y7315740D02*
X29466666Y7249074D01*
X29466666Y7249074D02*
X29466666Y7182407D01*
X29466666Y7182407D02*
X29433333Y7082407D01*
X29433333Y7082407D02*
X29033333Y6682407D01*
X29033333Y6682407D02*
X29466666Y6682407D01*
X29733333Y7315740D02*
X29766666Y7349074D01*
X29766666Y7349074D02*
X29833333Y7382407D01*
X29833333Y7382407D02*
X30000000Y7382407D01*
X30000000Y7382407D02*
X30066666Y7349074D01*
X30066666Y7349074D02*
X30100000Y7315740D01*
X30100000Y7315740D02*
X30133333Y7249074D01*
X30133333Y7249074D02*
X30133333Y7182407D01*
X30133333Y7182407D02*
X30100000Y7082407D01*
X30100000Y7082407D02*
X29700000Y6682407D01*
X29700000Y6682407D02*
X30133333Y6682407D01*
X29466666Y14382407D02*
X29466666Y13815740D01*
X29466666Y13815740D02*
X29500000Y13749074D01*
X29500000Y13749074D02*
X29533333Y13715740D01*
X29533333Y13715740D02*
X29600000Y13682407D01*
X29600000Y13682407D02*
X29733333Y13682407D01*
X29733333Y13682407D02*
X29800000Y13715740D01*
X29800000Y13715740D02*
X29833333Y13749074D01*
X29833333Y13749074D02*
X29866666Y13815740D01*
X29866666Y13815740D02*
X29866666Y14382407D01*
X30533333Y14382407D02*
X30199999Y14382407D01*
X30199999Y14382407D02*
X30166666Y14049074D01*
X30166666Y14049074D02*
X30199999Y14082407D01*
X30199999Y14082407D02*
X30266666Y14115740D01*
X30266666Y14115740D02*
X30433333Y14115740D01*
X30433333Y14115740D02*
X30499999Y14082407D01*
X30499999Y14082407D02*
X30533333Y14049074D01*
X30533333Y14049074D02*
X30566666Y13982407D01*
X30566666Y13982407D02*
X30566666Y13815740D01*
X30566666Y13815740D02*
X30533333Y13749074D01*
X30533333Y13749074D02*
X30499999Y13715740D01*
X30499999Y13715740D02*
X30433333Y13682407D01*
X30433333Y13682407D02*
X30266666Y13682407D01*
X30266666Y13682407D02*
X30199999Y13715740D01*
X30199999Y13715740D02*
X30166666Y13749074D01*
X29366666Y25382407D02*
X29766666Y25382407D01*
X29566666Y24682407D02*
X29566666Y25382407D01*
X29999999Y24682407D02*
X29999999Y25382407D01*
X29999999Y25382407D02*
X30266666Y25382407D01*
X30266666Y25382407D02*
X30333333Y25349074D01*
X30333333Y25349074D02*
X30366666Y25315740D01*
X30366666Y25315740D02*
X30399999Y25249074D01*
X30399999Y25249074D02*
X30399999Y25149074D01*
X30399999Y25149074D02*
X30366666Y25082407D01*
X30366666Y25082407D02*
X30333333Y25049074D01*
X30333333Y25049074D02*
X30266666Y25015740D01*
X30266666Y25015740D02*
X29999999Y25015740D01*
X31066666Y24682407D02*
X30666666Y24682407D01*
X30866666Y24682407D02*
X30866666Y25382407D01*
X30866666Y25382407D02*
X30799999Y25282407D01*
X30799999Y25282407D02*
X30733333Y25215740D01*
X30733333Y25215740D02*
X30666666Y25182407D01*
X30349999Y932407D02*
X30116666Y1265740D01*
X29949999Y932407D02*
X29949999Y1632407D01*
X29949999Y1632407D02*
X30216666Y1632407D01*
X30216666Y1632407D02*
X30283333Y1599074D01*
X30283333Y1599074D02*
X30316666Y1565740D01*
X30316666Y1565740D02*
X30349999Y1499074D01*
X30349999Y1499074D02*
X30349999Y1399074D01*
X30349999Y1399074D02*
X30316666Y1332407D01*
X30316666Y1332407D02*
X30283333Y1299074D01*
X30283333Y1299074D02*
X30216666Y1265740D01*
X30216666Y1265740D02*
X29949999Y1265740D01*
X30583333Y1632407D02*
X31016666Y1632407D01*
X31016666Y1632407D02*
X30783333Y1365740D01*
X30783333Y1365740D02*
X30883333Y1365740D01*
X30883333Y1365740D02*
X30949999Y1332407D01*
X30949999Y1332407D02*
X30983333Y1299074D01*
X30983333Y1299074D02*
X31016666Y1232407D01*
X31016666Y1232407D02*
X31016666Y1065740D01*
X31016666Y1065740D02*
X30983333Y999074D01*
X30983333Y999074D02*
X30949999Y965740D01*
X30949999Y965740D02*
X30883333Y932407D01*
X30883333Y932407D02*
X30683333Y932407D01*
X30683333Y932407D02*
X30616666Y965740D01*
X30616666Y965740D02*
X30583333Y999074D01*
X31616666Y1632407D02*
X31483333Y1632407D01*
X31483333Y1632407D02*
X31416666Y1599074D01*
X31416666Y1599074D02*
X31383333Y1565740D01*
X31383333Y1565740D02*
X31316666Y1465740D01*
X31316666Y1465740D02*
X31283333Y1332407D01*
X31283333Y1332407D02*
X31283333Y1065740D01*
X31283333Y1065740D02*
X31316666Y999074D01*
X31316666Y999074D02*
X31350000Y965740D01*
X31350000Y965740D02*
X31416666Y932407D01*
X31416666Y932407D02*
X31550000Y932407D01*
X31550000Y932407D02*
X31616666Y965740D01*
X31616666Y965740D02*
X31650000Y999074D01*
X31650000Y999074D02*
X31683333Y1065740D01*
X31683333Y1065740D02*
X31683333Y1232407D01*
X31683333Y1232407D02*
X31650000Y1299074D01*
X31650000Y1299074D02*
X31616666Y1332407D01*
X31616666Y1332407D02*
X31550000Y1365740D01*
X31550000Y1365740D02*
X31416666Y1365740D01*
X31416666Y1365740D02*
X31350000Y1332407D01*
X31350000Y1332407D02*
X31316666Y1299074D01*
X31316666Y1299074D02*
X31283333Y1232407D01*
X31616666Y25382407D02*
X32016666Y25382407D01*
X31816666Y24682407D02*
X31816666Y25382407D01*
X32249999Y24682407D02*
X32249999Y25382407D01*
X32249999Y25382407D02*
X32516666Y25382407D01*
X32516666Y25382407D02*
X32583333Y25349074D01*
X32583333Y25349074D02*
X32616666Y25315740D01*
X32616666Y25315740D02*
X32649999Y25249074D01*
X32649999Y25249074D02*
X32649999Y25149074D01*
X32649999Y25149074D02*
X32616666Y25082407D01*
X32616666Y25082407D02*
X32583333Y25049074D01*
X32583333Y25049074D02*
X32516666Y25015740D01*
X32516666Y25015740D02*
X32249999Y25015740D01*
X32916666Y25315740D02*
X32949999Y25349074D01*
X32949999Y25349074D02*
X33016666Y25382407D01*
X33016666Y25382407D02*
X33183333Y25382407D01*
X33183333Y25382407D02*
X33249999Y25349074D01*
X33249999Y25349074D02*
X33283333Y25315740D01*
X33283333Y25315740D02*
X33316666Y25249074D01*
X33316666Y25249074D02*
X33316666Y25182407D01*
X33316666Y25182407D02*
X33283333Y25082407D01*
X33283333Y25082407D02*
X32883333Y24682407D01*
X32883333Y24682407D02*
X33316666Y24682407D01*
X32599999Y14449074D02*
X32566666Y14415740D01*
X32566666Y14415740D02*
X32466666Y14382407D01*
X32466666Y14382407D02*
X32399999Y14382407D01*
X32399999Y14382407D02*
X32299999Y14415740D01*
X32299999Y14415740D02*
X32233333Y14482407D01*
X32233333Y14482407D02*
X32199999Y14549074D01*
X32199999Y14549074D02*
X32166666Y14682407D01*
X32166666Y14682407D02*
X32166666Y14782407D01*
X32166666Y14782407D02*
X32199999Y14915740D01*
X32199999Y14915740D02*
X32233333Y14982407D01*
X32233333Y14982407D02*
X32299999Y15049074D01*
X32299999Y15049074D02*
X32399999Y15082407D01*
X32399999Y15082407D02*
X32466666Y15082407D01*
X32466666Y15082407D02*
X32566666Y15049074D01*
X32566666Y15049074D02*
X32599999Y15015740D01*
X32833333Y15082407D02*
X33266666Y15082407D01*
X33266666Y15082407D02*
X33033333Y14815740D01*
X33033333Y14815740D02*
X33133333Y14815740D01*
X33133333Y14815740D02*
X33199999Y14782407D01*
X33199999Y14782407D02*
X33233333Y14749074D01*
X33233333Y14749074D02*
X33266666Y14682407D01*
X33266666Y14682407D02*
X33266666Y14515740D01*
X33266666Y14515740D02*
X33233333Y14449074D01*
X33233333Y14449074D02*
X33199999Y14415740D01*
X33199999Y14415740D02*
X33133333Y14382407D01*
X33133333Y14382407D02*
X32933333Y14382407D01*
X32933333Y14382407D02*
X32866666Y14415740D01*
X32866666Y14415740D02*
X32833333Y14449074D01*
X33500000Y15082407D02*
X33966666Y15082407D01*
X33966666Y15082407D02*
X33666666Y14382407D01*
X33549999Y26999074D02*
X33516666Y26965740D01*
X33516666Y26965740D02*
X33416666Y26932407D01*
X33416666Y26932407D02*
X33349999Y26932407D01*
X33349999Y26932407D02*
X33249999Y26965740D01*
X33249999Y26965740D02*
X33183333Y27032407D01*
X33183333Y27032407D02*
X33149999Y27099074D01*
X33149999Y27099074D02*
X33116666Y27232407D01*
X33116666Y27232407D02*
X33116666Y27332407D01*
X33116666Y27332407D02*
X33149999Y27465740D01*
X33149999Y27465740D02*
X33183333Y27532407D01*
X33183333Y27532407D02*
X33249999Y27599074D01*
X33249999Y27599074D02*
X33349999Y27632407D01*
X33349999Y27632407D02*
X33416666Y27632407D01*
X33416666Y27632407D02*
X33516666Y27599074D01*
X33516666Y27599074D02*
X33549999Y27565740D01*
X33816666Y27565740D02*
X33849999Y27599074D01*
X33849999Y27599074D02*
X33916666Y27632407D01*
X33916666Y27632407D02*
X34083333Y27632407D01*
X34083333Y27632407D02*
X34149999Y27599074D01*
X34149999Y27599074D02*
X34183333Y27565740D01*
X34183333Y27565740D02*
X34216666Y27499074D01*
X34216666Y27499074D02*
X34216666Y27432407D01*
X34216666Y27432407D02*
X34183333Y27332407D01*
X34183333Y27332407D02*
X33783333Y26932407D01*
X33783333Y26932407D02*
X34216666Y26932407D01*
X34550000Y26932407D02*
X34683333Y26932407D01*
X34683333Y26932407D02*
X34750000Y26965740D01*
X34750000Y26965740D02*
X34783333Y26999074D01*
X34783333Y26999074D02*
X34850000Y27099074D01*
X34850000Y27099074D02*
X34883333Y27232407D01*
X34883333Y27232407D02*
X34883333Y27499074D01*
X34883333Y27499074D02*
X34850000Y27565740D01*
X34850000Y27565740D02*
X34816666Y27599074D01*
X34816666Y27599074D02*
X34750000Y27632407D01*
X34750000Y27632407D02*
X34616666Y27632407D01*
X34616666Y27632407D02*
X34550000Y27599074D01*
X34550000Y27599074D02*
X34516666Y27565740D01*
X34516666Y27565740D02*
X34483333Y27499074D01*
X34483333Y27499074D02*
X34483333Y27332407D01*
X34483333Y27332407D02*
X34516666Y27265740D01*
X34516666Y27265740D02*
X34550000Y27232407D01*
X34550000Y27232407D02*
X34616666Y27199074D01*
X34616666Y27199074D02*
X34750000Y27199074D01*
X34750000Y27199074D02*
X34816666Y27232407D01*
X34816666Y27232407D02*
X34850000Y27265740D01*
X34850000Y27265740D02*
X34883333Y27332407D01*
X34616666Y25382407D02*
X35016666Y25382407D01*
X34816666Y24682407D02*
X34816666Y25382407D01*
X35249999Y24682407D02*
X35249999Y25382407D01*
X35249999Y25382407D02*
X35516666Y25382407D01*
X35516666Y25382407D02*
X35583333Y25349074D01*
X35583333Y25349074D02*
X35616666Y25315740D01*
X35616666Y25315740D02*
X35649999Y25249074D01*
X35649999Y25249074D02*
X35649999Y25149074D01*
X35649999Y25149074D02*
X35616666Y25082407D01*
X35616666Y25082407D02*
X35583333Y25049074D01*
X35583333Y25049074D02*
X35516666Y25015740D01*
X35516666Y25015740D02*
X35249999Y25015740D01*
X35883333Y25382407D02*
X36316666Y25382407D01*
X36316666Y25382407D02*
X36083333Y25115740D01*
X36083333Y25115740D02*
X36183333Y25115740D01*
X36183333Y25115740D02*
X36249999Y25082407D01*
X36249999Y25082407D02*
X36283333Y25049074D01*
X36283333Y25049074D02*
X36316666Y24982407D01*
X36316666Y24982407D02*
X36316666Y24815740D01*
X36316666Y24815740D02*
X36283333Y24749074D01*
X36283333Y24749074D02*
X36249999Y24715740D01*
X36249999Y24715740D02*
X36183333Y24682407D01*
X36183333Y24682407D02*
X35983333Y24682407D01*
X35983333Y24682407D02*
X35916666Y24715740D01*
X35916666Y24715740D02*
X35883333Y24749074D01*
X35366666Y18382407D02*
X35766666Y18382407D01*
X35566666Y17682407D02*
X35566666Y18382407D01*
X35999999Y17682407D02*
X35999999Y18382407D01*
X35999999Y18382407D02*
X36266666Y18382407D01*
X36266666Y18382407D02*
X36333333Y18349074D01*
X36333333Y18349074D02*
X36366666Y18315740D01*
X36366666Y18315740D02*
X36399999Y18249074D01*
X36399999Y18249074D02*
X36399999Y18149074D01*
X36399999Y18149074D02*
X36366666Y18082407D01*
X36366666Y18082407D02*
X36333333Y18049074D01*
X36333333Y18049074D02*
X36266666Y18015740D01*
X36266666Y18015740D02*
X35999999Y18015740D01*
X36633333Y18382407D02*
X37099999Y18382407D01*
X37099999Y18382407D02*
X36799999Y17682407D01*
X37966666Y10882407D02*
X37966666Y10315740D01*
X37966666Y10315740D02*
X38000000Y10249074D01*
X38000000Y10249074D02*
X38033333Y10215740D01*
X38033333Y10215740D02*
X38100000Y10182407D01*
X38100000Y10182407D02*
X38233333Y10182407D01*
X38233333Y10182407D02*
X38300000Y10215740D01*
X38300000Y10215740D02*
X38333333Y10249074D01*
X38333333Y10249074D02*
X38366666Y10315740D01*
X38366666Y10315740D02*
X38366666Y10882407D01*
X38633333Y10882407D02*
X39066666Y10882407D01*
X39066666Y10882407D02*
X38833333Y10615740D01*
X38833333Y10615740D02*
X38933333Y10615740D01*
X38933333Y10615740D02*
X38999999Y10582407D01*
X38999999Y10582407D02*
X39033333Y10549074D01*
X39033333Y10549074D02*
X39066666Y10482407D01*
X39066666Y10482407D02*
X39066666Y10315740D01*
X39066666Y10315740D02*
X39033333Y10249074D01*
X39033333Y10249074D02*
X38999999Y10215740D01*
X38999999Y10215740D02*
X38933333Y10182407D01*
X38933333Y10182407D02*
X38733333Y10182407D01*
X38733333Y10182407D02*
X38666666Y10215740D01*
X38666666Y10215740D02*
X38633333Y10249074D01*
X39866666Y23382407D02*
X40266666Y23382407D01*
X40066666Y22682407D02*
X40066666Y23382407D01*
X40499999Y22682407D02*
X40499999Y23382407D01*
X40499999Y23382407D02*
X40766666Y23382407D01*
X40766666Y23382407D02*
X40833333Y23349074D01*
X40833333Y23349074D02*
X40866666Y23315740D01*
X40866666Y23315740D02*
X40899999Y23249074D01*
X40899999Y23249074D02*
X40899999Y23149074D01*
X40899999Y23149074D02*
X40866666Y23082407D01*
X40866666Y23082407D02*
X40833333Y23049074D01*
X40833333Y23049074D02*
X40766666Y23015740D01*
X40766666Y23015740D02*
X40499999Y23015740D01*
X41499999Y23149074D02*
X41499999Y22682407D01*
X41333333Y23415740D02*
X41166666Y22915740D01*
X41166666Y22915740D02*
X41599999Y22915740D01*
X39866666Y20382407D02*
X40266666Y20382407D01*
X40066666Y19682407D02*
X40066666Y20382407D01*
X40499999Y19682407D02*
X40499999Y20382407D01*
X40499999Y20382407D02*
X40766666Y20382407D01*
X40766666Y20382407D02*
X40833333Y20349074D01*
X40833333Y20349074D02*
X40866666Y20315740D01*
X40866666Y20315740D02*
X40899999Y20249074D01*
X40899999Y20249074D02*
X40899999Y20149074D01*
X40899999Y20149074D02*
X40866666Y20082407D01*
X40866666Y20082407D02*
X40833333Y20049074D01*
X40833333Y20049074D02*
X40766666Y20015740D01*
X40766666Y20015740D02*
X40499999Y20015740D01*
X41299999Y20082407D02*
X41233333Y20115740D01*
X41233333Y20115740D02*
X41199999Y20149074D01*
X41199999Y20149074D02*
X41166666Y20215740D01*
X41166666Y20215740D02*
X41166666Y20249074D01*
X41166666Y20249074D02*
X41199999Y20315740D01*
X41199999Y20315740D02*
X41233333Y20349074D01*
X41233333Y20349074D02*
X41299999Y20382407D01*
X41299999Y20382407D02*
X41433333Y20382407D01*
X41433333Y20382407D02*
X41499999Y20349074D01*
X41499999Y20349074D02*
X41533333Y20315740D01*
X41533333Y20315740D02*
X41566666Y20249074D01*
X41566666Y20249074D02*
X41566666Y20215740D01*
X41566666Y20215740D02*
X41533333Y20149074D01*
X41533333Y20149074D02*
X41499999Y20115740D01*
X41499999Y20115740D02*
X41433333Y20082407D01*
X41433333Y20082407D02*
X41299999Y20082407D01*
X41299999Y20082407D02*
X41233333Y20049074D01*
X41233333Y20049074D02*
X41199999Y20015740D01*
X41199999Y20015740D02*
X41166666Y19949074D01*
X41166666Y19949074D02*
X41166666Y19815740D01*
X41166666Y19815740D02*
X41199999Y19749074D01*
X41199999Y19749074D02*
X41233333Y19715740D01*
X41233333Y19715740D02*
X41299999Y19682407D01*
X41299999Y19682407D02*
X41433333Y19682407D01*
X41433333Y19682407D02*
X41499999Y19715740D01*
X41499999Y19715740D02*
X41533333Y19749074D01*
X41533333Y19749074D02*
X41566666Y19815740D01*
X41566666Y19815740D02*
X41566666Y19949074D01*
X41566666Y19949074D02*
X41533333Y20015740D01*
X41533333Y20015740D02*
X41499999Y20049074D01*
X41499999Y20049074D02*
X41433333Y20082407D01*
X42299999Y17249074D02*
X42266666Y17215740D01*
X42266666Y17215740D02*
X42166666Y17182407D01*
X42166666Y17182407D02*
X42099999Y17182407D01*
X42099999Y17182407D02*
X41999999Y17215740D01*
X41999999Y17215740D02*
X41933333Y17282407D01*
X41933333Y17282407D02*
X41899999Y17349074D01*
X41899999Y17349074D02*
X41866666Y17482407D01*
X41866666Y17482407D02*
X41866666Y17582407D01*
X41866666Y17582407D02*
X41899999Y17715740D01*
X41899999Y17715740D02*
X41933333Y17782407D01*
X41933333Y17782407D02*
X41999999Y17849074D01*
X41999999Y17849074D02*
X42099999Y17882407D01*
X42099999Y17882407D02*
X42166666Y17882407D01*
X42166666Y17882407D02*
X42266666Y17849074D01*
X42266666Y17849074D02*
X42299999Y17815740D01*
X42533333Y17882407D02*
X42966666Y17882407D01*
X42966666Y17882407D02*
X42733333Y17615740D01*
X42733333Y17615740D02*
X42833333Y17615740D01*
X42833333Y17615740D02*
X42899999Y17582407D01*
X42899999Y17582407D02*
X42933333Y17549074D01*
X42933333Y17549074D02*
X42966666Y17482407D01*
X42966666Y17482407D02*
X42966666Y17315740D01*
X42966666Y17315740D02*
X42933333Y17249074D01*
X42933333Y17249074D02*
X42899999Y17215740D01*
X42899999Y17215740D02*
X42833333Y17182407D01*
X42833333Y17182407D02*
X42633333Y17182407D01*
X42633333Y17182407D02*
X42566666Y17215740D01*
X42566666Y17215740D02*
X42533333Y17249074D01*
X43633333Y17182407D02*
X43233333Y17182407D01*
X43433333Y17182407D02*
X43433333Y17882407D01*
X43433333Y17882407D02*
X43366666Y17782407D01*
X43366666Y17782407D02*
X43300000Y17715740D01*
X43300000Y17715740D02*
X43233333Y17682407D01*
X42749999Y34382407D02*
X42516666Y34715740D01*
X42349999Y34382407D02*
X42349999Y35082407D01*
X42349999Y35082407D02*
X42616666Y35082407D01*
X42616666Y35082407D02*
X42683333Y35049074D01*
X42683333Y35049074D02*
X42716666Y35015740D01*
X42716666Y35015740D02*
X42749999Y34949074D01*
X42749999Y34949074D02*
X42749999Y34849074D01*
X42749999Y34849074D02*
X42716666Y34782407D01*
X42716666Y34782407D02*
X42683333Y34749074D01*
X42683333Y34749074D02*
X42616666Y34715740D01*
X42616666Y34715740D02*
X42349999Y34715740D01*
X42983333Y35082407D02*
X43416666Y35082407D01*
X43416666Y35082407D02*
X43183333Y34815740D01*
X43183333Y34815740D02*
X43283333Y34815740D01*
X43283333Y34815740D02*
X43349999Y34782407D01*
X43349999Y34782407D02*
X43383333Y34749074D01*
X43383333Y34749074D02*
X43416666Y34682407D01*
X43416666Y34682407D02*
X43416666Y34515740D01*
X43416666Y34515740D02*
X43383333Y34449074D01*
X43383333Y34449074D02*
X43349999Y34415740D01*
X43349999Y34415740D02*
X43283333Y34382407D01*
X43283333Y34382407D02*
X43083333Y34382407D01*
X43083333Y34382407D02*
X43016666Y34415740D01*
X43016666Y34415740D02*
X42983333Y34449074D01*
X43850000Y35082407D02*
X43916666Y35082407D01*
X43916666Y35082407D02*
X43983333Y35049074D01*
X43983333Y35049074D02*
X44016666Y35015740D01*
X44016666Y35015740D02*
X44050000Y34949074D01*
X44050000Y34949074D02*
X44083333Y34815740D01*
X44083333Y34815740D02*
X44083333Y34649074D01*
X44083333Y34649074D02*
X44050000Y34515740D01*
X44050000Y34515740D02*
X44016666Y34449074D01*
X44016666Y34449074D02*
X43983333Y34415740D01*
X43983333Y34415740D02*
X43916666Y34382407D01*
X43916666Y34382407D02*
X43850000Y34382407D01*
X43850000Y34382407D02*
X43783333Y34415740D01*
X43783333Y34415740D02*
X43750000Y34449074D01*
X43750000Y34449074D02*
X43716666Y34515740D01*
X43716666Y34515740D02*
X43683333Y34649074D01*
X43683333Y34649074D02*
X43683333Y34815740D01*
X43683333Y34815740D02*
X43716666Y34949074D01*
X43716666Y34949074D02*
X43750000Y35015740D01*
X43750000Y35015740D02*
X43783333Y35049074D01*
X43783333Y35049074D02*
X43850000Y35082407D01*
X42749999Y27782407D02*
X42516666Y28115740D01*
X42349999Y27782407D02*
X42349999Y28482407D01*
X42349999Y28482407D02*
X42616666Y28482407D01*
X42616666Y28482407D02*
X42683333Y28449074D01*
X42683333Y28449074D02*
X42716666Y28415740D01*
X42716666Y28415740D02*
X42749999Y28349074D01*
X42749999Y28349074D02*
X42749999Y28249074D01*
X42749999Y28249074D02*
X42716666Y28182407D01*
X42716666Y28182407D02*
X42683333Y28149074D01*
X42683333Y28149074D02*
X42616666Y28115740D01*
X42616666Y28115740D02*
X42349999Y28115740D01*
X43016666Y28415740D02*
X43049999Y28449074D01*
X43049999Y28449074D02*
X43116666Y28482407D01*
X43116666Y28482407D02*
X43283333Y28482407D01*
X43283333Y28482407D02*
X43349999Y28449074D01*
X43349999Y28449074D02*
X43383333Y28415740D01*
X43383333Y28415740D02*
X43416666Y28349074D01*
X43416666Y28349074D02*
X43416666Y28282407D01*
X43416666Y28282407D02*
X43383333Y28182407D01*
X43383333Y28182407D02*
X42983333Y27782407D01*
X42983333Y27782407D02*
X43416666Y27782407D01*
X43816666Y28182407D02*
X43750000Y28215740D01*
X43750000Y28215740D02*
X43716666Y28249074D01*
X43716666Y28249074D02*
X43683333Y28315740D01*
X43683333Y28315740D02*
X43683333Y28349074D01*
X43683333Y28349074D02*
X43716666Y28415740D01*
X43716666Y28415740D02*
X43750000Y28449074D01*
X43750000Y28449074D02*
X43816666Y28482407D01*
X43816666Y28482407D02*
X43950000Y28482407D01*
X43950000Y28482407D02*
X44016666Y28449074D01*
X44016666Y28449074D02*
X44050000Y28415740D01*
X44050000Y28415740D02*
X44083333Y28349074D01*
X44083333Y28349074D02*
X44083333Y28315740D01*
X44083333Y28315740D02*
X44050000Y28249074D01*
X44050000Y28249074D02*
X44016666Y28215740D01*
X44016666Y28215740D02*
X43950000Y28182407D01*
X43950000Y28182407D02*
X43816666Y28182407D01*
X43816666Y28182407D02*
X43750000Y28149074D01*
X43750000Y28149074D02*
X43716666Y28115740D01*
X43716666Y28115740D02*
X43683333Y28049074D01*
X43683333Y28049074D02*
X43683333Y27915740D01*
X43683333Y27915740D02*
X43716666Y27849074D01*
X43716666Y27849074D02*
X43750000Y27815740D01*
X43750000Y27815740D02*
X43816666Y27782407D01*
X43816666Y27782407D02*
X43950000Y27782407D01*
X43950000Y27782407D02*
X44016666Y27815740D01*
X44016666Y27815740D02*
X44050000Y27849074D01*
X44050000Y27849074D02*
X44083333Y27915740D01*
X44083333Y27915740D02*
X44083333Y28049074D01*
X44083333Y28049074D02*
X44050000Y28115740D01*
X44050000Y28115740D02*
X44016666Y28149074D01*
X44016666Y28149074D02*
X43950000Y28182407D01*
X42749999Y20999074D02*
X42716666Y20965740D01*
X42716666Y20965740D02*
X42616666Y20932407D01*
X42616666Y20932407D02*
X42549999Y20932407D01*
X42549999Y20932407D02*
X42449999Y20965740D01*
X42449999Y20965740D02*
X42383333Y21032407D01*
X42383333Y21032407D02*
X42349999Y21099074D01*
X42349999Y21099074D02*
X42316666Y21232407D01*
X42316666Y21232407D02*
X42316666Y21332407D01*
X42316666Y21332407D02*
X42349999Y21465740D01*
X42349999Y21465740D02*
X42383333Y21532407D01*
X42383333Y21532407D02*
X42449999Y21599074D01*
X42449999Y21599074D02*
X42549999Y21632407D01*
X42549999Y21632407D02*
X42616666Y21632407D01*
X42616666Y21632407D02*
X42716666Y21599074D01*
X42716666Y21599074D02*
X42749999Y21565740D01*
X42983333Y21632407D02*
X43416666Y21632407D01*
X43416666Y21632407D02*
X43183333Y21365740D01*
X43183333Y21365740D02*
X43283333Y21365740D01*
X43283333Y21365740D02*
X43349999Y21332407D01*
X43349999Y21332407D02*
X43383333Y21299074D01*
X43383333Y21299074D02*
X43416666Y21232407D01*
X43416666Y21232407D02*
X43416666Y21065740D01*
X43416666Y21065740D02*
X43383333Y20999074D01*
X43383333Y20999074D02*
X43349999Y20965740D01*
X43349999Y20965740D02*
X43283333Y20932407D01*
X43283333Y20932407D02*
X43083333Y20932407D01*
X43083333Y20932407D02*
X43016666Y20965740D01*
X43016666Y20965740D02*
X42983333Y20999074D01*
X43850000Y21632407D02*
X43916666Y21632407D01*
X43916666Y21632407D02*
X43983333Y21599074D01*
X43983333Y21599074D02*
X44016666Y21565740D01*
X44016666Y21565740D02*
X44050000Y21499074D01*
X44050000Y21499074D02*
X44083333Y21365740D01*
X44083333Y21365740D02*
X44083333Y21199074D01*
X44083333Y21199074D02*
X44050000Y21065740D01*
X44050000Y21065740D02*
X44016666Y20999074D01*
X44016666Y20999074D02*
X43983333Y20965740D01*
X43983333Y20965740D02*
X43916666Y20932407D01*
X43916666Y20932407D02*
X43850000Y20932407D01*
X43850000Y20932407D02*
X43783333Y20965740D01*
X43783333Y20965740D02*
X43750000Y20999074D01*
X43750000Y20999074D02*
X43716666Y21065740D01*
X43716666Y21065740D02*
X43683333Y21199074D01*
X43683333Y21199074D02*
X43683333Y21365740D01*
X43683333Y21365740D02*
X43716666Y21499074D01*
X43716666Y21499074D02*
X43750000Y21565740D01*
X43750000Y21565740D02*
X43783333Y21599074D01*
X43783333Y21599074D02*
X43850000Y21632407D01*
X42799999Y18732408D02*
X42566666Y19065741D01*
X42399999Y18732408D02*
X42399999Y19432408D01*
X42399999Y19432408D02*
X42666666Y19432408D01*
X42666666Y19432408D02*
X42733333Y19399075D01*
X42733333Y19399075D02*
X42766666Y19365741D01*
X42766666Y19365741D02*
X42799999Y19299075D01*
X42799999Y19299075D02*
X42799999Y19199075D01*
X42799999Y19199075D02*
X42766666Y19132408D01*
X42766666Y19132408D02*
X42733333Y19099075D01*
X42733333Y19099075D02*
X42666666Y19065741D01*
X42666666Y19065741D02*
X42399999Y19065741D01*
X43033333Y19432408D02*
X43466666Y19432408D01*
X43466666Y19432408D02*
X43233333Y19165741D01*
X43233333Y19165741D02*
X43333333Y19165741D01*
X43333333Y19165741D02*
X43399999Y19132408D01*
X43399999Y19132408D02*
X43433333Y19099075D01*
X43433333Y19099075D02*
X43466666Y19032408D01*
X43466666Y19032408D02*
X43466666Y18865741D01*
X43466666Y18865741D02*
X43433333Y18799075D01*
X43433333Y18799075D02*
X43399999Y18765741D01*
X43399999Y18765741D02*
X43333333Y18732408D01*
X43333333Y18732408D02*
X43133333Y18732408D01*
X43133333Y18732408D02*
X43066666Y18765741D01*
X43066666Y18765741D02*
X43033333Y18799075D01*
X43800000Y18732408D02*
X43933333Y18732408D01*
X43933333Y18732408D02*
X44000000Y18765741D01*
X44000000Y18765741D02*
X44033333Y18799075D01*
X44033333Y18799075D02*
X44100000Y18899075D01*
X44100000Y18899075D02*
X44133333Y19032408D01*
X44133333Y19032408D02*
X44133333Y19299075D01*
X44133333Y19299075D02*
X44100000Y19365741D01*
X44100000Y19365741D02*
X44066666Y19399075D01*
X44066666Y19399075D02*
X44000000Y19432408D01*
X44000000Y19432408D02*
X43866666Y19432408D01*
X43866666Y19432408D02*
X43800000Y19399075D01*
X43800000Y19399075D02*
X43766666Y19365741D01*
X43766666Y19365741D02*
X43733333Y19299075D01*
X43733333Y19299075D02*
X43733333Y19132408D01*
X43733333Y19132408D02*
X43766666Y19065741D01*
X43766666Y19065741D02*
X43800000Y19032408D01*
X43800000Y19032408D02*
X43866666Y18999075D01*
X43866666Y18999075D02*
X44000000Y18999075D01*
X44000000Y18999075D02*
X44066666Y19032408D01*
X44066666Y19032408D02*
X44100000Y19065741D01*
X44100000Y19065741D02*
X44133333Y19132408D01*
X42700000Y42099074D02*
X42466666Y42099074D01*
X42466666Y41732407D02*
X42466666Y42432407D01*
X42466666Y42432407D02*
X42800000Y42432407D01*
X43066666Y41732407D02*
X43066666Y42432407D01*
X43399999Y41732407D02*
X43399999Y42432407D01*
X43399999Y42432407D02*
X43566666Y42432407D01*
X43566666Y42432407D02*
X43666666Y42399074D01*
X43666666Y42399074D02*
X43733333Y42332407D01*
X43733333Y42332407D02*
X43766666Y42265740D01*
X43766666Y42265740D02*
X43799999Y42132407D01*
X43799999Y42132407D02*
X43799999Y42032407D01*
X43799999Y42032407D02*
X43766666Y41899074D01*
X43766666Y41899074D02*
X43733333Y41832407D01*
X43733333Y41832407D02*
X43666666Y41765740D01*
X43666666Y41765740D02*
X43566666Y41732407D01*
X43566666Y41732407D02*
X43399999Y41732407D01*
X44066666Y42365740D02*
X44099999Y42399074D01*
X44099999Y42399074D02*
X44166666Y42432407D01*
X44166666Y42432407D02*
X44333333Y42432407D01*
X44333333Y42432407D02*
X44399999Y42399074D01*
X44399999Y42399074D02*
X44433333Y42365740D01*
X44433333Y42365740D02*
X44466666Y42299074D01*
X44466666Y42299074D02*
X44466666Y42232407D01*
X44466666Y42232407D02*
X44433333Y42132407D01*
X44433333Y42132407D02*
X44033333Y41732407D01*
X44033333Y41732407D02*
X44466666Y41732407D01*
%TO.C,C32*%
X41015000Y10038748D02*
X41015000Y10561252D01*
X42485000Y10038748D02*
X42485000Y10561252D01*
%TO.C,R26*%
X28070000Y22846359D02*
X28070000Y23153641D01*
X28830000Y22846359D02*
X28830000Y23153641D01*
%TO.C,R39*%
X40346359Y16680000D02*
X40653641Y16680000D01*
X40346359Y15920000D02*
X40653641Y15920000D01*
%TO.C,C15*%
X28090000Y25892164D02*
X28090000Y26107836D01*
X28810000Y25892164D02*
X28810000Y26107836D01*
%TO.C,C21*%
X20490000Y13559420D02*
X20490000Y13840580D01*
X21510000Y13559420D02*
X21510000Y13840580D01*
%TO.C,R12*%
X10046359Y26880000D02*
X10353641Y26880000D01*
X10046359Y26120000D02*
X10353641Y26120000D01*
%TO.C,R33*%
X42820000Y24846359D02*
X42820000Y25153641D01*
X43580000Y24846359D02*
X43580000Y25153641D01*
%TO.C,C25*%
X15692164Y31360000D02*
X15907836Y31360000D01*
X15692164Y30640000D02*
X15907836Y30640000D01*
%TO.C,R41*%
X38346359Y18580000D02*
X38653641Y18580000D01*
X38346359Y17820000D02*
X38653641Y17820000D01*
%TO.C,R5*%
X8196359Y16380000D02*
X8503641Y16380000D01*
X8196359Y15620000D02*
X8503641Y15620000D01*
%TO.C,R15*%
X8196359Y33880000D02*
X8503641Y33880000D01*
X8196359Y33120000D02*
X8503641Y33120000D01*
%TO.C,TP5*%
X30200000Y20000000D02*
G75*
G02*
X28800000Y20000000I-700000J0D01*
G01*
X28800000Y20000000D02*
G75*
G02*
X30200000Y20000000I700000J0D01*
G01*
%TO.C,C1*%
X12892164Y9360000D02*
X13107836Y9360000D01*
X12892164Y8640000D02*
X13107836Y8640000D01*
%TO.C,U2*%
X30900000Y44750000D02*
X30900000Y43400000D01*
X30900000Y44750000D02*
X32500000Y44750000D01*
X30900000Y28800000D02*
X30900000Y29900000D01*
X31200000Y28800000D02*
X30900000Y28800000D01*
X39500000Y44750000D02*
X41100000Y44750000D01*
X40800000Y28800000D02*
X41100000Y28800000D01*
X41100000Y44750000D02*
X41100000Y43400000D01*
X41100000Y28800000D02*
X41100000Y29900000D01*
X30900000Y39500000D02*
X30400000Y40000000D01*
X30900000Y40000000D01*
X30900000Y39500000D01*
G36*
X30900000Y39500000D02*
G01*
X30400000Y40000000D01*
X30900000Y40000000D01*
X30900000Y39500000D01*
G37*
%TO.C,D8*%
X4740000Y34100000D02*
X4740000Y32900000D01*
X6700000Y34100000D02*
X4740000Y34100000D01*
X6700000Y32900000D02*
X4740000Y32900000D01*
%TO.C,D5*%
X5240000Y23600000D02*
X5240000Y22400000D01*
X7200000Y23600000D02*
X5240000Y23600000D01*
X7200000Y22400000D02*
X5240000Y22400000D01*
%TO.C,J2*%
X34100000Y5090000D02*
X34100000Y3090000D01*
X34100000Y1190000D02*
X34100000Y190000D01*
X34100000Y190000D02*
X43500000Y190000D01*
X43500000Y5090000D02*
X43500000Y3090000D01*
X43500000Y1190000D02*
X43500000Y190000D01*
%TO.C,R16*%
X10296359Y33880000D02*
X10603641Y33880000D01*
X10296359Y33120000D02*
X10603641Y33120000D01*
%TO.C,R21*%
X25346359Y33880000D02*
X25653641Y33880000D01*
X25346359Y33120000D02*
X25653641Y33120000D01*
%TO.C,C10*%
X18892164Y15560000D02*
X19107836Y15560000D01*
X18892164Y14840000D02*
X19107836Y14840000D01*
%TO.C,C7*%
X12892164Y30360000D02*
X13107836Y30360000D01*
X12892164Y29640000D02*
X13107836Y29640000D01*
%TO.C,C27*%
X17759420Y33110000D02*
X18040580Y33110000D01*
X17759420Y32090000D02*
X18040580Y32090000D01*
%TO.C,D22*%
X30740000Y7600000D02*
X30740000Y6400000D01*
X32700000Y7600000D02*
X30740000Y7600000D01*
X32700000Y6400000D02*
X30740000Y6400000D01*
%TO.C,D6*%
X5240000Y27100000D02*
X5240000Y25900000D01*
X7200000Y27100000D02*
X5240000Y27100000D01*
X7200000Y25900000D02*
X5240000Y25900000D01*
%TO.C,R3*%
X8196359Y12880000D02*
X8503641Y12880000D01*
X8196359Y12120000D02*
X8503641Y12120000D01*
%TO.C,D1*%
X4740000Y9600000D02*
X4740000Y8400000D01*
X6700000Y9600000D02*
X4740000Y9600000D01*
X6700000Y8400000D02*
X4740000Y8400000D01*
%TO.C,U3*%
X36890000Y15110000D02*
X37365000Y15110000D01*
X36890000Y14635000D02*
X36890000Y15110000D01*
X36890000Y11890000D02*
X36890000Y12365000D01*
X37365000Y11890000D02*
X36890000Y11890000D01*
X39635000Y15110000D02*
X40110000Y15110000D01*
X40110000Y15110000D02*
X40110000Y14635000D01*
X40110000Y12365000D02*
X40110000Y11890000D01*
X40110000Y11890000D02*
X39635000Y11890000D01*
%TO.C,R10*%
X10046359Y23380000D02*
X10353641Y23380000D01*
X10046359Y22620000D02*
X10353641Y22620000D01*
%TO.C,TP1*%
X30950000Y23000000D02*
G75*
G02*
X29550000Y23000000I-700000J0D01*
G01*
X29550000Y23000000D02*
G75*
G02*
X30950000Y23000000I700000J0D01*
G01*
%TO.C,R31*%
X39820000Y26846359D02*
X39820000Y27153641D01*
X40580000Y26846359D02*
X40580000Y27153641D01*
%TO.C,R40*%
X40346359Y18580000D02*
X40653641Y18580000D01*
X40346359Y17820000D02*
X40653641Y17820000D01*
%TO.C,R29*%
X43046359Y31780000D02*
X43353641Y31780000D01*
X43046359Y31020000D02*
X43353641Y31020000D01*
%TO.C,C11*%
X16892164Y15560000D02*
X17107836Y15560000D01*
X16892164Y14840000D02*
X17107836Y14840000D01*
%TO.C,C35*%
X23540000Y8859420D02*
X23540000Y9140580D01*
X24560000Y8859420D02*
X24560000Y9140580D01*
%TO.C,R7*%
X8696359Y19880000D02*
X9003641Y19880000D01*
X8696359Y19120000D02*
X9003641Y19120000D01*
%TO.C,R28*%
X43046359Y29980000D02*
X43353641Y29980000D01*
X43046359Y29220000D02*
X43353641Y29220000D01*
%TO.C,TP6*%
X33200000Y20000000D02*
G75*
G02*
X31800000Y20000000I-700000J0D01*
G01*
X31800000Y20000000D02*
G75*
G02*
X33200000Y20000000I700000J0D01*
G01*
%TO.C,TP3*%
X36200000Y23000000D02*
G75*
G02*
X34800000Y23000000I-700000J0D01*
G01*
X34800000Y23000000D02*
G75*
G02*
X36200000Y23000000I700000J0D01*
G01*
%TO.C,R14*%
X10046359Y30380000D02*
X10353641Y30380000D01*
X10046359Y29620000D02*
X10353641Y29620000D01*
%TO.C,R4*%
X10296359Y12880000D02*
X10603641Y12880000D01*
X10296359Y12120000D02*
X10603641Y12120000D01*
%TO.C,R6*%
X10296359Y16380000D02*
X10603641Y16380000D01*
X10296359Y15620000D02*
X10603641Y15620000D01*
%TO.C,C4*%
X12892164Y19860000D02*
X13107836Y19860000D01*
X12892164Y19140000D02*
X13107836Y19140000D01*
%TO.C,C33*%
X34565000Y10038748D02*
X34565000Y10561252D01*
X36035000Y10038748D02*
X36035000Y10561252D01*
%TO.C,R9*%
X8696359Y24630000D02*
X9003641Y24630000D01*
X8696359Y23870000D02*
X9003641Y23870000D01*
%TO.C,J3*%
X19890000Y3540000D02*
X19890000Y2390000D01*
X19890000Y2390000D02*
X20940000Y2390000D01*
X20940000Y2390000D02*
X20940000Y1400000D01*
X21060000Y5510000D02*
X24940000Y5510000D01*
X26110000Y3540000D02*
X26110000Y2390000D01*
X26110000Y2390000D02*
X25060000Y2390000D01*
%TO.C,R24*%
X17746359Y31380000D02*
X18053641Y31380000D01*
X17746359Y30620000D02*
X18053641Y30620000D01*
%TO.C,C26*%
X14440000Y33892164D02*
X14440000Y34107836D01*
X15160000Y33892164D02*
X15160000Y34107836D01*
%TO.C,C31*%
X41990000Y14859420D02*
X41990000Y15140580D01*
X43010000Y14859420D02*
X43010000Y15140580D01*
%TO.C,R22*%
X15846359Y38880000D02*
X16153641Y38880000D01*
X15846359Y38120000D02*
X16153641Y38120000D01*
%TO.C,C12*%
X19892164Y31360000D02*
X20107836Y31360000D01*
X19892164Y30640000D02*
X20107836Y30640000D01*
%TO.C,C3*%
X12892164Y16360000D02*
X13107836Y16360000D01*
X12892164Y15640000D02*
X13107836Y15640000D01*
%TO.C,D10*%
X4440000Y5600000D02*
X4440000Y4400000D01*
X6400000Y5600000D02*
X4440000Y5600000D01*
X6400000Y4400000D02*
X4440000Y4400000D01*
%TO.C,C29*%
X35640000Y27142164D02*
X35640000Y27357836D01*
X36360000Y27142164D02*
X36360000Y27357836D01*
%TO.C,D4*%
X5240000Y20100000D02*
X5240000Y18900000D01*
X7200000Y20100000D02*
X5240000Y20100000D01*
X7200000Y18900000D02*
X5240000Y18900000D01*
%TO.C,C8*%
X12892164Y33860000D02*
X13107836Y33860000D01*
X12892164Y33140000D02*
X13107836Y33140000D01*
%TO.C,TP8*%
X39200000Y20000000D02*
G75*
G02*
X37800000Y20000000I-700000J0D01*
G01*
X37800000Y20000000D02*
G75*
G02*
X39200000Y20000000I700000J0D01*
G01*
%TO.C,R1*%
X8196359Y9380000D02*
X8503641Y9380000D01*
X8196359Y8620000D02*
X8503641Y8620000D01*
%TO.C,C22*%
X25842164Y15560000D02*
X26057836Y15560000D01*
X25842164Y14840000D02*
X26057836Y14840000D01*
%TO.C,R11*%
X8696359Y28130000D02*
X9003641Y28130000D01*
X8696359Y27370000D02*
X9003641Y27370000D01*
%TO.C,C18*%
X22965000Y13438748D02*
X22965000Y13961252D01*
X24435000Y13438748D02*
X24435000Y13961252D01*
%TO.C,C6*%
X12892164Y26860000D02*
X13107836Y26860000D01*
X12892164Y26140000D02*
X13107836Y26140000D01*
%TO.C,TP2*%
X33200000Y23000000D02*
G75*
G02*
X31800000Y23000000I-700000J0D01*
G01*
X31800000Y23000000D02*
G75*
G02*
X33200000Y23000000I700000J0D01*
G01*
%TO.C,C23*%
X22892164Y31360000D02*
X23107836Y31360000D01*
X22892164Y30640000D02*
X23107836Y30640000D01*
%TO.C,C19*%
X25892164Y14310000D02*
X26107836Y14310000D01*
X25892164Y13590000D02*
X26107836Y13590000D01*
%TO.C,J1*%
X390000Y19060000D02*
X390000Y28940000D01*
X2360000Y30110000D02*
X3510000Y30110000D01*
X2360000Y17890000D02*
X3510000Y17890000D01*
X3510000Y30110000D02*
X3510000Y29060000D01*
X3510000Y18940000D02*
X4500000Y18940000D01*
X3510000Y17890000D02*
X3510000Y18940000D01*
%TO.C,R23*%
X17846359Y35580000D02*
X18153641Y35580000D01*
X17846359Y34820000D02*
X18153641Y34820000D01*
%TO.C,R18*%
X10046359Y37380000D02*
X10353641Y37380000D01*
X10046359Y36620000D02*
X10353641Y36620000D01*
%TO.C,C36*%
X26440000Y11359420D02*
X26440000Y11640580D01*
X27460000Y11359420D02*
X27460000Y11640580D01*
%TO.C,R27*%
X28070000Y17596359D02*
X28070000Y17903641D01*
X28830000Y17596359D02*
X28830000Y17903641D01*
%TO.C,C16*%
X25892164Y31360000D02*
X26107836Y31360000D01*
X25892164Y30640000D02*
X26107836Y30640000D01*
%TO.C,U5*%
X29090000Y13060000D02*
X30910000Y13060000D01*
X29090000Y13010000D02*
X29090000Y13060000D01*
X29090000Y9940000D02*
X29090000Y9990000D01*
X30910000Y13060000D02*
X30910000Y13010000D01*
X30910000Y11890000D02*
X30910000Y11110000D01*
X30910000Y9990000D02*
X30910000Y9940000D01*
X30910000Y9940000D02*
X29090000Y9940000D01*
X28550000Y13010000D02*
X28310000Y13340000D01*
X28790000Y13340000D01*
X28550000Y13010000D01*
G36*
X28550000Y13010000D02*
G01*
X28310000Y13340000D01*
X28790000Y13340000D01*
X28550000Y13010000D01*
G37*
%TO.C,R35*%
X30420000Y4846359D02*
X30420000Y5153641D01*
X31180000Y4846359D02*
X31180000Y5153641D01*
%TO.C,R32*%
X41120000Y24846359D02*
X41120000Y25153641D01*
X41880000Y24846359D02*
X41880000Y25153641D01*
%TO.C,D3*%
X4740000Y16600000D02*
X4740000Y15400000D01*
X6700000Y16600000D02*
X4740000Y16600000D01*
X6700000Y15400000D02*
X4740000Y15400000D01*
%TO.C,R36*%
X30420000Y2846359D02*
X30420000Y3153641D01*
X31180000Y2846359D02*
X31180000Y3153641D01*
%TO.C,C9*%
X12892164Y37360000D02*
X13107836Y37360000D01*
X12892164Y36640000D02*
X13107836Y36640000D01*
%TO.C,U1*%
X15890000Y28110000D02*
X16840000Y28110000D01*
X15890000Y27160000D02*
X15890000Y28110000D01*
X15890000Y17890000D02*
X15890000Y18840000D01*
X16840000Y17890000D02*
X15890000Y17890000D01*
X25160000Y28110000D02*
X26110000Y28110000D01*
X26110000Y28110000D02*
X26110000Y27160000D01*
X26110000Y18840000D02*
X26110000Y17890000D01*
X26110000Y17890000D02*
X25160000Y17890000D01*
X15250000Y27160000D02*
X14910000Y27630000D01*
X15590000Y27630000D01*
X15250000Y27160000D01*
G36*
X15250000Y27160000D02*
G01*
X14910000Y27630000D01*
X15590000Y27630000D01*
X15250000Y27160000D01*
G37*
%TO.C,D23*%
X29540000Y9300000D02*
X29540000Y8100000D01*
X31500000Y9300000D02*
X29540000Y9300000D01*
X31500000Y8100000D02*
X29540000Y8100000D01*
%TO.C,C34*%
X17440000Y8859420D02*
X17440000Y9140580D01*
X18460000Y8859420D02*
X18460000Y9140580D01*
%TO.C,R13*%
X8696359Y31630000D02*
X9003641Y31630000D01*
X8696359Y30870000D02*
X9003641Y30870000D01*
%TO.C,D20*%
X21700000Y41765000D02*
X23985000Y41765000D01*
X23985000Y43235000D02*
X21700000Y43235000D01*
X23985000Y41765000D02*
X23985000Y43235000D01*
%TO.C,C5*%
X12892164Y23360000D02*
X13107836Y23360000D01*
X12892164Y22640000D02*
X13107836Y22640000D01*
%TO.C,R38*%
X38346359Y16680000D02*
X38653641Y16680000D01*
X38346359Y15920000D02*
X38653641Y15920000D01*
%TO.C,R37*%
X35370000Y13596359D02*
X35370000Y13903641D01*
X36130000Y13596359D02*
X36130000Y13903641D01*
%TO.C,C28*%
X37490000Y26359420D02*
X37490000Y26640580D01*
X38510000Y26359420D02*
X38510000Y26640580D01*
%TO.C,D7*%
X5240000Y30600000D02*
X5240000Y29400000D01*
X7200000Y30600000D02*
X5240000Y30600000D01*
X7200000Y29400000D02*
X5240000Y29400000D01*
%TO.C,R20*%
X8562742Y5522500D02*
X9037258Y5522500D01*
X8562742Y4477500D02*
X9037258Y4477500D01*
%TO.C,C14*%
X20892164Y32660000D02*
X21107836Y32660000D01*
X20892164Y31940000D02*
X21107836Y31940000D01*
%TO.C,C13*%
X20492164Y35360000D02*
X20707836Y35360000D01*
X20492164Y34640000D02*
X20707836Y34640000D01*
%TO.C,R25*%
X29320000Y17596359D02*
X29320000Y17903641D01*
X30080000Y17596359D02*
X30080000Y17903641D01*
%TO.C,R8*%
X10796359Y19880000D02*
X11103641Y19880000D01*
X10796359Y19120000D02*
X11103641Y19120000D01*
%TO.C,TP4*%
X39200000Y23000000D02*
G75*
G02*
X37800000Y23000000I-700000J0D01*
G01*
X37800000Y23000000D02*
G75*
G02*
X39200000Y23000000I700000J0D01*
G01*
%TO.C,U4*%
X20090000Y10560000D02*
X21910000Y10560000D01*
X20090000Y10510000D02*
X20090000Y10560000D01*
X20090000Y7440000D02*
X20090000Y7490000D01*
X21910000Y10560000D02*
X21910000Y10510000D01*
X21910000Y9390000D02*
X21910000Y8610000D01*
X21910000Y7490000D02*
X21910000Y7440000D01*
X21910000Y7440000D02*
X20090000Y7440000D01*
X19550000Y10510000D02*
X19310000Y10840000D01*
X19790000Y10840000D01*
X19550000Y10510000D01*
G36*
X19550000Y10510000D02*
G01*
X19310000Y10840000D01*
X19790000Y10840000D01*
X19550000Y10510000D01*
G37*
%TO.C,C20*%
X22892164Y32660000D02*
X23107836Y32660000D01*
X22892164Y31940000D02*
X23107836Y31940000D01*
%TO.C,R34*%
X19346359Y42880000D02*
X19653641Y42880000D01*
X19346359Y42120000D02*
X19653641Y42120000D01*
%TO.C,R17*%
X8196359Y38630000D02*
X8503641Y38630000D01*
X8196359Y37870000D02*
X8503641Y37870000D01*
%TO.C,C17*%
X18892164Y14310000D02*
X19107836Y14310000D01*
X18892164Y13590000D02*
X19107836Y13590000D01*
%TO.C,C2*%
X12892164Y12860000D02*
X13107836Y12860000D01*
X12892164Y12140000D02*
X13107836Y12140000D01*
%TO.C,R2*%
X10296359Y9380000D02*
X10603641Y9380000D01*
X10296359Y8620000D02*
X10603641Y8620000D01*
%TO.C,C30*%
X42840000Y22892164D02*
X42840000Y23107836D01*
X43560000Y22892164D02*
X43560000Y23107836D01*
%TO.C,R19*%
X11662742Y5522500D02*
X12137258Y5522500D01*
X11662742Y4477500D02*
X12137258Y4477500D01*
%TO.C,D24*%
X30590000Y18000000D02*
X30590000Y16000000D01*
X30590000Y18000000D02*
X34450000Y18000000D01*
X30590000Y16000000D02*
X34450000Y16000000D01*
%TO.C,R30*%
X43046359Y33580000D02*
X43353641Y33580000D01*
X43046359Y32820000D02*
X43353641Y32820000D01*
%TO.C,D2*%
X4740000Y13100000D02*
X4740000Y11900000D01*
X6700000Y13100000D02*
X4740000Y13100000D01*
X6700000Y11900000D02*
X4740000Y11900000D01*
%TO.C,D9*%
X4740000Y37600000D02*
X4740000Y36400000D01*
X6700000Y37600000D02*
X4740000Y37600000D01*
X6700000Y36400000D02*
X4740000Y36400000D01*
%TO.C,C24*%
X25392164Y32660000D02*
X25607836Y32660000D01*
X25392164Y31940000D02*
X25607836Y31940000D01*
%TO.C,TP7*%
X36200000Y20000000D02*
G75*
G02*
X34800000Y20000000I-700000J0D01*
G01*
X34800000Y20000000D02*
G75*
G02*
X36200000Y20000000I700000J0D01*
G01*
%TO.C,C37*%
X32540000Y12059420D02*
X32540000Y12340580D01*
X33560000Y12059420D02*
X33560000Y12340580D01*
%TD*%
M02*
