%TF.GenerationSoftware,KiCad,Pcbnew,10.0.1*%
%TF.CreationDate,2026-09-07T13:57:51+08:00*%
%TF.ProjectId,ECG12_Portable2,45434731-325f-4506-9f72-7461626c6532,B*%
%TF.SameCoordinates,Original*%
%TF.FileFunction,Copper,L2,Inr*%
%TF.FilePolarity,Positive*%
%FSLAX46Y46*%
G04 Gerber Fmt 4.6, Leading zero omitted, Abs format (unit mm)*
G04 Created by KiCad (PCBNEW 10.0.1) date 2026-09-07 13:57:51*
%MOMM*%
%LPD*%
G01*
G04 APERTURE LIST*
%TA.AperFunction,ComponentPad*%
%ADD10O,1.000000X2.100000*%
%TD*%
%TA.AperFunction,ComponentPad*%
%ADD11O,1.000000X1.600000*%
%TD*%
%TA.AperFunction,ViaPad*%
%ADD12C,0.600000*%
%TD*%
G04 APERTURE END LIST*
D10*
%TO.N,GND*%
%TO.C,J2*%
X34480000Y6320000D03*
D11*
X34480000Y2140000D03*
D10*
X43120000Y6320000D03*
D11*
X43120000Y2140000D03*
%TD*%
D12*
%TO.N,VSYS*%
X39051500Y9416400D03*
X26737500Y6962500D03*
%TO.N,GND*%
X6700000Y15200000D03*
X10362000Y32550000D03*
X37975000Y10450000D03*
X41810000Y16300001D03*
X41000000Y29300000D03*
X10362000Y25550000D03*
X20280000Y13950000D03*
X14046000Y18934000D03*
X27280000Y13950000D03*
X14280000Y37000000D03*
X25300000Y2175000D03*
X7200000Y18700000D03*
X20662000Y9000000D03*
X14280000Y30000000D03*
X36925000Y25575000D03*
X41400000Y40700000D03*
X10362000Y22050000D03*
X34950000Y14260000D03*
X43900000Y37500000D03*
X24280000Y32300000D03*
X38150000Y13850000D03*
X42250000Y38875000D03*
X38800000Y27275000D03*
X8000000Y23000000D03*
X10362000Y29050000D03*
X39010000Y17100000D03*
X10362000Y8050000D03*
X33460000Y5470000D03*
X16280000Y30200000D03*
X38875000Y32025000D03*
X22750000Y27462000D03*
X40050000Y12062001D03*
X21250000Y16138000D03*
X32199999Y40700000D03*
X14280000Y16000000D03*
X44350000Y30500000D03*
X8000000Y26500000D03*
X33500000Y8000000D03*
X24280000Y31000000D03*
X6700000Y8200000D03*
X25462000Y23250000D03*
X10362000Y15050001D03*
X10362000Y36050000D03*
X21800000Y14475000D03*
X14280000Y12500000D03*
X25550000Y28662000D03*
X31800000Y28500000D03*
X29663000Y11500000D03*
X27280000Y31000000D03*
X13480000Y32700000D03*
X25050000Y17338000D03*
X20750000Y27462000D03*
X18750000Y16138000D03*
X10362000Y11550001D03*
X38850000Y13150000D03*
X13940000Y25950000D03*
X6700000Y11700000D03*
X24862000Y23750000D03*
X43920000Y3050000D03*
X22500000Y1375000D03*
X34150000Y24325000D03*
X23750000Y27462000D03*
X38850000Y13850000D03*
X24550000Y9480000D03*
X33300000Y23000000D03*
X26780000Y32300000D03*
X27230000Y15200000D03*
X20250000Y16138000D03*
X26450000Y11980000D03*
X17480000Y14400000D03*
X20250000Y29862000D03*
X27862000Y21750000D03*
X8000000Y30000000D03*
X26097000Y25316000D03*
X14280000Y9000000D03*
X10362000Y18550000D03*
X33500000Y3510000D03*
X6700000Y32700000D03*
X42850000Y8145000D03*
X27228000Y18684000D03*
X17450000Y9480000D03*
X6966000Y4434000D03*
X44000000Y23480000D03*
X33550000Y12480000D03*
X25450000Y21175000D03*
X7500000Y37000000D03*
X14046000Y22434000D03*
X44350000Y32300000D03*
X29250000Y26480000D03*
X44000000Y25510000D03*
X37750000Y11262000D03*
X38150000Y13150000D03*
X21280000Y32300000D03*
X21280000Y31000000D03*
X35280000Y3050000D03*
X20280000Y15200000D03*
X24500000Y14650000D03*
X36800000Y27730000D03*
X34984000Y7579000D03*
X19310000Y35200000D03*
%TO.N,AFE_CS*%
X33536600Y24791600D03*
X25465300Y22013900D03*
X44400000Y29600000D03*
X31393400Y25130300D03*
%TO.N,VREF*%
X19801500Y11768000D03*
%TO.N,V3_F*%
X12807900Y24356900D03*
%TO.N,BAT_SENSE*%
X38964400Y26511900D03*
X37107600Y34059500D03*
%TO.N,CHG_STAT*%
X29744600Y36271300D03*
X39845000Y17400000D03*
X40837400Y12829400D03*
%TO.N,MCU_RESET*%
X38303100Y37540600D03*
X40687300Y28198600D03*
X29675700Y19039700D03*
%TO.N,RA_F*%
X18280800Y20625500D03*
X13532300Y6962600D03*
%TO.N,USB_PGOOD*%
X32387500Y15437500D03*
X41257500Y19135300D03*
X30246600Y37700000D03*
%TO.N,UART_TX*%
X32318000Y30525000D03*
X31466500Y20069100D03*
%TO.N,UART_RX*%
X34824600Y20675400D03*
X35250600Y28133100D03*
%TO.N,AFE_MISO*%
X29107000Y24250000D03*
X38559100Y32800000D03*
%TO.N,AFE_DRDY*%
X36325000Y33500000D03*
X29730700Y24966600D03*
%TO.N,AFE_RESET*%
X33976300Y20877700D03*
X39440600Y34244900D03*
%TO.N,AFE_PWDN*%
X38350000Y34900000D03*
X33466000Y19630500D03*
%TO.N,SWDCLK*%
X43057200Y37500800D03*
X37172800Y23088000D03*
%TO.N,SWDIO*%
X42247700Y38027600D03*
X37983200Y23833800D03*
%TO.N,LED_K*%
X23712500Y40862500D03*
X41759900Y39887500D03*
%TO.N,VBUS*%
X40149700Y5992400D03*
X37030400Y8897900D03*
X42500000Y13297500D03*
%TO.N,CC2*%
X38022600Y8425200D03*
X32387500Y1580000D03*
%TO.N,V5_F*%
X13641100Y25250000D03*
X9528000Y35250000D03*
%TO.N,AVDD*%
X21181300Y29957500D03*
X20399900Y33140000D03*
%TO.N,V4_F*%
X18262500Y23914100D03*
X13446700Y27517800D03*
%TO.N,RLD_OUT*%
X18150000Y29875000D03*
X11575000Y8075000D03*
%TO.N,BAT_NTC*%
X28866400Y3441400D03*
X35892700Y15269600D03*
%TO.N,VBAT*%
X34766000Y9684000D03*
X41370000Y23712300D03*
X36725000Y14825000D03*
%TO.N,ILIM*%
X36561700Y11660200D03*
X40996900Y14176800D03*
%TO.N,V2_F*%
X8859800Y23037200D03*
%TO.N,AFE_SCK*%
X30643700Y24133300D03*
X44400000Y31400000D03*
%TO.N,LA_F*%
X13011800Y10292800D03*
X12745100Y21157200D03*
%TO.N,LL_F*%
X13661500Y14819800D03*
%TO.N,V1_F*%
X9499700Y21248400D03*
%TO.N,RLD_REF*%
X16566000Y34546000D03*
X19200800Y27416000D03*
%TO.N,VCAP1*%
X22538400Y12191000D03*
X22750000Y16112300D03*
%TO.N,VCAP2*%
X25322500Y16058600D03*
X27820200Y14492700D03*
%TO.N,V6_F*%
X13808400Y38414000D03*
X14201400Y28308800D03*
%TO.N,VCAP4*%
X21776700Y15585600D03*
X19553000Y12711200D03*
%TO.N,AFE_MOSI*%
X44400000Y33200000D03*
X25200100Y20331700D03*
%TD*%
%TA.AperFunction,Conductor*%
%TO.N,GND*%
G36*
X24978326Y44727826D02*
G01*
X25000000Y44675500D01*
X25000000Y41100000D01*
X35476549Y41100000D01*
X35519169Y41086495D01*
X39900000Y38000000D01*
X39900000Y38000001D01*
X39900000Y38093495D01*
X41747200Y38093495D01*
X41747200Y37961706D01*
X41781306Y37834419D01*
X41781310Y37834410D01*
X41820868Y37765894D01*
X41847200Y37720286D01*
X41940386Y37627100D01*
X42054514Y37561208D01*
X42181805Y37527101D01*
X42181806Y37527100D01*
X42181808Y37527100D01*
X42313594Y37527100D01*
X42313594Y37527101D01*
X42440886Y37561208D01*
X42445698Y37563987D01*
X42501848Y37571382D01*
X42546784Y37536906D01*
X42556700Y37499902D01*
X42556700Y37434906D01*
X42590806Y37307619D01*
X42590810Y37307610D01*
X42633534Y37233611D01*
X42656700Y37193486D01*
X42749886Y37100300D01*
X42864014Y37034408D01*
X42991305Y37000301D01*
X42991306Y37000300D01*
X42991308Y37000300D01*
X43123094Y37000300D01*
X43123094Y37000301D01*
X43250386Y37034408D01*
X43364514Y37100300D01*
X43457700Y37193486D01*
X43523592Y37307614D01*
X43557699Y37434906D01*
X43557700Y37434906D01*
X43557700Y37566694D01*
X43557699Y37566695D01*
X43541513Y37627101D01*
X43523592Y37693986D01*
X43457700Y37808114D01*
X43364514Y37901300D01*
X43295579Y37941100D01*
X43250390Y37967190D01*
X43250381Y37967194D01*
X43123094Y38001300D01*
X43123092Y38001300D01*
X42991308Y38001300D01*
X42991306Y38001300D01*
X42864018Y37967194D01*
X42864011Y37967191D01*
X42859199Y37964412D01*
X42803046Y37957021D01*
X42758113Y37991500D01*
X42748200Y38028499D01*
X42748200Y38093494D01*
X42748199Y38093495D01*
X42719527Y38200500D01*
X42714092Y38220786D01*
X42648200Y38334914D01*
X42555014Y38428100D01*
X42465308Y38479892D01*
X42440890Y38493990D01*
X42440881Y38493994D01*
X42313594Y38528100D01*
X42313592Y38528100D01*
X42181808Y38528100D01*
X42181806Y38528100D01*
X42054518Y38493994D01*
X42054509Y38493990D01*
X41940385Y38428100D01*
X41847200Y38334915D01*
X41781310Y38220791D01*
X41781306Y38220782D01*
X41747200Y38093495D01*
X39900000Y38093495D01*
X39900000Y39953395D01*
X41259400Y39953395D01*
X41259400Y39821606D01*
X41293506Y39694319D01*
X41293507Y39694316D01*
X41293508Y39694314D01*
X41359400Y39580186D01*
X41452586Y39487000D01*
X41566714Y39421108D01*
X41694005Y39387001D01*
X41694006Y39387000D01*
X41694008Y39387000D01*
X41825794Y39387000D01*
X41825794Y39387001D01*
X41953086Y39421108D01*
X42067214Y39487000D01*
X42160400Y39580186D01*
X42226292Y39694314D01*
X42260399Y39821606D01*
X42260400Y39821606D01*
X42260400Y39953394D01*
X42260399Y39953395D01*
X42226293Y40080682D01*
X42226292Y40080686D01*
X42160400Y40194814D01*
X42067214Y40288000D01*
X41953090Y40353890D01*
X41953081Y40353894D01*
X41825794Y40388000D01*
X41825792Y40388000D01*
X41694008Y40388000D01*
X41694006Y40388000D01*
X41566718Y40353894D01*
X41566709Y40353890D01*
X41452585Y40288000D01*
X41359400Y40194815D01*
X41293510Y40080691D01*
X41293506Y40080682D01*
X41259400Y39953395D01*
X39900000Y39953395D01*
X39900000Y41026000D01*
X39921674Y41078326D01*
X39974000Y41100000D01*
X44675500Y41100000D01*
X44727826Y41078326D01*
X44749500Y41026000D01*
X44749500Y33704316D01*
X44727826Y33651990D01*
X44675500Y33630316D01*
X44638500Y33640230D01*
X44593190Y33666390D01*
X44593181Y33666394D01*
X44465894Y33700500D01*
X44465892Y33700500D01*
X44334108Y33700500D01*
X44334106Y33700500D01*
X44206818Y33666394D01*
X44206809Y33666390D01*
X44092685Y33600500D01*
X43999500Y33507315D01*
X43933610Y33393191D01*
X43933606Y33393182D01*
X43899500Y33265895D01*
X43899500Y33134106D01*
X43933606Y33006819D01*
X43933610Y33006810D01*
X43941473Y32993191D01*
X43999500Y32892686D01*
X44092686Y32799500D01*
X44206814Y32733608D01*
X44334105Y32699501D01*
X44334106Y32699500D01*
X44334108Y32699500D01*
X44465894Y32699500D01*
X44465894Y32699501D01*
X44593186Y32733608D01*
X44638500Y32759771D01*
X44694651Y32767164D01*
X44739585Y32732686D01*
X44749500Y32695685D01*
X44749500Y31904316D01*
X44727826Y31851990D01*
X44675500Y31830316D01*
X44638500Y31840230D01*
X44593190Y31866390D01*
X44593181Y31866394D01*
X44465894Y31900500D01*
X44465892Y31900500D01*
X44334108Y31900500D01*
X44334106Y31900500D01*
X44206818Y31866394D01*
X44206809Y31866390D01*
X44092685Y31800500D01*
X43999500Y31707315D01*
X43933610Y31593191D01*
X43933606Y31593182D01*
X43899500Y31465895D01*
X43899500Y31334106D01*
X43933606Y31206819D01*
X43933607Y31206816D01*
X43933608Y31206814D01*
X43999500Y31092686D01*
X44092686Y30999500D01*
X44206814Y30933608D01*
X44334105Y30899501D01*
X44334106Y30899500D01*
X44334108Y30899500D01*
X44465894Y30899500D01*
X44465894Y30899501D01*
X44593186Y30933608D01*
X44638500Y30959771D01*
X44694651Y30967164D01*
X44739585Y30932686D01*
X44749500Y30895685D01*
X44749500Y30104316D01*
X44727826Y30051990D01*
X44675500Y30030316D01*
X44638500Y30040230D01*
X44593190Y30066390D01*
X44593181Y30066394D01*
X44465894Y30100500D01*
X44465892Y30100500D01*
X44334108Y30100500D01*
X44334106Y30100500D01*
X44206818Y30066394D01*
X44206809Y30066390D01*
X44092685Y30000500D01*
X43999500Y29907315D01*
X43933610Y29793191D01*
X43933606Y29793182D01*
X43899500Y29665895D01*
X43899500Y29534106D01*
X43933606Y29406819D01*
X43933610Y29406810D01*
X43999500Y29292686D01*
X44092686Y29199500D01*
X44206814Y29133608D01*
X44334105Y29099501D01*
X44334106Y29099500D01*
X44334108Y29099500D01*
X44465894Y29099500D01*
X44465894Y29099501D01*
X44593186Y29133608D01*
X44638500Y29159771D01*
X44694651Y29167164D01*
X44739585Y29132686D01*
X44749500Y29095685D01*
X44749500Y324500D01*
X44727826Y272174D01*
X44675500Y250500D01*
X324500Y250500D01*
X272174Y272174D01*
X250500Y324500D01*
X250500Y1645895D01*
X31887000Y1645895D01*
X31887000Y1514106D01*
X31921106Y1386819D01*
X31921107Y1386816D01*
X31921108Y1386814D01*
X31987000Y1272686D01*
X32080186Y1179500D01*
X32194314Y1113608D01*
X32321605Y1079501D01*
X32321606Y1079500D01*
X32321608Y1079500D01*
X32453394Y1079500D01*
X32453394Y1079501D01*
X32580686Y1113608D01*
X32694814Y1179500D01*
X32788000Y1272686D01*
X32853892Y1386814D01*
X32887999Y1514106D01*
X32888000Y1514106D01*
X32888000Y1645894D01*
X32887999Y1645895D01*
X32853893Y1773182D01*
X32853892Y1773186D01*
X32788000Y1887314D01*
X32694814Y1980500D01*
X32580690Y2046390D01*
X32580681Y2046394D01*
X32453394Y2080500D01*
X32453392Y2080500D01*
X32321608Y2080500D01*
X32321606Y2080500D01*
X32194318Y2046394D01*
X32194309Y2046390D01*
X32080185Y1980500D01*
X31987000Y1887315D01*
X31921110Y1773191D01*
X31921106Y1773182D01*
X31887000Y1645895D01*
X250500Y1645895D01*
X250500Y3507295D01*
X28365900Y3507295D01*
X28365900Y3375506D01*
X28400006Y3248219D01*
X28400007Y3248216D01*
X28400008Y3248214D01*
X28465900Y3134086D01*
X28559086Y3040900D01*
X28673214Y2975008D01*
X28800505Y2940901D01*
X28800506Y2940900D01*
X28800508Y2940900D01*
X28932294Y2940900D01*
X28932294Y2940901D01*
X29059586Y2975008D01*
X29173714Y3040900D01*
X29266900Y3134086D01*
X29332792Y3248214D01*
X29366899Y3375506D01*
X29366900Y3375506D01*
X29366900Y3507294D01*
X29366899Y3507295D01*
X29332793Y3634582D01*
X29332792Y3634586D01*
X29266900Y3748714D01*
X29173714Y3841900D01*
X29059590Y3907790D01*
X29059581Y3907794D01*
X28932294Y3941900D01*
X28932292Y3941900D01*
X28800508Y3941900D01*
X28800506Y3941900D01*
X28673218Y3907794D01*
X28673209Y3907790D01*
X28559085Y3841900D01*
X28465900Y3748715D01*
X28400010Y3634591D01*
X28400006Y3634582D01*
X28365900Y3507295D01*
X250500Y3507295D01*
X250500Y5865769D01*
X35334500Y5865769D01*
X35334500Y5714232D01*
X35373717Y5567870D01*
X35373721Y5567861D01*
X35449483Y5436638D01*
X35449485Y5436635D01*
X35556635Y5329485D01*
X35687865Y5253719D01*
X35834231Y5214501D01*
X35834232Y5214500D01*
X35834234Y5214500D01*
X35985768Y5214500D01*
X35985768Y5214501D01*
X36132135Y5253719D01*
X36263365Y5329485D01*
X36370515Y5436635D01*
X36446281Y5567865D01*
X36485499Y5714232D01*
X36485500Y5714232D01*
X36485500Y5865768D01*
X36485499Y5865769D01*
X36446282Y6012131D01*
X36446281Y6012135D01*
X36419630Y6058295D01*
X39649200Y6058295D01*
X39649200Y5926506D01*
X39683306Y5799219D01*
X39683310Y5799210D01*
X39749200Y5685086D01*
X39842386Y5591900D01*
X39956514Y5526008D01*
X40083805Y5491901D01*
X40083806Y5491900D01*
X40083808Y5491900D01*
X40215594Y5491900D01*
X40215594Y5491901D01*
X40342886Y5526008D01*
X40457014Y5591900D01*
X40550200Y5685086D01*
X40616092Y5799214D01*
X40633925Y5865769D01*
X41114500Y5865769D01*
X41114500Y5714232D01*
X41153717Y5567870D01*
X41153721Y5567861D01*
X41229483Y5436638D01*
X41229485Y5436635D01*
X41336635Y5329485D01*
X41467865Y5253719D01*
X41614231Y5214501D01*
X41614232Y5214500D01*
X41614234Y5214500D01*
X41765768Y5214500D01*
X41765768Y5214501D01*
X41912135Y5253719D01*
X42043365Y5329485D01*
X42150515Y5436635D01*
X42226281Y5567865D01*
X42265499Y5714232D01*
X42265500Y5714232D01*
X42265500Y5865768D01*
X42265499Y5865769D01*
X42226282Y6012131D01*
X42226281Y6012135D01*
X42150515Y6143365D01*
X42043365Y6250515D01*
X42043362Y6250517D01*
X41912139Y6326279D01*
X41912130Y6326283D01*
X41765768Y6365500D01*
X41765766Y6365500D01*
X41614234Y6365500D01*
X41614232Y6365500D01*
X41467869Y6326283D01*
X41467860Y6326279D01*
X41336637Y6250517D01*
X41229483Y6143363D01*
X41153721Y6012140D01*
X41153717Y6012131D01*
X41114500Y5865769D01*
X40633925Y5865769D01*
X40650199Y5926506D01*
X40650200Y5926506D01*
X40650200Y6058294D01*
X40650199Y6058295D01*
X40627405Y6143363D01*
X40616092Y6185586D01*
X40550200Y6299714D01*
X40457014Y6392900D01*
X40342890Y6458790D01*
X40342881Y6458794D01*
X40215594Y6492900D01*
X40215592Y6492900D01*
X40083808Y6492900D01*
X40083806Y6492900D01*
X39956518Y6458794D01*
X39956509Y6458790D01*
X39842385Y6392900D01*
X39749200Y6299715D01*
X39683310Y6185591D01*
X39683306Y6185582D01*
X39649200Y6058295D01*
X36419630Y6058295D01*
X36370515Y6143365D01*
X36263365Y6250515D01*
X36263362Y6250517D01*
X36132139Y6326279D01*
X36132130Y6326283D01*
X35985768Y6365500D01*
X35985766Y6365500D01*
X35834234Y6365500D01*
X35834232Y6365500D01*
X35687869Y6326283D01*
X35687860Y6326279D01*
X35556637Y6250517D01*
X35449483Y6143363D01*
X35373721Y6012140D01*
X35373717Y6012131D01*
X35334500Y5865769D01*
X250500Y5865769D01*
X250500Y7028495D01*
X13031800Y7028495D01*
X13031800Y6896706D01*
X13065906Y6769419D01*
X13065910Y6769410D01*
X13065968Y6769310D01*
X13131800Y6655286D01*
X13224986Y6562100D01*
X13339114Y6496208D01*
X13466405Y6462101D01*
X13466406Y6462100D01*
X13466408Y6462100D01*
X13598194Y6462100D01*
X13598194Y6462101D01*
X13725486Y6496208D01*
X13839614Y6562100D01*
X13932800Y6655286D01*
X13998692Y6769414D01*
X14032799Y6896706D01*
X14032800Y6896706D01*
X14032800Y7028395D01*
X26237000Y7028395D01*
X26237000Y6896606D01*
X26271106Y6769319D01*
X26271107Y6769316D01*
X26271108Y6769314D01*
X26337000Y6655186D01*
X26430186Y6562000D01*
X26544314Y6496108D01*
X26671605Y6462001D01*
X26671606Y6462000D01*
X26671608Y6462000D01*
X26803394Y6462000D01*
X26803394Y6462001D01*
X26930686Y6496108D01*
X27044814Y6562000D01*
X27138000Y6655186D01*
X27203892Y6769314D01*
X27237999Y6896606D01*
X27238000Y6896606D01*
X27238000Y7028394D01*
X27237999Y7028395D01*
X27237972Y7028494D01*
X27203892Y7155686D01*
X27138000Y7269814D01*
X27044814Y7363000D01*
X27044641Y7363100D01*
X26930690Y7428890D01*
X26930681Y7428894D01*
X26803394Y7463000D01*
X26803392Y7463000D01*
X26671608Y7463000D01*
X26671606Y7463000D01*
X26544318Y7428894D01*
X26544309Y7428890D01*
X26430185Y7363000D01*
X26337000Y7269815D01*
X26271110Y7155691D01*
X26271106Y7155682D01*
X26237000Y7028395D01*
X14032800Y7028395D01*
X14032800Y7028494D01*
X14032799Y7028495D01*
X13998693Y7155782D01*
X13998692Y7155786D01*
X13932800Y7269914D01*
X13839614Y7363100D01*
X13725663Y7428890D01*
X13725490Y7428990D01*
X13725481Y7428994D01*
X13598194Y7463100D01*
X13598192Y7463100D01*
X13466408Y7463100D01*
X13466406Y7463100D01*
X13339118Y7428994D01*
X13339109Y7428990D01*
X13224985Y7363100D01*
X13131800Y7269915D01*
X13065910Y7155791D01*
X13065906Y7155782D01*
X13031800Y7028495D01*
X250500Y7028495D01*
X250500Y8140895D01*
X11074500Y8140895D01*
X11074500Y8009106D01*
X11108606Y7881819D01*
X11108607Y7881816D01*
X11108608Y7881814D01*
X11174500Y7767686D01*
X11267686Y7674500D01*
X11381814Y7608608D01*
X11509105Y7574501D01*
X11509106Y7574500D01*
X11509108Y7574500D01*
X11640894Y7574500D01*
X11640894Y7574501D01*
X11768186Y7608608D01*
X11882314Y7674500D01*
X11975500Y7767686D01*
X12041392Y7881814D01*
X12075499Y8009106D01*
X12075500Y8009106D01*
X12075500Y8140894D01*
X12075499Y8140895D01*
X12041393Y8268182D01*
X12041392Y8268186D01*
X11975500Y8382314D01*
X11882314Y8475500D01*
X11855308Y8491092D01*
X11768190Y8541390D01*
X11768181Y8541394D01*
X11640894Y8575500D01*
X11640892Y8575500D01*
X11509108Y8575500D01*
X11509106Y8575500D01*
X11381818Y8541394D01*
X11381809Y8541390D01*
X11267685Y8475500D01*
X11174500Y8382315D01*
X11108610Y8268191D01*
X11108606Y8268182D01*
X11074500Y8140895D01*
X250500Y8140895D01*
X250500Y8963795D01*
X36529900Y8963795D01*
X36529900Y8832006D01*
X36564006Y8704719D01*
X36564007Y8704716D01*
X36564008Y8704714D01*
X36629900Y8590586D01*
X36723086Y8497400D01*
X36837214Y8431508D01*
X36964505Y8397401D01*
X36964506Y8397400D01*
X36964508Y8397400D01*
X37096294Y8397400D01*
X37096294Y8397401D01*
X37223586Y8431508D01*
X37337714Y8497400D01*
X37396864Y8556550D01*
X37449189Y8578225D01*
X37501515Y8556551D01*
X37523190Y8504226D01*
X37522557Y8494570D01*
X37522100Y8491098D01*
X37522100Y8359306D01*
X37556206Y8232019D01*
X37556207Y8232016D01*
X37556208Y8232014D01*
X37622100Y8117886D01*
X37715286Y8024700D01*
X37829414Y7958808D01*
X37956705Y7924701D01*
X37956706Y7924700D01*
X37956708Y7924700D01*
X38088494Y7924700D01*
X38088494Y7924701D01*
X38215786Y7958808D01*
X38329914Y8024700D01*
X38423100Y8117886D01*
X38488992Y8232014D01*
X38523099Y8359306D01*
X38523100Y8359306D01*
X38523100Y8491094D01*
X38523099Y8491095D01*
X38521409Y8497401D01*
X38488992Y8618386D01*
X38423100Y8732514D01*
X38329914Y8825700D01*
X38318983Y8832011D01*
X38215790Y8891590D01*
X38215781Y8891594D01*
X38088494Y8925700D01*
X38088492Y8925700D01*
X37956708Y8925700D01*
X37956706Y8925700D01*
X37829418Y8891594D01*
X37829409Y8891590D01*
X37715283Y8825699D01*
X37656134Y8766550D01*
X37603808Y8744876D01*
X37551483Y8766551D01*
X37529809Y8818877D01*
X37530443Y8828541D01*
X37530900Y8832011D01*
X37530900Y8963794D01*
X37530899Y8963795D01*
X37516937Y9015901D01*
X37496792Y9091086D01*
X37430900Y9205214D01*
X37337714Y9298400D01*
X37247461Y9350508D01*
X37223590Y9364290D01*
X37223581Y9364294D01*
X37096294Y9398400D01*
X37096292Y9398400D01*
X36964508Y9398400D01*
X36964506Y9398400D01*
X36837218Y9364294D01*
X36837209Y9364290D01*
X36723085Y9298400D01*
X36629900Y9205215D01*
X36564010Y9091091D01*
X36564006Y9091082D01*
X36529900Y8963795D01*
X250500Y8963795D01*
X250500Y9749895D01*
X34265500Y9749895D01*
X34265500Y9618106D01*
X34299606Y9490819D01*
X34299607Y9490816D01*
X34299608Y9490814D01*
X34365500Y9376686D01*
X34458686Y9283500D01*
X34572814Y9217608D01*
X34700105Y9183501D01*
X34700106Y9183500D01*
X34700108Y9183500D01*
X34831894Y9183500D01*
X34831894Y9183501D01*
X34959186Y9217608D01*
X35073314Y9283500D01*
X35166500Y9376686D01*
X35227474Y9482295D01*
X38551000Y9482295D01*
X38551000Y9350506D01*
X38585106Y9223219D01*
X38585110Y9223210D01*
X38595500Y9205214D01*
X38651000Y9109086D01*
X38744186Y9015900D01*
X38858314Y8950008D01*
X38985605Y8915901D01*
X38985606Y8915900D01*
X38985608Y8915900D01*
X39117394Y8915900D01*
X39117394Y8915901D01*
X39244686Y8950008D01*
X39358814Y9015900D01*
X39452000Y9109086D01*
X39517892Y9223214D01*
X39551999Y9350506D01*
X39552000Y9350506D01*
X39552000Y9482294D01*
X39551999Y9482295D01*
X39549717Y9490810D01*
X39517892Y9609586D01*
X39452000Y9723714D01*
X39358814Y9816900D01*
X39342671Y9826220D01*
X39244690Y9882790D01*
X39244681Y9882794D01*
X39117394Y9916900D01*
X39117392Y9916900D01*
X38985608Y9916900D01*
X38985606Y9916900D01*
X38858318Y9882794D01*
X38858309Y9882790D01*
X38744185Y9816900D01*
X38651000Y9723715D01*
X38585110Y9609591D01*
X38585106Y9609582D01*
X38551000Y9482295D01*
X35227474Y9482295D01*
X35232392Y9490814D01*
X35266499Y9618106D01*
X35266500Y9618106D01*
X35266500Y9749894D01*
X35266499Y9749895D01*
X35255136Y9792301D01*
X35232392Y9877186D01*
X35166500Y9991314D01*
X35073314Y10084500D01*
X35047127Y10099619D01*
X34959190Y10150390D01*
X34959181Y10150394D01*
X34831894Y10184500D01*
X34831892Y10184500D01*
X34700108Y10184500D01*
X34700106Y10184500D01*
X34572818Y10150394D01*
X34572809Y10150390D01*
X34458685Y10084500D01*
X34365500Y9991315D01*
X34299610Y9877191D01*
X34299606Y9877182D01*
X34265500Y9749895D01*
X250500Y9749895D01*
X250500Y10358695D01*
X12511300Y10358695D01*
X12511300Y10226906D01*
X12545406Y10099619D01*
X12545407Y10099616D01*
X12545408Y10099614D01*
X12611300Y9985486D01*
X12704486Y9892300D01*
X12818614Y9826408D01*
X12945905Y9792301D01*
X12945906Y9792300D01*
X12945908Y9792300D01*
X13077694Y9792300D01*
X13077694Y9792301D01*
X13204986Y9826408D01*
X13319114Y9892300D01*
X13412300Y9985486D01*
X13478192Y10099614D01*
X13512299Y10226906D01*
X13512300Y10226906D01*
X13512300Y10358694D01*
X13512299Y10358695D01*
X13478193Y10485982D01*
X13478192Y10485986D01*
X13412300Y10600114D01*
X13319114Y10693300D01*
X13204990Y10759190D01*
X13204981Y10759194D01*
X13077694Y10793300D01*
X13077692Y10793300D01*
X12945908Y10793300D01*
X12945906Y10793300D01*
X12818618Y10759194D01*
X12818609Y10759190D01*
X12704485Y10693300D01*
X12611300Y10600115D01*
X12545410Y10485991D01*
X12545406Y10485982D01*
X12511300Y10358695D01*
X250500Y10358695D01*
X250500Y12777095D01*
X19052500Y12777095D01*
X19052500Y12645306D01*
X19086606Y12518019D01*
X19086610Y12518010D01*
X19138058Y12428900D01*
X19152500Y12403886D01*
X19245686Y12310700D01*
X19359814Y12244808D01*
X19402168Y12233460D01*
X19447100Y12198983D01*
X19454494Y12142831D01*
X19435342Y12109657D01*
X19401000Y12075315D01*
X19335110Y11961191D01*
X19335106Y11961182D01*
X19301000Y11833895D01*
X19301000Y11702106D01*
X19335106Y11574819D01*
X19335107Y11574816D01*
X19335108Y11574814D01*
X19401000Y11460686D01*
X19494186Y11367500D01*
X19608314Y11301608D01*
X19735605Y11267501D01*
X19735606Y11267500D01*
X19735608Y11267500D01*
X19867394Y11267500D01*
X19867394Y11267501D01*
X19994686Y11301608D01*
X20108814Y11367500D01*
X20202000Y11460686D01*
X20267892Y11574814D01*
X20301999Y11702106D01*
X20302000Y11702106D01*
X20302000Y11833894D01*
X20301999Y11833895D01*
X20296776Y11853386D01*
X20267892Y11961186D01*
X20202000Y12075314D01*
X20108814Y12168500D01*
X19994686Y12234392D01*
X19946623Y12247271D01*
X19941229Y12249687D01*
X19934421Y12256895D01*
X22037900Y12256895D01*
X22037900Y12125106D01*
X22072006Y11997819D01*
X22072010Y11997810D01*
X22137900Y11883686D01*
X22231086Y11790500D01*
X22345214Y11724608D01*
X22472505Y11690501D01*
X22472506Y11690500D01*
X22472508Y11690500D01*
X22604294Y11690500D01*
X22604294Y11690501D01*
X22731586Y11724608D01*
X22734162Y11726095D01*
X36061200Y11726095D01*
X36061200Y11594306D01*
X36095306Y11467019D01*
X36095307Y11467016D01*
X36095308Y11467014D01*
X36161200Y11352886D01*
X36254386Y11259700D01*
X36368514Y11193808D01*
X36495805Y11159701D01*
X36495806Y11159700D01*
X36495808Y11159700D01*
X36627594Y11159700D01*
X36627594Y11159701D01*
X36754886Y11193808D01*
X36869014Y11259700D01*
X36962200Y11352886D01*
X37028092Y11467014D01*
X37062199Y11594306D01*
X37062200Y11594306D01*
X37062200Y11726094D01*
X37062199Y11726095D01*
X37044941Y11790502D01*
X37028092Y11853386D01*
X36962200Y11967514D01*
X36869014Y12060700D01*
X36843700Y12075315D01*
X36754890Y12126590D01*
X36754881Y12126594D01*
X36627594Y12160700D01*
X36627592Y12160700D01*
X36495808Y12160700D01*
X36495806Y12160700D01*
X36368518Y12126594D01*
X36368509Y12126590D01*
X36254385Y12060700D01*
X36161200Y11967515D01*
X36095310Y11853391D01*
X36095306Y11853382D01*
X36061200Y11726095D01*
X22734162Y11726095D01*
X22845714Y11790500D01*
X22938900Y11883686D01*
X23004792Y11997814D01*
X23038899Y12125106D01*
X23038900Y12125106D01*
X23038900Y12256894D01*
X23038899Y12256895D01*
X23036378Y12266302D01*
X23004792Y12384186D01*
X22938900Y12498314D01*
X22845714Y12591500D01*
X22731590Y12657390D01*
X22731581Y12657394D01*
X22604294Y12691500D01*
X22604292Y12691500D01*
X22472508Y12691500D01*
X22472506Y12691500D01*
X22345218Y12657394D01*
X22345209Y12657390D01*
X22231085Y12591500D01*
X22137900Y12498315D01*
X22072010Y12384191D01*
X22072006Y12384182D01*
X22037900Y12256895D01*
X19934421Y12256895D01*
X19925535Y12266302D01*
X19907398Y12280219D01*
X19906589Y12286359D01*
X19902338Y12290860D01*
X19902989Y12313706D01*
X19900005Y12336372D01*
X19903824Y12342987D01*
X19903952Y12347474D01*
X19909369Y12352592D01*
X19919157Y12369544D01*
X19953500Y12403886D01*
X20019392Y12518014D01*
X20053499Y12645306D01*
X20053500Y12645306D01*
X20053500Y12777094D01*
X20053499Y12777095D01*
X20039026Y12831108D01*
X20021828Y12895295D01*
X40336900Y12895295D01*
X40336900Y12763506D01*
X40371006Y12636219D01*
X40371007Y12636216D01*
X40371008Y12636214D01*
X40436900Y12522086D01*
X40530086Y12428900D01*
X40644214Y12363008D01*
X40771505Y12328901D01*
X40771506Y12328900D01*
X40771508Y12328900D01*
X40903294Y12328900D01*
X40903294Y12328901D01*
X41030586Y12363008D01*
X41144714Y12428900D01*
X41237900Y12522086D01*
X41303792Y12636214D01*
X41337899Y12763506D01*
X41337900Y12763506D01*
X41337900Y12895294D01*
X41337899Y12895295D01*
X41303793Y13022582D01*
X41303792Y13022586D01*
X41237900Y13136714D01*
X41144714Y13229900D01*
X41141756Y13231608D01*
X41030590Y13295790D01*
X41030581Y13295794D01*
X41026959Y13296764D01*
X40903294Y13329900D01*
X40903292Y13329900D01*
X40771508Y13329900D01*
X40771506Y13329900D01*
X40644218Y13295794D01*
X40644209Y13295790D01*
X40530085Y13229900D01*
X40436900Y13136715D01*
X40371010Y13022591D01*
X40371006Y13022582D01*
X40336900Y12895295D01*
X20021828Y12895295D01*
X20019392Y12904386D01*
X19953500Y13018514D01*
X19860314Y13111700D01*
X19816987Y13136715D01*
X19746190Y13177590D01*
X19746181Y13177594D01*
X19618894Y13211700D01*
X19618892Y13211700D01*
X19487108Y13211700D01*
X19487106Y13211700D01*
X19359818Y13177594D01*
X19359809Y13177590D01*
X19245685Y13111700D01*
X19152500Y13018515D01*
X19086610Y12904391D01*
X19086606Y12904382D01*
X19052500Y12777095D01*
X250500Y12777095D01*
X250500Y13363395D01*
X41999500Y13363395D01*
X41999500Y13231606D01*
X42033606Y13104319D01*
X42033607Y13104316D01*
X42033608Y13104314D01*
X42099500Y12990186D01*
X42192686Y12897000D01*
X42306814Y12831108D01*
X42434105Y12797001D01*
X42434106Y12797000D01*
X42434108Y12797000D01*
X42565894Y12797000D01*
X42565894Y12797001D01*
X42693186Y12831108D01*
X42807314Y12897000D01*
X42900500Y12990186D01*
X42966392Y13104314D01*
X43000499Y13231606D01*
X43000500Y13231606D01*
X43000500Y13363394D01*
X43000499Y13363395D01*
X42966393Y13490682D01*
X42966392Y13490686D01*
X42900500Y13604814D01*
X42807314Y13698000D01*
X42785818Y13710411D01*
X42693190Y13763890D01*
X42693181Y13763894D01*
X42565894Y13798000D01*
X42565892Y13798000D01*
X42434108Y13798000D01*
X42434106Y13798000D01*
X42306818Y13763894D01*
X42306809Y13763890D01*
X42192685Y13698000D01*
X42099500Y13604815D01*
X42033610Y13490691D01*
X42033606Y13490682D01*
X41999500Y13363395D01*
X250500Y13363395D01*
X250500Y14885695D01*
X13161000Y14885695D01*
X13161000Y14753906D01*
X13195106Y14626619D01*
X13195110Y14626610D01*
X13257998Y14517686D01*
X13261000Y14512486D01*
X13354186Y14419300D01*
X13468314Y14353408D01*
X13595605Y14319301D01*
X13595606Y14319300D01*
X13595608Y14319300D01*
X13727394Y14319300D01*
X13727394Y14319301D01*
X13854686Y14353408D01*
X13968814Y14419300D01*
X14062000Y14512486D01*
X14088620Y14558595D01*
X27319700Y14558595D01*
X27319700Y14426806D01*
X27353806Y14299519D01*
X27353810Y14299510D01*
X27386613Y14242694D01*
X27419700Y14185386D01*
X27512886Y14092200D01*
X27627014Y14026308D01*
X27754305Y13992201D01*
X27754306Y13992200D01*
X27754308Y13992200D01*
X27886094Y13992200D01*
X27886094Y13992201D01*
X28013386Y14026308D01*
X28127514Y14092200D01*
X28220700Y14185386D01*
X28253787Y14242695D01*
X40496400Y14242695D01*
X40496400Y14110906D01*
X40530506Y13983619D01*
X40530507Y13983616D01*
X40530508Y13983614D01*
X40596400Y13869486D01*
X40689586Y13776300D01*
X40803714Y13710408D01*
X40931005Y13676301D01*
X40931006Y13676300D01*
X40931008Y13676300D01*
X41062794Y13676300D01*
X41062794Y13676301D01*
X41190086Y13710408D01*
X41304214Y13776300D01*
X41397400Y13869486D01*
X41463292Y13983614D01*
X41497399Y14110906D01*
X41497400Y14110906D01*
X41497400Y14242694D01*
X41497399Y14242695D01*
X41475479Y14324501D01*
X41463292Y14369986D01*
X41397400Y14484114D01*
X41304214Y14577300D01*
X41218800Y14626614D01*
X41190090Y14643190D01*
X41190081Y14643194D01*
X41062794Y14677300D01*
X41062792Y14677300D01*
X40931008Y14677300D01*
X40931006Y14677300D01*
X40803718Y14643194D01*
X40803709Y14643190D01*
X40689585Y14577300D01*
X40596400Y14484115D01*
X40530510Y14369991D01*
X40530506Y14369982D01*
X40496400Y14242695D01*
X28253787Y14242695D01*
X28286592Y14299514D01*
X28320699Y14426806D01*
X28320700Y14426806D01*
X28320700Y14558594D01*
X28320699Y14558595D01*
X28286593Y14685882D01*
X28286592Y14685886D01*
X28220700Y14800014D01*
X28127514Y14893200D01*
X28125136Y14894573D01*
X28013390Y14959090D01*
X28013381Y14959094D01*
X27886094Y14993200D01*
X27886092Y14993200D01*
X27754308Y14993200D01*
X27754306Y14993200D01*
X27627018Y14959094D01*
X27627009Y14959090D01*
X27512885Y14893200D01*
X27419700Y14800015D01*
X27353810Y14685891D01*
X27353806Y14685882D01*
X27319700Y14558595D01*
X14088620Y14558595D01*
X14097024Y14573151D01*
X14112782Y14600442D01*
X14118741Y14610765D01*
X14127892Y14626614D01*
X14161999Y14753906D01*
X14162000Y14753906D01*
X14162000Y14885694D01*
X14161999Y14885695D01*
X14160606Y14890892D01*
X14127892Y15012986D01*
X14062000Y15127114D01*
X13968814Y15220300D01*
X13886095Y15268058D01*
X13854690Y15286190D01*
X13854681Y15286194D01*
X13727394Y15320300D01*
X13727392Y15320300D01*
X13595608Y15320300D01*
X13595606Y15320300D01*
X13468318Y15286194D01*
X13468309Y15286190D01*
X13354185Y15220300D01*
X13261000Y15127115D01*
X13195110Y15012991D01*
X13195106Y15012982D01*
X13161000Y14885695D01*
X250500Y14885695D01*
X250500Y15651495D01*
X21276200Y15651495D01*
X21276200Y15519706D01*
X21310306Y15392419D01*
X21310310Y15392410D01*
X21329314Y15359495D01*
X21376200Y15278286D01*
X21469386Y15185100D01*
X21583514Y15119208D01*
X21710805Y15085101D01*
X21710806Y15085100D01*
X21710808Y15085100D01*
X21842594Y15085100D01*
X21842594Y15085101D01*
X21969886Y15119208D01*
X22084014Y15185100D01*
X22177200Y15278286D01*
X22243092Y15392414D01*
X22272829Y15503395D01*
X31887000Y15503395D01*
X31887000Y15371606D01*
X31921106Y15244319D01*
X31921110Y15244310D01*
X31955295Y15185101D01*
X31987000Y15130186D01*
X32080186Y15037000D01*
X32194314Y14971108D01*
X32321605Y14937001D01*
X32321606Y14937000D01*
X32321608Y14937000D01*
X32453394Y14937000D01*
X32453394Y14937001D01*
X32580686Y14971108D01*
X32694814Y15037000D01*
X32788000Y15130186D01*
X32853892Y15244314D01*
X32877035Y15330685D01*
X32878324Y15335495D01*
X35392200Y15335495D01*
X35392200Y15203706D01*
X35426306Y15076419D01*
X35426310Y15076410D01*
X35474352Y14993200D01*
X35492200Y14962286D01*
X35585386Y14869100D01*
X35699514Y14803208D01*
X35826805Y14769101D01*
X35826806Y14769100D01*
X35826808Y14769100D01*
X35958594Y14769100D01*
X35958594Y14769101D01*
X36085886Y14803208D01*
X36113500Y14819152D01*
X36169652Y14826544D01*
X36214586Y14792065D01*
X36222187Y14763694D01*
X36223867Y14763915D01*
X36224500Y14759106D01*
X36258606Y14631819D01*
X36258610Y14631810D01*
X36290082Y14577300D01*
X36324500Y14517686D01*
X36417686Y14424500D01*
X36531814Y14358608D01*
X36659105Y14324501D01*
X36659106Y14324500D01*
X36659108Y14324500D01*
X36790894Y14324500D01*
X36790894Y14324501D01*
X36918186Y14358608D01*
X37032314Y14424500D01*
X37125500Y14517686D01*
X37191392Y14631814D01*
X37225499Y14759106D01*
X37225500Y14759106D01*
X37225500Y14890894D01*
X37225499Y14890895D01*
X37224881Y14893200D01*
X37191392Y15018186D01*
X37125500Y15132314D01*
X37032314Y15225500D01*
X36945800Y15275449D01*
X36918190Y15291390D01*
X36918181Y15291394D01*
X36790894Y15325500D01*
X36790892Y15325500D01*
X36659108Y15325500D01*
X36659106Y15325500D01*
X36531818Y15291394D01*
X36531811Y15291391D01*
X36504199Y15275449D01*
X36448046Y15268058D01*
X36403113Y15302537D01*
X36395512Y15330907D01*
X36393833Y15330685D01*
X36393200Y15335488D01*
X36393200Y15335492D01*
X36359092Y15462786D01*
X36293200Y15576914D01*
X36200014Y15670100D01*
X36127786Y15711801D01*
X36085890Y15735990D01*
X36085881Y15735994D01*
X35958594Y15770100D01*
X35958592Y15770100D01*
X35826808Y15770100D01*
X35826806Y15770100D01*
X35699518Y15735994D01*
X35699509Y15735990D01*
X35585385Y15670100D01*
X35492200Y15576915D01*
X35426310Y15462791D01*
X35426306Y15462782D01*
X35392200Y15335495D01*
X32878324Y15335495D01*
X32884753Y15359488D01*
X32884754Y15359495D01*
X32887999Y15371606D01*
X32888000Y15371608D01*
X32888000Y15503392D01*
X32888000Y15503394D01*
X32887999Y15503395D01*
X32853893Y15630682D01*
X32853892Y15630686D01*
X32788000Y15744814D01*
X32694814Y15838000D01*
X32647323Y15865419D01*
X32580690Y15903890D01*
X32580681Y15903894D01*
X32453394Y15938000D01*
X32453392Y15938000D01*
X32321608Y15938000D01*
X32321606Y15938000D01*
X32194318Y15903894D01*
X32194309Y15903890D01*
X32080185Y15838000D01*
X31987000Y15744815D01*
X31921110Y15630691D01*
X31921106Y15630682D01*
X31887000Y15503395D01*
X22272829Y15503395D01*
X22277199Y15519706D01*
X22277200Y15519706D01*
X22277200Y15651494D01*
X22271530Y15672650D01*
X22266032Y15693172D01*
X22273424Y15749323D01*
X22318356Y15783802D01*
X22374509Y15776410D01*
X22389836Y15764650D01*
X22442686Y15711800D01*
X22556814Y15645908D01*
X22684105Y15611801D01*
X22684106Y15611800D01*
X22684108Y15611800D01*
X22815894Y15611800D01*
X22815894Y15611801D01*
X22943186Y15645908D01*
X23057314Y15711800D01*
X23150500Y15804986D01*
X23216392Y15919114D01*
X23250499Y16046406D01*
X23250500Y16046406D01*
X23250500Y16124495D01*
X24822000Y16124495D01*
X24822000Y15992706D01*
X24856106Y15865419D01*
X24856110Y15865410D01*
X24890996Y15804986D01*
X24922000Y15751286D01*
X25015186Y15658100D01*
X25129314Y15592208D01*
X25256605Y15558101D01*
X25256606Y15558100D01*
X25256608Y15558100D01*
X25388394Y15558100D01*
X25388394Y15558101D01*
X25434579Y15570476D01*
X25469081Y15579720D01*
X25492617Y15586027D01*
X25515686Y15592208D01*
X25629814Y15658100D01*
X25723000Y15751286D01*
X25788892Y15865414D01*
X25822999Y15992706D01*
X25823000Y15992706D01*
X25823000Y16124494D01*
X25822999Y16124495D01*
X25788893Y16251782D01*
X25788892Y16251786D01*
X25723000Y16365914D01*
X25629814Y16459100D01*
X25515690Y16524990D01*
X25515681Y16524994D01*
X25388394Y16559100D01*
X25388392Y16559100D01*
X25256608Y16559100D01*
X25256606Y16559100D01*
X25129318Y16524994D01*
X25129309Y16524990D01*
X25015185Y16459100D01*
X24922000Y16365915D01*
X24856110Y16251791D01*
X24856106Y16251782D01*
X24822000Y16124495D01*
X23250500Y16124495D01*
X23250500Y16178194D01*
X23250499Y16178195D01*
X23216393Y16305482D01*
X23216392Y16305486D01*
X23150500Y16419614D01*
X23057314Y16512800D01*
X23036197Y16524992D01*
X22943190Y16578690D01*
X22943181Y16578694D01*
X22815894Y16612800D01*
X22815892Y16612800D01*
X22684108Y16612800D01*
X22684106Y16612800D01*
X22556818Y16578694D01*
X22556809Y16578690D01*
X22442685Y16512800D01*
X22349500Y16419615D01*
X22283610Y16305491D01*
X22283606Y16305482D01*
X22249500Y16178195D01*
X22249500Y16046406D01*
X22260667Y16004730D01*
X22253275Y15948577D01*
X22208342Y15914099D01*
X22152189Y15921491D01*
X22136863Y15933251D01*
X22084014Y15986100D01*
X21969890Y16051990D01*
X21969881Y16051994D01*
X21842594Y16086100D01*
X21842592Y16086100D01*
X21710808Y16086100D01*
X21710806Y16086100D01*
X21583518Y16051994D01*
X21583509Y16051990D01*
X21469385Y15986100D01*
X21376200Y15892915D01*
X21310310Y15778791D01*
X21310306Y15778782D01*
X21276200Y15651495D01*
X250500Y15651495D01*
X250500Y17465895D01*
X39344500Y17465895D01*
X39344500Y17334106D01*
X39378606Y17206819D01*
X39378607Y17206816D01*
X39378608Y17206814D01*
X39444500Y17092686D01*
X39537686Y16999500D01*
X39651814Y16933608D01*
X39779105Y16899501D01*
X39779106Y16899500D01*
X39779108Y16899500D01*
X39910894Y16899500D01*
X39910894Y16899501D01*
X40038186Y16933608D01*
X40152314Y16999500D01*
X40245500Y17092686D01*
X40311392Y17206814D01*
X40345499Y17334106D01*
X40345500Y17334106D01*
X40345500Y17465894D01*
X40345499Y17465895D01*
X40311393Y17593182D01*
X40311392Y17593186D01*
X40245500Y17707314D01*
X40152314Y17800500D01*
X40038190Y17866390D01*
X40038181Y17866394D01*
X39910894Y17900500D01*
X39910892Y17900500D01*
X39779108Y17900500D01*
X39779106Y17900500D01*
X39651818Y17866394D01*
X39651809Y17866390D01*
X39537685Y17800500D01*
X39444500Y17707315D01*
X39378610Y17593191D01*
X39378606Y17593182D01*
X39344500Y17465895D01*
X250500Y17465895D01*
X250500Y19105595D01*
X29175200Y19105595D01*
X29175200Y18973806D01*
X29209306Y18846519D01*
X29209307Y18846516D01*
X29209308Y18846514D01*
X29275200Y18732386D01*
X29368386Y18639200D01*
X29482514Y18573308D01*
X29609805Y18539201D01*
X29609806Y18539200D01*
X29609808Y18539200D01*
X29741594Y18539200D01*
X29741594Y18539201D01*
X29868886Y18573308D01*
X29983014Y18639200D01*
X30076200Y18732386D01*
X30142092Y18846514D01*
X30176199Y18973806D01*
X30176200Y18973806D01*
X30176200Y19105594D01*
X30176199Y19105595D01*
X30142093Y19232882D01*
X30142092Y19232886D01*
X30076200Y19347014D01*
X29983014Y19440200D01*
X29978831Y19442615D01*
X29868890Y19506090D01*
X29868881Y19506094D01*
X29741594Y19540200D01*
X29741592Y19540200D01*
X29609808Y19540200D01*
X29609806Y19540200D01*
X29482518Y19506094D01*
X29482509Y19506090D01*
X29368385Y19440200D01*
X29275200Y19347015D01*
X29209310Y19232891D01*
X29209306Y19232882D01*
X29175200Y19105595D01*
X250500Y19105595D01*
X250500Y21314295D01*
X8999200Y21314295D01*
X8999200Y21182506D01*
X9033306Y21055219D01*
X9033307Y21055216D01*
X9033308Y21055214D01*
X9099200Y20941086D01*
X9192386Y20847900D01*
X9306514Y20782008D01*
X9433805Y20747901D01*
X9433806Y20747900D01*
X9433808Y20747900D01*
X9565594Y20747900D01*
X9565594Y20747901D01*
X9692886Y20782008D01*
X9807014Y20847900D01*
X9900200Y20941086D01*
X9966092Y21055214D01*
X10000199Y21182506D01*
X10000200Y21182506D01*
X10000200Y21223095D01*
X12244600Y21223095D01*
X12244600Y21091306D01*
X12278706Y20964019D01*
X12278710Y20964010D01*
X12333806Y20868582D01*
X12344600Y20849886D01*
X12437786Y20756700D01*
X12551914Y20690808D01*
X12679205Y20656701D01*
X12679206Y20656700D01*
X12679208Y20656700D01*
X12810994Y20656700D01*
X12810994Y20656701D01*
X12938286Y20690808D01*
X12939303Y20691395D01*
X17780300Y20691395D01*
X17780300Y20559606D01*
X17814406Y20432319D01*
X17814410Y20432310D01*
X17846228Y20377200D01*
X17880300Y20318186D01*
X17973486Y20225000D01*
X18087614Y20159108D01*
X18214905Y20125001D01*
X18214906Y20125000D01*
X18214908Y20125000D01*
X18346694Y20125000D01*
X18346694Y20125001D01*
X18473986Y20159108D01*
X18588114Y20225000D01*
X18681300Y20318186D01*
X18727147Y20397595D01*
X24699600Y20397595D01*
X24699600Y20265806D01*
X24733706Y20138519D01*
X24733710Y20138510D01*
X24795781Y20031000D01*
X24799600Y20024386D01*
X24892786Y19931200D01*
X25006914Y19865308D01*
X25134205Y19831201D01*
X25134206Y19831200D01*
X25134208Y19831200D01*
X25265994Y19831200D01*
X25265994Y19831201D01*
X25393286Y19865308D01*
X25507414Y19931200D01*
X25600600Y20024386D01*
X25664460Y20134995D01*
X30966000Y20134995D01*
X30966000Y20003206D01*
X31000106Y19875919D01*
X31000110Y19875910D01*
X31006231Y19865308D01*
X31066000Y19761786D01*
X31159186Y19668600D01*
X31273314Y19602708D01*
X31400605Y19568601D01*
X31400606Y19568600D01*
X31400608Y19568600D01*
X31532394Y19568600D01*
X31532394Y19568601D01*
X31659686Y19602708D01*
X31773814Y19668600D01*
X31801609Y19696395D01*
X32965500Y19696395D01*
X32965500Y19564606D01*
X32999606Y19437319D01*
X32999607Y19437316D01*
X32999608Y19437314D01*
X33065500Y19323186D01*
X33158686Y19230000D01*
X33272814Y19164108D01*
X33400105Y19130001D01*
X33400106Y19130000D01*
X33400108Y19130000D01*
X33531894Y19130000D01*
X33531894Y19130001D01*
X33659186Y19164108D01*
X33723422Y19201195D01*
X40757000Y19201195D01*
X40757000Y19069406D01*
X40791106Y18942119D01*
X40791107Y18942116D01*
X40791108Y18942114D01*
X40857000Y18827986D01*
X40950186Y18734800D01*
X41064314Y18668908D01*
X41191605Y18634801D01*
X41191606Y18634800D01*
X41191608Y18634800D01*
X41323394Y18634800D01*
X41323394Y18634801D01*
X41450686Y18668908D01*
X41564814Y18734800D01*
X41658000Y18827986D01*
X41723892Y18942114D01*
X41757999Y19069406D01*
X41758000Y19069406D01*
X41758000Y19201194D01*
X41757999Y19201195D01*
X41723893Y19328482D01*
X41723892Y19328486D01*
X41658000Y19442614D01*
X41564814Y19535800D01*
X41508001Y19568601D01*
X41450690Y19601690D01*
X41450681Y19601694D01*
X41323394Y19635800D01*
X41323392Y19635800D01*
X41191608Y19635800D01*
X41191606Y19635800D01*
X41064318Y19601694D01*
X41064309Y19601690D01*
X40950185Y19535800D01*
X40857000Y19442615D01*
X40791110Y19328491D01*
X40791106Y19328482D01*
X40757000Y19201195D01*
X33723422Y19201195D01*
X33773314Y19230000D01*
X33866500Y19323186D01*
X33932392Y19437314D01*
X33966499Y19564606D01*
X33966500Y19564606D01*
X33966500Y19696394D01*
X33966499Y19696395D01*
X33932393Y19823682D01*
X33932392Y19823686D01*
X33866500Y19937814D01*
X33773314Y20031000D01*
X33659190Y20096890D01*
X33659181Y20096894D01*
X33531894Y20131000D01*
X33531892Y20131000D01*
X33400108Y20131000D01*
X33400106Y20131000D01*
X33272818Y20096894D01*
X33272809Y20096890D01*
X33158685Y20031000D01*
X33065500Y19937815D01*
X32999610Y19823691D01*
X32999606Y19823682D01*
X32965500Y19696395D01*
X31801609Y19696395D01*
X31867000Y19761786D01*
X31932892Y19875914D01*
X31966999Y20003206D01*
X31967000Y20003206D01*
X31967000Y20134994D01*
X31966999Y20134995D01*
X31956306Y20174901D01*
X31932892Y20262286D01*
X31867000Y20376414D01*
X31773814Y20469600D01*
X31766619Y20473754D01*
X31659690Y20535490D01*
X31659681Y20535494D01*
X31532394Y20569600D01*
X31532392Y20569600D01*
X31400608Y20569600D01*
X31400606Y20569600D01*
X31273318Y20535494D01*
X31273309Y20535490D01*
X31159185Y20469600D01*
X31066000Y20376415D01*
X31000110Y20262291D01*
X31000106Y20262282D01*
X30966000Y20134995D01*
X25664460Y20134995D01*
X25666492Y20138514D01*
X25700599Y20265806D01*
X25700600Y20265806D01*
X25700600Y20397594D01*
X25700599Y20397595D01*
X25666493Y20524882D01*
X25666492Y20524886D01*
X25600600Y20639014D01*
X25507414Y20732200D01*
X25421146Y20782007D01*
X25393290Y20798090D01*
X25393281Y20798094D01*
X25265994Y20832200D01*
X25265992Y20832200D01*
X25134208Y20832200D01*
X25134206Y20832200D01*
X25006918Y20798094D01*
X25006909Y20798090D01*
X24892785Y20732200D01*
X24799600Y20639015D01*
X24733710Y20524891D01*
X24733706Y20524882D01*
X24699600Y20397595D01*
X18727147Y20397595D01*
X18747192Y20432314D01*
X18781299Y20559606D01*
X18781300Y20559606D01*
X18781300Y20691394D01*
X18781299Y20691395D01*
X18770365Y20732200D01*
X18747192Y20818686D01*
X18681300Y20932814D01*
X18670519Y20943595D01*
X33475800Y20943595D01*
X33475800Y20811806D01*
X33509906Y20684519D01*
X33509910Y20684510D01*
X33553213Y20609508D01*
X33575800Y20570386D01*
X33668986Y20477200D01*
X33783114Y20411308D01*
X33910405Y20377201D01*
X33910406Y20377200D01*
X33910408Y20377200D01*
X34042194Y20377200D01*
X34042194Y20377201D01*
X34169486Y20411308D01*
X34277645Y20473755D01*
X34333796Y20481147D01*
X34378730Y20446668D01*
X34418837Y20377201D01*
X34424100Y20368086D01*
X34517286Y20274900D01*
X34631414Y20209008D01*
X34758705Y20174901D01*
X34758706Y20174900D01*
X34758708Y20174900D01*
X34890494Y20174900D01*
X34890494Y20174901D01*
X35017786Y20209008D01*
X35131914Y20274900D01*
X35225100Y20368086D01*
X35290992Y20482214D01*
X35325099Y20609506D01*
X35325100Y20609506D01*
X35325100Y20741294D01*
X35325099Y20741295D01*
X35314190Y20782007D01*
X35290992Y20868586D01*
X35225100Y20982714D01*
X35131914Y21075900D01*
X35104212Y21091894D01*
X35017790Y21141790D01*
X35017781Y21141794D01*
X34890494Y21175900D01*
X34890492Y21175900D01*
X34758708Y21175900D01*
X34758706Y21175900D01*
X34631418Y21141794D01*
X34631409Y21141790D01*
X34523255Y21079347D01*
X34467102Y21071955D01*
X34422169Y21106433D01*
X34378248Y21182506D01*
X34376800Y21185014D01*
X34283614Y21278200D01*
X34221096Y21314295D01*
X34169490Y21344090D01*
X34169481Y21344094D01*
X34042194Y21378200D01*
X34042192Y21378200D01*
X33910408Y21378200D01*
X33910406Y21378200D01*
X33783118Y21344094D01*
X33783109Y21344090D01*
X33668985Y21278200D01*
X33575800Y21185015D01*
X33509910Y21070891D01*
X33509906Y21070882D01*
X33475800Y20943595D01*
X18670519Y20943595D01*
X18588114Y21026000D01*
X18537514Y21055214D01*
X18473990Y21091890D01*
X18473981Y21091894D01*
X18346694Y21126000D01*
X18346692Y21126000D01*
X18214908Y21126000D01*
X18214906Y21126000D01*
X18087618Y21091894D01*
X18087609Y21091890D01*
X17973485Y21026000D01*
X17880300Y20932815D01*
X17814410Y20818691D01*
X17814406Y20818682D01*
X17780300Y20691395D01*
X12939303Y20691395D01*
X13052414Y20756700D01*
X13145600Y20849886D01*
X13211492Y20964014D01*
X13245599Y21091306D01*
X13245600Y21091306D01*
X13245600Y21223094D01*
X13245599Y21223095D01*
X13211493Y21350382D01*
X13211492Y21350386D01*
X13145600Y21464514D01*
X13052414Y21557700D01*
X12955939Y21613400D01*
X12938290Y21623590D01*
X12938281Y21623594D01*
X12810994Y21657700D01*
X12810992Y21657700D01*
X12679208Y21657700D01*
X12679206Y21657700D01*
X12551918Y21623594D01*
X12551909Y21623590D01*
X12437785Y21557700D01*
X12344600Y21464515D01*
X12278710Y21350391D01*
X12278706Y21350382D01*
X12244600Y21223095D01*
X10000200Y21223095D01*
X10000200Y21314294D01*
X10000199Y21314295D01*
X9992214Y21344094D01*
X9966092Y21441586D01*
X9900200Y21555714D01*
X9807014Y21648900D01*
X9791772Y21657700D01*
X9692890Y21714790D01*
X9692881Y21714794D01*
X9565594Y21748900D01*
X9565592Y21748900D01*
X9433808Y21748900D01*
X9433806Y21748900D01*
X9306518Y21714794D01*
X9306509Y21714790D01*
X9192385Y21648900D01*
X9099200Y21555715D01*
X9033310Y21441591D01*
X9033306Y21441582D01*
X8999200Y21314295D01*
X250500Y21314295D01*
X250500Y22079795D01*
X24964800Y22079795D01*
X24964800Y21948006D01*
X24998906Y21820719D01*
X24998907Y21820716D01*
X24998908Y21820714D01*
X25064800Y21706586D01*
X25157986Y21613400D01*
X25272114Y21547508D01*
X25399405Y21513401D01*
X25399406Y21513400D01*
X25399408Y21513400D01*
X25531194Y21513400D01*
X25531194Y21513401D01*
X25658486Y21547508D01*
X25772614Y21613400D01*
X25865800Y21706586D01*
X25931692Y21820714D01*
X25965799Y21948006D01*
X25965800Y21948006D01*
X25965800Y22079794D01*
X25965799Y22079795D01*
X25931693Y22207082D01*
X25931692Y22207086D01*
X25865800Y22321214D01*
X25772614Y22414400D01*
X25658490Y22480290D01*
X25658481Y22480294D01*
X25531194Y22514400D01*
X25531192Y22514400D01*
X25399408Y22514400D01*
X25399406Y22514400D01*
X25272118Y22480294D01*
X25272109Y22480290D01*
X25157985Y22414400D01*
X25064800Y22321215D01*
X24998910Y22207091D01*
X24998906Y22207082D01*
X24964800Y22079795D01*
X250500Y22079795D01*
X250500Y23103095D01*
X8359300Y23103095D01*
X8359300Y22971306D01*
X8393406Y22844019D01*
X8393410Y22844010D01*
X8459300Y22729886D01*
X8552486Y22636700D01*
X8666614Y22570808D01*
X8793905Y22536701D01*
X8793906Y22536700D01*
X8793908Y22536700D01*
X8925694Y22536700D01*
X8925694Y22536701D01*
X9052986Y22570808D01*
X9167114Y22636700D01*
X9260300Y22729886D01*
X9326192Y22844014D01*
X9360299Y22971306D01*
X9360300Y22971306D01*
X9360300Y23103094D01*
X9360299Y23103095D01*
X9346687Y23153895D01*
X36672300Y23153895D01*
X36672300Y23022106D01*
X36706406Y22894819D01*
X36706410Y22894810D01*
X36735737Y22844014D01*
X36772300Y22780686D01*
X36865486Y22687500D01*
X36979614Y22621608D01*
X37106905Y22587501D01*
X37106906Y22587500D01*
X37106908Y22587500D01*
X37238694Y22587500D01*
X37238694Y22587501D01*
X37365986Y22621608D01*
X37480114Y22687500D01*
X37573300Y22780686D01*
X37639192Y22894814D01*
X37673299Y23022106D01*
X37673300Y23022106D01*
X37673300Y23153894D01*
X37673299Y23153895D01*
X37639193Y23281182D01*
X37639192Y23281186D01*
X37627197Y23301962D01*
X37619803Y23358114D01*
X37654281Y23403048D01*
X37710433Y23410442D01*
X37728282Y23403049D01*
X37753448Y23388520D01*
X37790014Y23367408D01*
X37917305Y23333301D01*
X37917306Y23333300D01*
X37917308Y23333300D01*
X38049094Y23333300D01*
X38049094Y23333301D01*
X38176386Y23367408D01*
X38290514Y23433300D01*
X38383700Y23526486D01*
X38449592Y23640614D01*
X38483699Y23767906D01*
X38483700Y23767906D01*
X38483700Y23778195D01*
X40869500Y23778195D01*
X40869500Y23646406D01*
X40903606Y23519119D01*
X40903610Y23519110D01*
X40953152Y23433301D01*
X40969500Y23404986D01*
X41062686Y23311800D01*
X41176814Y23245908D01*
X41304105Y23211801D01*
X41304106Y23211800D01*
X41304108Y23211800D01*
X41435894Y23211800D01*
X41435894Y23211801D01*
X41563186Y23245908D01*
X41677314Y23311800D01*
X41770500Y23404986D01*
X41836392Y23519114D01*
X41870499Y23646406D01*
X41870500Y23646406D01*
X41870500Y23778194D01*
X41870499Y23778195D01*
X41840405Y23890507D01*
X41836392Y23905486D01*
X41770500Y24019614D01*
X41677314Y24112800D01*
X41589120Y24163719D01*
X41563190Y24178690D01*
X41563181Y24178694D01*
X41435894Y24212800D01*
X41435892Y24212800D01*
X41304108Y24212800D01*
X41304106Y24212800D01*
X41176818Y24178694D01*
X41176809Y24178690D01*
X41062685Y24112800D01*
X40969500Y24019615D01*
X40903610Y23905491D01*
X40903606Y23905482D01*
X40869500Y23778195D01*
X38483700Y23778195D01*
X38483700Y23899694D01*
X38483699Y23899695D01*
X38482148Y23905482D01*
X38449592Y24026986D01*
X38383700Y24141114D01*
X38290514Y24234300D01*
X38192297Y24291006D01*
X38176390Y24300190D01*
X38176381Y24300194D01*
X38049094Y24334300D01*
X38049092Y24334300D01*
X37917308Y24334300D01*
X37917306Y24334300D01*
X37790018Y24300194D01*
X37790009Y24300190D01*
X37675885Y24234300D01*
X37582700Y24141115D01*
X37516810Y24026991D01*
X37516806Y24026982D01*
X37482700Y23899695D01*
X37482700Y23767906D01*
X37516806Y23640619D01*
X37516810Y23640610D01*
X37528803Y23619838D01*
X37536196Y23563686D01*
X37501717Y23518752D01*
X37445565Y23511359D01*
X37427717Y23518752D01*
X37365990Y23554390D01*
X37365981Y23554394D01*
X37238694Y23588500D01*
X37238692Y23588500D01*
X37106908Y23588500D01*
X37106906Y23588500D01*
X36979618Y23554394D01*
X36979609Y23554390D01*
X36865485Y23488500D01*
X36772300Y23395315D01*
X36706410Y23281191D01*
X36706406Y23281182D01*
X36672300Y23153895D01*
X9346687Y23153895D01*
X9326192Y23230386D01*
X9260300Y23344514D01*
X9167114Y23437700D01*
X9149780Y23447708D01*
X9052990Y23503590D01*
X9052981Y23503594D01*
X8925694Y23537700D01*
X8925692Y23537700D01*
X8793908Y23537700D01*
X8793906Y23537700D01*
X8666618Y23503594D01*
X8666609Y23503590D01*
X8552485Y23437700D01*
X8459300Y23344515D01*
X8393410Y23230391D01*
X8393406Y23230382D01*
X8359300Y23103095D01*
X250500Y23103095D01*
X250500Y24422795D01*
X12307400Y24422795D01*
X12307400Y24291006D01*
X12341506Y24163719D01*
X12341510Y24163710D01*
X12354556Y24141114D01*
X12407400Y24049586D01*
X12500586Y23956400D01*
X12614714Y23890508D01*
X12742005Y23856401D01*
X12742006Y23856400D01*
X12742008Y23856400D01*
X12873794Y23856400D01*
X12873794Y23856401D01*
X13001086Y23890508D01*
X13115214Y23956400D01*
X13138809Y23979995D01*
X17762000Y23979995D01*
X17762000Y23848206D01*
X17796106Y23720919D01*
X17796107Y23720916D01*
X17796108Y23720914D01*
X17862000Y23606786D01*
X17955186Y23513600D01*
X18069314Y23447708D01*
X18196605Y23413601D01*
X18196606Y23413600D01*
X18196608Y23413600D01*
X18328394Y23413600D01*
X18328394Y23413601D01*
X18455686Y23447708D01*
X18569814Y23513600D01*
X18663000Y23606786D01*
X18728892Y23720914D01*
X18762999Y23848206D01*
X18763000Y23848206D01*
X18763000Y23979994D01*
X18762999Y23979995D01*
X18744352Y24049586D01*
X18728892Y24107286D01*
X18663000Y24221414D01*
X18569814Y24314600D01*
X18567571Y24315895D01*
X28606500Y24315895D01*
X28606500Y24184106D01*
X28640606Y24056819D01*
X28640610Y24056810D01*
X28684960Y23979994D01*
X28706500Y23942686D01*
X28799686Y23849500D01*
X28913814Y23783608D01*
X29041105Y23749501D01*
X29041106Y23749500D01*
X29041108Y23749500D01*
X29172894Y23749500D01*
X29172894Y23749501D01*
X29300186Y23783608D01*
X29414314Y23849500D01*
X29507500Y23942686D01*
X29573392Y24056814D01*
X29607499Y24184106D01*
X29607500Y24184106D01*
X29607500Y24199195D01*
X30143200Y24199195D01*
X30143200Y24067406D01*
X30177306Y23940119D01*
X30177310Y23940110D01*
X30200646Y23899692D01*
X30243200Y23825986D01*
X30336386Y23732800D01*
X30450514Y23666908D01*
X30577805Y23632801D01*
X30577806Y23632800D01*
X30577808Y23632800D01*
X30709594Y23632800D01*
X30709594Y23632801D01*
X30836886Y23666908D01*
X30951014Y23732800D01*
X31044200Y23825986D01*
X31110092Y23940114D01*
X31144199Y24067406D01*
X31144200Y24067406D01*
X31144200Y24199194D01*
X31144199Y24199195D01*
X31119573Y24291100D01*
X31110092Y24326486D01*
X31044200Y24440614D01*
X30951014Y24533800D01*
X30895067Y24566101D01*
X30836890Y24599690D01*
X30836881Y24599694D01*
X30709594Y24633800D01*
X30709592Y24633800D01*
X30577808Y24633800D01*
X30577806Y24633800D01*
X30450518Y24599694D01*
X30450509Y24599690D01*
X30336385Y24533800D01*
X30243200Y24440615D01*
X30177310Y24326491D01*
X30177306Y24326482D01*
X30143200Y24199195D01*
X29607500Y24199195D01*
X29607500Y24315892D01*
X29592212Y24372948D01*
X29599605Y24429100D01*
X29644539Y24463579D01*
X29663691Y24466100D01*
X29796594Y24466100D01*
X29796594Y24466101D01*
X29923886Y24500208D01*
X30038014Y24566100D01*
X30131200Y24659286D01*
X30197092Y24773414D01*
X30231199Y24900706D01*
X30231200Y24900706D01*
X30231200Y25032494D01*
X30231199Y25032495D01*
X30224681Y25056819D01*
X30197092Y25159786D01*
X30178435Y25192100D01*
X30176071Y25196195D01*
X30892900Y25196195D01*
X30892900Y25064406D01*
X30927006Y24937119D01*
X30927010Y24937110D01*
X30977592Y24849500D01*
X30992900Y24822986D01*
X31086086Y24729800D01*
X31200214Y24663908D01*
X31327505Y24629801D01*
X31327506Y24629800D01*
X31327508Y24629800D01*
X31459294Y24629800D01*
X31459294Y24629801D01*
X31586586Y24663908D01*
X31700714Y24729800D01*
X31793900Y24822986D01*
X31813824Y24857495D01*
X33036100Y24857495D01*
X33036100Y24725706D01*
X33070206Y24598419D01*
X33070210Y24598410D01*
X33107513Y24533800D01*
X33136100Y24484286D01*
X33229286Y24391100D01*
X33343414Y24325208D01*
X33470705Y24291101D01*
X33470706Y24291100D01*
X33470708Y24291100D01*
X33602494Y24291100D01*
X33602494Y24291101D01*
X33729786Y24325208D01*
X33843914Y24391100D01*
X33937100Y24484286D01*
X34002992Y24598414D01*
X34037099Y24725706D01*
X34037100Y24725706D01*
X34037100Y24857494D01*
X34037099Y24857495D01*
X34015765Y24937114D01*
X34002992Y24984786D01*
X33937100Y25098914D01*
X33843914Y25192100D01*
X33836821Y25196195D01*
X33729790Y25257990D01*
X33729781Y25257994D01*
X33602494Y25292100D01*
X33602492Y25292100D01*
X33470708Y25292100D01*
X33470706Y25292100D01*
X33343418Y25257994D01*
X33343409Y25257990D01*
X33229285Y25192100D01*
X33136100Y25098915D01*
X33070210Y24984791D01*
X33070206Y24984782D01*
X33036100Y24857495D01*
X31813824Y24857495D01*
X31859792Y24937114D01*
X31893899Y25064406D01*
X31893900Y25064406D01*
X31893900Y25196194D01*
X31893899Y25196195D01*
X31859793Y25323482D01*
X31859792Y25323486D01*
X31793900Y25437614D01*
X31700714Y25530800D01*
X31654789Y25557315D01*
X31586590Y25596690D01*
X31586581Y25596694D01*
X31459294Y25630800D01*
X31459292Y25630800D01*
X31327508Y25630800D01*
X31327506Y25630800D01*
X31200218Y25596694D01*
X31200209Y25596690D01*
X31086085Y25530800D01*
X30992900Y25437615D01*
X30927010Y25323491D01*
X30927006Y25323482D01*
X30892900Y25196195D01*
X30176071Y25196195D01*
X30173643Y25200401D01*
X30131200Y25273914D01*
X30038014Y25367100D01*
X29923890Y25432990D01*
X29923881Y25432994D01*
X29796594Y25467100D01*
X29796592Y25467100D01*
X29664808Y25467100D01*
X29664806Y25467100D01*
X29537518Y25432994D01*
X29537509Y25432990D01*
X29423385Y25367100D01*
X29330200Y25273915D01*
X29264310Y25159791D01*
X29264306Y25159782D01*
X29230200Y25032495D01*
X29230200Y24900709D01*
X29245488Y24843652D01*
X29238095Y24787500D01*
X29193161Y24753021D01*
X29174009Y24750500D01*
X29041106Y24750500D01*
X28913818Y24716394D01*
X28913809Y24716390D01*
X28799685Y24650500D01*
X28706500Y24557315D01*
X28640610Y24443191D01*
X28640606Y24443182D01*
X28606500Y24315895D01*
X18567571Y24315895D01*
X18551442Y24325207D01*
X18455690Y24380490D01*
X18455681Y24380494D01*
X18328394Y24414600D01*
X18328392Y24414600D01*
X18196608Y24414600D01*
X18196606Y24414600D01*
X18069318Y24380494D01*
X18069309Y24380490D01*
X17955185Y24314600D01*
X17862000Y24221415D01*
X17796110Y24107291D01*
X17796106Y24107282D01*
X17762000Y23979995D01*
X13138809Y23979995D01*
X13208400Y24049586D01*
X13274292Y24163714D01*
X13308399Y24291006D01*
X13308400Y24291006D01*
X13308400Y24422794D01*
X13308399Y24422795D01*
X13303624Y24440614D01*
X13274292Y24550086D01*
X13208400Y24664214D01*
X13115214Y24757400D01*
X13069821Y24783608D01*
X13001090Y24823290D01*
X13001081Y24823294D01*
X12873794Y24857400D01*
X12873792Y24857400D01*
X12742008Y24857400D01*
X12742006Y24857400D01*
X12614718Y24823294D01*
X12614709Y24823290D01*
X12500585Y24757400D01*
X12407400Y24664215D01*
X12341510Y24550091D01*
X12341506Y24550082D01*
X12307400Y24422795D01*
X250500Y24422795D01*
X250500Y25315895D01*
X13140600Y25315895D01*
X13140600Y25184106D01*
X13174706Y25056819D01*
X13174710Y25056810D01*
X13216293Y24984786D01*
X13240600Y24942686D01*
X13333786Y24849500D01*
X13447914Y24783608D01*
X13575205Y24749501D01*
X13575206Y24749500D01*
X13575208Y24749500D01*
X13706994Y24749500D01*
X13706994Y24749501D01*
X13834286Y24783608D01*
X13948414Y24849500D01*
X14041600Y24942686D01*
X14107492Y25056814D01*
X14141599Y25184106D01*
X14141600Y25184106D01*
X14141600Y25315894D01*
X14141599Y25315895D01*
X14107493Y25443182D01*
X14107492Y25443186D01*
X14041600Y25557314D01*
X13948414Y25650500D01*
X13834290Y25716390D01*
X13834281Y25716394D01*
X13706994Y25750500D01*
X13706992Y25750500D01*
X13575208Y25750500D01*
X13575206Y25750500D01*
X13447918Y25716394D01*
X13447909Y25716390D01*
X13333785Y25650500D01*
X13240600Y25557315D01*
X13174710Y25443191D01*
X13174706Y25443182D01*
X13140600Y25315895D01*
X250500Y25315895D01*
X250500Y26577795D01*
X38463900Y26577795D01*
X38463900Y26446006D01*
X38498006Y26318719D01*
X38498007Y26318716D01*
X38498008Y26318714D01*
X38563900Y26204586D01*
X38657086Y26111400D01*
X38771214Y26045508D01*
X38898505Y26011401D01*
X38898506Y26011400D01*
X38898508Y26011400D01*
X39030294Y26011400D01*
X39030294Y26011401D01*
X39157586Y26045508D01*
X39271714Y26111400D01*
X39364900Y26204586D01*
X39430792Y26318714D01*
X39464899Y26446006D01*
X39464900Y26446006D01*
X39464900Y26577794D01*
X39464899Y26577795D01*
X39430793Y26705082D01*
X39430792Y26705086D01*
X39364900Y26819214D01*
X39271714Y26912400D01*
X39207263Y26949611D01*
X39157590Y26978290D01*
X39157581Y26978294D01*
X39030294Y27012400D01*
X39030292Y27012400D01*
X38898508Y27012400D01*
X38898506Y27012400D01*
X38771218Y26978294D01*
X38771209Y26978290D01*
X38657085Y26912400D01*
X38563900Y26819215D01*
X38498010Y26705091D01*
X38498006Y26705082D01*
X38463900Y26577795D01*
X250500Y26577795D01*
X250500Y27583695D01*
X12946200Y27583695D01*
X12946200Y27451906D01*
X12980306Y27324619D01*
X12980310Y27324610D01*
X13039082Y27222814D01*
X13046200Y27210486D01*
X13139386Y27117300D01*
X13253514Y27051408D01*
X13380805Y27017301D01*
X13380806Y27017300D01*
X13380808Y27017300D01*
X13512594Y27017300D01*
X13512594Y27017301D01*
X13639886Y27051408D01*
X13754014Y27117300D01*
X13847200Y27210486D01*
X13913092Y27324614D01*
X13947199Y27451906D01*
X13947200Y27451906D01*
X13947200Y27481895D01*
X18700300Y27481895D01*
X18700300Y27350106D01*
X18734406Y27222819D01*
X18734410Y27222810D01*
X18795326Y27117301D01*
X18800300Y27108686D01*
X18893486Y27015500D01*
X19007614Y26949608D01*
X19134905Y26915501D01*
X19134906Y26915500D01*
X19134908Y26915500D01*
X19266694Y26915500D01*
X19266694Y26915501D01*
X19393986Y26949608D01*
X19508114Y27015500D01*
X19601300Y27108686D01*
X19667192Y27222814D01*
X19701299Y27350106D01*
X19701300Y27350106D01*
X19701300Y27481894D01*
X19701299Y27481895D01*
X19667193Y27609182D01*
X19667192Y27609186D01*
X19601300Y27723314D01*
X19508114Y27816500D01*
X19463235Y27842411D01*
X19393990Y27882390D01*
X19393981Y27882394D01*
X19266694Y27916500D01*
X19266692Y27916500D01*
X19134908Y27916500D01*
X19134906Y27916500D01*
X19007618Y27882394D01*
X19007609Y27882390D01*
X18893485Y27816500D01*
X18800300Y27723315D01*
X18734410Y27609191D01*
X18734406Y27609182D01*
X18700300Y27481895D01*
X13947200Y27481895D01*
X13947200Y27583694D01*
X13947199Y27583695D01*
X13940367Y27609191D01*
X13913092Y27710986D01*
X13889801Y27751326D01*
X13882409Y27807477D01*
X13916888Y27852411D01*
X13973040Y27859804D01*
X13990889Y27852411D01*
X14008214Y27842408D01*
X14135505Y27808301D01*
X14135506Y27808300D01*
X14135508Y27808300D01*
X14267294Y27808300D01*
X14267294Y27808301D01*
X14394586Y27842408D01*
X14508714Y27908300D01*
X14601900Y28001486D01*
X14667792Y28115614D01*
X14690133Y28198992D01*
X14690134Y28198995D01*
X34750100Y28198995D01*
X34750100Y28067206D01*
X34784206Y27939919D01*
X34784210Y27939910D01*
X34840503Y27842408D01*
X34850100Y27825786D01*
X34943286Y27732600D01*
X35057414Y27666708D01*
X35184705Y27632601D01*
X35184706Y27632600D01*
X35184708Y27632600D01*
X35316494Y27632600D01*
X35316494Y27632601D01*
X35443786Y27666708D01*
X35557914Y27732600D01*
X35651100Y27825786D01*
X35716992Y27939914D01*
X35751099Y28067206D01*
X35751100Y28067206D01*
X35751100Y28198994D01*
X35751099Y28198995D01*
X35737382Y28250189D01*
X35737381Y28250190D01*
X35733548Y28264495D01*
X40186800Y28264495D01*
X40186800Y28132706D01*
X40220906Y28005419D01*
X40220910Y28005410D01*
X40258727Y27939910D01*
X40286800Y27891286D01*
X40379986Y27798100D01*
X40494114Y27732208D01*
X40621405Y27698101D01*
X40621406Y27698100D01*
X40621408Y27698100D01*
X40753194Y27698100D01*
X40753194Y27698101D01*
X40880486Y27732208D01*
X40994614Y27798100D01*
X41087800Y27891286D01*
X41153692Y28005414D01*
X41187799Y28132706D01*
X41187800Y28132706D01*
X41187800Y28264494D01*
X41187799Y28264495D01*
X41171243Y28326282D01*
X41153692Y28391786D01*
X41087800Y28505914D01*
X40994614Y28599100D01*
X40965143Y28616115D01*
X40880490Y28664990D01*
X40880481Y28664994D01*
X40753194Y28699100D01*
X40753192Y28699100D01*
X40621408Y28699100D01*
X40621406Y28699100D01*
X40494118Y28664994D01*
X40494109Y28664990D01*
X40379985Y28599100D01*
X40286800Y28505915D01*
X40220910Y28391791D01*
X40220906Y28391782D01*
X40186800Y28264495D01*
X35733548Y28264495D01*
X35716992Y28326286D01*
X35651100Y28440414D01*
X35557914Y28533600D01*
X35444465Y28599100D01*
X35443790Y28599490D01*
X35443781Y28599494D01*
X35316494Y28633600D01*
X35316492Y28633600D01*
X35184708Y28633600D01*
X35184706Y28633600D01*
X35057418Y28599494D01*
X35057409Y28599490D01*
X34943285Y28533600D01*
X34850100Y28440415D01*
X34784210Y28326291D01*
X34784206Y28326282D01*
X34750100Y28198995D01*
X14690134Y28198995D01*
X14696563Y28222988D01*
X14696564Y28222995D01*
X14701899Y28242906D01*
X14701900Y28242908D01*
X14701900Y28374692D01*
X14701900Y28374694D01*
X14701899Y28374695D01*
X14667793Y28501982D01*
X14667792Y28501986D01*
X14601900Y28616114D01*
X14508714Y28709300D01*
X14394590Y28775190D01*
X14394581Y28775194D01*
X14267294Y28809300D01*
X14267292Y28809300D01*
X14135508Y28809300D01*
X14135506Y28809300D01*
X14008218Y28775194D01*
X14008209Y28775190D01*
X13894085Y28709300D01*
X13800900Y28616115D01*
X13735010Y28501991D01*
X13735006Y28501982D01*
X13700900Y28374695D01*
X13700900Y28242906D01*
X13735006Y28115619D01*
X13735010Y28115610D01*
X13758297Y28075276D01*
X13765690Y28019123D01*
X13731211Y27974190D01*
X13675058Y27966797D01*
X13657212Y27974190D01*
X13639894Y27984189D01*
X13639881Y27984194D01*
X13512594Y28018300D01*
X13512592Y28018300D01*
X13380808Y28018300D01*
X13380806Y28018300D01*
X13253518Y27984194D01*
X13253509Y27984190D01*
X13139385Y27918300D01*
X13046200Y27825115D01*
X12980310Y27710991D01*
X12980306Y27710982D01*
X12946200Y27583695D01*
X250500Y27583695D01*
X250500Y29940895D01*
X17649500Y29940895D01*
X17649500Y29809106D01*
X17683606Y29681819D01*
X17683610Y29681810D01*
X17701868Y29650186D01*
X17749500Y29567686D01*
X17842686Y29474500D01*
X17956814Y29408608D01*
X18084105Y29374501D01*
X18084106Y29374500D01*
X18084108Y29374500D01*
X18215894Y29374500D01*
X18215894Y29374501D01*
X18343186Y29408608D01*
X18457314Y29474500D01*
X18550500Y29567686D01*
X18616392Y29681814D01*
X18650499Y29809106D01*
X18650500Y29809106D01*
X18650500Y29940894D01*
X18650499Y29940895D01*
X18634528Y30000500D01*
X18628393Y30023395D01*
X20680800Y30023395D01*
X20680800Y29891606D01*
X20714906Y29764319D01*
X20714910Y29764310D01*
X20762542Y29681810D01*
X20780800Y29650186D01*
X20873986Y29557000D01*
X20988114Y29491108D01*
X21115405Y29457001D01*
X21115406Y29457000D01*
X21115408Y29457000D01*
X21247194Y29457000D01*
X21247194Y29457001D01*
X21374486Y29491108D01*
X21488614Y29557000D01*
X21581800Y29650186D01*
X21647692Y29764314D01*
X21681799Y29891606D01*
X21681800Y29891606D01*
X21681800Y30023394D01*
X21681799Y30023395D01*
X21669797Y30068186D01*
X21647692Y30150686D01*
X21581800Y30264814D01*
X21488614Y30358000D01*
X21458303Y30375500D01*
X21374490Y30423890D01*
X21374481Y30423894D01*
X21247194Y30458000D01*
X21247192Y30458000D01*
X21115408Y30458000D01*
X21115406Y30458000D01*
X20988118Y30423894D01*
X20988109Y30423890D01*
X20873985Y30358000D01*
X20780800Y30264815D01*
X20714910Y30150691D01*
X20714906Y30150682D01*
X20680800Y30023395D01*
X18628393Y30023395D01*
X18616392Y30068186D01*
X18550500Y30182314D01*
X18457314Y30275500D01*
X18343190Y30341390D01*
X18343181Y30341394D01*
X18215894Y30375500D01*
X18215892Y30375500D01*
X18084108Y30375500D01*
X18084106Y30375500D01*
X17956818Y30341394D01*
X17956809Y30341390D01*
X17842685Y30275500D01*
X17749500Y30182315D01*
X17683610Y30068191D01*
X17683606Y30068182D01*
X17649500Y29940895D01*
X250500Y29940895D01*
X250500Y30590895D01*
X31817500Y30590895D01*
X31817500Y30459106D01*
X31851606Y30331819D01*
X31851610Y30331810D01*
X31917500Y30217686D01*
X32010686Y30124500D01*
X32124814Y30058608D01*
X32252105Y30024501D01*
X32252106Y30024500D01*
X32252108Y30024500D01*
X32383894Y30024500D01*
X32383894Y30024501D01*
X32511186Y30058608D01*
X32625314Y30124500D01*
X32718500Y30217686D01*
X32784392Y30331814D01*
X32818499Y30459106D01*
X32818500Y30459106D01*
X32818500Y30590894D01*
X32818499Y30590895D01*
X32784393Y30718182D01*
X32784392Y30718186D01*
X32718500Y30832314D01*
X32625314Y30925500D01*
X32553150Y30967164D01*
X32511190Y30991390D01*
X32511181Y30991394D01*
X32383894Y31025500D01*
X32383892Y31025500D01*
X32252108Y31025500D01*
X32252106Y31025500D01*
X32124818Y30991394D01*
X32124809Y30991390D01*
X32010685Y30925500D01*
X31917500Y30832315D01*
X31851610Y30718191D01*
X31851606Y30718182D01*
X31817500Y30590895D01*
X250500Y30590895D01*
X250500Y33205895D01*
X19899400Y33205895D01*
X19899400Y33074106D01*
X19933506Y32946819D01*
X19933507Y32946816D01*
X19933508Y32946814D01*
X19999400Y32832686D01*
X20092586Y32739500D01*
X20206714Y32673608D01*
X20334005Y32639501D01*
X20334006Y32639500D01*
X20334008Y32639500D01*
X20465794Y32639500D01*
X20465794Y32639501D01*
X20593086Y32673608D01*
X20707214Y32739500D01*
X20800400Y32832686D01*
X20819573Y32865895D01*
X38058600Y32865895D01*
X38058600Y32734106D01*
X38092706Y32606819D01*
X38092707Y32606816D01*
X38092708Y32606814D01*
X38158600Y32492686D01*
X38251786Y32399500D01*
X38365914Y32333608D01*
X38493205Y32299501D01*
X38493206Y32299500D01*
X38493208Y32299500D01*
X38624994Y32299500D01*
X38624994Y32299501D01*
X38752286Y32333608D01*
X38866414Y32399500D01*
X38959600Y32492686D01*
X39025492Y32606814D01*
X39059599Y32734106D01*
X39059600Y32734106D01*
X39059600Y32865894D01*
X39059599Y32865895D01*
X39052420Y32892686D01*
X39025492Y32993186D01*
X38959600Y33107314D01*
X38866414Y33200500D01*
X38857070Y33205895D01*
X38752290Y33266390D01*
X38752281Y33266394D01*
X38624994Y33300500D01*
X38624992Y33300500D01*
X38493208Y33300500D01*
X38493206Y33300500D01*
X38365918Y33266394D01*
X38365909Y33266390D01*
X38251785Y33200500D01*
X38158600Y33107315D01*
X38092710Y32993191D01*
X38092706Y32993182D01*
X38058600Y32865895D01*
X20819573Y32865895D01*
X20866292Y32946814D01*
X20900399Y33074106D01*
X20900400Y33074106D01*
X20900400Y33205894D01*
X20900399Y33205895D01*
X20866293Y33333182D01*
X20866292Y33333186D01*
X20800400Y33447314D01*
X20707214Y33540500D01*
X20675171Y33559000D01*
X20663229Y33565895D01*
X35824500Y33565895D01*
X35824500Y33434106D01*
X35858606Y33306819D01*
X35858610Y33306810D01*
X35882234Y33265892D01*
X35924500Y33192686D01*
X36017686Y33099500D01*
X36131814Y33033608D01*
X36259105Y32999501D01*
X36259106Y32999500D01*
X36259108Y32999500D01*
X36390894Y32999500D01*
X36390894Y32999501D01*
X36518186Y33033608D01*
X36632314Y33099500D01*
X36725500Y33192686D01*
X36791392Y33306814D01*
X36825499Y33434106D01*
X36825500Y33434106D01*
X36825500Y33520495D01*
X36847174Y33572821D01*
X36899500Y33594495D01*
X36918646Y33591974D01*
X37041705Y33559001D01*
X37041706Y33559000D01*
X37041708Y33559000D01*
X37173494Y33559000D01*
X37173494Y33559001D01*
X37300786Y33593108D01*
X37414914Y33659000D01*
X37508100Y33752186D01*
X37573992Y33866314D01*
X37608099Y33993606D01*
X37608100Y33993606D01*
X37608100Y34125394D01*
X37608099Y34125395D01*
X37573993Y34252682D01*
X37573992Y34252686D01*
X37540443Y34310795D01*
X38940100Y34310795D01*
X38940100Y34179006D01*
X38974206Y34051719D01*
X38974210Y34051710D01*
X39007757Y33993606D01*
X39040100Y33937586D01*
X39133286Y33844400D01*
X39247414Y33778508D01*
X39374705Y33744401D01*
X39374706Y33744400D01*
X39374708Y33744400D01*
X39506494Y33744400D01*
X39506494Y33744401D01*
X39633786Y33778508D01*
X39747914Y33844400D01*
X39841100Y33937586D01*
X39906992Y34051714D01*
X39941099Y34179006D01*
X39941100Y34179006D01*
X39941100Y34310794D01*
X39941099Y34310795D01*
X39906993Y34438082D01*
X39906992Y34438086D01*
X39841100Y34552214D01*
X39747914Y34645400D01*
X39633790Y34711290D01*
X39633781Y34711294D01*
X39506494Y34745400D01*
X39506492Y34745400D01*
X39374708Y34745400D01*
X39374706Y34745400D01*
X39247418Y34711294D01*
X39247409Y34711290D01*
X39133285Y34645400D01*
X39040100Y34552215D01*
X38974210Y34438091D01*
X38974206Y34438082D01*
X38940100Y34310795D01*
X37540443Y34310795D01*
X37508100Y34366814D01*
X37414914Y34460000D01*
X37300790Y34525890D01*
X37300781Y34525894D01*
X37173494Y34560000D01*
X37173492Y34560000D01*
X37041708Y34560000D01*
X37041706Y34560000D01*
X36914418Y34525894D01*
X36914409Y34525890D01*
X36800285Y34460000D01*
X36707100Y34366815D01*
X36641210Y34252691D01*
X36641206Y34252682D01*
X36607100Y34125395D01*
X36607100Y34039006D01*
X36585426Y33986680D01*
X36533100Y33965006D01*
X36513947Y33967528D01*
X36390894Y34000500D01*
X36390892Y34000500D01*
X36259108Y34000500D01*
X36259106Y34000500D01*
X36131818Y33966394D01*
X36131809Y33966390D01*
X36017685Y33900500D01*
X35924500Y33807315D01*
X35858610Y33693191D01*
X35858606Y33693182D01*
X35824500Y33565895D01*
X20663229Y33565895D01*
X20593090Y33606390D01*
X20593081Y33606394D01*
X20465794Y33640500D01*
X20465792Y33640500D01*
X20334008Y33640500D01*
X20334006Y33640500D01*
X20206718Y33606394D01*
X20206709Y33606390D01*
X20092585Y33540500D01*
X19999400Y33447315D01*
X19933510Y33333191D01*
X19933506Y33333182D01*
X19899400Y33205895D01*
X250500Y33205895D01*
X250500Y34611895D01*
X16065500Y34611895D01*
X16065500Y34480106D01*
X16099606Y34352819D01*
X16099607Y34352816D01*
X16099608Y34352814D01*
X16165500Y34238686D01*
X16258686Y34145500D01*
X16372814Y34079608D01*
X16500105Y34045501D01*
X16500106Y34045500D01*
X16500108Y34045500D01*
X16631894Y34045500D01*
X16631894Y34045501D01*
X16759186Y34079608D01*
X16873314Y34145500D01*
X16966500Y34238686D01*
X17032392Y34352814D01*
X17066499Y34480106D01*
X17066500Y34480106D01*
X17066500Y34611894D01*
X17066499Y34611895D01*
X17057521Y34645400D01*
X17032392Y34739186D01*
X16966500Y34853314D01*
X16873314Y34946500D01*
X16839721Y34965895D01*
X37849500Y34965895D01*
X37849500Y34834106D01*
X37883606Y34706819D01*
X37883607Y34706816D01*
X37883608Y34706814D01*
X37949500Y34592686D01*
X38042686Y34499500D01*
X38156814Y34433608D01*
X38284105Y34399501D01*
X38284106Y34399500D01*
X38284108Y34399500D01*
X38415894Y34399500D01*
X38415894Y34399501D01*
X38543186Y34433608D01*
X38657314Y34499500D01*
X38750500Y34592686D01*
X38816392Y34706814D01*
X38850499Y34834106D01*
X38850500Y34834106D01*
X38850500Y34965894D01*
X38850499Y34965895D01*
X38816393Y35093182D01*
X38816392Y35093186D01*
X38750500Y35207314D01*
X38657314Y35300500D01*
X38630649Y35315895D01*
X38543190Y35366390D01*
X38543181Y35366394D01*
X38415894Y35400500D01*
X38415892Y35400500D01*
X38284108Y35400500D01*
X38284106Y35400500D01*
X38156818Y35366394D01*
X38156809Y35366390D01*
X38042685Y35300500D01*
X37949500Y35207315D01*
X37883610Y35093191D01*
X37883606Y35093182D01*
X37849500Y34965895D01*
X16839721Y34965895D01*
X16759190Y35012390D01*
X16759181Y35012394D01*
X16631894Y35046500D01*
X16631892Y35046500D01*
X16500108Y35046500D01*
X16500106Y35046500D01*
X16372818Y35012394D01*
X16372809Y35012390D01*
X16258685Y34946500D01*
X16165500Y34853315D01*
X16099610Y34739191D01*
X16099606Y34739182D01*
X16065500Y34611895D01*
X250500Y34611895D01*
X250500Y35315895D01*
X9027500Y35315895D01*
X9027500Y35184106D01*
X9061606Y35056819D01*
X9061607Y35056816D01*
X9061608Y35056814D01*
X9127500Y34942686D01*
X9220686Y34849500D01*
X9334814Y34783608D01*
X9462105Y34749501D01*
X9462106Y34749500D01*
X9462108Y34749500D01*
X9593894Y34749500D01*
X9593894Y34749501D01*
X9721186Y34783608D01*
X9835314Y34849500D01*
X9928500Y34942686D01*
X9994392Y35056814D01*
X10028499Y35184106D01*
X10028500Y35184106D01*
X10028500Y35315894D01*
X10028499Y35315895D01*
X10005829Y35400500D01*
X9994392Y35443186D01*
X9928500Y35557314D01*
X9835314Y35650500D01*
X9721190Y35716390D01*
X9721181Y35716394D01*
X9593894Y35750500D01*
X9593892Y35750500D01*
X9462108Y35750500D01*
X9462106Y35750500D01*
X9334818Y35716394D01*
X9334809Y35716390D01*
X9220685Y35650500D01*
X9127500Y35557315D01*
X9061610Y35443191D01*
X9061606Y35443182D01*
X9027500Y35315895D01*
X250500Y35315895D01*
X250500Y36337195D01*
X29244100Y36337195D01*
X29244100Y36205406D01*
X29278206Y36078119D01*
X29278207Y36078116D01*
X29278208Y36078114D01*
X29344100Y35963986D01*
X29437286Y35870800D01*
X29551414Y35804908D01*
X29678705Y35770801D01*
X29678706Y35770800D01*
X29678708Y35770800D01*
X29810494Y35770800D01*
X29810494Y35770801D01*
X29937786Y35804908D01*
X30051914Y35870800D01*
X30145100Y35963986D01*
X30210992Y36078114D01*
X30245099Y36205406D01*
X30245100Y36205406D01*
X30245100Y36337194D01*
X30245099Y36337195D01*
X30210993Y36464482D01*
X30210992Y36464486D01*
X30145100Y36578614D01*
X30051914Y36671800D01*
X29937790Y36737690D01*
X29937781Y36737694D01*
X29810494Y36771800D01*
X29810492Y36771800D01*
X29678708Y36771800D01*
X29678706Y36771800D01*
X29551418Y36737694D01*
X29551409Y36737690D01*
X29437285Y36671800D01*
X29344100Y36578615D01*
X29278210Y36464491D01*
X29278206Y36464482D01*
X29244100Y36337195D01*
X250500Y36337195D01*
X250500Y37765895D01*
X29746100Y37765895D01*
X29746100Y37634106D01*
X29780206Y37506819D01*
X29780210Y37506810D01*
X29821723Y37434908D01*
X29846100Y37392686D01*
X29939286Y37299500D01*
X30053414Y37233608D01*
X30180705Y37199501D01*
X30180706Y37199500D01*
X30180708Y37199500D01*
X30312494Y37199500D01*
X30312494Y37199501D01*
X30439786Y37233608D01*
X30553914Y37299500D01*
X30647100Y37392686D01*
X30712992Y37506814D01*
X30721055Y37536906D01*
X30739702Y37606495D01*
X37802600Y37606495D01*
X37802600Y37474706D01*
X37836706Y37347419D01*
X37836710Y37347410D01*
X37864371Y37299500D01*
X37902600Y37233286D01*
X37995786Y37140100D01*
X38109914Y37074208D01*
X38237205Y37040101D01*
X38237206Y37040100D01*
X38237208Y37040100D01*
X38368994Y37040100D01*
X38368994Y37040101D01*
X38496286Y37074208D01*
X38610414Y37140100D01*
X38703600Y37233286D01*
X38769492Y37347414D01*
X38803599Y37474706D01*
X38803600Y37474706D01*
X38803600Y37606494D01*
X38803599Y37606495D01*
X38791536Y37651514D01*
X38769492Y37733786D01*
X38703600Y37847914D01*
X38610414Y37941100D01*
X38582838Y37957021D01*
X38496290Y38006990D01*
X38496281Y38006994D01*
X38368994Y38041100D01*
X38368992Y38041100D01*
X38237208Y38041100D01*
X38237206Y38041100D01*
X38109918Y38006994D01*
X38109909Y38006990D01*
X37995785Y37941100D01*
X37902600Y37847915D01*
X37836710Y37733791D01*
X37836706Y37733782D01*
X37802600Y37606495D01*
X30739702Y37606495D01*
X30746133Y37630495D01*
X30746133Y37630496D01*
X30747099Y37634103D01*
X30747100Y37634106D01*
X30747100Y37765894D01*
X30747099Y37765895D01*
X30712993Y37893182D01*
X30712992Y37893186D01*
X30647100Y38007314D01*
X30553914Y38100500D01*
X30543200Y38106686D01*
X30439790Y38166390D01*
X30439781Y38166394D01*
X30312494Y38200500D01*
X30312492Y38200500D01*
X30180708Y38200500D01*
X30180706Y38200500D01*
X30053418Y38166394D01*
X30053409Y38166390D01*
X29939285Y38100500D01*
X29846100Y38007315D01*
X29780210Y37893191D01*
X29780206Y37893182D01*
X29746100Y37765895D01*
X250500Y37765895D01*
X250500Y38479895D01*
X13307900Y38479895D01*
X13307900Y38348106D01*
X13342006Y38220819D01*
X13342010Y38220810D01*
X13373430Y38166390D01*
X13407900Y38106686D01*
X13501086Y38013500D01*
X13615214Y37947608D01*
X13742505Y37913501D01*
X13742506Y37913500D01*
X13742508Y37913500D01*
X13874294Y37913500D01*
X13874294Y37913501D01*
X14001586Y37947608D01*
X14115714Y38013500D01*
X14208900Y38106686D01*
X14274792Y38220814D01*
X14308899Y38348106D01*
X14308900Y38348106D01*
X14308900Y38479894D01*
X14308899Y38479895D01*
X14274793Y38607182D01*
X14274792Y38607186D01*
X14208900Y38721314D01*
X14115714Y38814500D01*
X14001590Y38880390D01*
X14001581Y38880394D01*
X13874294Y38914500D01*
X13874292Y38914500D01*
X13742508Y38914500D01*
X13742506Y38914500D01*
X13615218Y38880394D01*
X13615209Y38880390D01*
X13501085Y38814500D01*
X13407900Y38721315D01*
X13342010Y38607191D01*
X13342006Y38607182D01*
X13307900Y38479895D01*
X250500Y38479895D01*
X250500Y40928395D01*
X23212000Y40928395D01*
X23212000Y40796606D01*
X23246106Y40669319D01*
X23246107Y40669316D01*
X23246108Y40669314D01*
X23312000Y40555186D01*
X23405186Y40462000D01*
X23519314Y40396108D01*
X23646605Y40362001D01*
X23646606Y40362000D01*
X23646608Y40362000D01*
X23778394Y40362000D01*
X23778394Y40362001D01*
X23905686Y40396108D01*
X24019814Y40462000D01*
X24113000Y40555186D01*
X24178892Y40669314D01*
X24212999Y40796606D01*
X24213000Y40796606D01*
X24213000Y40928394D01*
X24212999Y40928395D01*
X24178893Y41055682D01*
X24178892Y41055686D01*
X24113000Y41169814D01*
X24019814Y41263000D01*
X23905690Y41328890D01*
X23905681Y41328894D01*
X23778394Y41363000D01*
X23778392Y41363000D01*
X23646608Y41363000D01*
X23646606Y41363000D01*
X23519318Y41328894D01*
X23519309Y41328890D01*
X23405185Y41263000D01*
X23312000Y41169815D01*
X23246110Y41055691D01*
X23246106Y41055682D01*
X23212000Y40928395D01*
X250500Y40928395D01*
X250500Y44675500D01*
X272174Y44727826D01*
X324500Y44749500D01*
X24926000Y44749500D01*
X24978326Y44727826D01*
G37*
%TD.AperFunction*%
%TD*%
M02*
